<svg width="199" height="255" viewBox="0 0 199 255" fill="none" xmlns="http://www.w3.org/2000/svg">
<path d="M90.8171 39.7111C90.5984 36.1292 89.9278 32.5927 88.8199 29.1903C85.8901 20.1918 80.1023 12.4317 72.3765 7.17887C65.6852 2.65746 57.8422 0.26971 49.8249 0.314586H41.0777C33.0605 0.26971 25.2174 2.65746 18.5261 7.17887C10.8003 12.4317 5.01254 20.1918 2.08278 29.1903C0.960065 32.5775 0.289397 36.1146 0.0855774 39.6959C-0.42454 47.7247 1.35347 55.7382 5.21693 62.7366L21.617 92.9702C22.0394 93.7616 22.8558 94.239 23.7303 94.239H28.5559V118.951H26.1357C24.8092 118.951 23.7161 120.055 23.7161 121.428V136.262C23.7303 143.082 29.1241 148.618 35.7864 148.618H55.102C61.7637 148.602 67.1723 143.082 67.1723 136.262V121.428C67.1723 120.07 66.0934 118.951 64.7521 118.951H62.3325V94.239H67.1865C68.0616 94.239 68.878 93.7465 69.3005 92.9702L85.6857 62.7517C89.5492 55.7382 91.3272 47.7392 90.8171 39.7111V39.7111ZM82.9888 27.5042H69.432C68.2506 23.4899 66.6036 19.6247 64.5192 15.9985C64.0524 15.1924 63.5713 14.4465 63.105 13.715C65.6414 13.2977 68.1345 12.7004 70.598 11.9544C76.0356 15.8941 80.3215 21.2664 82.9888 27.5042ZM64.3877 27.5042H47.871V15.0736C51.2385 14.999 54.5332 14.8049 57.7112 14.4465C58.6147 15.7001 59.504 17.0429 60.3643 18.5354C62.0114 21.3708 63.3527 24.385 64.3877 27.5042ZM41.0777 5.25386H49.8249C54.8834 5.23929 59.898 6.3134 64.5335 8.41791C62.6678 8.80548 60.6706 9.13418 58.5567 9.40286C49.8391 10.4624 41.0345 10.4624 32.3312 9.40286C30.2178 9.13418 28.2206 8.80548 26.3544 8.41791C30.9904 6.32856 36.005 5.23929 41.0777 5.25386ZM43.0317 15.0736V27.5042H26.5149C27.5499 24.385 28.8913 21.3708 30.5235 18.5354C31.3986 17.0283 32.2879 15.7001 33.1914 14.4465C36.3842 14.8049 39.6783 14.999 43.0317 15.0736ZM20.3047 11.9544C22.7539 12.7004 25.2612 13.2977 27.7834 13.715C27.3023 14.4616 26.8354 15.1924 26.3544 16.0136C24.2843 19.6247 22.6372 23.4899 21.4564 27.5042H7.89903C10.5817 21.2664 14.867 15.8941 20.3047 11.9544ZM6.17909 32.4435H84.7235C85.1756 34.0701 85.5109 35.7113 85.7444 37.3828H5.15829C5.39171 35.7264 5.72705 34.0701 6.17909 32.4435V32.4435ZM66.7641 42.3372C66.7493 50.3211 64.7521 58.1703 60.9473 65.1395L47.871 89.2251V42.3372H66.7641ZM57.5216 94.239V118.951H47.8567V94.239H57.5216ZM43.0317 42.3372V89.2251L29.9554 65.1395C26.1505 58.1703 24.1385 50.3211 24.1385 42.3372H43.0317ZM25.1445 89.2997L9.44419 60.3342C6.42675 54.8425 4.83776 48.635 4.83776 42.3372H19.3283C19.3425 51.1714 21.5441 59.8418 25.7566 67.5418L37.565 89.2997H25.1445ZM43.0317 94.239V118.951H33.3662V94.239H43.0317ZM55.1162 143.678H35.8006C31.8068 143.678 28.5559 140.365 28.5559 136.262V123.906H62.3615V136.262C62.3467 140.351 59.1106 143.678 55.1162 143.678ZM81.4727 60.3342L65.7581 89.2997H53.3376L65.1603 67.5418C69.3733 59.8418 71.5744 51.1568 71.5892 42.3372H86.0797C86.0797 48.635 84.4907 54.8425 81.4727 60.3342Z" fill="white"/>
<path d="M143.748 104.721H164.996V109.072H143.748V104.721Z" fill="white"/>
<path d="M158.621 122.118C160.311 122.116 161.932 121.427 163.126 120.204C164.321 118.981 164.994 117.322 164.996 115.592V113.417H143.748V115.592C143.75 117.322 144.422 118.981 145.617 120.204C146.812 121.427 148.432 122.116 150.122 122.118H158.621Z" fill="white"/>
<path d="M143.748 85.144H164.996V100.369H143.748V85.144Z" fill="white"/>
<path d="M164.996 43.812H143.748V80.7909H164.996V43.812ZM160.746 72.0899C160.746 72.6669 160.522 73.2201 160.124 73.6281C159.725 74.036 159.185 74.2652 158.621 74.2652H150.122C149.559 74.2652 149.018 74.036 148.62 73.6281C148.221 73.2201 147.997 72.6669 147.997 72.0899V50.3377C147.997 49.7608 148.221 49.2075 148.62 48.7996C149.018 48.3916 149.559 48.1625 150.122 48.1625H158.621C159.185 48.1625 159.725 48.3916 160.124 48.7996C160.522 49.2075 160.746 49.7608 160.746 50.3377V72.0899Z" fill="white"/>
<path d="M164.996 6.83895C164.994 5.10891 164.321 3.4503 163.126 2.22697C161.932 1.00364 160.311 0.315491 158.621 0.313477H150.122C148.432 0.315491 146.812 1.00364 145.617 2.22697C144.422 3.4503 143.75 5.10891 143.748 6.83895V9.01411H164.996V6.83895Z" fill="white"/>
<path d="M152.248 52.5171H156.514V69.9184H152.248V52.5171Z" fill="white"/>
<path d="M143.748 13.3628H164.996V17.7131H143.748V13.3628Z" fill="white"/>
<path d="M143.748 22.0669H164.996V39.4682H143.748V22.0669Z" fill="white"/>
<path d="M186.244 52.5171H190.511V69.9184H186.244V52.5171Z" fill="white"/>
<path d="M177.746 104.721H198.994V109.072H177.746V104.721Z" fill="white"/>
<path d="M177.746 85.144H198.994V100.369H177.746V85.144Z" fill="white"/>
<path d="M177.746 115.592C177.748 117.322 178.42 118.981 179.615 120.204C180.81 121.427 182.43 122.116 184.12 122.118H192.62C194.31 122.116 195.93 121.427 197.125 120.204C198.32 118.981 198.992 117.322 198.994 115.592V113.417H177.746V115.592Z" fill="white"/>
<path d="M177.746 6.83895V9.01411H198.994V6.83895C198.992 5.10891 198.32 3.4503 197.125 2.22697C195.93 1.00364 194.31 0.315491 192.62 0.313477H184.12C182.43 0.315491 180.81 1.00364 179.615 2.22697C178.42 3.4503 177.748 5.10891 177.746 6.83895V6.83895Z" fill="white"/>
<path d="M177.746 80.7909H198.994V43.812H177.746V80.7909ZM181.995 50.3377C181.995 49.7608 182.219 49.2075 182.618 48.7996C183.016 48.3916 183.557 48.1625 184.12 48.1625H192.62C193.183 48.1625 193.724 48.3916 194.122 48.7996C194.52 49.2075 194.744 49.7608 194.744 50.3377V72.0899C194.744 72.6669 194.52 73.2201 194.122 73.6281C193.724 74.036 193.183 74.2652 192.62 74.2652H184.12C183.557 74.2652 183.016 74.036 182.618 73.6281C182.219 73.2201 181.995 72.6669 181.995 72.0899V50.3377Z" fill="white"/>
<path d="M177.746 22.0669H198.994V39.4682H177.746V22.0669Z" fill="white"/>
<path d="M177.746 13.3628H198.994V17.7131H177.746V13.3628Z" fill="white"/>
<path d="M196.139 248.451H187.484C194.722 242.943 198.991 234.258 199 225.026C199.017 215.304 194.312 206.211 186.447 200.764C178.582 195.316 168.586 194.228 159.777 197.861L140.787 160.605H156.093C157.673 160.605 158.953 159.294 158.953 157.677C158.953 156.06 157.673 154.749 156.093 154.749H140.787C138.786 154.749 136.93 155.819 135.893 157.57C134.856 159.322 134.789 161.502 135.715 163.317L140.303 172.318H86.4642L83.1262 166.461H90.303C91.8828 166.461 93.1633 165.151 93.1633 163.533C93.1633 161.916 91.8828 160.605 90.303 160.605H70.28C68.7001 160.605 67.4196 161.916 67.4196 163.533C67.4196 165.151 68.7001 166.461 70.28 166.461H76.5045L81.4645 175.164L67.1166 198.057C53.7988 192.269 38.3564 197.584 31.1594 210.432C23.9625 223.281 27.2824 239.609 38.8897 248.451H30.2336C28.6537 248.451 27.3732 249.762 27.3732 251.379C27.3732 252.997 28.6537 254.307 30.2336 254.307H113.187H196.139C197.719 254.307 199 252.997 199 251.379C199 249.762 197.719 248.451 196.139 248.451ZM139.394 178.174L116.797 213.937C114.768 213.235 112.586 213.134 110.504 213.644C110.361 213.679 110.235 213.749 110.095 213.79L89.7998 178.175H139.394V178.174ZM115.979 230.134C113.709 231.436 110.867 231.007 109.062 229.089C107.256 227.171 106.943 224.248 108.298 221.974L108.307 221.971C109.094 220.645 110.367 219.695 111.842 219.336C112.282 219.226 112.733 219.17 113.187 219.169C115.789 219.171 118.061 220.971 118.717 223.548C119.373 226.126 118.248 228.832 115.979 230.134ZM84.7023 180.845L105.154 216.733C103.659 218.178 102.617 220.045 102.16 222.097H84.4248C83.5754 213.519 79.0752 205.759 72.125 200.888L84.7023 180.845ZM69.0384 205.823C74.3511 209.61 77.8486 215.523 78.6639 222.097H58.838L69.0384 205.823ZM54.5436 248.266C42.5378 247.495 33.1653 237.339 33.0939 225.026C33.108 212.094 43.3453 201.615 55.9776 201.6C58.7032 201.605 61.406 202.112 63.9553 203.099L54.0381 218.911C52.9004 220.708 52.8109 222.997 53.8048 224.881C54.7987 226.765 56.7178 227.943 58.8091 227.954H78.6635C77.0891 240.162 66.5494 249.038 54.5436 248.266ZM73.0659 248.451C79.4972 243.554 83.623 236.117 84.4362 227.954H102.125C103.42 233.116 107.96 236.729 113.167 236.739C114.077 236.737 114.984 236.626 115.87 236.408C119.824 235.466 122.987 232.437 124.167 228.46C125.347 224.484 124.365 220.166 121.591 217.131L144.603 180.725L154.715 200.567C146.907 205.789 142.086 214.589 141.805 224.133C141.525 233.677 145.82 242.758 153.307 248.451H73.0659ZM170.395 248.451C157.757 248.451 147.512 237.963 147.512 225.026C147.516 217.348 151.198 210.161 157.366 205.793L167.858 226.381C168.589 227.816 170.318 228.372 171.72 227.623C173.121 226.874 173.664 225.104 172.932 223.67L162.44 203.09C164.983 202.11 167.678 201.605 170.395 201.6C183.033 201.6 193.279 212.088 193.279 225.026C193.279 237.964 183.034 248.451 170.395 248.451Z" fill="white"/>
</svg>
