<svg width="512" height="481" viewBox="0 0 512 481" fill="none" xmlns="http://www.w3.org/2000/svg">
<path d="M149.594 0.859863H102.9C89.54 0.859863 78.671 11.7289 78.671 25.0889V28.2499H173.823V25.0889C173.823 11.7289 162.954 0.859863 149.594 0.859863Z" fill="white"/>
<path d="M488.402 280.001L436.862 180.694H382.307V280.001H488.402Z" fill="white"/>
<path d="M186.312 181.546C186.312 164.538 198.99 150.701 214.573 150.701H277.033C292.616 150.701 305.293 164.538 305.293 181.546V280.001H352.306V165.694C352.306 157.41 359.022 150.694 367.306 150.694H497.564C505.501 150.694 511.962 144.237 511.967 136.3L512 84.996C511.997 70.248 499.999 58.25 485.25 58.25H26.75C12 58.25 0 70.25 0 85V280.001H186.312V181.546ZM112.996 214.417H70.77C62.486 214.417 55.77 207.701 55.77 199.417C55.77 191.133 62.486 184.417 70.77 184.417H112.997C121.281 184.417 127.997 191.133 127.997 199.417C127.997 207.701 121.28 214.417 112.996 214.417Z" fill="white"/>
<path d="M0.000976562 385.866C0.000976562 398.354 8.75398 408.828 20.445 411.497C25.135 376.248 55.372 348.96 91.883 348.96C128.622 348.96 159.009 376.592 163.405 412.162H186.311V310.002H0.000976562V385.866Z" fill="white"/>
<path d="M305.292 412.161H333.714C338.11 376.591 368.497 348.959 405.237 348.959C441.976 348.959 472.363 376.591 476.759 412.161H482.369C491.036 412.161 498.086 405.111 498.086 396.444V310.001H305.292V412.161Z" fill="white"/>
<path d="M434.904 450.804C451.338 434.369 451.338 407.723 434.903 391.288C418.469 374.854 391.823 374.854 375.388 391.288C358.954 407.723 358.954 434.369 375.388 450.804C391.823 467.238 418.469 467.238 434.904 450.804Z" fill="white"/>
<path d="M121.583 450.769C138.018 434.335 138.018 407.689 121.583 391.254C105.149 374.819 78.5026 374.819 62.0679 391.254C45.6333 407.689 45.6332 434.335 62.0679 450.769C78.5026 467.204 105.149 467.204 121.583 450.769Z" fill="white"/>
<path d="M275.292 181.546C275.292 181.216 275.251 180.933 275.195 180.701H216.407C216.351 180.933 216.31 181.216 216.31 181.546V412.162H275.291V181.546H275.292Z" fill="white"/>
</svg>
