<svg width="79" height="60" viewBox="0 0 79 60" fill="none" xmlns="http://www.w3.org/2000/svg">
<path d="M71.3818 22.8782C71.3815 22.8782 71.3812 22.878 71.3809 22.878C71.3765 22.8769 71.3722 22.8758 71.3678 22.8747C71.2437 22.8417 71.1181 22.8122 70.9919 22.7845C70.9629 22.7782 70.9339 22.7717 70.9047 22.7657C70.7776 22.7393 70.6497 22.7152 70.5207 22.6944C70.4975 22.6906 70.4745 22.6877 70.4513 22.6841C70.3331 22.666 70.2141 22.6502 70.0946 22.6369C70.0722 22.6344 70.0499 22.6316 70.0273 22.6292C69.8956 22.6156 69.7629 22.6053 69.6297 22.5977C69.6004 22.5961 69.5709 22.5949 69.5413 22.5934L9.01652 22.5825C8.87778 22.5825 8.73996 22.5869 8.60275 22.5934C8.57329 22.5949 8.54368 22.5961 8.51438 22.5979C8.38114 22.6055 8.24835 22.6156 8.11679 22.6293C8.0942 22.6317 8.07207 22.6347 8.04948 22.6371C7.92982 22.6504 7.81093 22.6662 7.6928 22.6842C7.6696 22.6879 7.6464 22.6907 7.62335 22.6945C7.49438 22.7154 7.36648 22.7395 7.23934 22.7659C7.21019 22.7719 7.18135 22.7784 7.15219 22.7847C7.02597 22.8122 6.90051 22.8418 6.77628 22.8749C6.77185 22.876 6.76758 22.8771 6.76315 22.8782C6.76285 22.8782 6.76254 22.8784 6.76224 22.8784C2.87791 23.9184 0 27.5818 0 31.9285V38.1592C0 39.4496 1.00931 40.4956 2.25413 40.4956H75.8902C77.1352 40.4956 78.1444 39.4494 78.1444 38.1592V31.9285C78.1444 27.5818 75.2665 23.9184 71.3818 22.8782Z" fill="white"/>
<path d="M32.3101 13.1411H18.7852V17.9119H32.3101V13.1411Z" fill="white"/>
<path d="M59.3648 13.1411H45.8398V17.9119H59.3648V13.1411Z" fill="white"/>
<path d="M69.125 0H9.0139C7.76893 0 6.75977 1.04621 6.75977 2.33653V18.1094C7.49313 17.9814 8.24604 17.9135 9.0139 17.9135H14.2737V10.8065C14.2737 9.51601 15.283 8.46996 16.5278 8.46996H34.5612C35.8062 8.46996 36.8153 9.51617 36.8153 10.8065V17.9135H41.3236V10.8065C41.3236 9.51601 42.3329 8.46996 43.5777 8.46996H61.6111C62.8561 8.46996 63.8652 9.51617 63.8652 10.8065V17.9135H69.125C69.8929 17.9135 70.6458 17.9812 71.3792 18.1094V2.33653C71.3792 1.04621 70.37 0 69.125 0Z" fill="white"/>
<path d="M75.8902 45.1733H2.25413C1.46399 45.1733 0.705589 45.0308 0 44.7715V56.8561C0 58.1464 1.00931 59.1926 2.25413 59.1926H12.0222C13.0565 59.1926 13.9582 58.4628 14.209 57.4228L16.0364 49.8464H62.108L63.9354 57.4228C64.1861 58.4628 65.0879 59.1926 66.1222 59.1926H75.8902C77.1352 59.1926 78.1444 58.1464 78.1444 56.8561V44.7715C77.4388 45.0308 76.6804 45.1733 75.8902 45.1733Z" fill="white"/>
</svg>
