<svg width="360" height="360" viewBox="0 0 360 360" fill="none" xmlns="http://www.w3.org/2000/svg">
<path d="M360 94.9219C360 77.4752 345.806 63.2812 328.359 63.2812H317.812V32.3438C317.812 14.5097 303.303 0 285.469 0H74.5312C56.6972 0 42.1875 14.5097 42.1875 32.3438V63.2812H31.6406C14.194 63.2812 0 77.4752 0 94.9219V147.853H42.1875V310.584H56.25V328.359C56.25 345.806 70.444 360 87.8906 360H102.15C119.597 360 133.791 345.806 133.791 328.359V310.584H226.21V328.359C226.21 345.806 240.404 360 257.851 360H272.109C289.556 360 303.75 345.806 303.75 328.359V310.584H317.812V147.853H360V94.9219ZM74.5312 21.0938H285.469C291.672 21.0938 296.719 26.1408 296.719 32.3438V42.1875H63.2812V32.3438C63.2812 26.1408 68.3283 21.0938 74.5312 21.0938ZM21.0938 126.759V94.9219C21.0938 89.1063 25.8251 84.375 31.6406 84.375H42.1875V126.759H21.0938ZM296.719 268.397V289.491H229.627V247.303H130.373V289.491H63.2812V268.397H105.763V247.303H63.2812V206.871C102.039 212.589 141.019 215.459 180 215.459C218.981 215.459 257.96 212.589 296.719 206.871V247.303H254.236V268.397H296.719ZM208.533 289.491H151.466V268.397H208.533V289.491ZM112.697 328.359C112.697 334.175 107.966 338.906 102.15 338.906H87.8906C82.0751 338.906 77.3438 334.175 77.3438 328.359V310.584H112.697V328.359ZM282.656 328.359C282.656 334.175 277.925 338.906 272.109 338.906H257.851C252.035 338.906 247.304 334.175 247.304 328.359V310.584H282.656V328.359ZM296.719 185.548C219.22 197.298 140.78 197.298 63.2812 185.548V147.853V63.2812H296.719V147.853V185.548ZM338.906 126.759H317.812V84.375H328.359C334.175 84.375 338.906 89.1063 338.906 94.9219V126.759Z" fill="white"/>
</svg>
