<svg width="77" height="69" viewBox="0 0 77 69" fill="none" xmlns="http://www.w3.org/2000/svg">
<path d="M76.7821 62.1268L68.1332 36.2463L68.0041 35.7968L61.9111 17.6091C72.5222 5.52802 72.1091 2.64657 70.0437 0.875382C67.9783 -0.895806 64.8801 -1.00154 53.8043 10.6301L6.55774 1.37767C5.89777 1.31013 5.23127 1.38329 4.60029 1.59258C3.96932 1.80188 3.38752 2.14274 2.89158 2.59368C1.78142 3.78329 0 5.76599 0 5.76599L43.2448 22.3411C36.1449 30.5626 28.8643 39.7094 24.1655 46.424L10.6369 45.4458C10.1499 45.464 9.68814 45.6721 9.34603 46.0274L8.23588 47.2435L20.5509 52.0547C19.7918 53.1452 19.2962 54.4046 19.1052 55.7293C18.1859 56.68 17.3879 57.7459 16.73 58.9016C17.7993 58.1291 18.7858 57.243 19.6731 56.2581C20.9954 55.9468 22.2313 55.3321 23.2876 54.4604L29.613 65.7748L30.7232 64.5588C30.8792 64.3853 30.9987 64.1808 31.0742 63.958C31.1498 63.7351 31.1797 63.4987 31.1621 63.2635L28.5803 50.3364C34.9315 45.0493 43.4513 36.96 51.0676 29.1879L72.9611 69L75.8785 65.8278C76.2982 65.3243 76.5982 64.7281 76.755 64.086C76.9118 63.4438 76.9211 62.7732 76.7821 62.1268Z" fill="white"/>
</svg>
