<svg width="512" height="512" viewBox="0 0 512 512" fill="none" xmlns="http://www.w3.org/2000/svg">
<g clip-path="url(#clip0)">
<path d="M496.236 176.587C454.759 44.0972 313.262 -29.9438 180.746 11.5162C48.247 52.9932 -25.803 194.524 15.666 327.014L31.948 321.914C-6.71499 198.405 62.32 66.4602 185.846 27.7892C245.686 9.06823 309.236 14.7652 364.769 43.8242C420.327 72.9002 461.233 121.856 479.963 181.688C498.684 241.519 492.995 305.061 463.928 360.611C434.869 416.169 385.913 457.075 326.073 475.805C225.916 507.149 116.13 467.566 59.028 379.529L44.716 388.809C91.916 461.596 172.703 503.508 256.45 503.499C281.355 503.499 306.541 499.797 331.165 492.07C395.346 471.984 447.86 428.102 479.042 368.518C510.224 308.933 516.322 240.769 496.236 176.587Z" fill="white"/>
<path d="M206.52 119.408L211.416 103.066L126.125 77.4788C123.14 76.5748 119.873 77.3938 117.647 79.6198L100.589 96.6778C98.602 98.6648 97.723 101.505 98.235 104.269C98.747 107.032 100.589 109.361 103.156 110.504L179.918 144.62L186.844 129.029L121.435 99.9528L126.109 95.2788L206.52 119.408Z" fill="white"/>
<path d="M285.747 68.6008C285.747 63.8928 281.934 60.0718 277.218 60.0718C277.209 60.0718 277.209 60.0718 277.201 60.0718C258.437 60.0718 240.79 67.3808 227.519 80.6528L155.193 152.971L125.759 145.61C122.851 144.885 119.78 145.729 117.656 147.853L100.598 164.911C98.739 166.77 97.835 169.38 98.159 171.982C98.483 174.583 99.984 176.903 102.236 178.251L143.056 202.746L167.551 243.566C168.899 245.818 171.21 247.319 173.82 247.643C174.161 247.686 174.511 247.703 174.861 247.703C177.104 247.703 179.279 246.816 180.9 245.213L197.958 228.155C200.073 226.031 200.926 222.961 200.201 220.052L192.849 190.652L266.327 117.899C278.864 104.772 285.764 87.5268 285.747 68.6008ZM177.385 181.935C175.244 184.05 174.383 187.138 175.108 190.063L182.469 219.497L176.55 225.416L156.583 192.136C155.858 190.933 154.86 189.927 153.658 189.211L120.378 169.244L126.297 163.325L155.731 170.686C158.639 171.411 161.71 170.567 163.834 168.443L239.572 92.7048C247.419 84.8498 257.295 79.7578 268.008 77.9068C266.319 88.4488 261.517 98.2228 254.148 105.942L177.385 181.935Z" fill="white"/>
<path d="M268.322 220.802L242.735 134.403L226.376 139.248L250.419 220.428L245.242 225L216.806 159.036L201.138 165.791L234.231 242.553C235.314 245.061 237.532 246.903 240.201 247.5C240.824 247.636 241.446 247.705 242.069 247.705C244.125 247.705 246.137 246.963 247.707 245.573L265.789 229.624C268.279 227.429 269.26 223.992 268.322 220.802Z" fill="white"/>
<path d="M166.604 470.286C105.86 499.071 58.208 502.79 35.896 480.487C-2.77504 441.816 39.2219 329.463 133.579 219.131L120.615 208.043C17.124 329.053 -22.681 446.046 23.828 492.547C36.818 505.528 55.164 512.002 77.919 512.002C104.444 512.002 136.957 503.209 173.905 485.698L166.604 470.286Z" fill="white"/>
<path d="M455.322 294.851C453.838 292.079 450.947 290.348 447.799 290.348H418.954L395.721 243.89C394.271 240.999 391.32 239.173 388.087 239.173H302.796C298.079 239.173 294.267 242.994 294.267 247.702V315.935C294.267 320.652 298.08 324.464 302.796 324.464H328.383V418.284C328.383 423.001 332.195 426.813 336.912 426.813H379.557C381.817 426.813 383.984 425.917 385.596 424.305L419.712 390.189C421.315 388.594 422.211 386.428 422.211 384.159V352.627L454.894 303.602C456.635 300.992 456.806 297.623 455.322 294.851ZM406.578 345.318C405.648 346.717 405.145 348.371 405.145 350.052V380.637L376.027 409.755H345.442H345.433V315.935C345.433 311.218 341.621 307.406 336.904 307.406H311.317V256.232H382.808L406.041 302.69C407.491 305.581 410.442 307.407 413.674 307.407H431.858L406.578 345.318Z" fill="white"/>
<path d="M461.267 222.115L429.607 166.71C428.089 164.049 425.257 162.411 422.204 162.411H371.03C368.181 162.411 365.52 163.835 363.934 166.206L349.409 187.998H328.385V145.353H371.03C373.299 145.353 375.457 144.457 377.06 142.854L408.677 111.237H447.791V94.1792H405.146C402.877 94.1792 400.719 95.0752 399.116 96.6782L367.499 128.295H319.856C315.139 128.295 311.327 132.116 311.327 136.824V196.527C311.327 201.235 315.14 205.056 319.856 205.056H353.972C356.821 205.056 359.482 203.632 361.068 201.261L375.593 179.469H417.258L448.918 234.874C450.436 237.535 453.268 239.173 456.321 239.173H490.437V222.115H461.267Z" fill="white"/>
<path d="M251.622 307.406H203.979L180.891 284.318C179.296 282.714 177.121 281.819 174.861 281.819H132.216C127.508 281.819 123.687 285.632 123.687 290.348V350.051C123.687 354.768 127.508 358.58 132.216 358.58H166.332V443.871C166.332 447.104 168.157 450.055 171.049 451.504C172.252 452.101 173.565 452.4 174.862 452.4C176.67 452.4 178.47 451.829 179.979 450.694L214.095 425.107C216.244 423.495 217.507 420.962 217.507 418.284V396.791L256.954 365.242C258.975 363.622 260.152 361.174 260.152 358.581V315.936C260.151 311.219 256.33 307.406 251.622 307.406ZM243.093 354.487L203.646 386.036C201.625 387.657 200.448 390.104 200.448 392.697V414.02L183.39 426.814V350.052C183.39 345.335 179.569 341.523 174.861 341.523H140.745V298.878H171.33L194.418 321.966C196.013 323.569 198.188 324.465 200.448 324.465H243.093V354.487V354.487Z" fill="white"/>
<path d="M79.8211 183.607L54.2341 140.962C52.6991 138.395 49.9181 136.825 46.9251 136.825H38.3961V153.883H42.0981L61.7751 186.677L40.8961 207.556C39.2921 209.151 38.3971 211.326 38.3971 213.586V239.173H12.8081V256.231H46.9241C51.6321 256.231 55.4531 252.41 55.4531 247.702V217.117L78.5411 194.029C81.3051 191.257 81.8341 186.967 79.8211 183.607Z" fill="white"/>
<path d="M268.689 8.88916V19.2942L241.029 26.2112C240.082 26.4502 239.178 26.8512 238.368 27.3882L216.9 41.7002L170.152 18.3222L162.519 33.5802L213.693 59.1672C214.896 59.7642 216.201 60.0632 217.506 60.0632C219.161 60.0632 220.807 59.5772 222.231 58.6302L246.59 42.3912L279.282 34.2202C283.077 33.2732 285.747 29.8622 285.747 25.9472V8.88916H268.689Z" fill="white"/>
</g>
<defs>
<clipPath id="clip0">
<rect width="512.001" height="512.001" fill="white"/>
</clipPath>
</defs>
</svg>
