<svg width="430" height="330" viewBox="0 0 430 330" fill="none" xmlns="http://www.w3.org/2000/svg">
<path d="M300.708 197.009C299.3 195.601 297.016 195.601 295.607 197.009C294.198 198.418 294.198 200.702 295.607 202.111L310.911 217.415C311.616 218.119 312.539 218.471 313.462 218.471C314.385 218.471 315.309 218.119 316.013 217.415C317.421 216.006 317.421 213.722 316.013 212.313L300.708 197.009Z" fill="white"/>
<path d="M290.504 207.212C289.095 205.804 286.811 205.804 285.403 207.212C283.994 208.622 283.994 210.905 285.403 212.314L290.504 217.415C291.208 218.119 292.131 218.472 293.054 218.472C293.977 218.472 294.901 218.119 295.605 217.415C297.014 216.006 297.014 213.722 295.605 212.314L290.504 207.212Z" fill="white"/>
<path d="M280.303 217.416C278.894 216.007 276.61 216.007 275.201 217.416C273.793 218.825 273.793 221.108 275.201 222.517L280.303 227.618C281.007 228.323 281.93 228.675 282.853 228.675C283.776 228.675 284.7 228.323 285.404 227.618C286.813 226.209 286.813 223.926 285.404 222.517L280.303 217.416Z" fill="white"/>
<path d="M270.098 227.618C268.69 226.21 266.406 226.209 264.997 227.618C263.588 229.027 263.588 231.311 264.997 232.72L280.302 248.024C281.006 248.729 281.929 249.081 282.852 249.081C283.775 249.081 284.699 248.729 285.403 248.024C286.812 246.615 286.812 244.331 285.403 242.923L270.098 227.618Z" fill="white"/>
<path d="M426.106 127.724L385.295 86.9128C383.251 84.8686 380.533 83.7427 377.642 83.7427C374.752 83.7427 372.034 84.8686 369.99 86.9123C367.946 88.9564 366.82 91.6739 366.82 94.5645C366.82 97.4552 367.946 100.173 369.99 102.217L377.642 109.869L367.025 120.486L364.474 117.935C363.797 117.259 362.88 116.879 361.923 116.879C360.966 116.879 360.049 117.259 359.372 117.936L351.721 125.588L328.764 102.632C326.72 100.588 324.002 99.4618 321.112 99.4618C318.221 99.4618 315.503 100.588 313.459 102.631C311.415 104.675 310.29 107.393 310.29 110.284C310.29 113.174 311.416 115.892 313.459 117.936L333.865 138.342L305.809 166.398C305.808 166.399 305.808 166.399 305.807 166.399C305.807 166.4 305.806 166.4 305.806 166.401L244.59 227.617C243.181 229.026 243.181 231.31 244.59 232.719L254.793 242.921L249.691 248.023C248.282 246.615 245.998 246.615 244.59 248.023L226.735 265.878C224.241 268.371 222.759 271.688 222.539 275.175L216.531 281.182C215.855 281.858 215.475 282.776 215.475 283.733C215.475 284.69 215.855 285.607 216.531 286.284L219.082 288.835L184.075 323.842C182.667 325.251 182.667 327.534 184.075 328.943C184.78 329.648 185.703 330 186.626 330C187.549 330 188.472 329.648 189.177 328.944L224.184 293.937L226.734 296.487C227.41 297.163 228.328 297.543 229.285 297.543C230.241 297.543 231.159 297.163 231.835 296.487L237.843 290.48C241.33 290.259 244.647 288.777 247.14 286.284L264.995 268.429C265.672 267.752 266.052 266.835 266.052 265.878C266.052 264.921 265.672 264.004 264.995 263.327L270.097 258.226L280.299 268.429C281.004 269.133 281.927 269.485 282.85 269.485C283.773 269.485 284.696 269.133 285.401 268.429L374.676 179.153L395.082 199.56C399.301 203.778 406.167 203.779 410.387 199.559C414.606 195.34 414.606 188.474 410.387 184.255L387.43 161.298L395.083 153.646C396.491 152.237 396.491 149.954 395.083 148.545L392.532 145.994L403.15 135.377L410.801 143.029C412.845 145.073 415.563 146.199 418.454 146.199C421.344 146.199 424.062 145.073 426.106 143.029C428.15 140.985 429.275 138.268 429.275 135.377C429.276 132.486 428.15 129.768 426.106 127.724V127.724ZM333.865 209.762L303.257 179.153L308.358 174.052L338.967 204.661L333.865 209.762ZM344.068 199.559L313.459 168.95L318.561 163.849L349.17 194.458L344.068 199.559C344.068 199.559 344.068 199.559 344.068 199.559V199.559ZM242.039 281.183C240.591 282.631 238.585 283.392 236.536 283.283C235.509 283.229 234.511 283.609 233.786 284.334L229.285 288.835L224.184 283.733L228.684 279.233C229.41 278.508 229.792 277.508 229.736 276.483C229.622 274.434 230.388 272.428 231.836 270.98L247.141 255.676L257.339 265.874C257.341 265.876 257.342 265.878 257.344 265.879L242.039 281.183ZM259.894 258.226L254.793 253.125L259.894 248.024L264.995 253.125L259.894 258.226ZM282.85 260.777L252.241 230.168L298.154 184.255L328.763 214.864L282.85 260.777ZM405.286 194.457C403.88 195.864 401.591 195.864 400.185 194.457L354.272 148.544C352.864 147.136 350.579 147.136 349.171 148.544C347.762 149.953 347.762 152.237 349.171 153.646L369.576 174.052L354.272 189.356L323.663 158.747L341.518 140.892C342.927 139.483 342.927 137.199 341.518 135.79L318.561 112.834C317.88 112.153 317.504 111.247 317.504 110.283C317.504 109.32 317.88 108.414 318.561 107.732C319.243 107.051 320.148 106.676 321.112 106.676C322.075 106.676 322.981 107.051 323.662 107.733L405.285 189.355C406.692 190.763 406.692 193.052 405.286 194.457V194.457ZM382.33 156.197L356.822 130.689L361.924 125.588L387.431 151.095L382.33 156.197ZM387.431 140.892L372.127 125.588L382.744 114.971L398.048 130.275L387.431 140.892ZM421.005 137.927C420.323 138.608 419.417 138.983 418.454 138.983C417.491 138.983 416.585 138.608 415.903 137.926L375.092 97.1146C374.41 96.4336 374.035 95.5274 374.035 94.564C374.035 93.6007 374.41 92.6945 375.092 92.013C375.773 91.3319 376.679 90.9568 377.642 90.9568C378.606 90.9568 379.512 91.3319 380.193 92.0135L421.005 132.825C421.686 133.506 422.061 134.412 422.061 135.376C422.061 136.34 421.686 137.245 421.005 137.927V137.927Z" fill="white"/>
<path d="M265.781 142.165C263.82 128.579 253.147 117.906 239.561 115.945V107.904C239.561 85.7189 222.697 67.6557 201.967 67.6557C181.833 67.6557 164.978 85.1704 164.372 106.701H164.628L164.372 106.745V193.908C164.372 221.772 143.54 244.399 117.931 244.399C92.3227 244.399 71.4908 221.741 71.4908 193.908V186.358C77.9041 186.358 84.7596 181.709 84.7596 168.666V157.542C113.146 150.284 133.412 125.91 133.412 98.2755V89.0538H124.566L124.38 31.4896C124.316 20.8343 116.67 11.7364 106.184 9.83951C103.922 2.91048 96.4714 -0.873318 89.5418 1.389C82.6128 3.65076 78.829 11.1017 81.0913 18.0313C83.3531 24.9603 90.804 28.7441 97.7336 26.4818C101.444 25.2705 104.428 22.4791 105.883 18.8578C111.55 20.47 115.475 25.6249 115.521 31.5162L115.72 89.0538H106.874V98.4038C106.521 113.788 96.2071 127.158 81.4158 131.403C73.5016 133.914 65.0041 133.914 57.0899 131.403C42.3157 127.143 32.0247 113.776 31.6847 98.4038V89.0538H18.416V31.556C18.4414 25.5779 22.4618 20.3544 28.2348 18.8003C30.9267 25.6531 38.664 29.0255 45.5168 26.3336C52.3695 23.6417 55.742 15.9039 53.0501 9.05168C50.3582 2.1995 42.6203 -1.17352 35.7681 1.51837C32.0551 2.97737 29.1902 6.02199 27.9606 9.8174C17.3606 11.6286 9.59948 20.8022 9.57018 31.556V89.0538H0.724365V98.2534C0.724365 125.919 21.0034 150.302 49.3763 157.542V168.666C49.3763 181.709 56.2318 186.358 62.645 186.358V193.908C62.645 226.637 87.4443 253.245 117.931 253.245C148.418 253.245 173.218 226.606 173.218 193.908V106.958C173.66 90.1728 186.566 76.5148 201.967 76.5148C217.818 76.5148 230.715 90.5973 230.715 107.917V115.945C213.792 118.388 202.053 134.087 204.495 151.011C206.938 167.935 222.638 179.674 239.561 177.231C256.485 174.788 268.224 159.088 265.781 142.165ZM93.6054 18.2873C91.1628 18.2873 89.1825 16.3069 89.1825 13.8644C89.1825 11.4218 91.1628 9.44145 93.6054 9.44145C96.0479 9.44145 98.0283 11.4218 98.0283 13.8644C98.0283 16.3069 96.0479 18.2873 93.6054 18.2873ZM40.5305 9.44145C42.9731 9.44145 44.9534 11.4218 44.9534 13.8644C44.9534 16.3069 42.9731 18.2873 40.5305 18.2873C38.088 18.2873 36.1076 16.3069 36.1076 13.8644C36.1076 11.4218 38.088 9.44145 40.5305 9.44145ZM9.57018 98.2534V97.8996H22.8389V98.4038C23.1706 117.627 35.96 134.404 54.4096 139.815C64.0775 142.877 74.4547 142.877 84.1227 139.815C102.581 134.411 115.382 117.634 115.72 98.4038V97.8996H124.566V98.2534C124.566 122.858 105.6 144.508 79.4521 149.745C73.312 150.974 67.0226 151.283 60.7918 150.66C58.7407 150.461 56.7018 150.153 54.6838 149.736C28.5356 144.508 9.57018 122.858 9.57018 98.2534ZM62.645 177.512C58.6644 177.512 58.2221 171.32 58.2221 168.666V159.281C58.576 159.325 58.9386 159.343 59.2969 159.378C59.7392 159.427 60.1815 159.462 60.6238 159.502C62.7158 159.688 64.8255 159.811 66.9529 159.816H67.1741C69.2971 159.816 71.4024 159.688 73.4812 159.502C73.9234 159.462 74.3923 159.427 74.8478 159.378C75.1972 159.338 75.5599 159.325 75.9093 159.281V168.666C75.9093 171.32 75.467 177.512 71.4864 177.512H62.645ZM235.138 168.666C222.925 168.666 213.024 158.765 213.024 146.552C213.024 134.338 222.925 124.437 235.138 124.437C247.352 124.437 257.253 134.338 257.253 146.552C257.238 158.759 247.346 168.652 235.138 168.666Z" fill="white"/>
<path d="M235.14 133.281C227.811 133.281 221.871 139.222 221.871 146.55C221.871 153.878 227.811 159.819 235.14 159.819C242.468 159.819 248.408 153.878 248.408 146.55C248.408 139.222 242.468 133.281 235.14 133.281ZM235.14 150.973C232.697 150.973 230.717 148.993 230.717 146.55C230.717 144.107 232.697 142.127 235.14 142.127C237.582 142.127 239.562 144.107 239.562 146.55C239.562 148.993 237.582 150.973 235.14 150.973Z" fill="white"/>
</svg>
