<svg width="59" height="74" viewBox="0 0 59 74" fill="none" xmlns="http://www.w3.org/2000/svg">
<path d="M20.6676 35.2186C19.8363 34.3747 18.4882 34.3747 17.6568 35.2186C16.8253 36.0624 16.8253 37.4305 17.6568 38.2744L24.2804 44.9969C24.6961 45.4188 25.241 45.6299 25.7857 45.6299C26.3304 45.6299 26.8755 45.419 27.291 44.9969L40.538 31.552C41.3695 30.7081 41.3695 29.34 40.538 28.4962C39.7067 27.6523 38.3587 27.6523 37.5272 28.4962L25.7856 40.4131L20.6676 35.2186Z" fill="white"/>
<path d="M56.0509 10.0838C49.9144 10.0838 44.3236 6.66164 41.4607 1.15272C41.0924 0.443687 40.3674 0 39.5777 0H18.615C17.8253 0 17.1003 0.443687 16.7318 1.15272C13.869 6.66164 8.27826 10.0838 2.129 10.0838C0.953224 10.0838 0 11.0513 0 12.2446V34.249C0 43.0951 2.72327 51.5422 7.87531 58.6772C13.0276 65.8122 20.1439 70.9915 28.4552 73.6554C28.6638 73.7222 28.88 73.7556 29.0963 73.7556C29.3126 73.7556 29.5288 73.7222 29.7374 73.6554C38.0488 70.9915 45.165 65.8122 50.3173 58.6772C55.4694 51.5422 58.1926 43.0951 58.1926 34.249V12.2446C58.1926 11.0513 57.2266 10.0838 56.0509 10.0838ZM53.9346 34.249C53.9346 50.2411 43.9814 64.2498 29.0963 69.3225C14.2112 64.2498 4.258 50.2411 4.258 34.249V14.2969C10.7015 13.6331 16.464 9.96308 19.8533 4.32163H38.3394C41.727 9.9602 47.486 13.6294 53.9346 14.2959V34.249Z" fill="white"/>
<path d="M36.7043 9.43848C36.2999 8.9363 35.6945 8.64502 35.0556 8.64502H23.1381C22.4992 8.64502 21.894 8.9363 21.4897 9.43848C18.4793 13.1769 14.4995 15.95 9.98064 17.4577C9.10704 17.7491 8.5166 18.577 8.5166 19.5105V34.2513C8.5166 47.4846 16.2731 59.3181 28.2775 64.3986C28.5398 64.5095 28.8185 64.5649 29.0969 64.5649C29.3754 64.5649 29.6542 64.5095 29.9163 64.3986C41.9207 59.3181 49.6772 47.4846 49.6772 34.2513V19.5119C49.6772 18.5786 49.0869 17.7507 48.2133 17.4591C43.6943 15.9508 39.7145 13.1775 36.7043 9.43848ZM45.4193 34.2513C45.4193 45.4307 39.042 55.458 29.0969 60.0475C19.1518 55.4581 12.7746 45.4308 12.7746 34.2513V21.0307C17.1439 19.3072 21.029 16.5485 24.1247 12.9667H34.069C37.1648 16.549 41.0495 19.3081 45.4193 21.0318V34.2513Z" fill="white"/>
</svg>
