<svg width="360" height="512" viewBox="0 0 360 512" fill="none" xmlns="http://www.w3.org/2000/svg">
<path d="M180 0C80.742 0 0 80.742 0 180C0 213.53 9.287 246.255 26.851 274.644L169.747 504.903C175.672 514.472 189.642 514.326 195.382 504.698L334.63 272.212C351.211 244.424 360 212.534 360 180C360 80.742 279.258 0 180 0ZM180 270.2C129.655 270.2 89.8 229.221 89.8 180C89.8 130.371 130.371 89.8 180 89.8C229.629 89.8 270.2 130.371 270.2 180C270.2 228.787 230.881 270.2 180 270.2Z" fill="white"/>
</svg>
