<svg width="85" height="82" viewBox="0 0 85 82" fill="none" xmlns="http://www.w3.org/2000/svg">
<path d="M72.0764 26.9326C72.0755 26.9326 72.0744 26.9326 72.0736 26.9326H1.21452C0.544552 26.9319 0.000709284 27.4743 6.93452e-07 28.1443C6.93452e-07 28.1452 6.93452e-07 28.1463 6.93452e-07 28.1471V62.1595C-0.000707897 62.8295 0.541718 63.3733 1.21169 63.374C1.21258 63.374 1.21364 63.374 1.21452 63.374H49.3987C50.0693 63.374 50.6132 62.8302 50.6132 62.1595C50.6132 61.4888 50.0693 60.945 49.3987 60.945H2.42905V29.3617H70.859V32.3987C70.8583 33.0687 71.4008 33.6125 72.0707 33.6132C72.0716 33.6132 72.0727 33.6132 72.0736 33.6132C72.7435 33.6139 73.2874 33.0715 73.2881 32.4015C73.2881 32.4006 73.2881 32.3996 73.2881 32.3987V28.1471C73.2888 27.4772 72.7464 26.9335 72.0764 26.9326Z" fill="white"/>
<path d="M63.8374 21.2938L7.15016 8.53916C6.83555 8.46883 6.50588 8.52587 6.23325 8.69788C5.96097 8.87131 5.76841 9.14535 5.69755 9.46032L2.86319 22.2149C2.71757 22.87 3.13068 23.5191 3.78577 23.6647C4.44087 23.8103 5.08994 23.3972 5.23555 22.7421L7.8049 11.1765L63.3045 23.6633C63.3924 23.6837 63.4822 23.6938 63.5724 23.6931C64.2431 23.6918 64.7858 23.1471 64.7848 22.4764C64.7837 21.9094 64.3904 21.4187 63.8374 21.2938Z" fill="white"/>
<path d="M56.9539 14.2659L22.9415 0.0940542C22.3504 -0.152358 21.6693 0.100786 21.3826 0.673681L18.5483 6.3424C18.2282 6.93443 18.4485 7.67402 19.0407 7.99413C19.6328 8.31423 20.3724 8.09386 20.6925 7.50166C20.705 7.47845 20.7169 7.45471 20.7279 7.43062V7.43346L23.0535 2.77943L56.0157 16.5133C56.6364 16.7723 57.3496 16.4793 57.6086 15.8586C57.8676 15.2382 57.5746 14.525 56.9539 14.2659Z" fill="white"/>
<path d="M57.8123 32.6016H46.5641C45.8935 32.6016 45.3496 33.1454 45.3496 33.8161C45.3496 34.4868 45.8935 35.0306 46.5641 35.0306H57.8123C58.483 35.0306 59.0268 34.4868 59.0268 33.8161C59.0268 33.1454 58.483 32.6016 57.8123 32.6016Z" fill="white"/>
<path d="M35.2271 32.6821C28.3394 32.6821 22.7559 38.2656 22.7559 45.1533C22.7629 52.038 28.3424 57.6174 35.2271 57.6245C42.1147 57.6245 47.6982 52.041 47.6982 45.1533C47.6982 38.2656 42.1147 32.6821 35.2271 32.6821ZM35.2271 55.357C29.5916 55.357 25.0233 50.7887 25.0233 45.1533C25.0295 39.5206 29.5943 34.9558 35.2271 34.9496C40.8625 34.9496 45.4308 39.5179 45.4308 45.1533C45.4308 50.7887 40.8625 55.357 35.2271 55.357Z" fill="white"/>
<path d="M69.2394 36.6499C61.7283 36.6499 53.6504 38.4242 53.6504 42.3186V76.331C53.6504 80.2254 61.7283 81.9997 69.2394 81.9997C76.7504 81.9997 84.8284 80.2254 84.8284 76.331V42.3186C84.8284 38.4242 76.7504 36.6499 69.2394 36.6499ZM81.994 76.3097C81.78 77.0962 77.5299 79.1653 69.2394 79.1653C60.9489 79.1653 56.6987 77.0962 56.4848 76.331V74.1032C59.5005 75.6224 64.4819 76.331 69.2394 76.331C73.9969 76.331 78.9797 75.6153 81.994 74.1017V76.3097ZM81.994 70.641C81.78 71.4275 77.5299 73.4966 69.2394 73.4966C60.9489 73.4966 56.6987 71.4275 56.4848 70.6622V68.4344C59.5005 69.9537 64.4819 70.6622 69.2394 70.6622C73.9969 70.6622 78.9797 69.9466 81.994 68.433V70.641ZM81.994 64.9723C81.78 65.7588 77.5299 67.8279 69.2394 67.8279C60.9489 67.8279 56.6987 65.7588 56.4848 64.9935V62.7657C59.5005 64.2849 64.4819 64.9935 69.2394 64.9935C73.9969 64.9935 78.9797 64.2778 81.994 62.7643V64.9723ZM81.994 59.3035C81.78 60.0901 77.5299 62.1592 69.2394 62.1592C60.9489 62.1592 56.6987 60.0901 56.4848 59.3248V57.097C59.5005 58.6162 64.4819 59.3248 69.2394 59.3248C73.9969 59.3248 78.9797 58.6091 81.994 57.0956V59.3035ZM81.994 53.6348C81.78 54.4213 77.5299 56.4904 69.2394 56.4904C60.9489 56.4904 56.6987 54.4213 56.4848 53.6561V51.4283C59.5005 52.9404 64.4819 53.6561 69.2394 53.6561C73.9969 53.6561 78.9797 52.9404 81.994 51.4268V53.6348ZM81.994 47.9661C81.78 48.7526 77.5299 50.8217 69.2394 50.8217C60.9489 50.8217 56.6987 48.7526 56.4848 47.9873V45.7595C59.5005 47.2717 64.4819 47.9873 69.2394 47.9873C73.9969 47.9873 78.9797 47.2717 81.994 45.7581V47.9661ZM69.2394 45.153C60.9616 45.153 56.7129 43.0896 56.4848 42.3441V42.3356C56.7129 41.5463 60.9616 39.4843 69.2394 39.4843C77.459 39.4843 81.7106 41.5165 81.994 42.3186C81.7106 43.1207 77.459 45.153 69.2394 45.153Z" fill="white"/>
<path d="M23.8891 55.275H13.1766L8.09746 49.7197V40.508L13.7067 35.0306H23.8891C24.5598 35.0306 25.1036 34.4868 25.1036 33.8161C25.1036 33.1454 24.5598 32.6016 23.8891 32.6016H13.2135C12.896 32.6009 12.5908 32.7245 12.3632 32.9459L6.03263 39.1206C5.79613 39.3969 5.66646 39.7489 5.66699 40.1126V50.1916C5.66699 50.4947 5.78019 50.7868 5.98444 51.0107L11.7424 57.3087C11.9726 57.5606 12.2982 57.7043 12.6395 57.7041H23.8891C24.5598 57.7041 25.1036 57.1602 25.1036 56.4896C25.1036 55.8189 24.56 55.275 23.8891 55.275Z" fill="white"/>
<path d="M35.9357 43.736H34.5185C34.0778 43.736 33.8099 43.4894 33.8099 43.3817C33.8099 43.274 34.0778 43.0274 34.5185 43.0274H38.0615C38.8441 43.0274 39.4787 42.3929 39.4787 41.6102C39.4787 40.8276 38.8441 40.1931 38.0615 40.1931H36.6443C36.6443 39.4104 36.0098 38.7759 35.2271 38.7759C34.4445 38.7759 33.8099 39.4104 33.8099 40.1931V40.2568C32.2381 40.4788 31.0473 41.7888 30.9756 43.3746C31.0771 45.2327 32.6597 46.6604 34.5185 46.5704H35.9357C36.3765 46.5704 36.6443 46.817 36.6443 46.9247C36.6443 47.0324 36.3765 47.279 35.9357 47.279H32.3928C31.6101 47.279 30.9756 47.9135 30.9756 48.6961C30.9756 49.4788 31.6101 50.1133 32.3928 50.1133H33.8099C33.8099 50.896 34.4445 51.5305 35.2271 51.5305C36.0098 51.5305 36.6443 50.896 36.6443 50.1133V50.0496C38.2161 49.8276 39.4069 48.5176 39.4787 46.9318C39.3772 45.0737 37.7945 43.646 35.9357 43.736Z" fill="white"/>
</svg>
