<svg width="61" height="80" viewBox="0 0 61 80" fill="none" xmlns="http://www.w3.org/2000/svg">
<rect x="1.21875" y="0.5" width="58.5888" height="78.0906" stroke="white"/>
<path d="M59.0141 79.0906H49.8096V0H59.0141C59.4662 0 59.8997 0.179585 60.2194 0.499248C60.539 0.818911 60.7186 1.25247 60.7186 1.70454V77.3861C60.7186 77.8382 60.539 78.2717 60.2194 78.5914C59.8997 78.911 59.4662 79.0906 59.0141 79.0906V79.0906Z" fill="white"/>
<path d="M39.5817 58.6362H13.6728C11.79 58.6362 10.2637 60.1625 10.2637 62.0453V66.1362C10.2637 68.019 11.79 69.5453 13.6728 69.5453H39.5817C41.4645 69.5453 42.9908 68.019 42.9908 66.1362V62.0453C42.9908 60.1625 41.4645 58.6362 39.5817 58.6362Z" fill="white"/>
<path d="M39.242 25.9072C37.2997 22.9814 34.401 20.8215 31.042 19.7969C32.2059 21.7042 33.1081 23.7594 33.7244 25.9072L39.242 25.9072Z" fill="white"/>
<path d="M14.0127 25.907H19.549C20.1661 23.7565 21.0699 21.6989 22.236 19.7896C18.8673 20.8112 15.9597 22.9742 14.0127 25.907V25.907Z" fill="white"/>
<path d="M21.1524 33.9069C21.1498 35.8018 21.351 37.6915 21.7527 39.5433H31.5216C32.2967 35.9508 32.3214 32.2368 31.5943 28.6343H21.68C21.3276 30.3697 21.1509 32.1361 21.1524 33.9069Z" fill="white"/>
<path d="M26.628 19.1431C26.4284 19.1431 26.2297 19.1469 26.0319 19.1546C24.4122 21.1601 23.1807 23.45 22.4004 25.907H30.8744C30.0943 23.4504 28.863 21.1607 27.2437 19.1554C27.0395 19.1473 26.8342 19.1431 26.628 19.1431Z" fill="white"/>
<path d="M26.877 49.089C28.6023 47.0905 29.9207 44.7743 30.7583 42.2705H22.5166C23.3542 44.7743 24.6727 47.0905 26.398 49.089C26.5581 49.0917 26.7168 49.0917 26.877 49.089Z" fill="white"/>
<path d="M33.6221 42.2705C32.9544 44.487 31.9752 46.5975 30.7139 48.5386C34.2331 47.5518 37.2768 45.3255 39.2832 42.2705H33.6221Z" fill="white"/>
<path d="M41.7189 34.1198C41.7208 32.2414 41.365 30.3797 40.6706 28.6343H34.3702C35.0299 32.2428 35.0077 35.943 34.3047 39.5433H40.6952C41.3734 37.8157 41.7207 35.9759 41.7189 34.1198V34.1198Z" fill="white"/>
<path d="M22.5642 48.5451C21.3008 46.6022 20.3202 44.4895 19.6517 42.2705H13.9717C15.9827 45.3325 19.0354 47.5617 22.5642 48.5451V48.5451Z" fill="white"/>
<path d="M11.5361 34.1198C11.5343 35.9759 11.8816 37.8157 12.5599 39.5433H18.9692C18.2662 35.943 18.2439 32.2428 18.9037 28.6343H12.5844C11.89 30.3797 11.5343 32.2414 11.5361 34.1198V34.1198Z" fill="white"/>
<path d="M8.90039 8.18213H11.6277V10.9094H8.90039V8.18213Z" fill="white"/>
<path d="M41.6279 8.18213H44.3552V10.9094H41.6279V8.18213Z" fill="white"/>
<path d="M14.3555 8.18213H38.9008V10.9094H14.3555V8.18213Z" fill="white"/>
<rect x="1.21875" y="0.5" width="58.5888" height="78.0906" stroke="white"/>
</svg>
