<svg width="420" height="436" viewBox="0 0 420 436" fill="none" xmlns="http://www.w3.org/2000/svg">
<path d="M72.4133 254.14C56.4162 254.14 43.4478 267.109 43.4478 283.106C43.4478 299.103 56.4162 312.071 72.4133 312.071C88.4104 312.071 101.379 299.103 101.379 283.106C101.379 267.109 88.4104 254.14 72.4133 254.14ZM72.4133 297.588C64.4143 297.588 57.9305 291.105 57.9305 283.106C57.9305 275.107 64.4143 268.623 72.4133 268.623C80.4123 268.623 86.896 275.107 86.896 283.106C86.896 291.105 80.4123 297.588 72.4133 297.588Z" fill="white"/>
<path d="M238.966 261.383V246.9H123.104C119.105 246.9 115.863 250.142 115.863 254.141V312.072C115.863 316.071 119.105 319.314 123.104 319.314H238.966V304.831H130.345V290.348H238.966V275.865H130.345V261.383H238.966Z" fill="white"/>
<path d="M393.792 29.4993C357.798 -8.01739 298.206 -9.25205 260.689 26.7412C223.173 62.7354 221.938 122.327 257.931 159.844C258.831 160.782 259.751 161.702 260.689 162.602V210.692C260.689 214.691 263.932 217.934 267.931 217.934H282.413V243.901L270.052 256.262C267.225 259.09 267.225 263.674 270.052 266.501L282.413 278.863V330.798L270.052 343.159C267.225 345.986 267.225 350.57 270.052 353.398L279.415 362.761L270.052 372.124C267.225 374.952 267.225 379.536 270.052 382.364L320.742 433.053C323.57 435.88 328.154 435.88 330.981 433.053L367.188 396.846C368.546 395.489 369.31 393.647 369.31 391.727V217.934H383.793C387.792 217.934 391.034 214.691 391.034 210.692V162.602C428.551 126.608 429.785 67.016 393.792 29.4993ZM354.827 388.729L325.862 417.694L285.411 377.244L294.774 367.881C297.601 365.053 297.601 360.469 294.774 357.641L285.411 348.278L294.774 338.915C296.132 337.557 296.896 335.716 296.896 333.796V275.865C296.896 273.944 296.132 272.103 294.774 270.745L285.411 261.382L294.774 252.019C296.132 250.661 296.896 248.82 296.896 246.899V217.934H325.862V362.761H340.344V217.934H354.827V388.729ZM376.551 203.451H275.172V174.029C306.029 193.948 345.694 193.948 376.551 174.029V203.451ZM325.862 174.485C281.891 174.434 246.258 138.801 246.206 94.8301C246.206 50.8378 281.869 15.1749 325.862 15.1749C369.854 15.1749 405.517 50.8378 405.517 94.8301C405.517 138.822 369.854 174.485 325.862 174.485Z" fill="white"/>
<path d="M340.345 377.243H325.862V391.726H340.345V377.243Z" fill="white"/>
<path d="M325.862 29.6582C305.866 29.6582 289.655 45.8689 289.655 65.8651C289.679 85.8513 305.876 102.048 325.862 102.072C345.858 102.072 362.069 85.8613 362.069 65.8651C362.069 45.8689 345.859 29.6582 325.862 29.6582ZM325.862 87.5892C313.864 87.5892 304.138 77.8632 304.138 65.8651C304.138 53.867 313.864 44.141 325.862 44.141C337.86 44.141 347.586 53.867 347.586 65.8651C347.586 77.8632 337.86 87.5892 325.862 87.5892Z" fill="white"/>
<path d="M43.4483 232.416H238.966V217.934H109.924L122.177 144.426C126.189 119.95 147.375 102.005 172.178 102.072H210V87.5889H172.178C140.292 87.5092 113.06 110.578 107.897 142.044L95.2459 217.934H73.7824L88.7503 131.87C95.3264 93.6834 128.477 65.8004 167.225 65.8647H210V51.382H167.225C121.432 51.3095 82.2557 84.2578 74.4776 129.386L59.0824 217.934H50.6897V167.244C50.6897 163.245 47.4473 160.003 43.4483 160.003H7.24138C3.24233 160.003 0 163.245 0 167.244V196.21C0 200.209 3.24233 203.451 7.24138 203.451H36.2069V218.962C23.4566 222.254 14.5325 233.732 14.4828 246.899V319.313C14.5027 333.07 24.1808 344.921 37.6552 347.692L40.9283 360.792C42.9785 368.999 49.6179 375.263 57.931 376.831V427.934C57.931 431.933 61.1734 435.175 65.1724 435.175H152.069C156.068 435.175 159.31 431.933 159.31 427.934V377.244H238.966V362.761H62.0007C58.6742 362.764 55.774 360.5 54.9693 357.272L52.7245 348.278H238.966V333.796H43.4483C35.4493 333.796 28.9655 327.312 28.9655 319.313V246.899C28.9655 238.9 35.4502 232.416 43.4483 232.416ZM14.4828 188.968V174.485H36.2069V188.968H14.4828ZM72.4138 377.244H86.8966V406.209H101.379V377.244H115.862V391.727H130.345V377.244H144.828V420.692H72.4138V377.244V377.244Z" fill="white"/>
<path d="M362.069 116.554H289.655V131.036H362.069V116.554Z" fill="white"/>
</svg>
