<svg width="195" height="233" viewBox="0 0 195 233" fill="none" xmlns="http://www.w3.org/2000/svg">
<path d="M23.066 136.715V231.695H17.5889V139.211L23.066 136.715Z" fill="#597B91" stroke="white"/>
<path d="M57.2639 220.697V231.695H51.771V123.703L57.2639 121.22V197.548L53.199 201.673L53.0551 201.819V202.024V221.437V222.137L53.7169 221.91L57.2639 220.697Z" fill="#597B91" stroke="white"/>
<path d="M137.236 121.22L142.721 123.703V231.695H137.236V220.698L140.766 221.91L141.429 222.137V221.437V202.024V201.82L141.285 201.674L137.236 197.548V121.22Z" fill="#597B91" stroke="white"/>
<path d="M176.901 139.211V231.695H171.424V136.715L176.901 139.211Z" fill="#597B91" stroke="white"/>
<path d="M106.053 50.6394V50.8708L106.229 51.0206L140.499 80.104L140.822 79.7228L140.499 80.1041L171.461 106.372L193.998 125.499V137.098L106.76 97.5206L106.053 97.2001V97.9759V178.419V178.624L106.196 178.77L132.464 205.484V209.552L97.4124 197.432L97.249 197.375L97.0856 197.432L62.0263 209.552V205.484L88.3014 178.77L88.4449 178.624V178.419V97.9759V97.2001L87.7384 97.5206L0.5 137.098V125.499L32.9393 97.9574L32.9396 97.9572L63.9101 71.6975L63.9104 71.6973L88.2685 51.0206L88.4449 50.8708V50.6394V14.661C88.4449 7.28907 90.7148 3.77312 92.877 2.09103C93.9679 1.24238 95.0584 0.838244 95.8764 0.651151C96.2856 0.557559 96.6242 0.518855 96.8568 0.505714C96.9108 0.502663 96.9583 0.501032 96.999 0.500366L97.249 0.806322L97.4989 0.500366C97.5396 0.501032 97.5872 0.502663 97.6412 0.505714C97.8738 0.518855 98.2124 0.557559 98.6216 0.651151C99.4395 0.838244 100.53 1.24238 101.621 2.09103C103.783 3.77312 106.053 7.28907 106.053 14.661V50.6394Z" fill="#597B91" stroke="white"/>
</svg>
