<svg width="80" height="80" viewBox="0 0 80 80" fill="none" xmlns="http://www.w3.org/2000/svg">
<g clip-path="url(#clip0)">
<path d="M39.0434 77.7157L35.1572 76.4202V51.4356C36.6056 49.9557 37.5009 47.9321 37.5009 45.7025V30.0776C37.5009 27.7083 35.5733 25.7808 33.2041 25.7808H25.3916C23.0224 25.7808 21.0947 27.7083 21.0947 30.0776V45.7025C21.0947 47.9321 21.99 49.9557 23.4385 51.4356V77.2649C23.4385 77.7693 23.7611 78.2171 24.2397 78.3766L28.9272 79.9391C29.0502 79.9801 29.1752 79.9996 29.298 79.9996C29.7888 79.9996 30.2458 79.689 30.4095 79.198C30.6142 78.584 30.2825 77.9204 29.6684 77.7157L25.7822 76.4202V53.1125C26.8485 53.6203 28.0403 53.9056 29.2978 53.9056C30.5553 53.9056 31.7472 53.6205 32.8134 53.1125V77.2649C32.8134 77.7693 33.1361 78.2171 33.6147 78.3766L38.3022 79.9391C38.4251 79.9801 38.5501 79.9996 38.6729 79.9996C39.1637 79.9996 39.6207 79.689 39.7845 79.198C39.9892 78.584 39.6575 77.9204 39.0434 77.7157ZM23.4385 30.0776C23.4385 29.0007 24.3147 28.1245 25.3916 28.1245H33.2041C34.2811 28.1245 35.1572 29.0006 35.1572 30.0776V44.5307H23.4385V30.0776ZM29.298 51.5619C26.4683 51.5619 24.1008 49.5457 23.5564 46.8744H35.0394C34.495 49.5457 32.1276 51.5619 29.298 51.5619Z" fill="white"/>
<path d="M29.2978 7.03125C24.7747 7.03125 21.0947 10.7111 21.0947 15.2343C21.0947 19.7576 24.7747 23.4374 29.2978 23.4374C33.8209 23.4374 37.5009 19.7576 37.5009 15.2343C37.5009 10.7111 33.8209 7.03125 29.2978 7.03125ZM29.2978 21.0937C26.0669 21.0937 23.4385 18.4653 23.4385 15.2343C23.4385 12.0034 26.0669 9.37499 29.2978 9.37499C32.5287 9.37499 35.1572 12.0034 35.1572 15.2343C35.1572 18.4653 32.5287 21.0937 29.2978 21.0937Z" fill="white"/>
<path d="M14.0376 7.81262C14.7817 6.98278 15.2353 5.88732 15.2353 4.68748C15.2353 2.1028 13.1325 0 10.5478 0C7.96314 0 5.86034 2.1028 5.86034 4.68748C5.86034 5.88716 6.31393 6.98263 7.05799 7.81262C4.27534 9.12653 2.34473 11.9587 2.34473 15.2343C2.34473 19.7576 6.02471 23.4374 10.5478 23.4374C15.0709 23.4374 18.7509 19.7576 18.7509 15.2343C18.7509 11.9585 16.8203 9.12637 14.0376 7.81262ZM10.5478 2.34374C11.8402 2.34374 12.8916 3.39514 12.8916 4.68748C12.8916 5.97982 11.8402 7.03122 10.5478 7.03122C9.25548 7.03122 8.20408 5.97982 8.20408 4.68748C8.20408 3.39514 9.25548 2.34374 10.5478 2.34374ZM10.5478 9.37496C11.9031 9.37496 13.1512 9.83871 14.145 10.6142C11.9827 12.086 9.11283 12.086 6.95065 10.6142C7.94439 9.83871 9.19251 9.37496 10.5478 9.37496ZM10.5478 21.0937C7.31689 21.0937 4.68847 18.4652 4.68847 15.2343C4.68847 14.2082 4.9544 13.2434 5.41971 12.4037C6.9433 13.5087 8.74533 14.0623 10.5478 14.0623C12.3503 14.0623 14.1523 13.5089 15.6759 12.4037C16.1412 13.2434 16.4072 14.2082 16.4072 15.2343C16.4072 18.4652 13.7787 21.0937 10.5478 21.0937Z" fill="white"/>
<path d="M20.2944 77.7157L16.4081 76.4202V56.2494H17.58C18.2274 56.2494 18.7519 55.7247 18.7519 55.0775V30.0776C18.7519 27.7083 16.8242 25.7808 14.455 25.7808H6.64255C4.27334 25.7808 2.34569 27.7083 2.34569 30.0776V40.5868C0.831169 42.4601 0.00195312 44.7954 0.00195312 47.2127V55.0775C0.00195312 55.7247 0.526482 56.2494 1.17382 56.2494H4.68944V77.2649C4.68944 77.7693 5.01209 78.2171 5.49068 78.3766L10.1782 79.9391C10.3011 79.9801 10.4261 79.9996 10.5489 79.9996C11.0397 79.9996 11.4968 79.689 11.6605 79.198C11.8652 78.584 11.5333 77.9204 10.9194 77.7157L7.03318 76.4202V56.2494H14.0644V77.2649C14.0644 77.7693 14.3871 78.2171 14.8656 78.3766L19.5531 79.9391C19.6761 79.9801 19.8011 79.9996 19.9239 79.9996C20.4147 79.9996 20.8717 79.689 21.0355 79.198C21.2402 78.584 20.9083 77.9204 20.2944 77.7157ZM4.68944 30.0776C4.68944 29.0007 5.56568 28.1245 6.64255 28.1245H14.455C15.532 28.1245 16.4081 29.0006 16.4081 30.0776V39.8432H4.68944V30.0776ZM2.34569 53.9056V47.2127C2.34569 45.3868 2.95585 43.6219 4.07037 42.1869H16.4081V53.9056H2.34569Z" fill="white"/>
<path d="M52.79 4.81079L43.4151 0.123311C43.0518 -0.0584073 42.6204 -0.0390324 42.2748 0.174561C41.9293 0.388153 41.719 0.765339 41.719 1.17143V10.5228C41.7187 10.5391 41.7187 10.5555 41.719 10.5717V16.0151C41.7191 16.6623 42.2437 17.187 42.891 17.187C43.5384 17.187 44.0629 16.6623 44.0629 16.0151V11.2706L52.79 6.90703C53.1869 6.7086 53.4378 6.30282 53.4378 5.85891C53.4378 5.41501 53.1871 5.00923 52.79 4.81079ZM44.063 8.65031V3.06767L49.6457 5.85891L44.063 8.65031Z" fill="white"/>
<path d="M72.0408 28.9663C71.6825 27.6299 70.6946 26.549 69.4157 26.0618C71.1139 24.5577 72.1874 22.3634 72.1874 19.9218V15.2343C72.1874 10.7111 68.5074 7.03125 63.9843 7.03125C59.4612 7.03125 55.7812 10.7111 55.7812 15.2343V19.9218C55.7812 22.3634 56.8546 24.5577 58.5529 26.0618C57.2934 26.5418 56.3165 27.5976 55.9449 28.9062H52.2656C47.7425 28.9062 44.0625 25.2263 44.0625 20.7031C44.0625 20.0559 43.538 19.5312 42.8906 19.5312C42.2433 19.5312 41.7188 20.0559 41.7188 20.7031C41.7188 26.5187 46.45 31.2499 52.2656 31.2499H55.7812V45.703C55.7812 47.9325 56.6765 49.9561 58.1249 51.4361V76.4207L54.2387 77.7161C53.6246 77.9208 53.2929 78.5844 53.4976 79.1985C53.6614 79.6895 54.1185 80 54.6092 80C54.732 80 54.857 79.9806 54.98 79.9395L59.6674 78.3771C60.1459 78.2175 60.4687 77.7697 60.4687 77.2653V53.1129C61.5349 53.6207 62.7268 53.9061 63.9843 53.9061C65.2418 53.9061 66.4337 53.6209 67.4999 53.1129V76.4207L63.6137 77.7161C62.9996 77.9208 62.6679 78.5844 62.8726 79.1985C63.0363 79.6895 63.4935 80 63.9841 80C64.1069 80 64.2319 79.9806 64.3549 79.9395L69.0424 78.3771C69.5208 78.2175 69.8436 77.7697 69.8436 77.2653V51.4361C71.0491 50.2044 71.8694 48.5959 72.1111 46.8056C76.5502 46.2631 80 42.4734 80 37.8905C80 33.2833 76.5136 29.4771 72.0408 28.9663ZM58.1251 15.2343C58.1251 12.0034 60.7535 9.37499 63.9844 9.37499C67.2154 9.37499 69.8438 12.0034 69.8438 15.2343V15.625H67.4783C66.5951 14.6367 65.3304 14.0625 63.9844 14.0625C62.6385 14.0625 61.3738 14.6367 60.4906 15.625H58.1251V15.2343ZM58.1251 19.9218V17.9687H61.0612C61.4521 17.9687 61.8174 17.7737 62.0349 17.4489C62.472 16.7961 63.2009 16.4062 63.9844 16.4062C64.768 16.4062 65.4969 16.7961 65.934 17.4489C66.1516 17.7737 66.5168 17.9687 66.9077 17.9687H69.8438V19.9218C69.8438 23.1527 67.2154 25.7812 63.9844 25.7812C60.7535 25.7812 58.1251 23.1527 58.1251 19.9218ZM65.8988 28.1249L63.9844 31.5701L62.0701 28.1249H65.8988ZM63.9846 51.5623C61.1549 51.5623 58.7874 49.5461 58.2431 46.8748H69.726C69.1816 49.5461 66.8143 51.5623 63.9846 51.5623ZM69.8441 44.5311H65.1566V38.6702C65.1566 38.023 64.6321 37.4983 63.9848 37.4983C63.3374 37.4983 62.8129 38.023 62.8129 38.6702V44.5311H58.1254V30.078C58.1251 29.2218 58.6796 28.4943 59.4479 28.2313L62.9602 34.5519C63.1668 34.9238 63.559 35.1546 63.9846 35.1546C64.4102 35.1546 64.8023 34.9238 65.009 34.5519L68.5213 28.2313C69.2896 28.4943 69.8441 29.2219 69.8441 30.078V44.5311ZM72.1875 44.4255V31.3555C75.2919 31.9108 77.6563 34.629 77.6563 37.8905C77.6563 41.1522 75.2919 43.8702 72.1875 44.4255Z" fill="white"/>
</g>
<defs>
<clipPath id="clip0">
<rect width="80" height="80" fill="white"/>
</clipPath>
</defs>
</svg>
