<svg width="127" height="174" viewBox="0 0 127 174" fill="none" xmlns="http://www.w3.org/2000/svg">
<path d="M125.329 80.3061C125.025 79.6823 124.44 78.6264 124.75 77.9094C125.059 77.1924 124.756 76.3292 124.001 76.5416C123.245 76.754 122.658 76.2487 122.211 76.0075C121.879 75.8135 121.571 75.579 121.294 75.3094L121.506 75.3102L121.271 75.1177C121.457 74.9381 121.631 74.7469 121.792 74.5452C122.077 74.1633 122.054 74.0196 121.798 73.3002C121.782 73.1331 121.775 72.9653 121.776 72.7974C121.778 72.4143 121.638 72.0306 121.096 71.8847C120.554 71.7389 120.579 71.5235 120.439 70.9483C120.351 70.6166 120.173 70.3171 119.924 70.0842C119.769 69.9514 119.641 69.788 119.549 69.6038C119.315 69.2198 119.362 69.1721 119.812 68.719C120.09 68.472 120.317 68.1718 120.48 67.8355C120.643 67.4993 120.739 67.1337 120.763 66.7596C120.755 66.64 120.755 66.52 120.765 66.4005C120.67 66.1622 120.671 65.8958 120.768 65.6583C120.777 65.5868 120.777 65.5144 120.768 65.4428C121.054 64.9172 121.552 64.0095 120.776 63.5274C120 63.0454 119.79 62.5178 120.027 62.2075C120.264 61.8972 120.312 61.7059 120.242 61.5619C120.219 61.5258 120.188 61.4959 120.151 61.4749C120.114 61.4539 120.073 61.4424 120.03 61.4413C119.942 61.4134 119.866 61.3535 119.819 61.2728C119.909 61.2151 119.989 61.1426 120.055 61.0583C120.114 60.948 120.144 60.8248 120.145 60.6996C120.145 60.5743 120.116 60.4509 120.058 60.3401C120.012 60.1956 119.929 60.0662 119.818 59.9648C119.706 59.8634 119.57 59.7938 119.424 59.7628L119.212 59.762C118.952 59.7609 118.222 59.6142 118.176 59.4225C118.14 59.2414 118.085 59.0647 118.013 58.8951C117.878 58.6148 117.784 58.316 117.733 58.0081C117.714 57.7663 117.616 57.5381 117.453 57.3605C117.289 57.1682 117.242 57.0723 117.455 56.8337C117.597 56.5447 117.781 56.2791 118.001 56.0459L118.238 55.7595C118.384 55.6279 118.483 55.4503 118.518 55.2551C118.553 55.0598 118.522 54.8584 118.431 54.6829L118.432 54.5153C118.366 54.3523 118.347 54.1736 118.377 54C118.406 53.8264 118.484 53.665 118.601 53.5343C118.647 53.4974 118.683 53.45 118.708 53.3961C118.733 53.3422 118.745 53.2831 118.743 53.2237C118.745 52.8645 118.228 52.3596 117.782 51.9986C117.562 51.8493 117.325 51.7277 117.076 51.6366C116.581 51.443 115.969 51.225 115.758 50.8411C115.657 50.6483 115.572 50.4478 115.501 50.2414C115.466 50.0603 115.385 49.8917 115.266 49.7526C115.146 49.6134 114.993 49.5086 114.821 49.4485C114.603 49.3797 114.403 49.2646 114.233 49.1109C114.033 48.9561 113.821 48.819 113.598 48.7013C113.223 48.4909 112.895 48.2043 112.634 47.8593L112.446 47.8585C112.194 47.8903 111.941 47.8205 111.739 47.6641C111.739 47.6641 111.739 47.6641 111.74 47.4965C111.782 47.3092 111.838 47.1254 111.907 46.9465C111.985 46.8166 112.026 46.6678 112.026 46.516C112.027 46.3642 111.987 46.2151 111.911 46.0846C111.583 45.3889 111.749 45.1741 111.915 45.0551C112.476 44.7083 112.992 44.2922 113.453 43.8164L113.453 43.6488C113.891 43.2307 114.197 42.6904 114.332 42.0961C114.323 41.4315 114.278 40.768 114.199 40.1083C114.2 39.7492 114.201 39.5576 114.533 39.128C114.818 38.8443 114.98 38.4576 114.985 38.0525C114.98 37.9582 114.954 37.8664 114.909 37.7835C114.865 37.7006 114.803 37.6286 114.728 37.5725C114.602 37.4595 114.502 37.3186 114.437 37.1607C114.373 37.0028 114.344 36.8319 114.354 36.6612L114.355 36.4696C114.227 35.8038 114.033 35.1532 113.774 34.5279C113.655 34.2824 113.561 34.0253 113.494 33.7606C113.411 33.4666 113.31 33.1783 113.191 32.8974C113.146 32.7731 113.091 32.6527 113.027 32.5376C112.77 32.1415 112.655 31.6674 112.702 31.1954C112.735 30.5688 112.616 29.9437 112.356 29.3744C112.342 29.2711 112.343 29.1663 112.357 29.0631C112.201 28.6972 112.099 28.3093 112.056 27.9126C112.032 27.6544 111.944 27.4067 111.799 27.1933L111.493 27.192C111.385 27.1871 111.279 27.2108 111.183 27.2608C111.088 27.3109 111.007 27.3854 110.949 27.4771C110.911 27.5531 110.854 27.6174 110.783 27.6634C110.713 27.7094 110.631 27.7355 110.547 27.7388L110.217 27.7375C109.952 27.7333 109.689 27.6837 109.44 27.5906L109.086 27.5892C108.799 27.5341 108.526 27.4188 108.286 27.2507C108.13 27.1203 107.955 27.0147 107.768 26.9373C107.593 26.8504 107.428 26.7454 107.274 26.624C107.208 26.583 107.153 26.5269 107.112 26.4602C107.072 26.3935 107.047 26.3181 107.04 26.24C107.04 26.24 107.04 26.24 107.464 26.2417L107.724 26.2428C107.852 26.2591 107.983 26.2415 108.103 26.1916C108.223 26.1418 108.328 26.0614 108.409 25.9583C108.504 25.8688 108.584 25.764 108.646 25.648C108.646 25.5043 108.646 25.4804 108.882 25.4574L111.24 25.4671L111.243 24.8686L111.248 23.5278C110.875 23.0862 110.475 22.6688 110.051 22.2778C109.897 22.1554 109.756 22.0186 109.628 21.8691C109.393 21.6042 109.133 21.3626 108.853 21.1476L108.571 20.931C108.23 20.6303 107.815 20.4299 107.371 20.3514L106.993 20.3498C106.64 20.3484 106.616 20.3483 106.312 19.8203C106.162 19.5822 106.029 19.3337 105.914 19.0764C105.727 18.6926 105.61 18.4527 105.374 18.4517C105.115 18.4506 104.971 18.9768 104.875 19.3834L104.569 19.2385C104.39 19.1067 104.178 19.031 103.957 19.0205C103.648 19.0515 103.357 19.1849 103.13 19.4002C102.732 19.6695 102.263 19.8095 101.784 19.8017C101.725 19.7923 101.664 19.8008 101.61 19.8261C101.555 19.8514 101.509 19.8924 101.477 19.9441C101.477 20.1117 101.476 20.3272 101.475 20.5666C101.216 20.4245 100.979 20.2462 100.769 20.037C100.253 19.4841 100.183 19.1726 100.185 18.8853C100.186 18.598 100.186 18.5262 99.7381 18.5243L99.2901 18.5225C99.1395 18.3229 99.0137 18.1053 98.9155 17.8745C98.9197 17.7947 98.9201 17.7148 98.9165 17.6351L99.0815 17.6357C99.2516 17.7706 99.4555 17.8544 99.67 17.8776L99.9294 17.8787C100.233 17.7017 100.454 17.4098 100.546 17.0671C100.586 17.0027 100.607 16.9281 100.607 16.8519C100.608 16.7757 100.587 16.701 100.548 16.6362L100.548 16.4925L100.549 16.277C100.542 16.2053 100.543 16.1332 100.55 16.0615C100.551 15.87 100.551 15.8461 100.905 15.7039L101.025 15.2494L101.285 15.1308C101.285 15.1308 101.285 15.1308 101.284 15.2505C101.261 15.2905 101.249 15.3358 101.249 15.3821C101.249 15.4283 101.261 15.4738 101.283 15.5139C101.283 15.5139 101.448 15.5146 101.614 15.2279C101.729 15.0744 101.856 14.9307 101.993 14.7985C102.049 14.9067 102.141 14.9917 102.252 15.039C102.47 15.0133 102.675 14.9225 102.842 14.7781C102.859 14.8731 102.859 14.9705 102.841 15.0654C102.557 15.3036 102.673 15.8548 102.838 15.9512C103.037 16.0758 103.263 16.1505 103.497 16.1694C103.58 16.1784 103.664 16.157 103.733 16.1091C103.803 16.0611 103.853 15.9897 103.875 15.9076C103.947 15.5765 103.948 15.2337 103.879 14.902C103.999 14.8328 104.092 14.723 104.14 14.5919C104.354 14.1857 103.931 13.8727 103.555 13.6078L103.367 13.4394C103.189 13.302 103.001 13.1811 102.802 13.078L102.661 13.0774C102.661 13.0774 102.661 13.0774 102.661 12.9337C102.569 12.9 102.493 12.831 102.45 12.7413C102.358 12.7099 102.259 12.7095 102.167 12.7402C102.021 12.7593 101.883 12.8164 101.765 12.9061L101.553 13.0249C101.553 13.0249 101.553 13.0249 101.341 12.9044L100.964 12.8549C100.822 12.8543 100.823 12.6149 100.966 12.2324C100.968 11.8493 100.968 11.7296 100.615 11.6803C100.45 11.6796 100.356 11.6792 100.263 11.2239C100.171 10.7686 100.265 10.7451 99.9114 10.7436L99.6991 10.7428C99.6991 10.7428 99.5348 10.5745 99.4888 10.287C99.4428 9.99948 99.4907 9.80813 99.1842 9.80687L98.972 9.806L98.7362 9.80503L98.9492 9.61437C99.0068 9.53685 99.0792 9.47199 99.1622 9.4237C99.1622 9.4237 99.3508 9.42448 99.7779 8.77978C99.7754 8.66675 99.7976 8.55455 99.8429 8.45125C99.8882 8.34795 99.9554 8.2561 100.04 8.18229C100.151 8.0717 100.234 7.93615 100.284 7.78662C100.334 7.63708 100.348 7.47775 100.326 7.32152L100.327 7.17787L99.9023 7.17613C99.603 7.16463 99.3048 7.22064 99.0292 7.34013L98.486 7.55339C98.2431 7.63009 98.0123 7.74204 97.8008 7.88577C97.5607 8.12513 97.3814 8.42021 97.2786 8.74556L97.1591 9.12815L97.537 8.98605L98.1509 8.77309C98.2166 8.97537 98.2157 9.19386 98.1484 9.39559L97.9103 9.9453L97.9094 10.1847L97.7443 10.184C97.6681 10.1563 97.5849 10.156 97.5085 10.1831C97.2491 10.182 97.1772 10.469 97.1295 10.6125C97.1069 10.8673 97.1058 11.1236 97.1264 11.3786C97.1482 11.4974 97.1477 11.6192 97.1249 11.7378C96.997 11.8469 96.8928 11.9818 96.8191 12.1341C96.7454 12.2863 96.7038 12.4524 96.6968 12.6219C96.6823 12.7607 96.7203 12.8999 96.803 13.0113C96.8857 13.1228 97.007 13.1982 97.1424 13.2223L97.331 13.2231C97.4128 13.31 97.5117 13.3785 97.6211 13.4243C97.7306 13.4701 97.8483 13.4922 97.9666 13.4891C98.1788 13.4899 98.4132 13.8261 98.4123 14.0655C98.4113 14.3049 98.4117 14.2092 98.1995 14.2083C97.799 14.1842 97.3976 14.1826 96.9969 14.2034L96.0773 14.1996L96.0765 14.3911C96.0759 14.5587 96.0753 14.7024 96.0748 14.8221C96.0817 14.9956 96.1388 15.1633 96.2388 15.3042C96.3388 15.4451 96.4775 15.553 96.6375 15.6145C96.842 15.7027 97.0203 15.8438 97.1545 16.0237C97.2893 16.206 97.4567 16.361 97.6479 16.4806L97.9064 16.6732C97.9506 16.7148 98.0025 16.747 98.0591 16.7678C98.1158 16.7886 98.1759 16.7976 98.2361 16.7943C98.4954 16.7953 98.6378 16.5804 98.8038 16.3656C98.8294 16.301 98.8701 16.2437 98.9223 16.1985C98.9998 16.2172 99.0805 16.2175 99.1581 16.1995L99.7483 16.0343L99.6062 16.1774C99.3274 16.4767 98.9773 16.6979 98.5897 16.8197L98.236 16.8182C98.0494 16.7794 97.857 16.7786 97.6701 16.8159L97.1042 16.8136C96.5861 16.6438 96.2569 16.427 96.1869 16.2352C96.0215 15.8671 95.8257 15.5139 95.6017 15.1793C95.5824 14.8923 95.6321 14.6049 95.7466 14.3419L95.7471 14.2222C95.7479 14.0306 95.4652 13.9576 95.2297 13.8848C94.9942 13.812 94.7353 13.6913 94.783 13.5717C94.8183 13.5056 94.837 13.4317 94.8373 13.3565C94.8376 13.2813 94.8196 13.2072 94.7847 13.1408C94.7193 13.0617 94.6356 13.0005 94.5411 12.9625C94.4466 12.9245 94.3443 12.9109 94.2433 12.9231L94.0547 12.9223C93.8758 12.8854 93.6915 12.8847 93.5123 12.9201L93.2765 12.9191C92.7578 12.917 91.6726 13.0562 91.2245 13.0543L90.6586 13.052L89.7862 13.0484C89.6297 13.0704 89.4709 13.0697 89.3146 13.0465C89.2197 12.9565 89.1404 12.851 89.0801 12.7342C89.0809 12.5427 88.7988 12.3261 88.563 12.3251L88.3979 12.3244C88.1964 12.4612 88.0234 12.6371 87.889 12.842C87.7547 13.0469 87.6615 13.2768 87.6149 13.5183C87.5312 13.8315 87.3856 14.1242 87.187 14.3785L87.0447 14.5695C86.7166 14.974 86.5028 15.4614 86.4259 15.9796C86.4251 16.1711 86.2831 16.2902 86.0231 16.4568L86.0226 16.5765L84.9107 17.4578L84.5086 17.7674C84.1573 18.1103 83.8823 18.5255 83.7019 18.9851C83.7013 19.1288 83.7012 19.1527 83.2059 19.1986L82.7107 19.1966C82.1914 19.1493 81.6725 19.2915 81.2471 19.5976L80.9158 19.8835C80.6555 20.1219 80.5134 20.2649 80.3719 20.2644L80.2305 20.2638C80.1147 20.2141 80.0106 20.1403 79.9248 20.047C79.7378 19.8721 79.4962 19.7694 79.2422 19.7569L78.9357 19.7557C78.7711 19.7746 78.6049 19.7739 78.4405 19.7536C78.3199 19.7372 78.1972 19.7607 78.0908 19.8207C77.9844 19.8806 77.8998 19.9738 77.8496 20.0864C77.7677 20.2084 77.6723 20.3204 77.5653 20.4204C77.4177 20.5194 77.3023 20.6606 77.2335 20.8261C77.2852 21.0141 77.2844 21.2131 77.2312 21.4007C77.2031 21.3241 77.1593 21.2544 77.1026 21.1964C77.0459 21.1384 76.9777 21.0933 76.9024 21.0642C76.8252 21.0436 76.7441 21.0432 76.6666 21.0632C76.606 21.0638 76.5465 21.0793 76.493 21.1082C76.4395 21.1372 76.3937 21.1788 76.3594 21.2295C76.2658 21.3104 76.1946 21.4147 76.1528 21.5321C76.1109 21.6495 76.0999 21.7759 76.1209 21.8989L76.12 22.1144L76.2379 22.1149L76.2374 22.2346L76.3789 22.2352L76.5681 22.0923L76.4259 22.2833C76.4234 22.3311 76.4232 22.3791 76.4253 22.4269L76.0009 22.4252C75.7406 22.3853 75.4748 22.4121 75.2273 22.5031C74.9799 22.594 74.7587 22.7463 74.5839 22.9461C74.3706 23.2086 74.1804 23.5909 74.2973 23.8547C74.3263 23.9238 74.376 23.9819 74.4393 24.0208C74.5026 24.0598 74.5763 24.0775 74.6501 24.0717L74.9566 24.0729C75.1041 24.0344 75.2468 23.9788 75.3817 23.9071C75.3812 24.0268 75.3807 24.1705 75.3799 24.362L75.3791 24.5535C75.3782 24.769 75.3768 25.1042 75.3766 25.1521L75.188 25.1513C74.9056 25.0065 74.7176 24.8621 74.5529 24.7656C74.378 24.6381 74.1884 24.5328 73.9883 24.452L73.6335 24.714L73.4685 24.7133L73.4679 24.8569C73.4673 25.0006 73.1363 25.2147 73.0184 25.2142C72.9005 25.2137 73.0184 25.2142 72.901 25.094C72.8264 24.985 72.7866 24.8552 72.7871 24.7225C72.7877 24.5897 72.8285 24.4602 72.904 24.3518L73.1645 24.0895L72.7872 24.088C72.521 24.05 72.2694 23.9416 72.0575 23.7737C72.059 23.4146 71.3048 23.3157 70.9747 23.3144C70.7131 23.2885 70.4515 23.3644 70.2429 23.5268C69.743 23.9799 69.1864 24.364 68.5876 24.6693L68.399 24.6685C68.3414 24.6043 68.2939 24.5314 68.2584 24.4524C68.1565 24.3032 68.0237 24.1784 67.8693 24.0867C67.7149 23.9951 67.5426 23.9389 67.3645 23.922L67.0344 23.9207C66.8225 23.7783 66.6652 23.5664 66.5888 23.3203C66.5539 23.2496 66.5359 23.1716 66.5362 23.0926C66.5365 23.0136 66.5552 22.9357 66.5907 22.8654C66.8754 22.4356 67.1119 22.2689 67.4656 22.2704C67.8193 22.2718 68.6932 21.9163 68.7894 21.4378C68.8857 20.9594 69.0268 21.0557 69.3339 20.9133C69.9955 20.5809 70.6337 20.2004 70.7063 19.7458C70.7285 19.2909 70.6663 18.8358 70.5232 18.4042C70.5232 18.4042 70.5236 18.2845 70.5238 18.2366C70.4902 17.7024 70.4924 17.1664 70.5304 16.6325C70.5304 16.6325 70.5311 16.4649 70.5315 16.3691L70.532 16.2255C70.6091 16.2472 70.6906 16.2475 70.7678 16.2264C70.8357 16.2296 70.9033 16.2161 70.965 16.1872C71.0266 16.1583 71.0805 16.1148 71.1222 16.0603C71.241 15.8857 71.2923 15.6728 71.2661 15.4623C71.2674 15.1511 71.2674 15.1511 71.5513 14.9128L71.7164 14.9135C71.8078 14.9936 71.9109 15.0586 72.0221 15.1063L72.4937 15.1082C72.5826 15.1104 72.6701 15.1308 72.7509 15.1682C72.8318 15.2056 72.9044 15.2591 72.9645 15.3256C73.003 15.3698 73.05 15.4054 73.1026 15.4303C73.1552 15.4553 73.2124 15.4689 73.2704 15.4706C73.3398 15.4687 73.4069 15.4447 73.4621 15.402C73.5173 15.3592 73.5578 15.2999 73.5779 15.2324C73.6139 15.0858 73.6091 14.9319 73.5638 14.7879C73.5186 14.644 73.4348 14.5156 73.3219 14.4173C73.1572 14.2693 73.0356 14.0784 72.9704 13.8652C72.9247 13.7028 72.8537 13.5489 72.7601 13.4094C72.7071 13.3285 72.6677 13.2394 72.6432 13.1455C72.5999 12.9685 72.5088 12.8072 72.3802 12.6798C72.2516 12.5524 72.0906 12.4639 71.9152 12.4243C71.5168 12.3455 71.1346 12.1982 70.7851 11.9886C70.6597 11.9015 70.5131 11.8512 70.3613 11.8432C70.1019 11.8422 69.9361 12.033 69.6281 12.3909C69.4401 12.565 69.3217 12.8031 69.2952 13.0599C69.3199 13.1541 69.3195 13.2533 69.2941 13.3473C69.2436 13.4515 69.2171 13.566 69.2167 13.6821C69.2162 13.7983 69.2417 13.913 69.2913 14.0176C69.3042 14.0969 69.3039 14.1779 69.2904 14.2571L69.2897 14.4247L69.4547 14.4253L69.6198 14.426C69.9184 14.4255 70.2087 14.3258 70.4462 14.1421C70.4803 14.2291 70.5277 14.3102 70.5867 14.3821C70.5861 14.5258 70.5848 14.861 70.3483 15.0276L70.1357 15.1225L69.0982 15.1182C68.5826 15.1976 68.0906 15.3918 67.6575 15.6869C67.5277 15.82 67.4088 15.9636 67.302 16.1164C67.0412 16.4745 66.7331 16.8563 66.3087 16.8546C65.8515 16.7773 65.4398 16.5277 65.1561 16.1555L65.0153 15.9873C64.4208 15.5958 63.7574 15.3248 63.0615 15.1892C62.7428 15.1 62.4462 14.9438 62.1909 14.7307L61.8852 14.5139C61.5032 14.2829 61.0784 14.1345 60.6373 14.0778C60.5561 14.067 60.4735 14.079 60.3986 14.1124C60.3236 14.1459 60.2591 14.1996 60.2121 14.2676C60.0773 14.3789 59.9256 14.4673 59.763 14.5292C59.6304 14.5779 59.5035 14.6417 59.3849 14.7191C59.1975 14.4311 59.2215 14.3115 59.2215 14.3115C59.2802 14.2892 59.3314 14.2504 59.3692 14.1997C59.407 14.149 59.4298 14.0884 59.4349 14.025C59.436 13.7616 59.1071 13.449 58.7775 13.328L58.5889 13.3272C58.4102 13.2169 58.2086 13.1505 58.0002 13.1332C57.8757 13.1082 57.7476 13.1076 57.6229 13.1317C57.1719 13.1105 56.7258 13.2344 56.3482 13.4856C56.0309 13.7866 55.6232 13.9705 55.1906 14.0076L55.002 14.0068C55.002 14.0068 55.1917 13.7442 55.4041 13.6972C55.6646 13.6811 55.9183 13.6067 56.1471 13.4793C56.3759 13.352 56.5742 13.1747 56.7276 12.9604C57.0109 12.4157 57.1514 11.8061 57.1357 11.1903C57.1105 10.9035 57.1117 10.615 57.1392 10.3284L57.1407 9.94531C57.1755 9.86626 57.1936 9.78071 57.194 9.69413C57.1943 9.60756 57.1769 9.52187 57.1428 9.44252C57.044 9.33806 56.9088 9.27729 56.7662 9.27338L56.4361 9.27202C56.5557 9.09189 56.6369 8.88832 56.6743 8.67443C56.7641 8.18756 56.6738 7.68418 56.4207 7.26077C56.2256 6.96872 55.9788 6.71603 55.6928 6.51555L55.3871 6.29881L55.3856 6.68188C55.3856 6.68188 55.3833 7.23256 55.1475 7.23159C54.9655 7.23847 54.7839 7.20771 54.614 7.14115C54.444 7.0746 54.2891 6.97365 54.1587 6.84444C53.8537 6.54586 53.4693 6.34452 53.0529 6.26527C52.5154 6.07564 52.0081 5.80738 51.547 5.46897L51.5501 4.70281L51.2428 4.89309C50.7927 5.14276 50.3584 5.42085 49.9425 5.72574C49.7949 5.87264 49.6601 6.03231 49.5397 6.20294C49.4737 6.0003 49.4272 5.79163 49.4008 5.57986L49.4013 5.46015L49.189 5.45928C49.0001 5.4708 48.8158 5.52345 48.6486 5.61365C48.4814 5.70384 48.3353 5.82948 48.2201 5.98204C48.0705 6.18827 47.8519 6.33207 47.6054 6.38654C47.5515 6.38404 47.4992 6.36713 47.4537 6.33752C47.4083 6.3079 47.3714 6.26663 47.3467 6.21787C47.2986 6.0619 47.2993 5.8946 47.3487 5.73902C47.3703 5.64629 47.369 5.54954 47.3446 5.45749C47.3203 5.36543 47.2738 5.28097 47.2094 5.21171C46.8765 4.87782 46.4296 4.68728 45.9618 4.67984C45.4666 4.71346 44.9699 4.6463 44.5006 4.4823L44.3356 4.48162C44.08 4.27874 43.7652 4.16795 43.4408 4.16668L41.5781 4.15903L41.2244 4.15757C41.0438 4.17004 40.8625 4.1693 40.682 4.15534C40.5533 4.16322 40.4265 4.11975 40.3288 4.03418C40.267 3.9541 40.1886 3.88882 40.0991 3.84294C40.0096 3.79706 39.9113 3.77171 39.8112 3.76868C39.6379 3.77972 39.4689 3.82799 39.3154 3.9103C39.2362 4.02459 39.1648 4.1443 39.1017 4.26856L36.956 4.25974C36.8145 4.25916 36.5316 4.25799 36.4616 4.06617C36.4377 3.9557 36.4382 3.84124 36.463 3.73097C36.4998 3.47703 36.5009 3.21906 36.4661 2.96482C36.3044 2.1501 36.4697 2.07895 36.4697 2.07895L36.7763 2.08021C36.8862 2.08538 36.9954 2.05918 37.0915 2.00456C37.1876 1.94995 37.2667 1.8691 37.3199 1.77119C37.4039 1.65044 37.5081 1.54554 37.6277 1.4612C37.7933 1.31822 37.9589 1.17525 37.9362 0.95967C37.9135 0.744092 37.9371 0.744189 37.7017 0.64745C37.5917 0.597394 37.4889 0.532547 37.396 0.454651C37.241 0.32474 37.0536 0.241078 36.8546 0.212998C36.7614 0.215197 36.6705 0.242871 36.5914 0.293108C36.5124 0.343344 36.4481 0.414284 36.4054 0.498464C36.2095 0.788909 36.0941 1.12749 36.0713 1.47874L35.9279 1.95701C35.5515 2.59762 35.2929 3.30238 35.1648 4.03689C35.1088 4.59399 35.1065 5.15532 35.158 5.71286C35.1574 5.85651 35.1569 5.97622 35.1564 6.09594C35.1559 6.21565 35.1553 6.38324 35.1548 6.50296C35.1543 6.62267 35.151 7.41277 35.4572 7.50979L35.6694 7.51067C35.7756 7.51084 35.8776 7.4682 35.9529 7.39212C36.095 7.2251 36.0961 6.96174 35.9568 6.43442C35.9593 5.81192 35.9593 5.81192 35.9608 5.45279C36.0075 5.32156 36.0632 5.19379 36.1274 5.07039C36.1265 5.28587 36.3138 5.62184 36.691 5.62339C36.8152 5.65184 36.944 5.65237 37.0683 5.62494C37.3233 5.54078 37.5688 5.42943 37.8007 5.29275L37.9898 5.17381C38.1206 5.13369 38.2602 5.13427 38.3906 5.17546L39.0037 5.17798C38.979 5.3044 38.9785 5.43445 39.0021 5.56106C39.1416 6.08834 39.4163 6.56864 39.7982 6.95301L40.0333 7.12158C40.2214 7.24206 40.2214 7.24206 40.1732 7.50524C40.1704 8.17562 40.1683 8.70235 40.6867 8.80026C41.205 8.89816 40.921 9.16036 40.9202 9.3519C40.9194 9.54344 41.1542 9.78383 41.4362 10.0244C41.5549 10.1095 41.6651 10.2061 41.7652 10.3131L41.7646 10.4567C41.7646 10.4567 41.7646 10.4567 41.7634 10.744C41.7109 10.8303 41.683 10.9296 41.6826 11.031C41.6821 11.1324 41.7093 11.232 41.7611 11.3187C41.8161 11.4186 41.8992 11.4995 41.9998 11.5511C42.1004 11.6027 42.2139 11.6226 42.3258 11.6083L42.4908 11.609C42.4465 11.7022 42.4233 11.8044 42.4228 11.908C42.4224 12.0115 42.4448 12.1139 42.4884 12.2075C42.5172 12.2672 42.5321 12.3328 42.5318 12.3993C42.5316 12.4657 42.5162 12.5312 42.4868 12.5906C42.3892 12.6427 42.2811 12.6717 42.1709 12.6754C42.0606 12.6791 41.9509 12.6574 41.8501 12.6119C41.6464 12.7243 41.4935 12.9125 41.4235 13.1369C41.3563 13.2745 41.3211 13.4259 41.3205 13.5794C41.3198 13.733 41.3538 13.8847 41.4199 14.0228C41.4706 14.094 41.5381 14.1512 41.6162 14.1892C41.6943 14.2272 41.7806 14.2447 41.867 14.2401L42.1264 14.2412L42.4565 14.2425L42.7866 14.2439C42.9151 14.2486 43.0414 14.2086 43.1445 14.1307C43.2477 14.0528 43.3217 13.9416 43.3543 13.8153C43.4341 13.4751 43.5543 13.146 43.712 12.8351C43.7828 12.9294 43.8381 13.0347 43.8758 13.147C43.875 13.3385 43.874 13.578 43.5665 13.8161C43.2696 13.9869 43.0302 14.2446 42.8797 14.5555C42.845 14.6351 42.7968 14.7078 42.7373 14.7704L41.6998 14.7662L41.1575 14.7639L40.7095 14.7621C40.2405 14.7162 39.7692 14.8233 39.3642 15.0678L38.8439 15.4488L38.5601 15.6391L38.8897 15.7842C39.1097 15.8854 39.3382 15.9665 39.5725 16.0264L39.431 16.0258C39.2956 16.1352 39.1311 16.2012 38.9586 16.2154C38.8689 16.2044 38.7781 16.2212 38.6979 16.2636C38.6178 16.306 38.5522 16.372 38.5097 16.453C38.1779 16.8587 38.8355 17.5078 38.9765 17.6281C39.2822 17.8209 39.3527 17.8691 39.3758 17.9889C39.3871 18.0482 39.42 18.101 39.4679 18.1367C39.5159 18.1724 39.5753 18.1884 39.6344 18.1815C39.6344 18.1815 39.8231 18.1823 39.9181 18.0151C40.0578 17.8732 40.2171 17.7529 40.3911 17.6579C40.563 17.6304 40.7382 17.6311 40.9099 17.66C41.1454 17.6417 41.3819 17.6427 41.6173 17.6629C41.6753 17.8907 41.6743 18.1299 41.6144 18.3572C41.6176 18.5689 41.5594 18.7768 41.4469 18.9551C41.3719 19.0593 41.3082 19.1714 41.2569 19.2895C41.0192 19.7674 40.971 20.0066 41.2524 20.3909C41.2678 20.4289 41.2757 20.4696 41.2755 20.5107C41.2753 20.5518 41.2672 20.5924 41.2514 20.6303C41.2305 20.741 41.2301 20.8546 41.2501 20.9655C41.2986 21.0773 41.3774 21.1729 41.4773 21.2411C41.5772 21.3093 41.6941 21.3474 41.8144 21.3509C42.0259 21.3463 42.228 21.2618 42.3813 21.1138C42.3813 21.1138 42.3807 21.2575 42.3803 21.3532L42.3797 21.4969L42.5435 21.8088C42.6627 21.9746 42.75 22.1618 42.8007 22.3605C42.8673 22.5872 42.8663 22.8288 42.7978 23.0549L42.6563 23.0543L42.3503 22.9333C42.15 22.8344 41.9353 22.7688 41.7144 22.7392C41.6058 22.7147 41.4932 22.7143 41.3843 22.7378L41.1957 22.737C41.0306 22.7364 40.8415 22.8553 40.7936 23.0466C40.7834 23.1283 40.7905 23.2112 40.8146 23.2898C40.8387 23.3684 40.8791 23.4408 40.9332 23.5021C41.2391 23.8407 41.4848 24.2305 41.6595 24.6544C41.659 24.7741 41.6586 24.8698 41.7761 24.9661C41.8718 25.3012 42.049 25.6066 42.2912 25.8541C42.3967 25.9957 42.5314 26.1122 42.6858 26.1956C42.8402 26.2789 43.0107 26.327 43.1853 26.3366L43.5154 26.338L43.7512 26.339L44.2935 26.3412L44.9066 26.3437L45.1188 26.3446C45.6062 26.3451 46.0907 26.4197 46.5563 26.566L46.8622 26.7109C47.0333 26.7544 47.1893 26.8446 47.3135 26.9717C47.4376 27.0989 47.5252 27.258 47.5667 27.4321C47.648 27.6601 47.7179 27.8921 47.7761 28.1273C47.5855 27.8677 47.3556 27.6405 47.095 27.4541C46.6522 27.0419 46.0712 26.8168 45.4705 26.8249C44.8745 26.8037 44.2825 26.9329 43.7477 27.2009C43.4568 27.4003 43.1285 27.5366 42.7833 27.6011C42.4381 27.6656 42.0836 27.657 41.7419 27.5757C40.9407 27.4288 40.4205 27.7858 39.9747 27.2572C39.5288 26.7286 38.849 25.7442 38.3278 26.3406C37.8988 26.7636 37.5667 27.2772 37.3549 27.845C37.2316 28.629 37.0065 29.3929 36.6854 30.1168C36.5691 30.4504 36.5271 30.806 36.5623 31.1581C36.5976 31.5101 36.7092 31.8498 36.8893 32.1528C37.038 32.3126 37.1538 32.501 37.2299 32.7069C37.306 32.9128 37.3409 33.132 37.3324 33.3517L37.3274 34.5728C37.2106 34.2401 37.0361 33.9313 36.8124 33.6609C36.5307 33.3484 36.8124 33.6609 36.2235 33.5148C35.6346 33.3687 35.634 33.5124 35.2589 32.9841C34.8838 32.4558 34.6039 31.6885 34.0836 32.0694C33.5633 32.4504 33.3279 32.3536 33.3257 32.9043C33.3555 33.3327 33.3058 33.763 33.179 34.1727C33.036 34.5552 33.4588 34.94 33.7672 34.4863C34.0756 34.0327 34.2152 34.4882 34.2835 35.087C34.3405 35.3398 34.3354 35.6029 34.2685 35.8531C34.2017 36.1034 34.0753 36.3331 33.9004 36.522C33.5448 36.9755 33.1664 37.2612 32.6498 36.7324C32.1332 36.2035 32.2768 35.6773 31.6166 35.6746C30.9564 35.6719 30.5828 34.7606 31.0314 34.6187C31.48 34.4769 31.9969 34.934 32.211 34.4799C32.3395 34.2898 32.4087 34.0649 32.4097 33.8343C32.4106 33.6037 32.3432 33.3782 32.2163 33.1871C31.9119 32.6591 31.7731 31.9881 31.5622 31.676C31.3512 31.3638 30.7369 31.6726 30.7396 31.0022C30.7424 30.3318 30.8845 30.1648 30.3664 30.019C30.0353 29.8841 29.6857 29.8019 29.3299 29.7753C28.8819 29.7735 28.4347 29.5562 28.1509 29.7705C27.8671 29.9848 26.8063 29.9086 26.3574 30.1222C25.9085 30.3359 24.4912 30.9526 23.997 30.7111C23.4513 30.4322 22.8346 30.3294 22.2297 30.4165C21.7104 30.558 20.6027 30.4098 20.1529 30.8629C19.5917 31.3269 19.0618 31.8287 18.5669 32.3648C18.2821 32.8185 18.3519 33.0343 18.7987 33.3474C19.2454 33.6605 19.0792 33.9471 18.4192 33.8726C17.7593 33.798 17.759 33.8699 17.5915 34.4677C17.503 35.0799 17.3825 35.6868 17.2304 36.2859C16.9921 36.8835 16.8467 37.8645 17.6714 38.0116C18.4961 38.1586 19.7464 38.0201 20.0293 38.0213C20.3123 38.0224 20.0293 38.0213 20.0269 38.6198C20.0244 39.2184 20.0225 39.6972 19.7148 39.9833C19.4071 40.2693 19.8547 40.3669 19.7108 40.9649C19.5668 41.5629 19.4268 41.2032 19.2596 41.7292C19.1206 42.2218 19.1184 42.7439 19.2535 43.2376C19.5216 44.0704 19.518 44.9689 19.243 45.7994C18.8619 46.6298 18.4171 47.4286 17.9128 48.1883C17.4536 48.8137 17.2327 49.5867 17.2908 50.3645C17.2851 51.0484 17.2113 51.7299 17.0703 52.3987C17.069 52.71 17.0653 53.6198 16.5478 53.3064C16.0304 52.993 15.6524 53.1591 15.1343 52.9893C14.6163 52.8196 14.2402 52.5307 13.8858 52.6969C13.5314 52.863 12.5418 52.6914 12.5399 53.1463C12.5381 53.6012 12.5359 54.1279 12.6768 54.2721C12.8177 54.4164 13.1944 54.5616 12.6746 54.7989C12.1549 55.0362 12.1553 54.9404 12.1535 55.3953C12.1516 55.8502 12.1489 56.5206 12.5254 56.6897L14.3148 57.3675C14.7622 57.513 15.4922 57.7554 15.5645 57.3726C15.6368 56.9898 16.0872 56.3931 16.1555 56.992C16.2426 57.5631 16.5044 58.0919 16.9039 58.5034C17.025 58.6968 17.0889 58.9215 17.0879 59.1506C17.087 59.3798 17.0213 59.6039 16.8986 59.7963C16.5905 60.1781 16.2325 61.2301 16.3731 61.4462C16.4597 61.5876 16.5812 61.7037 16.7255 61.7829C16.5285 61.9463 16.2919 62.0529 16.0404 62.0913C15.8659 62.0999 15.6985 62.1645 15.5625 62.2758C15.4264 62.3871 15.3287 62.5394 15.2833 62.7107L15.2826 62.8783C15.2826 62.8783 15.2826 62.8783 15.1176 62.8776C14.9328 62.8837 14.7532 62.9409 14.5981 63.0431C14.3966 63.2457 14.2565 63.5027 14.1942 63.7836C14.1432 63.929 14.0711 64.0659 13.9804 64.1898C13.8382 64.3568 13.6967 64.3562 13.2251 64.3543C13.0033 64.3765 12.7922 64.4622 12.6163 64.6013C12.4405 64.7404 12.3071 64.9273 12.2316 65.1403C12.1627 65.1452 12.0956 65.1646 12.0345 65.1973C11.9735 65.23 11.9199 65.2754 11.8771 65.3304C11.8238 65.3921 11.7836 65.4643 11.7589 65.5424C11.7343 65.6206 11.7257 65.7031 11.7338 65.7847C11.7328 66.0241 11.9916 66.1689 12.2972 66.3856L12.4387 66.3862C12.7512 66.5778 13.0359 66.8127 13.2847 67.084L13.4255 67.2522C13.4363 67.3156 13.436 67.3804 13.4247 67.4437C13.4243 67.5634 13.2825 67.6347 13.2349 67.7303L12.8787 68.3513C12.7288 68.6246 12.4965 68.8419 12.2159 68.9711C12.1991 68.8123 12.125 68.6655 12.0079 68.5589C11.8908 68.4523 11.7389 68.3935 11.5816 68.3939L11.2279 68.3924C10.5725 68.6059 9.94565 68.9009 9.36155 69.2706C9.19105 69.4502 8.96662 69.5672 8.72353 69.6032C8.69373 69.6163 8.66159 69.6229 8.62913 69.6228C8.59668 69.6227 8.56459 69.6157 8.5349 69.6024C8.54172 69.7171 8.56509 69.8301 8.60427 69.9379C8.52774 69.9332 8.45177 69.9538 8.3878 69.9967C8.32383 70.0397 8.27533 70.1025 8.2496 70.1759C8.24872 70.3913 8.24804 70.5589 8.45967 70.7035C8.67129 70.848 8.62394 70.8957 8.60016 70.9435L8.24745 70.7026C7.91258 70.3792 7.48288 70.1757 7.02366 70.1229L6.43417 70.1205C6.19838 70.1196 6.0571 70.0711 6.01033 69.9751C5.96694 69.8893 5.92795 69.8012 5.89351 69.7113C5.89468 69.424 5.68373 69.1118 5.40078 69.1107C5.11783 69.1095 4.85845 69.1084 4.7159 69.3712C4.67838 69.4366 4.65847 69.5108 4.65816 69.5865C4.65785 69.6621 4.67716 69.7365 4.71414 69.8022L4.87842 69.9944L5.20667 70.4507C4.7115 70.4486 4.61719 70.4483 4.52394 70.1845C4.49118 70.1047 4.43553 70.0368 4.36424 69.9895C4.29294 69.9422 4.2093 69.9178 4.12417 69.9195C4.00254 69.9304 3.88658 69.9767 3.79011 70.0527C3.69364 70.1287 3.62074 70.2313 3.58008 70.3482C3.5793 70.5398 3.27247 70.6103 2.82417 70.6803C2.71376 70.6876 2.60786 70.7275 2.51957 70.7953C2.43129 70.863 2.36449 70.9555 2.32744 71.0613C2.31217 71.2002 2.33458 71.3406 2.39225 71.4675C2.44992 71.5943 2.54064 71.7027 2.65462 71.781C2.88963 71.9735 2.95968 72.1414 2.93591 72.1892C2.69693 72.2736 2.48461 72.4215 2.32108 72.6176L2.03647 73.0235L2.50806 73.0254L2.72027 73.0263C2.86043 72.9978 3.00479 72.9984 3.1447 73.028C3.3805 73.029 3.403 73.2924 3.40114 73.7473C3.39929 74.2023 3.39812 74.4896 3.96324 74.6834C4.09754 74.7283 4.22445 74.7934 4.33973 74.8765C4.12683 75.0432 3.96119 75.1862 3.96031 75.4017C3.95943 75.6172 4.07674 75.7613 4.31156 76.0017C4.54638 76.2421 4.94517 76.7465 4.99116 77.034C5.02213 77.2088 5.09427 77.3734 5.20142 77.5138C5.30837 77.7006 5.38704 77.9027 5.43477 78.1133C5.43419 78.2569 5.4337 78.3767 5.55111 78.4969C5.63079 78.6862 5.67147 78.89 5.67063 79.0959C5.66979 79.3018 5.62745 79.5053 5.54622 79.694C5.40075 80.0239 5.35021 80.389 5.40044 80.7469C5.43482 80.9127 5.43412 81.0841 5.39839 81.2496C5.38421 81.3161 5.35555 81.3784 5.31453 81.4321C5.2735 81.4858 5.22115 81.5295 5.16132 81.5599C4.94962 81.6993 4.76504 81.8771 4.61685 82.0844C4.40414 82.3715 4.2137 82.6749 4.04723 82.9919C3.92384 83.1983 3.7892 83.3976 3.64393 83.5888C3.64393 83.5888 3.00387 84.4242 3.09623 84.9034C3.10456 84.9749 3.13038 85.0431 3.17132 85.1018C3.21227 85.1605 3.26705 85.2079 3.33066 85.2396C3.47004 85.3343 3.63393 85.385 3.80166 85.3852C3.93406 85.4105 4.0699 85.411 4.20251 85.3868L4.36688 85.5551C4.38163 85.6181 4.38136 85.6838 4.3661 85.7466C4.2338 85.7202 4.09776 85.7197 3.96525 85.745C3.77165 85.7866 3.59 85.8726 3.43418 85.9965C3.27837 86.1203 3.15253 86.2787 3.0663 86.4596C3.06542 86.6751 2.94752 86.6746 2.87659 86.7222C2.74959 86.7669 2.63006 86.8309 2.52211 86.9123C2.26429 87.1507 2.06175 87.4443 1.92911 87.7718C1.93701 87.8434 1.93671 87.9157 1.92823 87.9872C1.86316 87.9609 1.80553 87.9185 1.7605 87.864C1.71546 87.8095 1.68441 87.7446 1.67012 87.6749C1.67179 87.2679 1.43609 87.243 1.34177 87.2426C1.18304 87.2555 1.03322 87.3223 0.916558 87.4324C0.609048 87.6706 0.72577 87.9584 0.795629 88.1741C0.859143 88.3266 0.898286 88.4884 0.911574 88.6535C0.911574 88.6535 0.910597 88.8929 0.910206 88.9887C0.822842 89.2031 0.82186 89.4438 0.907469 89.659C0.943876 89.7057 0.990476 89.743 1.04358 89.7682C1.09669 89.7933 1.15483 89.8056 1.21341 89.804L1.44921 89.8049C1.6766 89.7813 1.90582 89.7822 2.13302 89.8077L2.51029 89.8093C2.52699 89.8802 2.52669 89.954 2.50941 90.0248C2.44807 90.121 2.41522 90.233 2.41475 90.3476C2.41428 90.4622 2.44622 90.5745 2.50677 90.6712C2.57608 90.79 2.67665 90.8869 2.7972 90.9508C2.91774 91.0147 3.05346 91.0432 3.18911 91.0331L3.33058 91.0337C3.33058 91.0337 3.3297 91.2492 3.32902 91.4168C3.3156 91.5681 3.31497 91.7203 3.32716 91.8717C3.32658 92.0154 3.32579 92.2069 3.3256 92.2548L2.6418 92.252C2.54232 92.2187 2.435 92.2182 2.33526 92.2507C2.28557 92.295 2.24677 92.3506 2.22195 92.4128C2.19713 92.4751 2.18698 92.5423 2.19232 92.6093C2.19027 93.1121 2.18987 93.2078 1.97756 93.2309C1.76525 93.254 1.64667 93.4211 1.64618 93.5408C1.64569 93.6605 1.85673 93.9487 2.09204 94.0694L2.28068 94.0702L2.39857 94.0706C2.40764 94.1502 2.40731 94.2306 2.39759 94.3101C2.29871 94.5719 2.29753 94.8614 2.39427 95.1241C2.44606 95.2001 2.51226 95.2648 2.58898 95.3144C2.66571 95.3641 2.75143 95.3977 2.84111 95.4132L2.98259 95.4138L3.35986 95.4154L3.57207 95.4162C3.57207 95.4162 3.57207 95.4162 3.68997 95.4167C3.79338 95.6829 3.82476 95.9724 3.78087 96.2551C3.78087 96.2551 3.77989 96.4945 3.94416 96.6867C3.97217 96.829 3.97157 96.9756 3.94241 97.1177C3.94123 97.405 3.94065 97.5487 4.41155 97.7182C4.55204 97.7416 4.69531 97.7422 4.83598 97.7199L5.1661 97.7213C5.20519 97.8329 5.26038 97.9381 5.32988 98.0332L5.06953 98.2716C4.93697 98.3921 4.78504 98.4887 4.62035 98.5571C4.38455 98.5561 4.28955 98.7233 4.19367 99.106C4.12554 99.2796 4.10893 99.4697 4.14589 99.6528C4.18285 99.8359 4.27177 100.004 4.40168 100.136C4.40168 100.136 4.40168 100.136 4.51899 100.281L4.51841 100.424C4.54857 100.512 4.60615 100.588 4.68249 100.64C4.75883 100.693 4.84979 100.718 4.94166 100.713L5.3661 100.715L5.57831 100.716C5.932 100.717 6.14314 100.982 6.33012 101.389C6.40732 101.523 6.49346 101.652 6.58793 101.773C6.72872 101.942 6.77569 101.99 6.58588 102.276C6.39607 102.563 6.15773 103.184 6.43873 103.664C6.4277 103.72 6.42747 103.777 6.43804 103.832L6.67296 104.048C6.48344 104.263 6.31761 104.454 6.19971 104.453C6.17756 104.464 6.15337 104.469 6.12891 104.469C6.10444 104.469 6.0803 104.464 6.05823 104.453C5.91863 104.42 5.77366 104.42 5.6338 104.451C5.32727 104.45 5.06701 104.664 4.87652 105.118C4.80421 105.237 4.70774 105.339 4.59356 105.417C4.47938 105.495 4.35013 105.547 4.21444 105.571C4.0475 105.618 3.88831 105.69 3.74197 105.784C3.5325 105.937 3.38202 106.159 3.31642 106.412C3.25083 106.665 3.27423 106.934 3.38261 107.171L3.09887 107.362C2.83872 107.552 2.79117 107.648 2.76671 107.863C2.74724 108.027 2.70696 108.188 2.64686 108.342C2.59753 108.522 2.53371 108.698 2.45607 108.867C2.31504 109.079 2.22593 109.322 2.19618 109.576C2.16644 109.83 2.1969 110.088 2.28505 110.327C2.40469 110.559 2.50621 110.799 2.58866 111.047C2.68578 111.378 2.84461 111.688 3.05653 111.959L3.26796 112.151C3.39014 112.231 3.49056 112.342 3.56004 112.472C3.62953 112.601 3.66588 112.747 3.66578 112.895C3.67983 113.184 3.76149 113.465 3.90399 113.715C4.0465 113.966 4.24574 114.178 4.4852 114.335C4.59459 114.394 4.69061 114.476 4.76718 114.575C4.8568 114.694 4.97029 114.792 5.10011 114.863C5.22992 114.933 5.37308 114.975 5.52006 114.985L6.01523 114.988C6.02272 115.059 6.02243 115.131 6.01435 115.203C6.0124 115.682 6.45913 115.995 7.16652 115.998C7.25823 115.987 7.35123 115.999 7.43741 116.032C7.52359 116.066 7.60032 116.121 7.66091 116.191C7.68346 116.236 7.69512 116.285 7.69492 116.335C7.69472 116.385 7.68265 116.434 7.65974 116.479C7.5892 116.729 7.58812 116.994 7.65661 117.245C7.65524 117.58 7.65446 117.772 7.44175 117.89L7.18179 118.033C7.00766 118.096 6.85483 118.208 6.7414 118.356C6.62797 118.504 6.55867 118.682 6.54172 118.868C6.53165 118.972 6.53123 119.076 6.54045 119.18C6.54744 119.31 6.52536 119.439 6.47587 119.56C6.42637 119.68 6.35075 119.787 6.25467 119.873C5.90966 120.184 5.66204 120.591 5.5425 121.043C5.50954 121.157 5.4697 121.269 5.42323 121.378C5.37292 121.493 5.33298 121.614 5.30387 121.736L5.30181 122.239L5.58555 122.049C5.58555 122.049 5.58555 122.049 5.58486 122.216C5.58418 122.384 5.74376 123.726 6.40555 123.345C7.06734 122.965 7.0649 123.563 7.37075 123.732C7.6766 123.901 8.40649 124.167 8.26345 124.55C8.23301 124.63 8.21856 124.715 8.22092 124.801C8.22328 124.887 8.24242 124.971 8.27721 125.049C8.31201 125.127 8.36176 125.198 8.42358 125.256C8.4854 125.314 8.55805 125.36 8.6373 125.389C8.91966 125.534 8.84863 125.606 8.63544 125.844C8.42225 126.083 8.63358 126.299 8.91468 126.755C9.19578 127.211 9.94856 127.645 9.9467 128.1C9.94485 128.555 10.1785 129.083 10.5328 128.941C10.887 128.799 10.5322 129.084 10.5303 129.539C10.5285 129.994 10.6929 130.139 11.2113 130.236C11.7297 130.334 11.6578 130.597 11.9408 130.599C12.1198 130.559 12.2786 130.455 12.3876 130.306C12.4967 130.157 12.5486 129.972 12.5336 129.787C12.5349 129.476 12.1117 129.163 12.395 129.092C12.6782 129.021 13.2922 128.808 13.6683 129.097C14.0444 129.386 14.5407 129.101 14.774 129.7C15.0074 130.3 14.9831 130.467 15.1463 130.923C15.3095 131.379 15.8047 131.381 15.8066 130.926C15.8084 130.471 16.1144 130.616 16.4668 130.928C16.8192 131.241 17.7373 131.604 18.1155 131.39C18.4936 131.176 18.5626 131.607 18.9179 131.226L19.3205 130.797L19.3193 131.084L19.6036 130.75L19.7458 130.583C19.9828 130.5 20.2282 130.445 20.4774 130.418C20.6255 130.446 20.7772 130.447 20.9255 130.42C21.2084 130.421 21.3499 130.422 21.3727 130.613L21.3712 130.973C21.3319 131.156 21.3464 131.346 21.4127 131.521C21.4791 131.696 21.5944 131.847 21.7445 131.956L22.1205 132.269C22.332 132.437 22.4729 132.581 22.638 132.582C22.6904 132.588 22.7434 132.577 22.7899 132.552C22.8363 132.526 22.874 132.487 22.8979 132.439C22.8979 132.439 23.3187 133.327 23.7903 133.329C23.8978 133.363 24.0127 133.363 24.1204 133.33L24.3333 133.164L24.4984 133.164C24.5912 133.188 24.6883 133.188 24.7814 133.165C24.9981 133.153 25.2051 133.07 25.3718 132.928L25.5609 132.809C25.65 132.981 25.8018 133.111 25.9839 133.17C26.1459 133.252 26.3218 133.302 26.5021 133.316C26.7018 133.31 26.8936 133.235 27.0453 133.103C27.1229 133.027 27.222 132.977 27.3288 132.96C27.4645 132.997 27.587 133.072 27.6816 133.177C27.9343 133.361 28.2018 133.522 28.4814 133.659C28.6734 133.732 28.8553 133.829 29.0225 133.949L29.164 133.95C29.432 134.23 29.7919 134.402 30.176 134.433C30.4686 134.49 30.7384 134.632 30.9524 134.843C30.5094 135.298 30.1411 135.821 29.8614 136.395C29.7886 136.589 29.7325 136.789 29.6939 136.992C29.6921 137.447 29.4304 137.997 29.1708 138.068C28.9415 138.112 28.7231 138.203 28.5283 138.333C28.3335 138.464 28.1661 138.633 28.0358 138.829C27.8054 139.112 27.6138 139.426 27.4661 139.761C27.3897 139.873 27.326 139.993 27.276 140.119C26.9657 140.482 26.6251 140.817 26.258 141.12C25.6535 141.657 25.2783 142.411 25.2119 143.223C25.2398 143.515 25.2005 143.809 25.0971 144.083C24.9937 144.357 24.8289 144.603 24.6159 144.801C24.4818 144.916 24.3801 145.065 24.3214 145.233C24.2627 145.401 24.2491 145.582 24.2819 145.757C24.3058 145.924 24.3051 146.093 24.2799 146.26C24.2483 146.626 24.2468 146.995 24.2754 147.361C24.2815 147.797 24.2322 148.231 24.1286 148.654C23.9456 148.77 23.788 148.923 23.6656 149.104C23.5432 149.285 23.4585 149.489 23.4169 149.704C23.3203 150.054 23.1676 150.385 22.9649 150.684C22.8424 150.868 22.7313 151.059 22.6325 151.257C22.4602 151.536 22.3168 151.833 22.2044 152.141C22.1537 152.321 22.0733 152.491 21.9666 152.643C21.7912 152.911 21.6709 153.213 21.6129 153.529C21.5549 153.846 21.5603 154.171 21.6289 154.485C21.7384 154.951 21.9197 155.396 22.1659 155.804L22.3064 156.044C22.3605 156.172 22.371 156.314 22.3363 156.449C22.3015 156.583 22.2236 156.702 22.1147 156.786C21.9579 157.074 21.8999 157.407 21.9498 157.732C21.9997 158.058 22.1547 158.357 22.3903 158.583C22.2634 158.742 22.1719 158.927 22.1223 159.125C22.0726 159.323 22.0659 159.53 22.1027 159.731C22.219 160.114 22.219 160.114 22.1 160.401C22.1065 160.449 22.1064 160.497 22.0994 160.545C21.9526 160.745 21.8597 160.98 21.8298 161.228C21.7998 161.475 21.8339 161.727 21.9286 161.957C21.9278 162.148 21.9277 162.172 21.9267 162.412L21.7841 162.674C21.6431 162.981 21.6148 163.328 21.7043 163.653C21.7938 163.979 21.9953 164.261 22.2721 164.448C22.4009 164.552 22.5054 164.683 22.5782 164.832C22.651 164.981 22.6902 165.145 22.693 165.312C22.6811 165.391 22.6807 165.472 22.692 165.551C22.7357 165.673 22.8159 165.778 22.9213 165.852C23.0267 165.925 23.1521 165.963 23.2798 165.961C23.4006 165.96 23.5189 165.926 23.6227 165.863C23.7265 165.801 23.8121 165.711 23.8708 165.604C23.9315 165.501 24.012 165.412 24.1077 165.342C24.0601 165.454 23.996 165.559 23.9178 165.652C23.8227 165.76 23.7428 165.88 23.6805 166.01C23.6343 166.086 23.6096 166.173 23.6093 166.261C23.6089 166.35 23.6329 166.437 23.6785 166.513C23.7558 166.622 23.8587 166.71 23.9778 166.769C24.0968 166.828 24.2285 166.856 24.3609 166.851C24.5312 166.893 24.709 166.894 24.8796 166.853L25.8249 166.354C26.1952 166.097 26.6013 165.897 27.0299 165.761C27.099 165.87 27.1466 165.992 27.1699 166.12C27.1688 166.384 27.3091 166.672 27.5682 166.745L28.1341 166.747C28.9628 166.78 29.7831 166.567 30.4946 166.134C31.0552 165.647 31.7461 165.342 32.4789 165.256C32.6675 165.257 32.809 165.258 32.832 165.401C32.9518 165.705 33.1658 165.962 33.4416 166.131C33.7174 166.301 34.04 166.375 34.3608 166.342C34.7455 166.367 35.1314 166.369 35.5162 166.346L35.7049 166.347L35.7056 166.156C35.6775 166 35.7022 165.84 35.7756 165.701C35.849 165.562 35.9668 165.453 36.1096 165.391C36.2266 165.369 36.3466 165.369 36.4633 165.392C36.5832 165.394 36.7015 165.42 36.8108 165.47C36.9201 165.52 37.0182 165.592 37.0988 165.682L37.098 165.874L37.3102 165.875C37.4942 165.864 37.668 165.786 37.7989 165.654C37.9298 165.522 38.0086 165.346 38.0205 165.159C38.0434 165.039 38.0922 164.924 38.1634 164.825C38.2222 164.762 38.2641 164.685 38.2851 164.602C38.3061 164.518 38.3055 164.43 38.2832 164.346C38.2839 164.179 38.0723 164.034 37.7663 163.889C37.5972 163.805 37.413 163.755 37.2246 163.744C37.1097 163.744 36.9969 163.775 36.8974 163.833C36.798 163.892 36.7152 163.976 36.6573 164.076C36.6001 164.153 36.5367 164.225 36.4678 164.291C36.2896 164.375 36.0973 164.423 35.9013 164.432C35.7898 164.437 35.6787 164.415 35.5767 164.369C35.4747 164.323 35.3845 164.254 35.3129 164.167C35.2597 164.067 35.232 163.956 35.2324 163.843C35.2329 163.73 35.2615 163.619 35.3156 163.52C35.3163 163.329 35.4585 163.162 35.5765 163.138C35.734 163.052 35.8657 162.925 35.9576 162.769C36.0496 162.614 36.0984 162.436 36.0988 162.254C36.0988 162.254 36.0993 162.135 36.0995 162.087C36.0997 162.039 36.3825 162.088 36.524 162.089C36.8144 162.047 37.0947 161.951 37.3504 161.805C37.4433 161.781 37.5407 161.781 37.6334 161.806C37.7749 161.806 37.8448 161.998 37.8677 162.166C37.8906 162.334 38.1016 162.622 38.2667 162.623C38.4077 162.594 38.5363 162.521 38.6341 162.414C38.7319 162.307 38.7939 162.171 38.8115 162.026C39.3529 162.244 39.7527 162.509 39.7522 162.629C39.6295 162.773 39.4758 162.887 39.3028 162.962C39.1769 163.005 39.0624 163.077 38.968 163.172C38.8736 163.267 38.8019 163.383 38.7582 163.51C38.7186 163.579 38.6976 163.658 38.6973 163.738C38.697 163.817 38.7174 163.896 38.7564 163.965C38.8601 164.064 38.9823 164.141 39.1158 164.191C39.2493 164.241 39.3913 164.263 39.5333 164.256L39.8635 164.257C39.8635 164.257 40.0757 164.258 40.1694 164.402C40.2916 164.499 40.4387 164.558 40.5931 164.571C40.6643 164.581 40.7363 164.564 40.7968 164.525C40.8573 164.486 40.9023 164.427 40.9241 164.357C40.9619 164.22 40.96 164.075 40.9187 163.939C40.8775 163.803 40.7986 163.682 40.6915 163.59L40.9503 163.735C41.4912 164.072 41.4902 164.312 41.442 164.575C41.3849 164.721 41.3842 164.883 41.4402 165.03C41.5057 165.094 41.5832 165.144 41.6681 165.177C41.753 165.21 41.8436 165.226 41.9345 165.223C42.1775 165.217 42.4141 165.143 42.6192 165.011C43.0319 164.726 43.514 164.562 44.0124 164.538L44.3896 164.539C45.0913 164.733 45.7764 164.984 46.438 165.29L47.1443 165.556C47.733 165.75 48.8162 166.114 48.933 166.401C49.4933 167.768 49.9622 168.417 50.41 168.491L50.6458 168.491C51.1017 168.452 51.5366 168.28 51.8975 167.994L52.0626 167.995C52.2714 168.037 52.4612 168.147 52.6036 168.308L52.603 168.452L52.7681 168.452L53.2646 168.119C53.4932 168.198 53.7307 168.247 53.9714 168.266C54.0464 168.271 54.1215 168.258 54.191 168.23C54.2606 168.201 54.3228 168.157 54.373 168.1C54.4162 167.951 54.4168 167.794 54.3748 167.645L54.3758 167.405C54.4321 167.081 54.5538 166.772 54.7332 166.497L54.969 166.498C55.0535 166.471 55.1441 166.471 55.2284 166.499C55.2284 166.499 55.2284 166.499 55.2276 166.691C55.1651 166.813 55.1321 166.948 55.1316 167.085C55.131 167.223 55.1628 167.358 55.2244 167.481C55.2863 167.559 55.3653 167.622 55.4552 167.664C55.545 167.706 55.6433 167.726 55.7421 167.722L55.8836 167.723L56.143 167.724C56.4336 167.705 56.725 167.706 57.0154 167.728L57.1805 167.728C57.1931 167.816 57.1927 167.904 57.1794 167.992C57.2693 168.266 57.4126 168.519 57.6008 168.736C57.8863 169.001 58.2506 169.163 58.6365 169.195L58.8015 169.195C58.9726 169.363 59.0872 169.582 59.1291 169.819C59.1519 169.868 59.1636 169.921 59.1634 169.975C59.1632 170.029 59.151 170.082 59.1278 170.131C59.0202 170.235 58.935 170.362 58.8777 170.502C58.8203 170.641 58.7919 170.792 58.7944 170.943C58.8098 171.062 58.8516 171.175 58.9166 171.275C58.9815 171.375 59.0679 171.458 59.1693 171.519C59.3501 171.618 59.5528 171.669 59.7582 171.665C59.9586 171.688 60.1608 171.645 60.3352 171.542C60.5096 171.439 60.647 171.283 60.7273 171.095C60.7731 171.079 60.8231 171.079 60.8688 171.095C60.8997 171.159 60.9156 171.228 60.9153 171.299C60.915 171.37 60.8985 171.439 60.8671 171.502C60.8577 171.654 60.8571 171.806 60.8653 171.957C60.8636 172.364 60.8626 172.604 60.5791 172.746C60.4779 172.809 60.3998 172.904 60.3567 173.016C60.3137 173.128 60.3081 173.252 60.3408 173.368C60.3822 173.458 60.449 173.533 60.5328 173.585C60.6165 173.636 60.7134 173.661 60.8112 173.657L61.047 173.658L61.212 173.659C61.8022 173.494 62.7936 173.234 63.1034 172.445C63.3078 171.926 63.685 171.495 64.1694 171.229C64.476 171.23 64.5955 170.823 64.7146 170.537C64.8337 170.25 64.7157 170.273 64.8812 170.154C65.0848 169.748 65.137 169.28 65.0281 168.838C64.9817 168.674 64.8827 168.53 64.7468 168.43C64.5346 168.429 64.4173 168.261 64.5606 167.83L64.5619 167.495C64.5993 167.562 64.65 167.62 64.7107 167.665C64.7714 167.711 64.8409 167.743 64.9146 167.76L65.3861 167.762C65.7634 167.764 66.4001 167.766 66.5674 167.216C66.5792 167.151 66.6151 167.092 66.6677 167.052C66.7204 167.012 66.786 166.994 66.8512 167.002C67.0122 167.018 67.1662 167.077 67.2985 167.171C67.5379 167.303 67.7905 167.408 68.0518 167.486C68.3079 167.577 68.5526 167.699 68.7813 167.848C68.9535 167.972 69.1589 168.039 69.37 168.042C69.6545 168.023 69.9301 167.934 70.1728 167.782C70.2501 167.761 70.3315 167.761 70.4086 167.783C70.47 167.779 70.5312 167.793 70.5852 167.823C70.6393 167.853 70.684 167.897 70.7144 167.951C70.7144 167.951 70.7135 168.167 70.5484 168.19C70.3832 168.213 70.1936 168.452 70.287 168.692C70.3803 168.932 70.6633 168.933 70.9698 168.934L71.3471 168.936C71.63 168.937 71.8871 169.489 71.9567 169.776C71.9554 170.087 72.1183 170.615 72.9908 170.618L73.1794 170.619C73.8736 170.514 74.5544 170.333 75.2095 170.077L75.5874 169.935C75.5619 170.012 75.5615 170.096 75.5864 170.174C75.5974 170.251 75.6267 170.324 75.6716 170.387C75.7165 170.449 75.7758 170.5 75.8443 170.534C75.9581 170.61 76.0866 170.659 76.221 170.68C76.4568 170.681 76.5753 170.514 76.8124 170.203C77.1207 169.774 77.2631 169.559 77.5696 169.56C77.842 169.587 78.1106 169.644 78.3706 169.731L78.6064 169.732L78.6116 168.463L78.3036 168.821C78.3063 168.15 78.4244 168.103 78.8724 168.105L79.792 168.108C80.1089 168.138 80.4261 168.055 80.689 167.873C80.7847 167.818 80.8556 167.727 80.8869 167.62C80.9181 167.513 80.9072 167.398 80.8564 167.299C80.8564 167.299 80.8572 167.107 80.8582 166.868C80.9963 166.678 81.1789 166.527 81.3893 166.427C81.5998 166.328 81.8314 166.284 82.0631 166.298L83.6665 166.305L84.3503 166.308C84.6862 166.347 85.0241 166.254 85.2946 166.048C85.9617 165.61 86.7232 165.342 87.5143 165.267L88.2688 165.27L89.0233 165.273L89.5657 165.276L90.108 165.278C90.3674 165.279 90.5324 165.28 90.6277 165.04C90.723 164.801 90.6293 164.657 90.395 164.297C90.0436 163.721 89.9501 163.529 90.2342 163.243L90.6607 162.742C90.8028 162.575 90.9214 162.408 91.0395 162.361C91.026 162.608 90.9691 162.851 90.8715 163.078C90.8715 163.078 90.7527 163.317 90.87 163.461C90.8996 163.509 90.9416 163.548 90.9913 163.574C91.0411 163.599 91.0967 163.61 91.1523 163.606C91.4386 163.574 91.7177 163.494 91.9786 163.37C92.3399 163.226 92.7232 163.146 93.1114 163.135C93.4415 163.137 93.6066 163.137 93.6531 163.281L93.8169 163.593C94.004 163.977 94.2378 164.457 94.6618 164.578C95.0857 164.7 94.6618 164.578 94.8504 164.579C94.9975 164.615 95.151 164.616 95.2984 164.581C95.4331 164.572 95.5644 164.534 95.6828 164.468C95.8013 164.403 95.904 164.311 95.9838 164.201L96.2208 163.89C96.3136 163.726 96.4434 163.587 96.5996 163.483C96.7558 163.38 96.9339 163.315 97.1193 163.295L97.2844 163.296L97.8267 163.298C97.9963 163.283 98.1651 163.336 98.2977 163.444C98.3738 163.547 98.4367 163.66 98.485 163.78C98.5288 163.935 98.6064 164.078 98.712 164.199C98.8176 164.319 98.9486 164.414 99.0952 164.477L99.2367 164.477C99.2367 164.477 99.2367 164.477 99.0946 164.62L98.9526 164.763C98.8876 164.827 98.8403 164.907 98.8151 164.995C98.7899 165.083 98.7878 165.177 98.809 165.266C98.8909 165.487 99.0195 165.688 99.1858 165.854C99.3521 166.021 99.5521 166.148 99.7719 166.227C100.028 166.361 100.253 166.55 100.43 166.781C100.669 167.086 100.986 167.32 101.347 167.455L102.313 167.674L102.454 167.675C102.737 167.676 102.856 167.485 102.974 167.318L103.164 167.079C103.257 166.974 103.309 166.838 103.31 166.697C103.31 166.555 103.259 166.419 103.167 166.313C103.149 166.218 103.149 166.121 103.168 166.026C103.18 165.906 103.181 165.786 103.17 165.667C103.127 165.533 103.118 165.391 103.143 165.253C103.168 165.115 103.227 164.986 103.314 164.877L103.457 164.71C103.836 164.281 104.214 163.875 103.793 163.203L103.582 162.795C103.325 162.267 102.998 161.596 102.432 161.593C102.237 161.602 102.048 161.668 101.889 161.783C101.694 161.926 101.479 162.038 101.251 162.115C101.251 162.115 101.251 161.948 101.11 161.803C101.051 161.724 101.02 161.627 101.02 161.528C101.021 161.428 101.053 161.332 101.113 161.253C101.232 161.093 101.328 160.916 101.398 160.727C101.476 160.551 101.571 160.383 101.683 160.226C101.917 160 102.074 159.704 102.131 159.381C102.187 159.058 102.14 158.725 101.997 158.431C101.832 158.169 101.683 157.896 101.552 157.615C101.318 157.135 101.131 156.752 100.778 156.63C100.579 156.548 100.404 156.413 100.273 156.24C100.141 156.067 100.056 155.862 100.027 155.646C100.029 155.143 99.6055 154.997 99.2288 154.852L98.5952 154.107C98.3849 154.013 98.2173 153.841 98.1256 153.627C98.0515 153.434 98.0524 153.22 98.128 153.028C98.2391 152.845 98.4049 152.703 98.6012 152.623C98.8876 152.473 99.1319 152.251 99.3113 151.979C99.4459 151.761 99.5352 151.517 99.5736 151.262C99.5745 151.047 99.5746 150.999 99.7871 150.952C99.8958 150.928 100.009 150.928 100.117 150.953L100.494 150.955C100.579 150.961 100.663 150.947 100.741 150.914C100.819 150.881 100.888 150.83 100.943 150.765C101.339 150.238 101.839 149.799 102.41 149.478C102.875 149.33 103.348 149.212 103.827 149.125L104.464 148.984C105.054 148.819 107.205 147.606 107.373 146.793C107.405 146.499 107.406 146.202 107.377 145.907C107.342 145.685 107.343 145.459 107.38 145.237C107.523 144.711 107.69 144.256 107.69 144.256L107.691 144.113C107.546 143.753 107.452 143.373 107.412 142.986C107.539 142.942 107.659 142.878 107.767 142.796C107.944 142.703 108.086 142.552 108.169 142.367C108.204 142.295 108.253 142.23 108.312 142.176C108.455 142.345 108.643 142.471 108.852 142.537C109.087 142.637 109.332 142.71 109.583 142.756C109.797 142.795 110.004 142.868 110.195 142.974C110.3 143.049 110.395 143.138 110.477 143.238C110.664 143.479 110.899 143.743 111.158 143.744C111.196 143.76 111.236 143.768 111.276 143.768C111.317 143.769 111.357 143.761 111.394 143.745C111.57 143.608 111.695 143.414 111.75 143.196C111.8 143.027 111.872 142.867 111.964 142.718C112.038 142.625 112.126 142.544 112.225 142.479C112.437 142.337 112.58 142.194 112.676 141.667C112.715 141.463 112.771 141.263 112.843 141.069C112.845 140.614 113.083 140.208 112.848 139.872C112.805 139.785 112.75 139.704 112.684 139.632C112.685 139.488 112.544 139.44 112.687 139.01L112.689 138.555C112.805 138.23 112.807 137.875 112.693 137.549L112.553 137.213C112.443 136.976 112.309 136.751 112.155 136.541C111.918 136.198 111.706 135.837 111.522 135.461C111.503 135.394 111.463 135.334 111.408 135.291C111.353 135.248 111.286 135.223 111.217 135.221L110.957 135.22C110.84 135.23 110.721 135.23 110.604 135.218C110.274 135.217 110.086 134.977 109.852 134.425C109.71 134.168 109.511 133.95 109.27 133.786C109.029 133.623 108.753 133.52 108.465 133.485L108.324 133.485C108.017 133.484 107.898 133.77 107.827 133.938C107.462 133.621 107.038 133.382 106.58 133.238C106.569 133.151 106.569 133.062 106.581 132.975C106.663 132.694 106.664 132.395 106.584 132.113C106.204 131.407 105.645 130.818 104.964 130.406C104.634 130.405 103.762 130.401 103.502 130.4C103.325 130.244 103.188 130.046 103.104 129.824C103.106 129.321 102.4 128.84 102.048 128.623C101.9 128.503 101.787 128.345 101.719 128.166C101.678 128.017 101.606 127.878 101.509 127.758C101.236 127.378 100.938 127.017 100.617 126.677C100.174 126.128 99.5447 125.767 98.8528 125.665L98.4991 125.663L98.3576 125.662C98.0947 125.733 97.8262 125.78 97.5553 125.803C97.5119 125.809 97.4676 125.807 97.425 125.796C97.3825 125.785 97.3425 125.766 97.3075 125.739C97.2725 125.712 97.2431 125.678 97.221 125.639C97.199 125.601 97.1848 125.558 97.1792 125.514C97.0369 125.137 96.8029 124.802 96.4988 124.541C96.1948 124.28 95.8307 124.102 95.4404 124.022C95.4404 124.022 95.3016 123.375 95.3029 123.04C95.3171 122.857 95.3178 122.673 95.3052 122.489C95.2592 122.318 95.1701 122.161 95.0466 122.035C94.9232 121.908 94.7695 121.816 94.6007 121.768C94.4146 121.165 94.1966 120.573 93.9477 119.994C93.8465 119.885 93.7271 119.796 93.5951 119.729C93.3829 119.728 93.3829 119.728 93.3837 119.537C93.3845 119.345 93.6003 118.46 93.1056 118.338C92.7085 118.251 92.3375 118.069 92.0231 117.807C91.8122 117.495 91.7418 117.399 92.0258 117.137C92.2444 116.891 92.4999 116.682 92.7829 116.517L93.4211 116.137L92.6194 116.134C92.5966 116.085 92.5849 116.032 92.5851 115.978C92.5853 115.924 92.5975 115.871 92.6207 115.822C92.7548 115.405 92.9643 115.016 93.2385 114.676C93.3602 114.56 93.4553 114.419 93.5171 114.262C93.5789 114.105 93.6058 113.936 93.5959 113.767C93.5569 113.652 93.4886 113.549 93.3979 113.468C93.3071 113.388 93.1971 113.334 93.079 113.31C92.6082 113.117 92.5615 112.997 92.5615 112.997C92.6285 112.935 92.6773 112.855 92.7026 112.766C92.7279 112.678 92.7288 112.584 92.705 112.495C92.6146 112.324 92.4831 112.179 92.3228 112.074C92.1624 111.968 91.9784 111.906 91.7879 111.892C91.4925 111.86 91.2178 111.723 91.0113 111.506L90.7058 111.241L90.0236 110.856C89.7412 110.711 89.5294 110.614 89.4362 110.35C89.3006 110.033 89.0476 109.783 88.7316 109.653L88.4728 109.508C88.4728 109.508 88.4734 109.365 88.474 109.221C88.4687 109.027 88.5187 108.836 88.6177 108.671C88.7775 108.495 88.8667 108.265 88.8677 108.026C88.8686 107.786 88.7814 107.555 88.623 107.378C88.5875 107.263 88.5198 107.16 88.428 107.083C88.3362 107.007 88.2243 106.958 88.106 106.945C87.9313 106.94 87.7643 106.871 87.6352 106.752C87.4915 106.647 87.3327 106.566 87.1646 106.51C87.1062 106.491 87.0539 106.456 87.0127 106.41C86.9716 106.363 86.943 106.307 86.9299 106.246C86.9329 106.185 86.9522 106.126 86.9857 106.076C87.0191 106.025 87.0654 105.985 87.1197 105.959C87.1856 105.93 87.2449 105.888 87.2938 105.835C87.3428 105.781 87.3802 105.718 87.4039 105.649C87.447 105.336 87.3905 105.017 87.2426 104.739C87.3997 104.637 87.5772 104.572 87.7621 104.549C88.0451 104.55 87.9718 105.173 88.2064 105.461C88.441 105.749 88.866 105.607 89.0773 105.848C89.2885 106.088 89.0757 106.231 89.0748 106.446C89.074 106.662 89.3106 106.447 89.3798 106.831C89.449 107.214 89.7512 108.269 90.1332 107.121C90.5151 105.973 90.5646 105.399 90.801 105.256C91.0352 105.012 91.1711 104.688 91.182 104.348C91.1833 104.037 91.7736 103.824 91.9861 103.753C92.1987 103.682 92.3656 103.227 92.5083 102.917C93.2309 102.514 94.0448 102.311 94.8687 102.328C95.1752 102.329 95.1752 102.329 95.7666 101.877C96.0553 101.655 96.4079 101.535 96.7701 101.537C97.1323 101.538 97.484 101.66 97.7708 101.885C98.5943 102.343 98.3582 102.414 98.3582 102.414C98.5848 102.37 98.7977 102.271 98.9789 102.126C99.16 101.981 99.3042 101.794 99.3991 101.58C99.6376 100.911 99.4025 100.742 99.4043 100.311C99.406 99.8804 99.8523 100.313 100.23 100.147C100.385 100.053 100.557 99.9925 100.735 99.9686C100.914 99.9446 101.095 99.9579 101.268 100.008C101.716 100.153 102.094 100.011 102.097 99.245C102.1 98.4789 102.385 97.9054 102.691 98.0504C102.997 98.1953 103.443 98.652 103.515 98.2932C103.535 97.9374 103.66 97.5958 103.873 97.313C104.064 97.0688 104.194 96.7821 104.254 96.4765C104.237 96.6166 104.256 96.7587 104.309 96.8891C104.362 97.0194 104.448 97.1334 104.557 97.22C104.933 97.5328 105.145 97.7492 105.358 97.5346C105.571 97.32 105.665 97.3922 105.973 96.9385C106.188 96.6607 106.291 96.31 106.26 95.9581C106.262 95.575 106.052 95.0474 106.429 95.1207C106.611 95.1884 106.807 95.2111 107 95.1869C107.192 95.1627 107.377 95.0924 107.538 94.9817C108.058 94.6725 108.268 94.9847 108.646 94.9862C109.023 94.9878 109.095 94.7486 109.614 94.6071C110.133 94.4656 110.203 94.7532 110.652 94.6114C111.1 94.4696 111.407 94.4708 111.243 94.0871C111.08 93.7033 111.247 93.0336 112.144 92.7979C113.041 92.5621 113.111 92.9694 113.773 92.5172C114.326 92.1332 114.903 91.7837 115.498 91.4709C115.947 91.2333 115.357 91.3027 115.878 90.8499C116.399 90.3971 116.539 90.5653 117.13 90.4241C117.72 90.2828 118.335 89.8065 117.511 89.5158C116.686 89.2251 116.545 89.1288 116.547 88.8175C116.548 88.5063 116.099 88.6002 115.959 88.3602C115.818 88.1202 115.795 88.144 115.962 87.618C116.129 87.0919 115.964 87.0912 116.624 87.1658C117.284 87.2403 117.214 87.1682 117.519 87.5525C117.824 87.9369 117.965 87.9375 118.25 87.5555C118.534 87.1736 118.864 87.1032 119.146 87.3916C119.428 87.6801 120.182 87.9226 120.345 88.2346C120.431 88.3965 120.476 88.5778 120.475 88.7618C120.475 88.9459 120.428 89.1268 120.341 89.288C120.104 89.5983 120.338 90.0542 120.858 89.7451C121.378 89.4359 121.517 90.1308 121.209 90.5127C120.9 90.8945 121.064 91.1825 121.583 91.2564C122.071 91.3003 122.536 91.485 122.925 91.7887C123.065 92.0287 123.821 91.7924 123.894 91.1941C123.873 90.5986 124.059 90.0145 124.419 89.5442C124.869 89.0193 124.802 88.1092 125.017 87.5834C125.487 86.4836 125.771 85.311 125.856 84.1151C125.622 83.6592 125.861 83.0617 126.004 82.5355C126.148 82.0094 125.61 80.9058 125.329 80.3061Z" fill="white" fill-opacity="0.5"/>
</svg>
