<svg width="308" height="122" viewBox="0 0 308 122" fill="none" xmlns="http://www.w3.org/2000/svg">
<g clip-path="url(#clip0)">
<path fill-rule="evenodd" clip-rule="evenodd" d="M234.475 6.76079C241.803 4.36824 248.163 12.25 261.404 7.03817C269.455 3.87274 255.38 15.636 270.592 17.0603C278.978 23.3902 266.595 30.0267 279.532 32.9143C292.942 35.9153 285.027 36.6346 291.998 42.2737C288.305 45.9516 293.607 50.9146 287.916 49.2414C282.196 47.5824 285.556 49.5726 286.889 59.2495C288.248 68.9259 292.606 62.5816 291.247 69.5773C289.914 76.5843 295.605 83.5795 299.963 82.5832C304.324 81.5896 300.907 90.1169 305.35 91.5835C307.349 92.2601 307.181 94.1824 307.599 95.8414C294.607 102.919 302.297 92.9114 292.885 92.9114C285.195 92.9114 290.582 90.0772 274.785 88.5826C265.68 87.713 268.676 89.6074 264.042 93.9615C256.989 85.6269 261.765 93.2567 246.662 93.2567C222.649 93.2567 215.153 109.581 196.388 99.9181C185.338 109.581 179.286 101.923 174.263 103.25C173.927 110.923 174.596 112.582 174.928 116.922C170.931 120.585 172.597 121.539 163.878 119.396C160.521 110.592 171.235 117.253 166.545 107.576C164.1 102.545 161.408 109.581 158.855 109.581C148.803 109.581 151.802 99.2557 142.086 107.259C132.369 115.249 139.726 121.596 134.035 118.581C134.703 118.94 119.682 123.17 117.297 119.923C109.912 109.929 105.554 112.582 99.5016 108.256C93.478 103.913 85.6744 104.924 87.7866 109.929C90.4788 116.259 76.2083 116.48 75.0425 119.258C73.3766 123.255 60.6356 113.59 64.6608 110.246C68.6863 106.914 56.9429 109.929 56.6104 106.914C56.9146 109.484 47.0585 109.569 46.5616 108.918C44.5345 106.251 38.4538 110.3 37.1772 108.587C34.1497 104.578 46.8938 106.251 47.5589 102.588C47.7271 101.716 35.7899 103.016 35.8443 103.25C35.5114 101.577 33.8172 97.9137 37.5098 99.2556C41.2027 100.583 41.5353 93.5879 37.8427 94.9157C34.1497 96.2546 35.1504 91.5835 30.1243 91.5835C24.1004 91.5835 34.289 84.7402 25.1011 80.5931C21.4085 78.92 21.0759 75.2562 16.3826 78.92C11.6919 82.5834 18.4093 73.5857 14.3841 70.2539C10.3586 66.9076 14.3584 63.9348 16.3826 66.9076C21.4085 74.2488 16.7178 66.9076 20.7434 67.5841C24.7685 68.2495 16.0501 61.9194 19.7426 60.9086C23.4352 59.9147 16.7178 58.5868 19.0776 56.5824C21.4086 54.5781 7.99941 52.5879 18.4095 48.9103C3.8091 49.3659 14.2479 49.4625 10.6943 41.9147C8.33195 36.9121 11.3593 39.9241 16.3827 37.5741C21.4086 35.2527 26.7956 28.2433 28.7943 31.9208C30.7928 35.5701 33.1521 28.9198 36.5122 31.5755C38.7608 33.3731 58.441 32.1273 52.5849 29.9165C45.5606 27.2467 62.3015 27.5802 67.66 25.5762C57.9691 22.244 45.5606 26.901 49.9187 18.5806C54.2795 10.2457 75.3755 26.5843 82.7607 17.9184C90.1464 9.24926 96.8351 13.9093 106.552 6.91337C116.268 -0.0818905 128.344 6.91338 134.729 1.57704C141.088 -3.75982 140.42 7.57601 150.137 6.5824C159.853 5.57179 152.831 12.2502 163.878 12.5817C174.928 12.9129 167.378 18.8836 173.927 17.5699C175.622 17.2528 183.979 23.5834 197.385 17.5699C207.352 13.1194 215.514 31.1452 234.475 6.76098V6.76079ZM1.00335 24.9534C-0.912358 26.3629 4.55687 25.6581 5.25037 27.3172C5.97255 28.9479 5.50052 33.4268 8.80388 32.487C12.1356 31.5468 12.8291 29.6672 17.1045 27.5381C21.3545 25.4234 20.8798 29.1971 17.801 29.6672C14.7195 30.1369 13.3011 32.9567 10.4697 35.7906C7.61272 38.6107 11.8854 37.9056 14.967 35.5559C18.0707 33.1271 21.3994 30.9979 24.9081 29.1971C28.8196 27.1928 25.738 25.0778 28.5724 24.138C31.4294 23.1981 29.5417 19.6591 33.7914 19.1891C38.0388 18.719 38.7606 22.949 40.8986 20.364C43.0334 17.7651 47.8662 23.6538 48.4202 17.1847C48.8926 15.5257 47.2264 17.4198 42.2572 13.8808C37.2883 10.3563 31.3754 5.75236 29.4594 3.16799C24.3508 3.31759 19.4103 2.57349 15.6349 0.928569C11.8315 -0.719033 10.1941 3.04323 7.58451 3.52744C4.97457 3.98337 4.25282 4.23254 2.14331 6.84282C4.7245 8.73653 6.64055 8.69687 5.91869 12.0008C5.19647 15.2906 1.89316 14.1158 1.64296 16.48C1.42148 18.8297 3.89189 21.6632 1.00351 24.9534H1.00335Z" fill="white" fill-opacity="0.5"/>
</g>
<defs>
<clipPath id="clip0">
<rect x="0.598633" y="0.141113" width="307" height="121" rx="5" fill="white"/>
</clipPath>
</defs>
</svg>
