<svg width="216" height="111" viewBox="0 0 216 111" fill="none" xmlns="http://www.w3.org/2000/svg">
<path d="M5.16396 59.0549C5.11074 59.1197 5.06577 59.1909 5.02072 59.2616C4.92136 59.4177 4.75981 59.5234 4.57914 59.5632C4.49712 59.5812 4.4139 59.5939 4.33002 59.601H4.29921C3.77333 59.601 3.25596 59.4939 2.74077 59.3884C2.61244 59.3621 2.51354 59.352 2.49244 59.3767C2.44362 59.4338 2.19239 59.5529 2.00283 59.5977C1.87644 59.6276 1.74168 59.595 1.61196 59.5888C1.4614 59.5815 1.31068 59.579 1.16003 59.5813C0.853349 59.5858 0.656814 59.894 0.716867 60.1948C0.72268 60.2239 0.725667 60.2532 0.733783 60.2817C0.770732 60.4118 0.922635 60.7487 1.04714 61.0329C1.17189 61.3176 1.25556 61.6272 1.44313 61.875C1.44729 61.8805 1.45148 61.886 1.4557 61.8914L1.74581 62.1961C1.88043 62.3374 2.03933 62.4395 2.21708 62.5202C2.35858 62.5844 2.46906 62.7117 2.58002 62.8205C2.65546 62.8945 2.73638 62.9628 2.82213 63.0249C3.03357 63.2015 3.17948 63.472 3.3749 63.6662C3.47386 63.7645 3.57584 63.8598 3.68069 63.9518C3.76568 64.0265 3.83356 64.1189 3.87546 64.2239C3.89562 64.2745 3.92178 64.3224 3.95336 64.3667L3.97024 64.3904C4.08159 64.5466 4.14143 64.7337 4.14143 64.9255V64.9865C4.14143 65.0326 4.1385 65.0785 4.13341 65.1242C4.12659 65.1856 4.11788 65.2723 4.11788 65.3154C4.11788 65.3518 4.1241 65.4443 4.13014 65.5257C4.13716 65.62 4.17498 65.7085 4.20936 65.7966C4.23089 65.8518 4.23336 65.9124 4.2231 65.9707C4.22273 65.9728 4.22235 65.9749 4.22196 65.977C4.20499 66.0709 4.1531 66.1536 4.08577 66.2211L3.51935 66.7889C3.40008 66.9084 3.27208 67.0187 3.14236 67.1268C2.97861 67.2633 2.77923 67.445 2.82197 67.4879C2.85723 67.5233 2.71588 67.724 2.56571 67.9158C2.36656 68.1703 2.17757 68.4332 2.02096 68.7158L1.66758 69.1881L1.1257 69.8257L0.913886 70.1162C0.757178 70.3311 0.620262 70.5614 0.53578 70.8136C0.446772 71.0794 0.450601 71.3616 0.637931 71.5701C0.661364 71.5962 0.68331 71.621 0.701679 71.644C0.733153 71.6834 0.767248 71.7281 0.798704 71.7701C0.872744 71.8691 0.896414 71.9964 0.866418 72.1163C0.837232 72.2298 0.797797 72.3405 0.748608 72.4468C0.731144 72.4926 0.721295 72.5407 0.719253 72.5893C0.716756 72.6486 0.755474 72.6996 0.807578 72.7281C0.90397 72.7808 1.06773 72.8516 1.14218 72.9323C1.15175 72.9427 1.16189 72.954 1.17263 72.9663C1.27001 73.0779 1.28069 73.2408 1.1987 73.3641L1.15937 73.4232C1.09289 73.5232 1.07304 73.6465 1.09953 73.7636C1.11856 73.8478 1.13569 73.9323 1.15091 74.0172C1.16631 74.1032 1.1706 74.1917 1.15008 74.2766C1.13335 74.3458 1.10936 74.4132 1.07843 74.4776C1.0127 74.671 1.05615 74.8931 1.21791 75.0177C1.27573 75.0622 1.3392 75.0996 1.40696 75.1286C1.42332 75.1356 1.43881 75.1445 1.45256 75.1558C1.55607 75.2407 1.79737 75.4024 1.84714 75.5267C1.85726 75.5519 1.86801 75.58 1.87944 75.6111L1.95198 75.8085C2.01232 75.9726 2.11784 76.1164 2.25637 76.2232C2.31895 76.2715 2.39072 76.3074 2.45263 76.3565C2.49688 76.3915 2.53432 76.435 2.56263 76.4848C2.60991 76.6029 2.82179 76.6973 2.75109 76.7682C2.71593 76.8145 2.68385 76.863 2.65502 76.9134C2.60436 77.0019 2.54918 77.0886 2.47712 77.1608L2.4504 77.1876C2.39998 77.2382 2.35905 77.2973 2.32957 77.3624L2.32838 77.365C2.28139 77.4686 2.26559 77.5837 2.28291 77.6962C2.29655 77.7847 2.33032 77.869 2.38163 77.9425L2.39904 77.9674C2.44496 78.0331 2.47806 78.107 2.4966 78.185L2.50423 78.2171C2.55466 78.4294 2.48238 78.6521 2.31687 78.7943C2.27683 78.8287 2.24087 78.868 2.21457 78.9138C2.15897 79.0106 2.11753 79.115 2.09163 79.224C2.08178 79.327 2.06575 79.4293 2.04365 79.5303C2.02981 79.5936 2.01877 79.66 2.04067 79.7209C2.06458 79.7875 2.12147 79.8349 2.1833 79.8693C2.24552 79.9038 2.3099 79.9342 2.37603 79.9602C2.5125 80.0139 2.66047 80.0269 2.80715 80.0269H3.29178C3.40241 80.0269 3.51273 80.0128 3.6233 80.0094C3.78016 80.0045 3.9299 80.062 4.07536 80.1209C4.09895 80.1305 4.12262 80.1399 4.14636 80.1491C4.2675 80.1959 4.38737 80.2464 4.5021 80.3072L4.73019 80.4283L4.9572 80.5648C5.11968 80.6626 5.29296 80.741 5.46053 80.8297C5.58712 80.8896 5.72224 80.9295 5.86102 80.9478H6.77195C6.88666 80.9478 7.00089 80.9626 7.11181 80.9919L7.17035 81.0073C7.31665 81.0459 7.45293 81.1155 7.56993 81.2115L7.64451 81.2726C7.64919 81.2765 7.65347 81.2808 7.65729 81.2854L7.70973 81.3497C7.7531 81.4028 7.97691 81.4929 8.02848 81.5382C8.06995 81.5753 8.1143 81.6087 8.16102 81.6383C8.30815 81.7316 8.52532 81.646 8.66456 81.7507C8.70274 81.7766 8.74163 81.8014 8.78118 81.8251C8.88893 81.8896 9.01417 81.9188 9.1266 81.9748C9.15585 81.9894 9.18402 82.0061 9.21087 82.025C9.24007 82.0455 9.26411 82.0722 9.2872 82.0994C9.34342 82.1657 9.42912 82.2552 9.48389 82.3114C9.5144 82.3428 9.51594 82.3918 9.51594 82.4355C9.51594 82.4606 9.52295 82.4851 9.53621 82.5063C9.54884 82.5252 9.56984 82.5526 9.59384 82.5825C9.69211 82.7049 9.77441 82.8439 9.7689 83.0008C9.76668 83.064 9.73717 83.1266 9.71222 83.1848C9.69972 83.214 9.68673 83.2429 9.67325 83.2716C9.63144 83.3606 9.5727 83.4406 9.52693 83.5277C9.51787 83.5449 9.50942 83.5625 9.5016 83.5803C9.4453 83.7084 9.44528 83.852 9.43662 83.9917C9.43266 84.0556 9.42659 84.1194 9.4184 84.1829C9.40076 84.3555 9.39292 84.5289 9.39487 84.7024C9.39487 84.7597 9.40352 84.8603 9.41033 84.9306C9.41541 84.9832 9.41619 85.0377 9.43833 85.0856C9.441 85.0914 9.44391 85.0971 9.44708 85.1026C9.46337 85.1312 9.48576 85.1558 9.51266 85.1747C9.53595 85.1887 9.55937 85.2025 9.58291 85.2161C9.81381 85.3496 10.1078 85.468 10.3608 85.5525C10.4633 85.5981 10.6773 85.7494 10.7684 85.8149C10.7858 85.8274 10.802 85.8389 10.8157 85.8484C10.8265 85.8559 10.8381 85.862 10.8503 85.8667C10.9047 85.8879 10.9599 85.9069 11.0157 85.9237C11.1569 85.9663 11.2956 86.0198 11.4183 86.1017C11.5291 86.1758 11.6523 86.2293 11.782 86.2599L11.8078 86.266C11.9262 86.294 12.04 86.3387 12.1452 86.3998C12.2402 86.455 12.3496 86.5194 12.3869 86.5443C12.4306 86.5732 12.4747 86.6014 12.5194 86.6287C12.7243 86.754 12.9474 86.8464 13.1743 86.925C13.1951 86.9323 13.2155 86.9392 13.235 86.9457C13.3763 86.9929 13.2114 86.8749 13.5413 87.111C13.6864 87.1966 13.8142 87.3088 13.9182 87.4416L13.9713 87.5162C14.0134 87.5752 14.036 87.6458 14.036 87.7183C14.036 87.7843 14.0559 87.8485 14.0867 87.9069C14.1237 87.977 14.154 88.0505 14.1773 88.1264C14.1856 88.1787 14.2045 88.2288 14.2329 88.2734C14.2613 88.3181 14.2985 88.3565 14.3422 88.3862C14.3553 88.3928 14.3682 88.3996 14.3809 88.4068C14.5002 88.4735 14.6294 88.5279 14.7661 88.5279H14.9489C15.0536 88.5279 15.1492 88.5871 15.196 88.6808C15.2079 88.7046 15.2232 88.7267 15.2414 88.7461L15.3659 88.8793C15.4982 89.0207 15.6627 89.1281 15.8455 89.1922L15.9568 89.2312C16.0109 89.2502 16.0677 89.2599 16.1251 89.2599C16.1923 89.2599 16.2589 89.2465 16.3209 89.2206L16.3683 89.2009C16.4616 89.1619 16.5617 89.1418 16.6628 89.1418H17.2654C17.311 89.1418 17.3562 89.1492 17.3994 89.1636L17.4812 89.1909C17.6046 89.2321 17.7387 89.1882 17.8289 89.0946C17.8996 89.0238 17.9468 88.9293 18.041 88.8821C18.3037 88.7505 18.5675 88.6234 18.8596 88.5926C18.9544 88.5826 19.0476 88.5732 19.1208 88.5658C19.2172 88.5562 19.3146 88.5644 19.4115 88.5607C19.4132 88.5606 19.4149 88.5605 19.4166 88.5604C19.4735 88.5578 19.5289 88.5426 19.5824 88.5229C19.6157 88.5107 19.6488 88.498 19.6818 88.4848C19.7964 88.4388 19.8912 88.3554 19.9596 88.2526C19.9841 88.2158 20.0122 88.1817 20.0421 88.1491C20.0978 88.0883 20.1849 87.9856 20.1849 87.9375V87.418C20.1728 87.2687 20.1728 87.1187 20.1849 86.9693C20.1915 86.8872 20.1945 86.8048 20.1938 86.7225C20.1928 86.5906 20.2178 86.4587 20.2798 86.3423L20.3269 86.2538C20.3572 86.1967 20.4031 86.1494 20.4591 86.1173C20.511 86.0876 20.5697 86.072 20.6294 86.072H20.6445C20.6987 86.072 20.7524 86.083 20.802 86.1049C20.8577 86.1296 20.9329 86.1636 20.9858 86.1901C21.0346 86.2145 21.1148 86.2452 21.181 86.2692C21.2543 86.2958 21.3319 86.3081 21.4099 86.3081C21.4715 86.3083 21.533 86.306 21.5943 86.301C21.6915 86.2933 21.8268 86.3062 21.8575 86.2137C21.8811 86.1428 21.8811 85.8831 21.9753 85.765C22.0377 85.6751 22.0928 85.5804 22.1402 85.4817C22.1875 85.4108 22.2109 85.2455 22.3287 85.1983C22.4984 85.1303 22.6221 84.9841 22.6835 84.8119L22.7801 84.5406C22.8089 84.4597 22.8271 84.3753 22.8542 84.2938C22.8879 84.1926 22.9413 84.0986 23.0119 84.0176C23.1345 83.8772 23.2831 83.7238 23.3513 83.6542C23.3762 83.6288 23.3988 83.6012 23.4185 83.5715C23.4906 83.4632 23.5987 83.38 23.7279 83.3647C23.7639 83.3604 23.8002 83.3576 23.8365 83.3562H24.0696C24.0869 83.3562 24.1042 83.3548 24.1213 83.352C24.1959 83.3395 24.2725 83.3544 24.337 83.3939L24.5623 83.5319C24.6279 83.5721 24.7031 83.5979 24.7631 83.6462C24.7853 83.6642 24.8024 83.6859 24.8024 83.7104C24.8024 83.7811 24.7317 83.923 24.8024 84.0647C24.873 84.2063 24.8024 84.0883 24.8966 84.348C24.9559 84.5115 24.9966 84.6282 25.0186 84.6923C25.0316 84.7303 25.0478 84.7671 25.0672 84.8023C25.1251 84.9067 25.2096 84.9956 25.3184 85.045C25.3655 85.0664 25.4134 85.086 25.4621 85.1037C25.5563 85.1273 25.7447 85.1981 25.9332 85.2453C26.0786 85.2817 26.3361 85.3744 26.4462 85.4149C26.4813 85.4277 26.5153 85.4427 26.5487 85.4594L26.6582 85.5143C26.7391 85.5548 26.8091 85.6142 26.8622 85.6874C26.9321 85.7838 26.9698 85.8998 26.9698 86.0189V86.422C26.9698 86.6432 26.9292 86.8626 26.8499 87.0691L26.7342 87.3706L26.5715 87.7102C26.4923 87.8757 26.446 88.055 26.4352 88.2382C26.4304 88.3207 26.4157 88.4025 26.4068 88.4847C26.4056 88.4964 26.4045 88.5081 26.4037 88.5199C26.3966 88.6191 26.4106 88.7189 26.3993 88.8178C26.3983 88.8264 26.3974 88.8351 26.3968 88.8438C26.3886 88.9513 26.46 89.0443 26.5397 89.1168C26.5992 89.171 26.6644 89.2189 26.7342 89.2596L27.3467 89.5429L27.6765 89.7554L27.8956 89.9164C27.9828 89.9806 28.0884 90.0152 28.1967 90.0152C28.2578 90.0152 28.3184 90.0262 28.3756 90.0477L28.8642 90.2314C28.9787 90.2744 29.1055 90.2701 29.2168 90.2194C29.2731 90.1937 29.3237 90.157 29.3654 90.1113L29.456 90.0123C29.5258 89.9359 29.606 89.8696 29.6941 89.8153L30.0603 89.5894C30.1359 89.5427 30.2069 89.4892 30.2792 89.4376C30.3097 89.4158 30.3409 89.3951 30.3728 89.3755C30.5152 89.2878 30.7062 89.2548 30.8728 89.2406C31.0893 89.2222 31.277 89.1188 31.4929 89.0941C31.6054 89.0941 31.9865 89.0641 32.1374 89.0518C32.1786 89.0485 32.2181 89.0356 32.2534 89.0144C32.2953 88.9892 32.3433 88.9758 32.3922 88.9758H32.4046C32.4986 88.9758 32.5876 89.0179 32.6473 89.0905L32.7618 89.23C32.8411 89.3264 32.8887 89.4439 32.9285 89.5622C32.9551 89.6413 32.9941 89.7228 33.0478 89.7551C33.1025 89.7881 33.2338 89.8568 33.3585 89.9209C33.5433 90.0158 33.7348 90.0968 33.9307 90.1661L34.0371 90.2038L34.147 90.2527C34.2135 90.2824 34.2695 90.3315 34.3077 90.3936C34.3859 90.5211 34.3797 90.6859 34.2745 90.7923C34.2739 90.7929 34.2733 90.7935 34.2727 90.7941C34.245 90.8201 34.2167 90.8454 34.1878 90.8701C34.1174 90.9303 33.918 91.0915 33.8722 91.172C33.8139 91.29 33.7763 91.417 33.7608 91.5474C33.755 91.596 33.7491 91.6446 33.7405 91.6928C33.7105 91.861 33.735 92.0432 33.8566 92.1633C33.9732 92.2785 34.1462 92.2986 34.3101 92.2969C34.4311 92.2956 34.5522 92.2984 34.673 92.3054C34.7965 92.327 34.9223 92.3317 35.0468 92.3196C35.0958 92.3148 35.1429 92.2987 35.1866 92.2759L35.2011 92.2683C35.3002 92.2166 35.3435 92.0823 35.4534 92.0618C35.477 92.0574 35.5074 92.0764 35.5263 92.0914C35.5399 92.1022 35.5532 92.1132 35.5664 92.1245C35.7047 92.2436 35.8484 92.3596 36.0107 92.4431C36.0282 92.4521 36.0457 92.4613 36.063 92.4707C36.1266 92.5134 36.4572 92.6513 36.5229 92.6785C36.5305 92.6817 36.538 92.6849 36.5456 92.6881L36.5719 92.6994C36.7646 92.7822 36.9722 92.8249 37.1819 92.8249H37.2479C37.4448 92.8249 37.639 92.8708 37.8151 92.9591L37.8686 92.9859C37.9057 93.0045 37.9409 93.0266 37.9737 93.0519L38.0191 93.0869C38.1522 93.1895 38.33 93.2069 38.4948 93.2399C38.5229 93.2455 38.5511 93.252 38.5797 93.2537C38.6387 93.2574 38.6977 93.2548 38.7558 93.2463C38.9477 93.218 39.1248 93.1221 39.3171 93.0965C39.4565 93.078 39.5977 93.074 39.7384 93.0847C39.974 93.1083 40.2802 93.1321 40.4451 93.1321C40.5556 93.1263 40.6664 93.1343 40.775 93.1557C40.8017 93.161 40.8407 93.1695 40.8849 93.1794C41.1196 93.2319 41.4202 93.1029 41.5995 93.263C41.6504 93.3231 41.7174 93.3671 41.7926 93.39C41.8679 93.4128 41.948 93.4135 42.0236 93.3918C42.0726 93.3809 42.1266 93.3674 42.1807 93.3532C42.414 93.2919 42.6289 93.1352 42.6597 92.896C42.6597 92.6198 42.7476 92.3507 42.9107 92.1278L42.9188 92.1167C42.9957 92.0139 43.0825 91.919 43.178 91.8333C43.2552 91.7714 43.555 91.6081 43.7525 91.5028C43.8717 91.4393 43.9887 91.3712 44.0968 91.2902C44.191 91.2196 44.3559 91.2193 44.3559 91.1013V90.9446C44.3559 90.7866 44.2904 90.6371 44.2381 90.488C44.2125 90.3794 44.1966 90.2688 44.1908 90.1574C44.1908 90.1195 44.2044 90.0277 44.2169 89.9504C44.2304 89.868 44.2506 89.7868 44.2755 89.707C44.3289 89.5357 44.3484 89.3546 44.4018 89.1833C44.4036 89.1775 44.4055 89.1716 44.4074 89.1658C44.4623 89.0001 44.5914 88.8735 44.694 88.7322C44.7251 88.6895 44.7538 88.6449 44.78 88.5989C44.8694 88.4421 44.8493 88.1699 44.9132 88.0012C44.9155 87.995 44.9182 87.9895 44.9213 87.9849C44.9308 87.9706 44.9318 87.9507 44.9281 87.9273C44.8957 87.7186 45.0036 87.5586 45.1179 87.381C45.1468 87.3361 45.1735 87.2898 45.1981 87.2422C45.2185 87.2026 45.2408 87.1638 45.267 87.1277C45.3633 86.995 45.5032 86.9004 45.6623 86.8606L45.713 86.8478C45.7662 86.8345 45.818 86.816 45.8675 86.7927L45.9282 86.764C46.1035 86.6814 46.2652 86.5689 46.3825 86.4147C46.3971 86.3956 46.4115 86.3762 46.4257 86.3566C46.5462 86.1899 46.5577 85.9945 46.5569 85.7888C46.5567 85.749 46.566 85.7154 46.594 85.6943C46.6882 85.6235 46.8296 85.3874 46.9474 85.3165C46.9786 85.3002 47.0101 85.2845 47.0419 85.2693C47.2246 85.1817 47.4279 85.1513 47.6306 85.1513C47.7805 85.1436 47.93 85.1277 48.0782 85.1039C48.4316 85.0802 48.408 85.1275 48.5965 85.033L48.785 84.9386C48.9216 84.8701 49.2316 84.7271 49.3918 84.6537C49.4584 84.6231 49.5224 84.5867 49.5902 84.559C49.6934 84.5168 49.8069 84.5135 49.9183 84.5135H51.188L51.7063 84.5609L51.8451 84.5808C51.9724 84.5991 52.1048 84.6118 52.2161 84.6763C52.2507 84.6964 52.2808 84.721 52.2952 84.7499C52.3423 84.8442 52.1068 84.6083 52.3425 84.8444C52.4633 84.9903 52.5974 85.1247 52.743 85.2458C52.7451 85.2472 52.7472 85.2486 52.7491 85.25C52.9601 85.4 53.1731 85.4823 53.4307 85.5078C53.5777 85.5223 53.7262 85.5217 53.8738 85.5056C53.9993 85.4749 54.1135 85.4094 54.2036 85.3167L54.345 85.175L54.5335 85.0097L54.978 84.6804C55.0429 84.6323 55.1089 84.5858 55.1764 84.5414C55.2554 84.4894 55.3694 84.4152 55.4758 84.3485C55.503 84.3308 55.53 84.3128 55.5566 84.2944C55.6774 84.211 56.0618 83.968 56.2062 83.9943C56.4653 84.0416 56.5831 84.0179 56.6302 84.0887C56.6773 84.1596 56.8187 84.1832 56.9365 84.3249C57.0543 84.4666 56.9837 84.4666 57.2427 84.561C57.4124 84.6382 57.5989 84.6707 57.7846 84.6555C57.9118 84.6412 58.0378 84.6175 58.1616 84.5846C58.2164 84.5714 58.2708 84.5567 58.3247 84.5405C58.5494 84.4729 58.7056 84.2883 58.9154 84.1832C58.9917 84.145 59.1228 84.0656 59.2273 84.0005C59.3318 83.9355 59.452 83.8998 59.575 83.8998C59.6457 83.8998 59.6223 83.8524 59.8342 83.9943C59.9701 84.0789 60.1096 84.1574 60.2523 84.2296C60.349 84.2785 60.4388 84.3405 60.5153 84.4173C60.5481 84.4501 60.5828 84.4811 60.622 84.506C60.645 84.5206 60.6686 84.5343 60.6926 84.5469C60.8346 84.6214 60.9981 84.6435 61.1583 84.6511C61.2126 84.6537 61.2858 84.6555 61.3891 84.6555H62.0479C62.1899 84.6555 62.3919 84.6357 62.4262 84.7736C62.4604 84.91 62.5342 85.0333 62.6382 85.1278C62.6653 85.1506 62.6937 85.1718 62.7231 85.1912C62.9004 85.3081 63.1085 85.3764 63.3154 85.4241C63.4889 85.4641 63.683 85.4614 63.8231 85.3516C63.837 85.3406 63.8505 85.329 63.8633 85.3167C63.875 85.3073 63.8866 85.2978 63.8981 85.2881C64.0359 85.1726 64.1196 84.999 64.2638 84.8916C64.2671 84.8896 64.2704 84.8876 64.2737 84.8856C64.4722 84.7667 64.7108 84.7499 64.9422 84.7499H65.0464C65.215 84.7499 65.3828 84.7271 65.5452 84.6822L65.8165 84.6073C65.9264 84.5769 66.0274 84.5206 66.1112 84.4432C66.2271 84.3359 66.3781 84.278 66.5282 84.2285C66.584 84.2101 66.6383 84.1871 66.6905 84.1596C66.8319 84.0651 67.2793 83.8526 67.3739 83.7581C67.4921 83.6611 67.6181 83.5742 67.7508 83.4984C67.8215 83.451 67.9393 83.3803 68.0335 83.3095C68.1278 83.2387 68.2456 83.1442 68.3162 83.1442C68.3869 83.1442 68.3869 83.0497 68.646 83.0497C68.7726 83.0562 68.8994 83.0542 69.0256 83.044C69.1339 83.0352 69.2391 83.0071 69.3389 82.9642C69.364 82.9535 69.3904 82.9421 69.417 82.9305C69.5925 82.8542 69.7409 82.7201 69.9182 82.6483L69.9729 82.6209C70.1554 82.5294 70.3502 82.453 70.5543 82.4594H71.1661C71.2596 82.4594 71.3517 82.4376 71.4353 82.3957L71.44 82.3933C71.5085 82.359 71.5694 82.3113 71.6192 82.2531C71.6628 82.2021 71.6955 82.1429 71.7288 82.0846C71.7584 82.0327 71.8011 81.9758 71.85 81.9635C71.9476 81.9258 72.052 81.9097 72.1563 81.9161H72.2782C72.3381 81.9161 72.3978 81.9231 72.4561 81.937L72.6322 81.9791C72.7761 82.0134 72.9326 81.9755 73.016 81.8534C73.0406 81.8174 73.0561 81.7763 73.0696 81.7348C73.0863 81.6835 73.1077 81.6339 73.1333 81.5865C73.1688 81.5207 73.2203 81.4646 73.2818 81.4221C73.3022 81.408 73.3231 81.3947 73.3445 81.3822C73.3838 81.3591 73.4278 81.3455 73.4728 81.338C73.5215 81.3299 73.5712 81.3297 73.6199 81.3374L73.7591 81.3594C73.9144 81.384 74.0728 81.3808 74.2269 81.3499L74.4668 81.3018C74.5435 81.2864 74.6173 81.2587 74.6853 81.2197L74.6988 81.212C74.7313 81.1934 74.7655 81.1781 74.8009 81.1662C74.8592 81.1466 74.9204 81.1367 74.9819 81.1367H75.0539L75.2177 81.1229C75.483 81.1007 75.7065 80.9004 75.9727 80.9004C76.0314 80.9004 76.301 80.9166 76.391 80.9222C76.4106 80.9234 76.4299 80.9262 76.4491 80.9306L76.6798 80.984C76.7072 80.9903 76.7265 81.0147 76.7265 81.0428C76.7265 81.0575 76.7319 81.0718 76.7417 81.0828L76.8245 81.1761C76.8828 81.2419 76.915 81.3267 76.915 81.4146C76.915 81.4648 76.9045 81.5144 76.8842 81.5603L76.7265 81.9158C76.6796 82.0726 76.6143 82.2234 76.5319 82.3649L76.491 82.4353L76.4616 82.4773C76.3714 82.6065 76.2769 82.7393 76.1376 82.8131C75.9765 82.8815 75.8457 83.013 75.6797 83.0686C75.6753 83.07 75.6709 83.0715 75.6664 83.0728C75.6336 83.0794 75.5879 83.0915 75.5391 83.1055C75.3566 83.158 75.1697 83.1957 74.98 83.2052L74.8799 83.2103C74.8232 83.2131 74.767 83.2209 74.7117 83.2337C74.5649 83.2677 74.429 83.3367 74.3106 83.4298C74.2905 83.4456 74.2708 83.4608 74.2529 83.4743C74.2513 83.4758 74.2498 83.4772 74.2483 83.4787C74.0754 83.6444 73.9959 83.8792 73.9544 84.1151C73.9492 84.1444 73.9447 84.1738 73.9415 84.2034C73.9346 84.2665 73.9231 84.3836 73.9231 84.4661C73.9231 84.5841 73.8995 84.5605 73.9937 84.7022C74.0592 84.8068 74.1145 84.9175 74.1586 85.0328L74.2529 85.2453C74.2693 85.2992 74.2693 85.3567 74.2529 85.4106C74.2438 85.456 74.2347 85.5118 74.227 85.5634C74.2119 85.6641 74.2313 85.7658 74.2572 85.8642C74.2727 85.9228 74.2904 85.9812 74.3201 86.034C74.3632 86.1106 74.4091 86.1856 74.4576 86.2589C74.5585 86.4111 74.7835 86.4148 74.9124 86.5442C74.983 86.6152 74.8651 86.4262 74.9831 86.6151C75.03 86.6862 75.0676 86.7629 75.0952 86.8433C75.1182 86.9103 75.1244 86.9814 75.1244 87.0522C75.1244 87.1537 75.1188 87.2654 75.0448 87.3349C75.0272 87.3515 75.0066 87.3648 74.9831 87.3708C74.9361 87.3847 74.8927 87.4089 74.856 87.4415C74.8194 87.4742 74.7904 87.5145 74.771 87.5597C74.7456 87.6104 74.7134 87.6886 74.6891 87.7499C74.6646 87.8118 74.6311 87.8747 74.6393 87.9407C74.6435 87.9739 74.6564 88.0054 74.6768 88.0319C74.7087 88.0648 74.7415 88.0968 74.7752 88.1278C74.9206 88.2616 75.1019 88.3471 75.2893 88.4097L75.5249 88.4571L75.5789 88.4707C75.7299 88.5085 75.8717 88.5762 75.9961 88.6697C76.0427 88.7047 76.076 88.7547 76.0903 88.8113C76.1311 88.9318 76.1783 89.0501 76.2316 89.1656L76.3495 89.4017C76.3952 89.4932 76.4628 89.6289 76.5312 89.6374C76.5357 89.638 76.5402 89.6383 76.5445 89.6393C76.6125 89.6539 77.0347 89.7947 77.1039 89.8006C77.1557 89.8051 77.2 89.8008 77.2211 89.7797C77.2918 89.709 77.386 89.5908 77.4567 89.5199C77.4931 89.4771 77.5278 89.4329 77.5606 89.3873C77.6191 89.3059 77.6908 89.2341 77.7777 89.1843C77.7993 89.1719 77.8198 89.1575 77.8426 89.1475C77.8763 89.1328 77.9304 89.121 77.975 89.1657C78.0712 89.2591 78.1735 89.3459 78.2813 89.4255C78.352 89.4729 78.4697 89.5672 78.4697 89.638C78.4761 89.7318 78.5087 89.8218 78.564 89.8978C78.6347 90.0158 78.7054 90.063 78.7525 90.1575C78.7839 90.2203 78.8225 90.2792 78.861 90.3379C78.8999 90.3971 78.9341 90.4593 78.9633 90.5238C78.9807 90.5622 78.9882 90.6042 78.9882 90.6463V90.7291C78.9882 90.8121 79.0376 90.8871 79.1139 90.9199C79.1398 90.931 79.1626 90.9486 79.1635 90.9767C79.1642 91.0009 79.162 91.0397 79.1531 91.1021C79.125 91.2542 79.0446 91.4009 78.9708 91.5369C78.9682 91.5416 78.9661 91.5463 78.9646 91.5507C78.9411 91.6215 78.8233 91.716 78.8233 91.8105V92.2769C78.8233 92.4063 78.8074 92.5351 78.776 92.6606C78.7532 92.7377 78.7373 92.8167 78.7287 92.8967C78.7287 92.9676 78.658 93.0148 78.658 93.1092C78.658 93.2037 78.5403 93.3044 78.6816 93.4075C78.8229 93.5107 78.7052 93.487 79.0114 93.5107C79.2244 93.5328 79.4363 93.5642 79.6465 93.6048C79.7196 93.6189 79.7928 93.5866 79.8601 93.5547C79.8968 93.5374 79.9368 93.5284 79.9773 93.5284C80.0179 93.5284 80.0579 93.5374 80.0946 93.5547C80.1312 93.5721 80.1636 93.5974 80.1894 93.6287C80.3294 93.7677 80.4949 93.8777 80.6765 93.953C80.7277 93.9742 80.7852 93.9772 80.8366 93.9979C80.8626 94.0084 80.8862 94.024 80.9061 94.0439C80.9259 94.0637 80.9415 94.0874 80.9519 94.1134C80.9624 94.1395 80.9674 94.1674 80.9668 94.1955C80.9668 94.408 80.8726 94.6441 80.9668 94.7386C81.0611 94.8331 80.8726 94.8803 80.9668 94.9747C81.0611 95.0691 81.0375 95.447 81.2024 95.6359C81.3235 95.793 81.4519 95.9442 81.587 96.0892C81.7497 96.2637 81.937 96.4125 82.1379 96.541C82.3161 96.655 82.5029 96.7741 82.5453 96.8166C82.6159 96.8875 82.6866 96.911 82.8515 97.0527C83.1092 97.2327 83.3766 97.3982 83.6525 97.5486L84.7116 97.9857C84.8065 98.0249 84.9025 98.0611 84.9998 98.0939C85.2734 98.1861 85.8429 98.3751 85.9142 98.3751C85.9419 98.3751 85.9656 98.3588 85.9917 98.3405C86.1857 98.2051 86.3911 98.4787 86.6095 98.5696C86.688 98.6023 86.7711 98.6244 86.8565 98.6349C87.0686 98.6585 87.1864 98.5875 87.3277 98.6349C87.4691 98.6823 87.7047 98.5976 87.8931 98.6398C88.0816 98.6821 88.1994 98.5937 88.3643 98.6497C88.6337 98.7412 88.8838 98.752 89.165 98.7955C89.2658 98.811 89.369 98.8128 89.4716 98.8002C89.6363 98.7881 89.8016 98.7881 89.9663 98.8002C90.0665 98.8169 90.4504 98.9285 90.6658 98.9921C90.765 99.0214 90.8651 99.0526 90.9497 99.1122C91.0594 99.1895 91.1401 99.3035 91.2587 99.3665C91.4303 99.4578 91.6832 99.5603 91.7805 99.6739C91.922 99.8392 92.1575 99.7212 92.2988 99.6739C92.4402 99.6265 92.5815 99.3433 92.9585 99.3433C93.3354 99.3433 93.5239 99.3433 93.7123 99.5086C93.731 99.5267 93.7498 99.5446 93.7689 99.5623C94.0255 99.8 94.5701 99.7595 94.6547 100.099C94.6782 100.193 94.4191 100.359 94.7961 100.737C94.9519 100.889 95.1379 101.005 95.3397 101.076C95.6547 101.188 95.9951 101.117 96.3204 101.04C96.427 101.015 96.52 100.996 96.563 100.996C96.8681 100.963 97.1749 100.948 97.4818 100.949C97.5118 100.951 97.5416 100.954 97.5709 100.956C97.9016 100.982 98.221 101.081 98.5418 101.166C98.8009 101.232 99.0836 101.123 99.1543 101.166C99.1847 101.184 99.2455 101.174 99.3106 101.163C99.4627 101.139 99.5885 101.244 99.7267 101.312C99.8282 101.361 99.9339 101.404 100.041 101.44C100.113 101.465 100.186 101.482 100.262 101.492H101.298C101.416 101.492 101.864 101.374 101.934 101.374C102.068 101.362 102.202 101.362 102.335 101.374C102.453 101.398 102.782 101.374 102.853 101.492C102.924 101.61 102.947 101.681 103.324 101.775C103.701 101.87 103.725 101.681 103.913 101.775C104.068 101.835 104.225 101.885 104.385 101.927C104.648 101.995 104.92 102.027 105.19 102.064C105.743 102.139 106.673 102.271 106.74 102.271C106.835 102.271 107.07 102.342 107.164 102.271C107.225 102.226 107.49 102.317 107.672 102.388C107.789 102.434 107.912 102.46 108.038 102.46C108.099 102.46 108.161 102.467 108.221 102.479L108.709 102.58C108.777 102.594 108.848 102.587 108.911 102.559C108.985 102.526 109.068 102.522 109.146 102.542C109.231 102.563 109.317 102.579 109.403 102.59C109.496 102.601 109.591 102.585 109.685 102.591C109.709 102.593 109.733 102.597 109.756 102.602C109.897 102.626 110.039 102.555 110.204 102.602C110.369 102.669 110.544 102.709 110.722 102.72H111.059C111.224 102.72 111.395 102.758 111.499 102.885C111.57 102.98 111.334 102.98 111.782 103.098C112.079 103.193 112.389 103.24 112.701 103.24C113.007 103.24 113.148 103.074 113.36 103.051C113.573 103.027 113.69 102.815 113.973 102.885C114.181 102.94 114.364 103.065 114.491 103.24C114.546 103.306 114.614 103.359 114.691 103.396C114.769 103.433 114.853 103.452 114.939 103.452H115.472C115.678 103.452 115.856 103.59 116.023 103.712C116.188 103.813 116.372 103.877 116.564 103.901C116.682 103.901 117.106 103.995 117.177 103.901C117.248 103.806 118.002 103.961 118.072 103.943C118.143 103.924 118.331 103.799 118.331 103.944C118.331 104.027 118.53 104.193 118.701 104.32C118.829 104.415 118.955 104.638 119.109 104.68C119.149 104.685 119.189 104.69 119.23 104.694C119.711 104.739 120.201 104.745 120.684 104.713C120.693 104.713 120.702 104.712 120.711 104.711C120.989 104.721 121.267 104.744 121.543 104.782C121.801 104.817 122.035 104.944 122.263 105.07C122.372 105.13 122.493 105.159 122.616 105.144C122.782 105.123 122.985 105.087 123.067 105.152C123.184 105.247 123.726 105.011 123.844 104.987C124.051 104.915 124.264 104.86 124.48 104.822C124.659 104.788 124.835 104.745 125.009 104.692C125.176 104.642 125.345 104.594 125.519 104.594C125.784 104.595 126.02 104.721 126.216 104.899C126.292 104.968 126.364 105.025 126.412 105.034C126.658 105.08 126.887 105.195 127.072 105.365C127.307 105.571 127.568 105.746 127.849 105.884C128.206 106.09 128.627 106.145 129.035 106.089C129.059 106.085 129.084 106.082 129.108 106.078C129.306 106.048 129.496 105.983 129.692 105.943C129.806 105.92 129.923 105.909 130.04 105.908C130.382 105.908 130.729 105.938 131.057 106.038C131.081 106.045 131.105 106.052 131.129 106.06C131.299 106.114 131.472 106.18 131.595 106.309C131.713 106.427 131.76 106.333 131.83 106.498C131.887 106.654 131.958 106.804 132.042 106.947C132.137 107.089 132.113 107.065 132.254 107.278C132.396 107.49 132.372 107.514 132.514 107.632C132.624 107.721 132.742 107.8 132.867 107.868C132.975 107.937 133.095 107.986 133.22 108.01C133.346 108.021 133.472 108.021 133.597 108.01C133.715 107.986 133.927 107.891 133.998 107.891C134.034 107.891 134.182 107.879 134.317 107.867C134.374 107.862 134.675 107.895 134.728 107.915C134.829 107.949 134.931 107.975 135.035 107.993C135.252 108.029 135.475 108.01 135.694 108.02C135.841 108.027 136.046 108.027 136.208 108.027C136.355 108.026 136.573 107.97 136.707 108.027C136.85 108.088 137.138 108.181 137.344 108.245C137.428 108.271 137.658 108.336 137.744 108.316C138.05 108.246 138.286 108.269 138.356 108.222C138.427 108.175 138.38 108.104 138.592 108.104C138.804 108.104 138.851 107.939 138.922 107.939C138.992 107.939 139.487 107.82 139.652 107.797L140.312 107.702L140.5 107.679C140.541 107.674 140.582 107.68 140.619 107.697C140.656 107.714 140.688 107.74 140.712 107.773C140.806 107.891 140.948 107.939 141.042 108.08C141.136 108.222 141.23 108.214 141.466 108.348C141.63 108.441 141.774 108.545 141.938 108.639C141.966 108.655 141.995 108.67 142.024 108.685C142.225 108.787 142.435 108.88 142.655 108.928C142.659 108.929 142.663 108.929 142.668 108.93C142.862 108.967 143.062 108.967 143.256 108.93C143.339 108.905 143.422 108.884 143.507 108.868C143.648 108.841 143.791 108.884 143.906 108.97L143.947 109.001C144.1 109.116 144.16 109.314 144.191 109.503C144.195 109.531 144.205 109.557 144.212 109.584C144.23 109.655 144.191 109.647 144.293 109.851C144.385 110.03 144.459 110.445 144.659 110.463C144.67 110.464 144.681 110.465 144.693 110.465C145.117 110.489 145.212 110.418 145.282 110.347C145.328 110.289 145.372 110.229 145.414 110.168C145.482 110.068 145.616 109.881 145.683 109.78C145.73 109.689 145.769 109.595 145.801 109.497C145.878 109.326 145.918 109.14 145.918 108.952V108.836C145.918 108.754 145.934 108.703 145.938 108.653C145.945 108.569 145.907 108.487 145.906 108.403C145.904 108.25 145.982 108.106 146.102 108.011C146.148 107.974 146.197 107.942 146.248 107.915C146.39 107.844 146.154 107.868 146.554 107.702C146.793 107.607 147.022 107.488 147.238 107.348C147.357 107.283 147.468 107.204 147.568 107.112L147.897 106.781C147.953 106.735 148.01 106.69 148.069 106.647C148.187 106.56 148.323 106.5 148.448 106.422C148.575 106.342 148.676 106.227 148.781 106.12C148.892 106.008 149.022 105.881 149.052 105.837C149.133 105.737 149.485 105.475 149.597 105.412C149.611 105.405 149.626 105.397 149.641 105.388C149.754 105.304 149.876 105.232 150.005 105.173C150.075 105.141 150.151 105.122 150.226 105.105C150.243 105.101 150.261 105.096 150.279 105.092C150.478 105.043 150.686 105.057 150.889 105.081C151.054 105.105 150.866 105.105 151.172 105.105C151.478 105.105 151.596 105.176 151.738 105.058C151.782 105.02 151.829 104.983 151.873 104.949C151.985 104.862 152.111 104.772 152.138 104.632C152.163 104.487 152.203 104.345 152.256 104.207C152.293 104.071 152.326 103.934 152.353 103.796C152.386 103.63 152.395 103.461 152.408 103.293C152.41 103.264 152.412 103.235 152.415 103.206C152.446 102.881 152.597 102.531 152.743 102.239C152.763 102.199 152.759 102.203 152.779 102.163C152.826 102.062 152.88 101.964 152.939 101.87C153.012 101.756 153.091 101.645 153.175 101.539C153.245 101.468 153.434 101.256 153.504 101.185C153.582 101.088 153.678 101.008 153.787 100.949C153.962 100.875 154.143 100.82 154.329 100.783C154.411 100.777 154.492 100.766 154.572 100.75C154.614 100.741 154.655 100.727 154.694 100.709C154.824 100.65 154.926 100.545 155.015 100.435C155.021 100.428 155.026 100.421 155.032 100.414C155.065 100.376 155.104 100.344 155.144 100.313C155.201 100.269 155.269 100.212 155.3 100.185C155.313 100.174 155.324 100.164 155.336 100.153L155.532 99.9749C155.562 99.9473 155.598 99.9261 155.636 99.9124C155.815 99.8491 156.011 99.9644 155.988 100.153C155.986 100.163 155.985 100.173 155.984 100.182C155.98 100.205 155.973 100.227 155.968 100.25C155.946 100.361 156.018 100.491 155.999 100.642C155.985 100.751 155.973 100.879 156.056 100.951C156.092 100.982 156.143 100.999 156.214 100.972C156.317 100.948 156.416 100.908 156.507 100.855C156.581 100.812 156.646 100.753 156.694 100.682C156.74 100.611 156.781 100.536 156.825 100.464C156.85 100.422 156.874 100.378 156.897 100.335C156.947 100.245 157.002 100.158 157.062 100.075L157.07 100.062C157.253 99.7879 157.454 99.5238 157.705 99.3098C157.71 99.3049 157.716 99.3001 157.722 99.2955C157.833 99.2209 157.936 99.1338 158.028 99.0358C158.122 98.9177 158.169 98.7524 158.287 98.7288C158.405 98.7052 158.64 98.6107 158.711 98.6107C158.782 98.6107 158.876 98.5634 158.947 98.6107C158.977 98.6266 159.008 98.6416 159.039 98.6557C159.131 98.697 159.294 98.8233 159.394 98.8233C159.487 98.8233 159.58 98.8032 159.659 98.7549C159.74 98.7056 159.817 98.6495 159.889 98.5871C159.954 98.5268 160.023 98.4698 160.094 98.4163C160.146 98.3768 160.286 98.3562 160.337 98.3982C160.431 98.4767 160.507 98.5875 160.623 98.6267C160.637 98.6315 160.652 98.6344 160.666 98.6344H160.74C160.857 98.6344 160.962 98.5681 161.067 98.5163C161.253 98.4231 161.458 98.3746 161.666 98.3746H161.703C161.815 98.3845 161.926 98.4083 162.033 98.4454C162.127 98.4928 162.033 98.4928 162.292 98.5871C162.551 98.6814 162.669 98.6345 162.834 98.7288C162.959 98.8235 163.104 98.8882 163.258 98.9177C163.588 99.0122 163.423 99.0594 163.705 99.0594C163.926 99.0599 164.147 99.0441 164.365 99.012C164.454 98.9993 164.557 98.9865 164.633 98.9774C164.706 98.9687 164.778 98.9594 164.851 98.9463C164.997 98.9198 165.141 98.8866 165.284 98.8466C165.402 98.7992 165.378 98.6341 165.684 98.6105C165.912 98.5998 166.141 98.6068 166.368 98.6314C166.383 98.6331 166.399 98.6335 166.415 98.6318C166.439 98.629 166.463 98.6252 166.487 98.6203C166.633 98.5908 166.926 98.3642 167.074 98.3507C167.239 98.3367 167.405 98.3367 167.569 98.3507C167.804 98.3978 168.044 98.4321 168.282 98.4003C168.288 98.3996 168.294 98.3988 168.299 98.3979C168.423 98.3629 168.549 98.3392 168.676 98.3271C168.718 98.3271 168.899 98.3681 169.041 98.4018C169.158 98.4298 169.267 98.4835 169.363 98.5577C169.408 98.5928 169.456 98.6233 169.507 98.6489L169.619 98.7049L169.716 98.7511C169.94 98.8574 169.891 99.1198 170.066 99.2952C170.137 99.3661 170.302 99.6258 170.278 99.7203C170.275 99.743 170.273 99.7658 170.272 99.7887C170.264 99.9209 170.359 100.037 170.49 100.051H170.75C170.792 100.049 170.835 100.047 170.877 100.043C171.06 100.026 171.232 99.9573 171.409 99.9092C171.549 99.8841 171.685 99.8363 171.81 99.7675C171.827 99.7588 171.844 99.7497 171.862 99.7403C172.032 99.6459 172.307 99.6662 172.375 99.4841C172.42 99.365 172.517 99.2733 172.639 99.2358L172.752 99.2008C172.83 99.1851 172.907 99.1613 172.98 99.1298L173.035 99.1063C173.119 99.078 173.176 98.9989 173.176 98.9099V98.1264C173.176 98.0113 173.1 97.8902 173.141 97.7826C173.144 97.776 173.147 97.7695 173.151 97.7633C173.165 97.7433 173.184 97.7284 173.2 97.7103C173.243 97.6603 173.283 97.608 173.32 97.5536C173.387 97.4555 173.458 97.1943 173.577 97.1943C173.647 97.1943 173.577 97.1706 173.742 97.1706C173.906 97.1706 174.024 97.147 174.166 97.147C174.26 97.147 174.354 97.1385 174.444 97.1141C174.47 97.1071 174.496 97.0997 174.522 97.092C174.76 97.0202 174.946 96.8521 175.127 96.6824C175.157 96.6542 175.184 96.6337 175.202 96.6275C175.273 96.6039 175.249 96.5331 175.367 96.4622C175.427 96.4156 175.49 96.3728 175.556 96.3339C175.764 96.2097 176.008 96.1346 176.248 96.1688C176.325 96.1797 176.401 96.1989 176.474 96.2262C176.726 96.3172 176.986 96.3805 177.252 96.4152C177.477 96.4645 177.71 96.4645 177.935 96.4152C178.1 96.3678 178.288 96.3443 178.43 96.2971C178.566 96.2358 178.708 96.1883 178.854 96.1554C178.992 96.1349 179.127 96.0951 179.254 96.0374C179.443 95.9665 179.584 95.8721 179.749 95.8248C179.912 95.7751 180.064 95.6949 180.197 95.5887C180.314 95.4943 180.314 95.447 180.456 95.3998C180.468 95.3944 180.481 95.3891 180.494 95.3838C180.775 95.2678 181.045 95.1213 181.327 95.2345C181.799 95.4234 181.704 95.3053 181.846 95.2819C182.044 95.2489 182.208 95.2992 182.388 95.3896C182.411 95.4013 182.435 95.4126 182.458 95.4234L182.59 95.4843C182.656 95.5149 182.864 95.5561 182.929 95.5887C183.075 95.6498 183.217 95.7208 183.354 95.8012C183.42 95.8509 183.637 95.9821 183.76 96.0559C183.819 96.0908 183.873 96.1326 183.921 96.1808C183.982 96.2422 184.041 96.3093 184.115 96.3546C184.143 96.372 184.179 96.3922 184.225 96.4152L184.414 96.5096L184.861 96.6749L185.215 96.793C185.32 96.8423 185.422 96.8975 185.521 96.9583C185.634 97.0079 185.742 97.0693 185.843 97.1415C185.848 97.1453 185.853 97.1495 185.858 97.1541C185.875 97.1705 185.898 97.191 185.923 97.2128C185.991 97.2703 186.287 97.4673 186.369 97.5014C186.504 97.5709 186.646 97.6263 186.793 97.6667C186.911 97.6903 187.099 97.7848 187.17 97.6903C187.307 97.5159 187.29 97.2617 187.176 97.071C187.147 97.0226 187.114 96.9769 187.076 96.9347C187.016 96.8587 186.968 96.7751 186.931 96.6863C186.898 96.6064 186.926 96.5175 186.941 96.4325C186.95 96.3875 186.947 96.3411 186.935 96.2971C186.912 96.1851 186.864 96.08 186.793 95.9901C186.718 95.9042 186.657 95.8065 186.614 95.7012C186.589 95.6433 186.581 95.5898 186.588 95.5274C186.608 95.3335 186.526 95.1422 186.437 94.9688C186.424 94.9444 186.417 94.922 186.417 94.9039C186.419 94.8485 186.418 94.793 186.413 94.7379C186.405 94.6438 186.371 94.5542 186.323 94.473C186.292 94.422 186.261 94.3717 186.228 94.3223C186.183 94.2544 186.157 94.1754 186.157 94.094C186.157 94.0364 186.145 93.9795 186.12 93.9273L186.048 93.7737C185.996 93.6636 185.977 93.541 185.992 93.4203C186.008 93.2945 185.986 93.1668 185.929 93.0533L185.926 93.0465C185.908 93.0097 185.892 92.9713 185.882 92.9315C185.86 92.8462 185.842 92.7598 185.829 92.6727C185.828 92.6646 185.826 92.6567 185.824 92.649C185.769 92.4839 185.706 92.3219 185.635 92.1634C185.625 92.141 185.582 91.9963 185.569 91.9759C185.556 91.9569 185.543 91.9375 185.531 91.9178C185.413 91.7206 185.406 91.4821 185.421 91.2528C185.422 91.2301 185.423 91.2099 185.424 91.1935C185.426 91.1641 185.427 91.1347 185.427 91.1052V91.0079C185.427 90.9296 185.44 90.8518 185.465 90.7774C185.502 90.665 185.562 90.5534 185.672 90.5086C185.692 90.5005 185.712 90.4936 185.733 90.4882C185.782 90.4784 185.88 90.4645 185.978 90.4516C186.159 90.4277 186.336 90.3754 186.511 90.3229C186.592 90.2982 186.671 90.2666 186.746 90.2285L186.939 90.1395C187.015 90.1044 187.087 90.0627 187.155 90.0147L187.197 89.9854C187.258 89.9429 187.323 89.9076 187.392 89.8801L187.423 89.8676C187.566 89.8102 187.691 89.7144 187.783 89.5909C187.844 89.503 187.925 89.4303 188.019 89.3784C188.096 89.3395 188.202 89.2936 188.282 89.26C188.357 89.2282 188.43 89.1909 188.499 89.1468L188.54 89.1207C188.616 89.0723 188.685 89.0136 188.745 88.9464L188.752 88.9381C188.812 88.87 188.883 88.8114 188.961 88.7644C189.087 88.6701 189.205 88.5669 189.316 88.4558L189.479 88.2921L189.613 88.1717C189.681 88.1105 189.754 88.0559 189.833 88.0088C189.913 87.9637 189.989 87.9106 190.059 87.8504C190.149 87.7729 190.217 87.6742 190.278 87.5723C190.311 87.517 190.347 87.4635 190.385 87.4116C190.43 87.351 190.489 87.2705 190.516 87.2295C190.543 87.1893 190.645 87.0425 190.729 86.9231C190.8 86.8222 190.759 86.6556 190.846 86.5683C190.916 86.4975 190.893 86.4267 190.964 86.3794C191.034 86.3321 190.964 86.3086 191.152 86.2614C191.34 86.2141 191.458 86.1669 191.6 86.1433C191.837 86.089 192.025 85.9175 192.16 85.7145L192.254 85.5727C192.273 85.5438 192.293 85.5154 192.314 85.4879C192.36 85.4282 192.445 85.3195 192.495 85.2696C192.566 85.1988 192.613 85.1751 192.73 85.057C192.848 84.9389 192.73 85.0145 192.966 84.8115C193.09 84.7106 193.2 84.5948 193.296 84.4668L193.327 84.4125C193.412 84.2673 193.404 84.0817 193.461 83.9237C193.513 83.7341 193.696 83.6238 193.876 83.5462L193.932 83.5223L194.265 83.416C194.386 83.3774 194.516 83.3734 194.639 83.4044C194.717 83.4173 194.796 83.4173 194.874 83.4044C194.881 83.4026 194.889 83.4006 194.897 83.3984C195.073 83.3489 195.236 83.2625 195.393 83.1683C195.505 83.1176 195.62 83.0713 195.737 83.0295C195.882 82.977 196.037 82.954 196.191 82.9482C196.205 82.9477 196.219 82.9471 196.233 82.9466C196.47 82.9375 196.705 82.9878 196.917 83.0938L196.923 83.0969C197.048 83.1598 197.183 83.2028 197.322 83.2243C197.386 83.2342 197.451 83.2403 197.517 83.2378C197.594 83.2347 197.672 83.2274 197.748 83.2156C197.864 83.1829 197.975 83.1352 198.078 83.0739C198.125 83.0427 198.178 83.0217 198.233 83.013C198.322 82.999 198.457 82.9792 198.502 82.9792C198.532 82.9792 198.606 82.9874 198.682 82.9969C198.814 83.0134 198.982 82.9792 199.115 82.9792C199.201 82.9723 199.288 82.962 199.373 82.9484C199.58 82.9157 199.916 82.9047 199.916 82.6958C199.916 82.5915 199.832 82.4889 199.743 82.4347C199.705 82.4118 199.661 82.3815 199.61 82.3416C199.528 82.278 199.453 82.2179 199.392 82.168C199.285 82.0802 199.187 81.9817 199.097 81.8764C198.999 81.7617 198.89 81.6573 198.779 81.5547C198.764 81.5406 198.75 81.5272 198.738 81.5151C198.668 81.4385 198.642 81.1953 198.734 81.1457C198.755 81.1341 198.78 81.1232 198.809 81.1137C198.891 81.086 198.978 81.0548 199.052 81.027C199.188 80.9762 199.315 80.9036 199.43 80.8154C199.58 80.7003 199.79 80.6512 199.899 80.4969C199.918 80.4694 199.927 80.4386 199.916 80.4053C199.869 80.2636 200.138 80.051 199.921 80.0038C199.704 79.9566 199.61 79.8857 199.539 79.8857C199.421 79.885 199.303 79.8771 199.186 79.8621C199.014 79.845 198.906 79.8527 198.841 79.8311C198.797 79.8165 198.77 79.7738 198.737 79.7407C198.7 79.7027 198.661 79.6664 198.621 79.6317C198.561 79.5799 198.512 79.5149 198.487 79.4396C198.482 79.4222 198.475 79.4049 198.473 79.3866C198.471 79.3591 198.474 79.3083 198.502 79.2245C198.549 79.083 198.573 78.9412 198.667 78.894C198.759 78.8389 198.846 78.7756 198.926 78.705C199.02 78.6342 199.303 78.587 199.256 78.4217L199.253 78.4113C199.225 78.312 199.236 78.2055 199.286 78.1148C199.328 78.0382 199.393 77.9779 199.472 77.9413C199.671 77.8494 200.038 77.6707 200.006 77.6188C199.98 77.5763 199.986 77.4912 199.995 77.43C200.002 77.3825 200.008 77.3348 200.008 77.2868V77.1961C200.008 77.0084 199.897 76.8386 199.724 76.7642C199.695 76.7515 199.667 76.7358 199.64 76.7174L199.444 76.5798C199.349 76.5307 199.245 76.4988 199.138 76.4853C199.02 76.4853 199.02 76.3909 198.855 76.4617C198.69 76.5325 198.997 76.6979 198.549 76.6034L198.262 76.5429C198.163 76.522 198.083 76.4485 198.054 76.3514C198.039 76.3001 198.039 76.2455 198.054 76.1941L198.104 76.0233C198.134 75.9228 198.194 75.8161 198.154 75.7192C198.143 75.6937 198.127 75.6656 198.101 75.6352C197.983 75.4936 197.889 75.4227 197.842 75.3519C197.838 75.3441 197.834 75.3363 197.83 75.3284C197.764 75.1971 197.679 75.072 197.555 74.993C197.511 74.9647 197.463 74.9425 197.413 74.9268L197.182 74.8543C197.136 74.8398 197.093 74.8158 197.057 74.7836C196.961 74.6977 196.921 74.5647 196.955 74.4402L196.962 74.4135C196.968 74.3937 196.975 74.3743 196.983 74.3556L197.016 74.2829C197.064 74.1774 197.136 74.0814 197.168 73.9699C197.175 73.9432 197.18 73.9157 197.183 73.8878C197.186 73.8427 197.187 73.7976 197.187 73.7525C197.185 73.6008 196.993 73.3469 197.041 73.203C197.065 73.1321 197.159 72.8252 197.253 72.778C197.264 72.7724 197.278 72.7652 197.293 72.7567C197.505 72.6379 197.68 72.4629 197.866 72.3057C197.996 72.1997 198.08 72.0475 198.101 71.8807C198.12 71.7556 198.128 71.6292 198.125 71.5028C198.125 71.446 198.13 71.3181 198.136 71.2007C198.144 71.041 198.127 70.8811 198.084 70.7271L198.065 70.6572C198.042 70.5759 198.031 70.4919 198.031 70.4075C198.031 70.3195 198.019 70.2318 197.992 70.1481C197.961 70.0541 197.927 69.9612 197.89 69.8696C197.86 69.7932 197.833 69.7149 197.815 69.6344C197.771 69.4347 197.854 69.1837 197.718 69.0309C197.707 69.0185 197.694 69.0079 197.677 68.9997C197.536 68.9289 197.395 68.8817 197.348 68.7636C197.309 68.6891 197.274 68.6126 197.243 68.5346C197.199 68.4236 197.197 68.3 197.241 68.189C197.249 68.1673 197.258 68.1457 197.268 68.1242C197.302 68.0474 197.375 67.9934 197.416 67.92C197.437 67.8821 197.446 67.8387 197.442 67.7955C197.427 67.6938 197.419 67.5912 197.418 67.4885C197.418 67.3946 197.433 67.3013 197.462 67.2119L197.613 66.7428C197.64 66.6575 197.672 66.5622 197.757 66.5367C197.79 66.5269 197.833 66.5203 197.889 66.5203C198.064 66.5388 198.24 66.5227 198.408 66.4729C198.446 66.4615 198.481 66.4507 198.514 66.4407C198.694 66.3855 198.882 66.3634 199.067 66.3312C199.21 66.3209 199.351 66.3064 199.493 66.2878C199.706 66.2595 199.894 66.1202 200.104 66.0715C200.137 66.0594 200.169 66.0476 200.199 66.0364C200.415 65.9553 200.684 65.9005 200.787 65.6937C200.819 65.631 200.852 65.5692 200.886 65.508C200.987 65.3305 201.124 65.1728 201.305 65.0797C201.447 65.0089 201.565 64.82 201.635 64.7727C201.706 64.7254 201.706 64.6074 201.8 64.4894C201.894 64.3713 201.565 64.513 201.894 64.3713C202.224 64.2296 202.366 64.2296 202.46 64.1824C202.493 64.1656 202.547 64.1369 202.604 64.1069C202.741 64.0333 202.86 63.924 202.915 63.7785C202.944 63.7029 202.958 63.622 202.971 63.5423C203.005 63.3505 203.078 63.0029 203.096 62.9308C203.099 62.9051 203.101 62.8793 203.103 62.8535C203.111 62.7093 203.17 62.4938 203.106 62.3641C203.035 62.222 203.166 61.979 203.303 61.8989C203.404 61.84 203.504 61.7802 203.544 61.7502C203.638 61.6793 203.85 61.5849 203.85 61.4904V61.3152C203.85 61.2753 203.86 61.2361 203.88 61.2017C203.951 61.081 203.891 60.8594 203.989 60.7593C203.996 60.7514 204.005 60.7432 204.015 60.7347C204.103 60.6576 204.184 60.5734 204.259 60.4831C204.3 60.4328 204.321 60.3689 204.321 60.3037C204.321 60.1678 204.225 60.057 204.106 59.9918C204.091 59.9834 204.077 59.9747 204.066 59.9658C204.043 59.9474 204.03 59.9191 204.014 59.8947C203.991 59.8603 203.966 59.8269 203.939 59.7947C203.869 59.7089 203.799 59.6219 203.726 59.5391C203.696 59.506 203.665 59.4749 203.631 59.4459C203.605 59.4229 203.575 59.4045 203.543 59.3888L203.282 59.2577C203.166 59.1997 202.972 59.3326 202.957 59.2041C202.955 59.1893 202.953 59.1453 202.95 59.1307C202.931 59.0311 202.909 58.932 202.884 58.8336C202.792 58.4616 202.627 58.1019 202.54 57.7288C202.534 57.7029 202.53 57.681 202.53 57.6649C202.53 57.4287 202.407 57.2113 202.312 56.9948C202.307 56.982 202.301 56.9692 202.295 56.9565C202.251 56.8645 202.186 56.7837 202.106 56.7204C202.046 56.6713 201.978 56.6331 201.905 56.6071C201.837 56.5827 201.764 56.5787 201.691 56.5787C201.53 56.5787 201.332 56.4667 201.214 56.5763C201.213 56.5771 201.212 56.5779 201.211 56.5787C201.168 56.6136 201.122 56.6439 201.073 56.6691C200.938 56.7391 200.781 56.744 200.629 56.744H200.553C200.38 56.744 200.203 56.7289 200.053 56.6424C200.01 56.6173 199.968 56.5891 199.929 56.5579C199.92 56.5509 199.912 56.5429 199.904 56.5343C199.879 56.5049 199.854 56.4769 199.831 56.4518C199.781 56.3972 199.653 56.402 199.609 56.3426C199.53 56.2077 199.404 56.1068 199.256 56.0592C199.067 56.0118 198.997 55.9411 198.902 55.9411H198.266C198.054 55.9411 197.866 56.0356 197.772 55.9411C197.647 55.8476 197.513 55.7683 197.371 55.705L197.108 55.5965C197.017 55.5588 196.932 55.508 196.855 55.4456C196.685 55.3074 196.563 55.1182 196.516 54.9046C196.494 54.8064 196.476 54.7173 196.476 54.6896C196.476 54.6187 196.523 54.359 196.523 54.2882C196.523 54.2174 196.358 53.8867 196.429 53.8159C196.5 53.7451 196.735 53.4145 196.853 53.3908C196.955 53.378 197.057 53.378 197.159 53.3908C197.308 53.4082 197.459 53.4047 197.607 53.3804C197.749 53.3646 197.895 53.3866 198.023 53.4064C198.271 53.4448 198.473 53.2868 198.687 53.1543C198.826 53.068 198.987 53.0232 199.131 52.9451C199.175 52.9208 199.209 52.8948 199.209 52.8713C199.2 52.6183 199.429 52.5466 199.58 52.3438C199.59 52.3314 199.599 52.3184 199.609 52.3046C199.939 51.8559 199.751 51.974 199.939 51.856C200.029 51.7996 200.125 51.7378 200.2 51.6886C200.292 51.6284 200.357 51.5255 200.459 51.4832C200.511 51.4614 200.569 51.4596 200.622 51.4781C200.724 51.5118 200.82 51.559 200.908 51.6183C200.954 51.6492 201 51.6809 201.05 51.7053C201.254 51.8056 201.437 51.9539 201.636 52.0634C201.674 52.0839 201.713 52.1014 201.753 52.1157C201.848 52.1574 201.944 52.1949 202.042 52.2281C202.345 52.3313 202.668 52.3519 202.989 52.3519H203.261C203.332 52.3519 203.426 52.2574 203.497 52.3755C203.556 52.4744 203.88 53.3031 204.025 53.6384C204.063 53.7264 204.117 53.8054 204.182 53.876C204.453 54.1715 204.85 54.3069 205.251 54.298L206.366 54.2734C206.628 54.2676 206.886 54.1791 207.073 53.994C207.188 53.8799 207.279 53.7387 207.392 53.6218C207.462 53.5489 207.537 53.4851 207.572 53.4851C207.643 53.4851 207.855 53.7213 207.925 53.8393C207.996 53.9574 207.996 54.0991 208.373 54.0755C208.75 54.0519 209.575 53.7921 209.952 53.7685C210.487 53.7092 211.02 53.6261 211.548 53.5194C211.803 53.468 212.046 53.374 212.293 53.293C212.518 53.2193 212.756 53.1851 212.974 53.0938C213.1 53.0412 213.24 52.9893 213.391 52.9893C213.467 52.9873 214.598 52.6192 214.557 52.5557C214.553 52.5507 214.55 52.5457 214.546 52.5406C214.405 52.3644 214.186 52.0697 214.083 51.9315C214.046 51.8809 214.01 51.8293 213.977 51.7757C213.907 51.6621 213.842 51.5457 213.781 51.4267C213.689 51.2456 213.667 51.0393 213.627 50.8402C213.616 50.8062 213.55 50.6638 213.485 50.5247C213.392 50.3259 213.318 50.1187 213.267 49.9053C213.224 49.7262 213.151 49.5526 213.132 49.3693C213.123 49.2736 213.135 49.175 213.203 49.1166C213.299 49.0405 213.387 48.9559 213.468 48.864C213.564 48.7546 213.648 48.623 213.627 48.479C213.603 48.3139 213.65 48.3609 213.509 48.172C213.368 47.9831 213.203 47.8178 213.132 47.7233C213.037 47.6035 212.951 47.4773 212.873 47.3455C212.764 47.189 212.629 47.0531 212.473 46.9441C212.378 46.8733 212.001 46.7788 212.001 46.6843C212.001 46.5899 211.884 46.5427 212.001 46.4954C212.119 46.4482 212.096 46.3302 212.496 46.3774C212.897 46.4246 212.826 46.3084 213.014 46.3664C213.09 46.3784 213.165 46.3844 213.241 46.3844C213.452 46.3845 213.653 46.3055 213.845 46.2178C213.888 46.1983 213.932 46.1803 213.973 46.1564C214.044 46.1142 214.153 46.0304 214.169 45.9051C214.188 45.6813 214.244 45.4602 214.242 45.2356C214.238 44.9466 214.222 44.6578 214.192 44.3702C214.192 44.3685 214.192 44.3668 214.192 44.3651C214.169 44.1181 214.232 43.8735 214.31 43.6382C214.337 43.5299 214.353 43.4191 214.357 43.3076V43.2211C214.357 43.1244 214.391 43.0307 214.453 42.9564C214.468 42.9387 214.481 42.9198 214.492 42.8997C214.525 42.8406 214.554 42.7797 214.58 42.7172C214.584 42.7009 214.588 42.6846 214.591 42.6681C214.632 42.4525 214.589 42.2276 214.606 42.0088C214.606 41.9178 214.641 41.8303 214.704 41.7645C214.79 41.6738 214.918 41.541 215.017 41.4421C215.141 41.3302 215.259 41.2119 215.37 41.0879C215.441 40.9934 215.582 40.9698 215.582 40.6864C215.597 40.5033 215.577 40.3198 215.524 40.1452C215.48 39.9988 215.389 39.8733 215.293 39.7538C215.266 39.7199 215.24 39.6857 215.214 39.6512C215.063 39.4535 214.865 39.2977 214.663 39.1516C214.544 39.0565 214.447 38.9354 214.381 38.7974C214.35 38.7458 214.318 38.6947 214.285 38.6442C214.111 38.3758 213.929 38.1117 213.78 37.8284L213.768 37.8057L213.668 37.5339C213.625 37.4164 213.597 37.294 213.584 37.1696C213.565 36.9967 213.518 36.8283 213.442 36.6716L213.287 36.3491C213.262 36.2973 213.246 36.2416 213.24 36.1845C213.231 36.1016 213.202 36.0222 213.155 35.9533L213.04 35.7859C212.961 35.6691 212.898 35.5407 212.866 35.403C212.86 35.3767 212.854 35.3505 212.849 35.3262C212.806 35.0377 212.635 34.766 212.361 34.6661C212.336 34.6569 212.31 34.6487 212.284 34.6414C212.132 34.6044 211.982 34.557 211.836 34.4997L211.383 34.293C211.34 34.2736 211.301 34.2466 211.268 34.2133C211.194 34.1397 211.095 34.0983 210.991 34.0983H210.97C210.82 34.0983 210.682 34.02 210.588 33.9033C210.543 33.848 210.496 33.7949 210.446 33.7441C210.367 33.6739 210.296 33.5947 210.234 33.508C210.164 33.3811 210.108 33.2464 210.069 33.1065C210.033 32.9354 210.009 32.7617 209.999 32.587C209.999 32.4217 209.881 32.2564 209.881 32.1856C209.881 32.1147 209.81 32.0203 209.716 31.855C209.622 31.6897 209.575 31.6897 209.48 31.5008C209.463 31.4715 209.446 31.4417 209.429 31.4116C209.292 31.1545 209.237 30.8557 209.285 30.568C209.287 30.5562 209.29 30.5444 209.292 30.5326C209.339 30.3437 209.41 30.3437 209.386 30.1548C209.38 30.1076 209.371 30.0609 209.359 30.0152C209.288 29.742 209.066 29.5391 208.821 29.3991C208.756 29.3667 208.666 29.3193 208.588 29.2776C208.477 29.2177 208.375 29.141 208.285 29.0512C208.218 28.9842 208.159 28.9103 208.108 28.8307L207.973 28.6199C207.896 28.4668 207.873 28.2928 207.904 28.1246C207.91 28.0889 207.918 28.0494 207.925 28.0059C207.926 28.003 207.926 28 207.927 27.997C207.981 27.6854 207.877 27.3482 207.596 27.2031C207.431 27.1129 207.14 26.7693 207.007 26.6363L206.804 26.4335C206.738 26.3668 206.648 26.3293 206.553 26.3293C206.542 26.3293 206.53 26.33 206.518 26.3304C206.463 26.3326 206.296 26.3293 206.277 26.2113C206.257 26.1276 206.218 26.0498 206.164 25.9838C206.146 25.9616 206.125 25.9414 206.105 25.9202C206.058 25.8688 205.97 25.767 205.97 25.7154C205.97 25.7105 205.969 25.7056 205.969 25.7007C205.941 25.4412 206.122 25.2136 206.182 24.9598C206.205 24.8269 206.268 24.4446 206.276 24.3977C206.276 24.3946 206.277 24.3914 206.277 24.3882C206.291 24.3038 206.291 24.2177 206.277 24.1333C206.262 24.0472 206.248 23.9611 206.239 23.9068C206.233 23.8689 206.229 23.8306 206.229 23.7922C206.229 23.7209 206.218 23.65 206.197 23.5821L206.131 23.3753C206.087 23.236 206.064 23.0907 206.064 22.9446C206.064 22.8089 206.084 22.6739 206.122 22.5438L206.16 22.4151C206.175 22.3642 206.194 22.3147 206.218 22.2673C206.272 22.1585 206.348 22.0619 206.441 21.9833L206.471 21.9575C206.561 21.8815 206.662 21.8204 206.771 21.7767L206.921 21.7168C206.947 21.7063 206.972 21.6938 206.996 21.6793L207.021 21.6644C207.132 21.5975 207.21 21.4868 207.235 21.3595L207.241 21.3295C207.242 21.3253 207.243 21.3212 207.245 21.3171C207.27 21.2498 207.388 21.2762 207.452 21.2438C207.476 21.2323 207.499 21.2025 207.522 21.1441C207.524 21.1378 207.526 21.131 207.527 21.1243C207.549 21.0083 207.562 20.8907 207.563 20.7728C207.566 20.5888 207.55 20.403 207.589 20.2232C207.619 20.0892 207.671 19.9617 207.724 19.8351C207.761 19.7461 207.8 19.6644 207.855 19.623C207.949 19.5522 208.091 19.5285 208.161 19.4341C208.232 19.3397 208.256 19.316 208.326 19.2216C208.381 19.1261 208.421 19.0225 208.444 18.9146L208.468 18.7729C208.499 18.6482 208.506 18.5185 208.486 18.3915C208.461 18.2335 208.425 18.0205 208.397 17.9228C208.35 17.7575 208.232 17.6395 208.209 17.4742C208.185 17.3089 208.161 17.2144 208.138 17.0727C208.109 16.893 208.094 16.7115 208.091 16.5296V16.1518C208.087 16.0152 208.063 15.8799 208.02 15.7503C207.981 15.5925 207.846 15.4751 207.784 15.3247C207.749 15.2419 207.726 15.1549 207.714 15.0655C207.703 14.8361 207.679 14.6074 207.643 14.3806C207.618 14.261 207.586 14.1428 207.549 14.0263C207.525 13.9083 207.431 13.5777 207.407 13.4832C207.384 13.3888 207.431 13.2707 207.337 13.1526C207.249 13.0292 207.207 12.8787 207.219 12.7276C207.219 12.5623 207.29 12.4915 207.29 12.3498C207.314 12.1152 207.212 11.9048 207.087 11.7051C207.042 11.6332 207.007 11.5601 207.007 11.4997C206.996 11.3031 206.912 11.1178 206.771 10.9802C206.606 10.7913 206.583 10.7204 206.465 10.6968C206.347 10.6732 206.182 10.6023 206.065 10.6968C205.983 10.7809 205.91 10.8725 205.846 10.9702C205.801 11.0382 205.754 11.1048 205.699 11.1644L205.53 11.3461C205.495 11.3846 205.448 11.4113 205.397 11.4228C205.314 11.4414 205.227 11.4164 205.16 11.3633C205.016 11.2498 204.855 11.1615 204.682 11.1022C204.562 11.0612 204.433 11.053 204.309 11.0769C204.154 11.1067 204.004 11.1576 203.862 11.2282C203.766 11.2645 203.67 11.2978 203.572 11.3281C203.392 11.3842 203.198 11.3966 203.018 11.3386C202.944 11.3146 202.874 11.2789 202.807 11.2387L202.471 11.0367C202.409 10.9994 202.354 10.9522 202.307 10.8971C202.173 10.7405 201.975 10.6545 201.769 10.6579C201.592 10.6608 201.388 10.6608 201.282 10.6492C201.07 10.6261 200.54 10.2365 200.54 10.0948C200.535 9.95826 200.522 9.82231 200.501 9.68772C200.454 9.38971 200.258 9.17494 200.045 8.96132C199.943 8.88406 199.839 8.80985 199.733 8.73879C199.531 8.60411 199.277 8.58037 199.047 8.65721C198.807 8.73755 198.543 8.70502 198.329 8.56871L198.278 8.53629L197.992 8.39839C197.597 8.20832 197.237 7.9527 196.927 7.64239C196.862 7.57716 196.796 7.51274 196.717 7.46413C196.555 7.36339 196.25 7.23287 196.025 7.48849C195.994 7.52363 195.975 7.56735 195.961 7.61217C195.909 7.78556 195.758 7.91049 195.578 7.92854L195.1 7.97642C194.914 7.99501 194.728 7.95762 194.563 7.86905C194.427 7.79552 194.273 7.75001 194.121 7.77815C194.04 7.79322 193.961 7.81903 193.932 7.86326C193.861 7.9695 193.578 8.18205 193.578 8.28832V8.71339L193.6 9.0111C193.609 9.14169 193.59 9.27275 193.544 9.39536C193.52 9.46002 193.489 9.5221 193.449 9.57814C193.39 9.65934 193.327 9.73722 193.26 9.81144C193.165 9.90677 192.843 10.1731 192.777 10.2269C192.769 10.2334 192.762 10.2398 192.754 10.2463C192.621 10.3577 192.482 10.473 192.312 10.5081C192.287 10.5133 192.261 10.5172 192.236 10.5199C192.105 10.515 191.976 10.5032 191.847 10.4845C191.728 10.4833 191.61 10.4952 191.493 10.5199C191.458 10.5282 191.421 10.5351 191.385 10.5405C191.255 10.5599 191.13 10.6192 191.053 10.7266C191.017 10.777 190.97 10.8186 190.916 10.848L190.692 10.9687C190.593 11.0224 190.479 11.0436 190.367 11.0296C190.294 11.0205 190.224 10.9967 190.16 10.9602C190.09 10.9201 189.993 10.8651 189.906 10.8187C189.789 10.7564 189.66 10.7231 189.528 10.7125C189.482 10.7088 189.436 10.7057 189.39 10.7033C189.168 10.6916 188.944 10.7198 188.737 10.8033C188.569 10.8724 188.389 10.9085 188.207 10.9095C188.03 10.9095 187.606 10.8741 187.394 10.8741C187.182 10.8741 186.723 10.7678 186.511 10.7678C186.155 10.7181 185.799 10.6458 185.441 10.6281C185.416 10.6269 185.395 10.6262 185.38 10.6262C185.098 10.6262 184.815 10.6153 184.536 10.6638L184.279 10.7086C184.189 10.7244 184.097 10.7324 184.005 10.7324C183.793 10.7324 183.583 10.6898 183.387 10.6104C183.29 10.5711 183.196 10.5341 183.154 10.5199C183.009 10.4564 182.867 10.3855 182.729 10.3074L182.569 10.2396C182.236 10.0993 181.971 9.84285 181.705 9.59893L181.686 9.58379C181.465 9.40673 181.2 9.29224 180.963 9.13846C180.87 9.06859 180.794 8.97806 180.742 8.87401L180.733 8.85498C180.675 8.7386 180.645 8.61027 180.637 8.48046C180.624 8.25975 180.584 7.92112 180.468 7.82789C180.299 7.68936 180.108 7.58147 179.902 7.50911C179.72 7.42158 179.542 7.3228 179.372 7.21335C179.28 7.15444 179.225 7.05322 179.154 6.97033C179.117 6.92728 179.071 6.89344 179.019 6.87152C178.889 6.81945 178.683 6.72906 178.583 6.68486C178.544 6.66795 178.511 6.64104 178.487 6.60695C178.411 6.4996 178.259 6.48828 178.128 6.50363C178.065 6.51106 177.999 6.49827 177.946 6.44058C177.93 6.42226 177.915 6.40195 177.898 6.38449C177.787 6.27451 177.659 6.1849 177.518 6.11938C177.418 6.0725 177.327 6.00432 177.27 5.90915L177.234 5.85029C177.127 5.67006 176.885 5.60672 176.757 5.77352C176.616 5.95062 175.874 5.84434 175.733 5.84434C175.591 5.84434 175.202 5.70265 175.167 5.87975C175.135 6.00586 175.077 6.12415 174.998 6.2276C174.842 6.4332 174.588 6.53534 174.338 6.60204C174.327 6.60502 174.316 6.60788 174.305 6.61062C174.082 6.66559 173.87 6.55857 173.662 6.46076C173.335 6.30628 172.92 6.31672 172.663 6.0618C172.661 6.06016 172.66 6.05851 172.658 6.05685C172.552 5.95061 172.34 5.49014 172.234 5.52555C172.128 5.56096 171.775 5.31304 171.527 5.27763C171.28 5.24222 171.033 5.49014 170.891 5.27763C170.818 5.17473 170.723 5.0895 170.613 5.0282C170.503 4.9669 170.381 4.93109 170.255 4.92339C170.043 4.92339 169.513 5.06508 169.407 4.92339C169.233 4.74722 169.03 4.60332 168.806 4.49837C168.751 4.47985 168.599 4.41287 168.466 4.35318C168.321 4.288 168.21 4.16704 168.154 4.01839C168.141 3.98422 168.125 3.95137 168.107 3.9201C168.082 3.87933 168.044 3.81666 168.004 3.75116C167.905 3.58751 167.786 3.43577 167.638 3.31369C167.484 3.18656 167.319 3.07327 167.145 2.97525C166.981 2.88437 166.801 2.82436 166.615 2.79815C166.59 2.79815 166.56 2.80063 166.525 2.80472C165.963 2.87118 165.478 2.59835 164.975 2.33907C164.777 2.2367 164.576 2.13714 164.386 2.01987L164.212 1.91265L163.909 1.66951C163.758 1.54833 163.598 1.38129 163.407 1.41147C163.362 1.41848 163.322 1.44053 163.293 1.48758C163.234 1.58753 162.926 1.65364 162.67 1.69227C162.439 1.72702 162.21 1.6388 162.047 1.47164C162.006 1.42993 161.961 1.39287 161.912 1.36116L161.65 1.19058C161.592 1.15325 161.525 1.13338 161.457 1.13338C161.261 1.13338 161.102 1.29204 161.102 1.48776V2.14466C161.102 2.37012 160.972 2.58591 160.749 2.62105C160.426 2.63311 160.104 2.65948 159.783 2.70007C159.65 2.7169 159.522 2.75797 159.408 2.82815C159.347 2.8656 159.284 2.9055 159.234 2.93842C159.161 2.98536 159.078 3.01354 158.992 3.01893C158.745 3.03443 158.517 2.86306 158.492 2.61649C158.489 2.58937 158.487 2.56648 158.487 2.55022C158.487 2.44399 158.593 2.30225 158.523 2.12515C158.475 1.99401 158.433 1.86072 158.397 1.7257C158.386 1.68519 158.373 1.64555 158.355 1.60756C158.226 1.33003 157.916 1.19567 157.614 1.14227C157.599 1.13957 157.584 1.13661 157.569 1.13338C157.372 1.08016 157.165 1.08016 156.968 1.13338C156.735 1.18607 156.499 1.22159 156.261 1.23966C155.978 1.23966 155.731 1.37036 155.731 1.0925C155.731 0.814635 155.766 0.495801 155.484 0.389524C155.127 0.232671 154.742 0.1484 154.353 0.141602C154.275 0.149449 154.205 0.152079 154.142 0.153347C153.811 0.160066 153.595 0.433272 153.536 0.759458C153.501 0.959204 153.503 1.17473 153.388 1.34162C153.369 1.36786 153.35 1.39296 153.328 1.41676C153.251 1.49381 153.132 1.57086 153.023 1.64221C152.868 1.74374 152.72 1.87891 152.696 2.06309C152.683 2.15582 152.694 2.25017 152.727 2.33767C152.772 2.42711 152.887 2.9823 152.966 3.37961C153.019 3.65043 153.154 3.90541 153.187 4.17957C153.209 4.33652 153.231 4.53606 153.245 4.66137C153.253 4.74159 153.257 4.82211 153.257 4.90278V4.98564C153.257 5.22552 153.194 5.46289 153.187 5.70265C153.191 5.74877 153.193 5.795 153.191 5.84105C153.183 6.08506 152.944 6.24108 152.904 6.48192C152.886 6.55353 152.87 6.62543 152.854 6.69756C152.78 7.04551 152.823 7.41425 152.727 7.75707C152.668 7.9769 152.632 8.20255 152.621 8.43006L152.582 9.10372C152.561 9.45647 152.505 9.80676 152.403 10.145C152.365 10.2712 152.328 10.3877 152.303 10.449C152.232 10.6261 152.303 11.0158 151.738 10.8387C151.172 10.6616 150.96 10.449 150.784 10.449C150.617 10.4288 150.451 10.401 150.287 10.3657C150.123 10.3307 149.957 10.3074 149.79 10.3074C149.652 10.3074 149.514 10.322 149.379 10.3509L149.151 10.4C149.109 10.4091 149.066 10.4173 149.024 10.4273C148.911 10.4541 148.681 10.5204 148.628 10.6262C148.565 10.7986 148.518 10.9764 148.487 11.1575L148.452 11.2834C148.405 11.4572 148.395 11.6391 148.423 11.817C148.465 12.0792 148.432 12.3531 148.294 12.5796C148.287 12.5907 148.281 12.6008 148.275 12.6097C148.267 12.6209 148.259 12.6321 148.25 12.6433C148.091 12.8442 147.911 13.0444 147.674 13.141L147.561 13.2038C147.425 13.2799 147.295 13.3673 147.173 13.4651L147.103 13.5211C147.036 13.5746 146.965 13.6228 146.891 13.6654C146.801 13.7171 146.715 13.777 146.639 13.8477C146.553 13.9271 146.438 14.0389 146.357 14.1375C146.272 14.2407 146.252 14.3765 146.225 14.5072C146.17 14.7791 146.119 15.0534 146.119 15.3309V16.8248C146.119 16.9347 146.077 17.3216 146.057 17.4897C146.051 17.5424 146.048 17.5952 146.048 17.6482C146.048 17.8064 146.089 17.9624 146.1 18.1202C146.107 18.2108 146.092 18.2967 146.013 18.3124C145.98 18.319 145.942 18.3255 145.901 18.3318C145.675 18.3663 145.481 18.1751 145.342 17.9937C145.195 17.8441 145.012 17.7345 144.812 17.6749C144.785 17.6661 144.731 17.6466 144.664 17.622C144.317 17.4949 143.787 17.3714 143.787 17.0019C143.787 16.7135 143.348 16.6633 143.12 16.84C143.082 16.8693 143.045 16.8996 143.009 16.931C142.855 17.043 142.689 17.138 142.515 17.2144C142.5 17.2193 142.486 17.2241 142.472 17.2288C142.223 17.31 141.964 17.2866 141.721 17.1911C141.629 17.1547 141.534 17.1214 141.454 17.1081C141.242 17.0727 141.136 17.1436 140.96 17.0019L140.606 16.7185L140.324 16.5487C140.159 16.4496 139.985 16.3674 139.804 16.3033L139.72 16.2736C139.557 16.2162 139.406 16.127 139.241 16.0792C139.18 16.0616 139.118 16.0508 139.054 16.047C139.029 16.0455 139.004 16.048 138.979 16.053C138.889 16.0709 138.809 16.1222 138.763 16.2011C138.697 16.3141 138.619 16.4755 138.663 16.5414C138.718 16.6224 138.769 16.7071 138.812 16.795C138.857 16.884 138.889 16.9795 138.9 17.0783C138.903 17.1032 138.906 17.1281 138.907 17.1531C138.911 17.2173 138.904 17.2816 138.891 17.3447C138.857 17.5148 138.779 17.6724 138.671 17.8077C138.651 17.8315 138.633 17.8552 138.616 17.8776C138.575 17.9303 138.535 17.9844 138.486 18.0287C138.46 18.052 138.432 18.0738 138.404 18.0941C138.322 18.1518 138.224 18.178 138.125 18.1921C138.059 18.2015 137.993 18.2041 137.928 18.2L137.891 18.1977C137.612 18.1802 137.308 18.2282 137.13 18.4439C137.095 18.4856 137.072 18.5261 137.072 18.5604C137.083 18.6726 137.087 18.7852 137.085 18.8978C137.083 19.0504 137.033 19.1998 136.896 19.2669C136.86 19.2844 136.824 19.2997 136.794 19.3116C136.745 19.3314 136.692 19.3432 136.639 19.3503L136.499 19.369C136.306 19.3949 136.147 19.5263 136.008 19.6642C135.988 19.6844 135.965 19.703 135.938 19.7112C135.917 19.7174 135.892 19.7213 135.866 19.7234C135.636 19.7413 135.421 19.6231 135.236 19.4866L134.987 19.3042L134.87 19.223C134.589 19.0299 134.232 18.8438 133.892 18.8438C133.626 18.8476 133.36 18.8104 133.106 18.7335C133.041 18.7139 132.98 18.683 132.924 18.6453C132.84 18.5892 132.746 18.5497 132.647 18.5288L132.361 18.4684C132.204 18.4354 132.044 18.4187 131.884 18.4187H131.63C131.486 18.4187 131.26 18.4023 131.13 18.3918C131.063 18.3864 130.996 18.3833 130.928 18.3833H130.69C130.564 18.3833 130.439 18.4073 130.323 18.4541C130.052 18.5385 129.769 18.4246 129.515 18.2974L129.333 18.2062C129.245 18.1638 129.149 18.1397 129.051 18.1354C128.963 18.1354 128.882 18.089 128.832 18.017C128.773 17.9317 128.691 17.8261 128.628 17.7922C128.605 17.78 128.578 17.7793 128.553 17.7751C128.48 17.7633 128.409 17.7488 128.337 17.7318C128.217 17.703 128.143 17.5858 128.158 17.4632C128.164 17.4163 128.157 17.3687 128.135 17.3269C128.076 17.2146 127.945 16.9928 127.814 16.9665C127.637 16.9311 127.213 16.8248 127.248 16.6831C127.284 16.5414 127.036 16.6831 127.284 16.5414C127.531 16.3997 127.637 16.3289 127.814 16.2226C127.885 16.168 127.953 16.1091 128.017 16.0465C128.132 15.9345 128.362 15.6123 128.273 15.4788C128.229 15.412 128.101 15.2472 128.011 15.1341C127.951 15.0576 127.875 14.9958 127.788 14.9522C127.689 14.9026 127.602 14.8303 127.545 14.7357C127.47 14.6117 127.406 14.4811 127.354 14.3453C127.268 14.1063 126.849 13.8023 126.608 13.7245C126.387 13.6537 126.167 13.5827 126.117 13.5661C126.047 13.5427 125.982 13.5063 125.926 13.459L125.5 13.1038C125.418 13.0351 125.321 12.9872 125.216 12.9639C125.112 12.9407 125.015 12.8926 124.932 12.825C124.861 12.7677 124.774 12.6977 124.704 12.6451C124.675 12.6236 124.641 12.5962 124.604 12.5663C124.385 12.3875 124.19 12.1808 124.013 11.9594C123.898 11.8148 123.782 11.6671 123.75 11.6179C123.7 11.5583 123.647 11.501 123.592 11.4462C123.49 11.3442 123.365 11.2681 123.235 11.2069C123.015 11.1043 122.776 11.0512 122.534 11.0512H122.433C122.136 11.0512 121.839 11.1071 121.583 11.256C121.539 11.2814 121.496 11.3076 121.453 11.3346C121.311 11.4408 121.064 11.6888 121.099 11.795C121.149 11.9309 121.162 12.0778 121.135 12.2201C121.099 12.3972 121.099 12.5389 120.993 12.6451C120.887 12.7514 120.569 12.9285 120.499 13.0702C120.428 13.2119 120.287 13.2827 120.357 13.4244C120.428 13.5661 120.605 13.6723 120.746 13.814C120.901 13.9347 121.023 14.0932 121.099 14.2745C121.15 14.4225 121.174 14.5785 121.17 14.735C121.17 14.8252 121.247 15.6831 121.27 15.9386C121.274 15.9865 121.276 16.0342 121.276 16.0823V16.4727C121.276 16.9354 120.605 17.1414 120.605 17.6041C120.605 17.6522 120.613 17.737 120.624 17.8281C120.653 18.0804 120.675 18.3338 120.675 18.5878V18.7375C120.675 18.8363 120.651 18.9336 120.605 19.0208C120.534 19.1271 120.428 19.0917 120.322 19.3042C120.288 19.371 120.251 19.4362 120.211 19.4996C120.132 19.6245 119.986 19.6857 119.838 19.6723L119.818 19.6704C119.732 19.6627 119.647 19.6844 119.576 19.7319C119.51 19.7762 119.459 19.8405 119.432 19.9155L119.333 20.1897C119.294 20.3425 119.38 20.5692 119.343 20.7223C119.33 20.779 119.304 20.8485 119.262 20.9336L119.174 21.1105C119.093 21.2728 118.976 21.4418 118.796 21.4621C118.724 21.4702 118.67 21.4037 118.616 21.3554C118.564 21.3088 118.511 21.2639 118.456 21.2208C118.293 21.0925 118.128 20.9657 117.981 20.8188L117.884 20.7211L117.53 20.4023C117.297 20.1923 117.022 20.0356 116.722 19.9432L116.717 19.9418L116.683 19.9259C116.403 19.7964 116.167 19.5622 115.869 19.4813C115.66 19.4463 115.347 19.3768 115.339 19.3751C115.339 19.375 115.339 19.375 115.339 19.375C114.917 19.281 114.509 19.1312 114.127 18.9295L114.032 18.8792L113.733 18.7594C113.697 18.7449 113.663 18.7253 113.632 18.7013L113.584 18.6637C113.454 18.5626 113.271 18.5679 113.147 18.6763C113.102 18.7164 113.068 18.7679 113.048 18.8256L113.031 18.8778C113.015 18.9257 112.992 18.9711 112.965 19.0134C112.889 19.1297 112.821 19.2504 112.76 19.3751C112.704 19.5019 112.603 19.6031 112.477 19.6584C112.374 19.7122 112.268 19.7596 112.159 19.8001L112.098 19.8245C112.023 19.8548 111.94 19.8615 111.86 19.8438C111.737 19.8163 111.636 19.7305 111.567 19.624C111.504 19.5261 111.42 19.4273 111.346 19.4459C111.294 19.4603 111.243 19.4796 111.195 19.5035C110.952 19.6242 110.725 19.8313 110.661 20.0951C110.652 20.1316 110.644 20.1744 110.639 20.2252C110.604 20.5794 110.604 20.544 110.745 20.7565C110.771 20.7877 110.795 20.8196 110.818 20.8523C111.023 21.1394 111.099 21.502 111.099 21.8545V21.8845C111.099 22.171 111.074 22.4569 111.025 22.7392C110.985 22.9719 110.94 23.2344 110.922 23.3422C110.887 23.5414 110.863 23.7424 110.851 23.9444C110.851 24.0308 110.828 24.305 110.819 24.4041C110.817 24.4282 110.815 24.4524 110.813 24.4765C110.813 24.4844 110.812 24.4922 110.811 24.5001C110.784 24.8152 110.642 25.1158 110.639 25.432V25.8821C110.639 26.0061 110.618 26.1293 110.575 26.2459L110.559 26.2915C110.519 26.4021 110.502 26.5199 110.511 26.6372C110.525 26.842 110.465 27.0455 110.337 27.2064C109.837 27.8378 109.301 28.4398 108.731 29.0095C108.069 29.5943 107.373 30.1384 106.646 30.6389C106.222 30.9223 105.833 30.816 105.339 30.9223C105.084 30.9652 104.827 30.9989 104.57 31.0233C104.324 31.0467 103.572 30.9741 103.351 31.0834C103.329 31.0938 103.313 31.1041 103.292 31.1131C103.021 31.2252 102.733 31.2924 102.441 31.3119C102.158 31.3473 101.946 31.2765 101.805 31.3119C101.707 31.3362 101.293 31.5112 101.043 31.6182C100.915 31.6734 100.788 31.734 100.667 31.8043C100.186 32.0836 99.67 32.3373 99.2499 32.702C99.2389 32.7117 99.2304 32.7206 99.225 32.7287C99.1825 32.7925 99.0254 32.933 98.8913 33.058C98.7541 33.186 98.6312 33.3303 98.4888 33.4525C98.4393 33.495 98.3885 33.5361 98.3365 33.5757C98.2703 33.6261 98.2072 33.6806 98.151 33.742L98.134 33.7606C97.9494 33.9625 97.6954 34.0873 97.4227 34.1101C97.0165 34.162 96.6149 34.2449 96.2212 34.3581C96.1079 34.4048 95.9926 34.4465 95.8756 34.4831C95.6616 34.55 95.4997 34.5714 95.3001 34.6736C95.1121 34.7699 94.9687 35.0186 94.8501 35.1934C94.7198 35.3855 94.5757 35.568 94.419 35.7395L93.9949 36.1645L93.8449 36.3149C93.7575 36.4025 93.6522 36.4704 93.5363 36.514L93.4876 36.5323C93.4491 36.5468 93.4126 36.5663 93.3791 36.5902L93.3363 36.6209C93.2395 36.6901 93.1822 36.8018 93.1822 36.9208C93.1822 36.9823 93.1667 37.0429 93.1373 37.097L93.0989 37.1676C93.0161 37.3197 92.879 37.4355 92.7137 37.4869C92.6385 37.5103 92.5627 37.5329 92.5107 37.5459L92.4651 37.5573C92.4014 37.5733 92.3393 37.5951 92.2795 37.6223C92.0847 37.7111 91.9147 37.853 91.8259 38.0478C91.8055 38.0925 91.7864 38.1377 91.7686 38.1835C91.7376 38.2473 91.7106 38.3128 91.6874 38.3797C91.5813 38.6863 91.6135 39.0185 91.6563 39.3401L91.6626 39.3878C91.7015 39.5437 91.7487 39.6974 91.8039 39.8483C91.8256 39.9025 91.8505 39.9667 91.8748 40.0297C91.9456 40.2138 92.0478 40.3844 92.1787 40.532C92.235 40.5956 92.2962 40.6545 92.362 40.7083C92.4892 40.8124 92.7083 40.9914 92.8288 41.088C93.0055 41.2297 93.2528 41.3714 93.3942 41.5131C93.5229 41.6578 93.641 41.8117 93.7475 41.9735C93.8534 42.115 94.1354 42.5389 94.1363 42.5402C94.1363 42.5403 94.1363 42.5403 94.1363 42.5403C94.2763 42.7507 94.3651 42.9896 94.449 43.228C94.4899 43.3443 94.5389 43.4577 94.5957 43.5675C94.6779 43.7158 94.7831 43.9408 94.872 44.139C94.9936 44.41 95.3147 44.5607 95.4085 44.8426C95.4305 44.9089 95.6732 45.0306 95.8523 45.1126C95.9793 45.1708 96.1043 45.2337 96.2232 45.307C96.4096 45.422 96.5835 45.5577 96.7246 45.7253C96.7318 45.7338 96.739 45.7424 96.7461 45.7511C96.9227 45.9636 97.0564 46.2104 97.1906 46.4519C97.2235 46.5112 97.257 46.5708 97.288 46.6255C97.3769 46.7827 97.4478 46.9494 97.4973 47.1232L97.5245 47.2186C97.5508 47.3109 97.5872 47.4 97.6331 47.4843C97.7272 47.6572 97.8521 47.7818 97.9798 47.9317C98.0368 47.9987 98.0783 48.1057 98.1147 48.1857C98.1639 48.2936 98.2104 48.4027 98.2542 48.5129C98.3408 48.7308 98.3769 48.9648 98.3769 49.1993C98.3644 49.3895 98.3409 49.5787 98.3062 49.7661C98.2932 49.8051 98.2612 49.8918 98.2259 49.9859C98.1391 50.2172 98.0331 50.4408 97.9116 50.6558L97.4934 51.3954C97.4481 51.4588 97.4046 51.5236 97.3632 51.5895C97.1986 51.8517 97.0144 52.1026 96.8927 52.3872C96.8507 52.4853 96.7978 52.6332 96.749 52.7762C96.6538 53.0557 96.6725 53.3846 96.504 53.627L96.1827 54.0295C96.1157 54.1134 96.0751 54.2154 96.0662 54.3225C96.0525 54.4872 96.1148 54.6492 96.2354 54.7623L96.5016 55.0121C96.5267 55.0357 96.5527 55.0583 96.5802 55.0791C96.6891 55.1612 96.9835 55.3705 97.0694 55.3035C97.3714 55.068 97.7871 55.4985 97.9362 55.8513C97.9436 55.8687 97.9492 55.8831 97.9528 55.8937C98.021 56.123 98.1037 56.3478 98.2002 56.5667C98.2255 56.6308 98.2522 56.6943 98.2802 56.7572C98.3829 56.9882 98.5153 57.2095 98.7066 57.3748C98.8974 57.5396 99.122 57.6632 99.3663 57.7356C99.3878 57.7427 99.4207 57.7528 99.4596 57.7642C99.7258 57.8427 100 57.9174 100.224 58.0821C100.28 58.1239 100.32 58.1646 100.32 58.1961C100.32 58.3023 100.285 58.2315 100.391 58.5148C100.442 58.6512 100.485 58.7629 100.516 58.8422C100.55 58.9307 100.572 59.0233 100.581 59.1179L100.586 59.1793C100.597 59.3012 100.578 59.4238 100.53 59.5363L100.52 59.5591C100.505 59.5948 100.494 59.6322 100.487 59.6704C100.45 59.8723 100.296 60.0294 100.104 60.1025C100.034 60.1292 99.9655 60.1589 99.898 60.1915C99.7784 60.2491 99.6826 60.3521 99.7051 60.4829C99.7158 60.5452 99.7344 60.6107 99.7523 60.6674C99.7764 60.7435 99.8147 60.8145 99.8652 60.8764C99.9287 60.9542 99.9953 61.0293 100.065 61.1017C100.187 61.229 100.371 61.3358 100.285 61.4902C100.207 61.6284 100.114 61.7574 100.007 61.8747C99.9153 61.9765 99.8276 62.083 99.762 62.2036C99.6874 62.3407 99.6254 62.4947 99.6662 62.6453C99.6845 62.713 99.7144 62.7777 99.7551 62.8362C99.8964 63.0133 100.179 63.2258 100.179 63.332C100.179 63.372 100.184 63.4569 100.19 63.5474C100.205 63.7568 100.207 63.9816 100.075 64.145C100.011 64.2241 99.9238 64.2805 99.8315 64.3234C99.7249 64.373 99.6135 64.4118 99.4992 64.4391C99.4115 64.4601 99.3212 64.4644 99.2314 64.4559C99.1183 64.445 98.9643 64.4272 98.8503 64.4136C98.7491 64.4015 98.6543 64.3581 98.5786 64.2898C98.4341 64.1594 98.2244 64.1212 98.0577 64.2215C98.0221 64.2428 97.9872 64.2652 97.9528 64.2884C97.8115 64.3947 97.2461 63.9696 97.14 63.8634C96.9056 63.6714 96.6435 63.5161 96.3626 63.4029C96.1105 63.3033 95.7793 62.7805 95.5717 62.6062C95.5646 62.6002 95.5573 62.5942 95.5498 62.5882C95.3021 62.3949 95.0424 62.2174 94.7724 62.0569L94.2166 61.7784C94.1632 61.7516 94.1125 61.7198 94.0652 61.6833C93.8221 61.4959 93.687 61.2008 93.704 60.8943L93.7061 60.8569C93.7102 60.7834 93.7061 60.7097 93.694 60.637L93.5753 59.923C93.5723 59.9052 93.5708 59.8872 93.5708 59.8691V59.8472C93.5708 59.7095 93.6646 59.5894 93.7982 59.5559C93.8348 59.5467 93.8693 59.5308 93.9 59.5088L94.2071 59.2889C94.301 59.2217 94.4009 59.1501 94.4374 59.0405C94.4557 58.9853 94.4615 58.9267 94.4543 58.869C94.4353 58.7737 94.2319 58.6064 94.0481 58.4724C93.8522 58.3294 93.6552 58.1876 93.4713 58.0295L93.0055 57.6293L92.9259 57.5628C92.8376 57.4891 92.7512 57.4126 92.6792 57.323C92.634 57.2668 92.5851 57.1987 92.5516 57.1319C92.5077 57.0443 92.5017 56.9432 92.4797 56.8477C92.4496 56.7166 92.4144 56.5868 92.3741 56.4585C92.3108 56.2567 92.1439 56.1074 91.9405 56.0492C91.8279 56.0169 91.7091 56.0187 91.5923 56.0292C91.4623 56.0408 91.3308 56.0311 91.2032 56C91.0862 55.9765 91.004 55.9919 90.9465 56.023C90.8165 56.0932 90.7279 56.2611 90.5806 56.2497C90.5008 56.2435 90.4235 56.2187 90.3551 56.1771C90.289 56.139 90.2215 56.1037 90.1526 56.0711C89.9897 55.994 89.8028 55.9956 89.6318 56.0527C89.5958 56.0648 89.5607 56.0793 89.5267 56.0964C89.4551 56.1322 89.3226 56.1986 89.2243 56.2479C89.0916 56.3085 88.9453 56.3329 88.8002 56.3187C88.7621 56.3187 88.7223 56.322 88.6824 56.3272C88.4303 56.3598 88.1698 56.4001 87.9521 56.5313C87.8019 56.6388 87.5531 56.6595 87.4473 56.8109C87.4268 56.8402 87.4064 56.8764 87.3867 56.9209C87.3396 57.0407 87.3012 57.1635 87.2716 57.2884C87.2134 57.5343 87.1769 57.8143 86.9626 57.9481C86.8069 58.0231 86.6396 58.071 86.4678 58.0898H86.0791C86.0558 58.0898 86.017 58.0915 85.9708 58.0942C85.707 58.1094 85.3774 58.4515 85.231 58.2315C85.0897 58.019 84.6656 57.8773 84.5242 57.7356C84.3829 57.5939 84.1709 57.5939 84.1002 57.3814C84.0295 57.1689 84.2062 57.2397 83.9235 56.9209C83.6408 56.6021 83.3934 56.3896 83.3581 56.2479C83.343 56.1876 83.2703 56.0074 83.1918 55.8204C83.047 55.4755 82.8892 55.0666 82.5287 54.9671C82.4196 54.937 82.3023 54.949 82.1919 55.0474C81.953 55.3029 81.6644 55.5066 81.3438 55.6457C81.0964 55.7166 80.9904 55.7874 80.7784 55.7166C80.5663 55.6457 80.6724 55.2797 80.531 55.3034C80.2624 55.3279 79.9925 55.3355 79.7231 55.326C79.4847 55.3176 79.2442 55.3136 79.0117 55.3672C78.8982 55.3933 78.7859 55.4247 78.6753 55.4613C78.4744 55.5277 78.2634 55.5623 78.0573 55.6102C77.8073 55.6937 77.7556 55.1294 77.9167 54.9207C77.9352 54.8968 77.9582 54.8777 77.9866 54.8663C78.0942 54.8233 78.228 54.6226 78.3162 54.4722C78.3822 54.3595 78.426 54.2348 78.4388 54.1048C78.4436 54.0554 78.4468 54.0059 78.4483 53.9563C78.4521 53.8327 78.4161 53.7109 78.3458 53.6091C78.238 53.4528 78.0562 53.3509 77.8709 53.3924C77.835 53.4004 77.7997 53.4108 77.765 53.4235C77.6743 53.4567 77.5987 53.5196 77.5304 53.588L77.4509 53.6677C77.3606 53.7582 77.2796 53.8573 77.2088 53.9636L77.2005 53.9761C77.0891 54.1437 76.9548 54.2952 76.7973 54.4203C76.7564 54.4528 76.7154 54.4848 76.6791 54.5121C76.5152 54.6423 76.3204 54.7277 76.1137 54.7601C75.7957 54.8309 75.5129 55.051 75.3716 55.0472C75.2925 55.0451 75.2258 55.1056 75.2202 55.1844L75.2011 55.4525C75.197 55.5098 75.2045 55.5673 75.2232 55.6216C75.3199 55.9014 75.6355 56.8068 75.725 56.9561C75.7734 57.0524 75.8144 57.1521 75.8477 57.2543C75.8899 57.3839 75.9489 57.5159 75.9366 57.6516C75.9304 57.7201 75.9062 57.7857 75.8663 57.8417C75.7274 58.0117 75.5976 58.1891 75.4776 58.373C75.4091 58.4812 75.311 58.5673 75.1949 58.6209C74.9861 58.7225 74.7555 58.7712 74.5235 58.7626C74.4517 58.765 74.38 58.7647 74.3084 58.7618C73.8643 58.7439 73.3997 58.7644 72.9686 58.6564C72.6859 58.5501 72.8625 58.5501 72.4738 58.4792C72.0851 58.4084 71.9084 58.4084 71.6611 58.373C71.4137 58.3376 71.237 58.1959 71.0957 58.1959C70.9312 58.1782 70.7654 58.1782 70.6009 58.1959C70.4596 58.2313 70.1769 58.2667 69.9295 58.3376C69.6821 58.4084 69.5408 58.4438 69.3994 58.4792C69.258 58.5146 68.94 58.4792 68.6927 58.5147C68.4198 58.5535 68.1508 58.6149 67.8887 58.6981C67.5231 58.8141 67.206 59.0534 66.8408 59.1707C66.8221 59.1766 66.8033 59.1823 66.7844 59.1877C66.6784 59.2231 66.3603 59.1168 66.2897 59.2231C66.2633 59.2628 66.2369 59.3272 66.2086 59.3941C66.1284 59.5842 65.9391 59.6627 65.7331 59.6749C65.4232 59.6934 65.1177 59.6203 64.8129 59.5616C64.7752 59.5543 64.7374 59.5478 64.6994 59.5419C64.6195 59.5293 64.5399 59.5147 64.4607 59.4983C63.9772 59.3981 63.4944 59.2695 63.0009 59.2836C62.9191 59.2859 62.8374 59.2893 62.7558 59.2939C62.5656 59.3194 62.3769 59.3549 62.1904 59.4002L61.3924 59.5716C60.9921 59.6576 60.4739 59.8995 60.0701 59.9669C59.7818 60.022 59.5025 60.1144 59.2391 60.2415C59.0129 60.3507 58.8309 60.5412 58.7617 60.7827C58.7352 60.8752 58.7281 60.9724 58.7061 61.0661C58.6974 61.1035 58.6868 61.1427 58.6761 61.182C58.6275 61.3608 58.6062 61.5475 58.5476 61.7233C58.5465 61.7265 58.5455 61.7297 58.5444 61.7328C58.4103 62.1296 58.0815 62.4558 57.6671 62.5172C57.4952 62.5664 57.0502 62.6328 56.7948 62.6686C56.6697 62.6862 56.5435 62.6917 56.4173 62.6867L56.0994 62.6739C55.8546 62.6641 55.6217 62.5746 55.411 62.4496C55.1452 62.292 54.8172 62.2889 54.5412 62.4277C54.4961 62.4503 54.4514 62.4737 54.4071 62.4978C54.2228 62.598 54.0714 62.7474 53.9513 62.9194L53.6385 63.3673L53.2145 63.8278L53.0018 64.0943C52.9564 64.1511 52.9318 64.2216 52.9318 64.2942C52.9318 64.381 52.9687 64.4626 53.0233 64.53C53.0705 64.5881 53.1118 64.6508 53.1467 64.7172C53.1698 64.761 53.1899 64.8101 53.1756 64.8575C53.1698 64.8766 53.1607 64.8958 53.1495 64.9145C53.0599 65.0644 52.8826 65.1339 52.7101 65.161C52.6781 65.1661 52.646 65.1703 52.6137 65.1738C52.5077 65.1738 52.2603 65.1384 52.1543 65.1384C51.9388 65.1615 51.745 65.2702 51.5648 65.3906L51.4122 65.4926C51.3836 65.5128 51.354 65.5313 51.3234 65.548C51.1798 65.6262 51.0112 65.6328 50.8497 65.6587C50.7051 65.6819 50.5668 65.7338 50.4372 65.802C50.359 65.8432 50.2821 65.887 50.2068 65.9334C50.1858 65.9464 50.1659 65.9611 50.1472 65.9772L49.9523 66.1447C49.812 66.2651 49.5966 66.2265 49.507 66.0648C49.5049 66.0611 49.5031 66.0576 49.5012 66.0538C49.4784 66.0092 49.3194 65.7051 49.2212 65.7051C48.9968 65.7018 48.7725 65.7136 48.5498 65.7405C48.4493 65.7384 48.3488 65.7385 48.2484 65.7409C47.8843 65.7495 47.5199 65.7951 47.1556 65.7937C46.9117 65.7927 46.6463 65.8084 46.4648 65.9176C46.1114 66.1301 45.7227 66.3426 45.5813 66.4135C45.4617 66.4739 45.3383 66.5266 45.2122 66.5713C45.0146 66.6412 44.804 66.6614 44.5944 66.6614H42.3478C42.0693 66.6614 41.8429 66.4248 41.9218 66.1577C41.9342 66.1157 41.9542 66.0745 41.9542 66.0308C41.9542 65.9492 41.9227 65.8153 41.8854 65.6852C41.8151 65.4399 41.6595 65.2317 41.4846 65.0459C41.4109 64.9676 41.3487 64.8789 41.3024 64.7818C41.2643 64.7016 41.2299 64.6197 41.1994 64.5362C41.0555 64.1859 40.9529 63.657 40.6456 63.4358C40.6306 63.425 40.6149 63.414 40.5987 63.4027C40.4322 63.3088 40.2829 63.1888 40.1559 63.048C39.9874 62.8612 39.9647 62.5937 40.0314 62.3511L40.0954 62.1187C40.1641 61.8691 40.0685 61.6033 39.8565 61.4546L39.6295 61.2725C39.5458 61.2054 39.4522 61.1516 39.3521 61.113C39.1514 61.0356 38.9309 61.0192 38.7244 61.0791C38.6975 61.0869 38.6736 61.0942 38.655 61.1004C38.549 61.1358 38.4783 61.1712 38.3017 61.2421C38.125 61.3129 37.7362 61.2775 37.5242 61.3483C37.3122 61.4191 36.6408 61.3837 36.5347 61.4192C36.4287 61.4546 36.7821 61.4546 36.4287 61.4546C36.3388 61.4539 36.249 61.4497 36.1595 61.442C35.8944 61.4193 35.6538 61.2886 35.4579 61.1086C35.3751 61.0325 35.2838 60.9662 35.1858 60.911L34.9486 60.7773C34.8293 60.71 34.6979 60.6666 34.5619 60.6495C34.3289 60.6203 34.1121 60.5144 33.9324 60.3633C33.7079 60.1746 33.4337 59.9603 33.2978 59.8551C33.2411 59.8113 33.1811 59.7711 33.1106 59.7587C33.0354 59.7455 32.9119 59.7367 32.7182 59.7544C32.4972 59.7981 32.2711 59.81 32.0468 59.7898C31.8348 59.7544 31.6581 59.6127 31.4814 59.6127C31.3669 59.603 31.2543 59.5789 31.1461 59.541C31.0868 59.5203 31.0249 59.5064 30.962 59.5064C30.8212 59.5064 30.6873 59.5699 30.6033 59.6829C30.5754 59.7205 30.5482 59.7583 30.5272 59.7898C30.4956 59.8374 30.4355 59.9704 30.3789 60.1027C30.2903 60.3095 30.13 60.4834 29.9135 60.5445C29.852 60.5619 29.7882 60.5697 29.7243 60.5697C29.485 60.5698 29.2458 60.5577 29.0077 60.5336C28.725 60.5336 29.1137 60.7107 28.5129 60.4628L28.1595 60.3169C28.0016 60.2518 27.8775 60.1245 27.8163 59.965C27.7641 59.8289 27.7664 59.6797 27.7919 59.5361C27.7978 59.5028 27.8026 59.4693 27.8062 59.4356C27.8062 59.3959 27.821 59.3512 27.8359 59.2997C27.8968 59.0887 27.8003 58.8581 27.6177 58.7361C27.5258 58.6747 27.421 58.6353 27.3114 58.6209C27.2054 58.6209 27.0287 58.5147 26.852 58.5501C26.6754 58.5855 26.3926 58.6209 26.2866 58.6564C25.9555 58.7895 25.9261 59.1846 26.0639 59.5139C26.0682 59.5242 26.0718 59.5336 26.0746 59.5419C26.0938 59.5996 26.1234 59.6781 26.1464 59.7379C26.1689 59.7963 26.1933 59.8538 26.2187 59.911L26.4237 60.3735C26.4501 60.4329 26.4712 60.4945 26.487 60.5576C26.5407 60.7729 26.5296 60.9994 26.4551 61.2085L26.4527 61.2152C26.4129 61.3269 26.399 61.447 26.3599 61.559C26.3422 61.6097 26.3177 61.658 26.2866 61.7025C26.2563 61.761 26.2279 61.8203 26.2013 61.8805C26.0882 62.1366 25.8096 62.5349 25.8979 62.8006C25.9137 62.8481 26.0072 62.931 26.1058 63.0082C26.2204 63.0979 26.4848 63.1071 26.5693 63.2256C26.7036 63.3873 26.7893 63.5838 26.8167 63.7923C26.8483 63.9825 27.0212 64.3142 27.0069 64.5849C27.0036 64.6475 26.9812 64.7069 26.9557 64.7641C26.8781 64.9377 26.7924 65.1073 26.6987 65.2724C26.5563 65.5234 26.305 65.8899 26.1453 66.1301C26.122 66.1652 26.0871 66.2235 26.0508 66.2857C25.9483 66.4617 25.814 66.6256 25.623 66.6962C25.5485 66.7237 25.4722 66.7478 25.4041 66.7887C25.3606 66.8149 25.3188 66.8436 25.2789 66.8747C25.0758 67.0333 24.8758 67.2291 24.8024 67.4761C24.6908 67.7788 24.3085 68.1929 24.0643 68.4036C24.0393 68.4252 24.0143 68.4467 23.9896 68.4679C23.7543 68.7122 23.5304 68.9672 23.3186 69.2321C23.1992 69.3814 23.1129 69.5534 23.0272 69.7243C22.9105 69.9571 22.712 70.1392 22.473 70.2429C22.3461 70.298 22.2152 70.344 22.0814 70.3806C21.9514 70.434 21.823 70.4911 21.6963 70.5517C21.4554 70.6671 21.2136 70.7822 20.9584 70.8613C20.903 70.8784 20.8474 70.8951 20.7917 70.9113C20.4304 71.0163 20.0545 71.0699 19.6786 71.0858C19.6308 71.0878 19.5833 71.089 19.537 71.089C19.4861 71.089 19.4337 71.0755 19.3835 71.0538C19.0991 70.9305 19.2778 70.7352 19.5577 70.6018C19.5866 70.588 19.615 70.5733 19.643 70.5577C19.774 70.4702 19.8476 70.3188 19.8355 70.1618L19.8157 69.9037C19.7958 69.6447 19.6022 69.3617 19.7077 69.1243C19.725 69.0854 19.7498 69.0437 19.7844 68.9992C19.8372 68.9311 19.89 68.8647 19.9404 68.8023C20.1585 68.5322 20.2917 68.1922 20.5265 67.9366C20.6463 67.811 20.7209 67.649 20.7385 67.4761L20.8001 66.9412C20.8272 66.7057 20.7275 66.5026 20.4911 66.4843C20.2482 66.4321 20.0017 66.3984 19.7537 66.3835C19.6801 66.379 19.6063 66.3827 19.5331 66.3918C19.4184 66.4062 19.3024 66.4029 19.1868 66.4002C19.1032 66.3982 19.0194 66.4026 18.9362 66.4135C18.8603 66.4205 18.7845 66.4291 18.7089 66.4395C18.4118 66.48 18.1302 66.5904 17.8793 66.7544C17.8592 66.7676 17.8422 66.7787 17.8296 66.7871C17.8134 66.7978 17.7971 66.8084 17.78 66.8178C17.6025 66.9155 17.3878 66.8718 17.2062 66.782C17.1301 66.7443 17.0551 66.7046 16.9813 66.6629C16.749 66.5315 16.561 66.3369 16.4082 66.1181L16.2364 65.8721C16.1752 65.7844 16.1093 65.6956 16.0891 65.5906C16.0654 65.4682 16.0953 65.3155 16.3919 65.3155C16.6712 65.3155 16.8153 65.2478 16.8879 65.1888C16.9456 65.1419 16.9717 65.0686 16.9979 64.999C17.0586 64.838 17.1107 64.674 17.1539 64.5076C17.261 64.0952 17.1833 63.6344 16.8513 63.3673C16.6955 63.2112 15.8257 62.6146 15.6218 62.4755C15.5931 62.4559 15.5646 62.4367 15.5348 62.4186C15.3533 62.3086 15.1525 62.2339 14.943 62.1984C14.5788 62.1578 14.0685 62.2372 13.899 61.9123C13.8824 61.8806 13.8653 61.8462 13.8475 61.8088L13.8307 61.7735C13.6105 61.3098 13.2688 60.9143 12.8419 60.6291C12.7115 60.542 12.5742 60.4658 12.4312 60.4014L11.9392 60.1794L11.6918 60.0377L10.2566 59.4355C10.2005 59.412 10.1425 59.3934 10.0832 59.3799L9.7756 59.3098C9.54531 59.2573 9.36957 59.0709 9.33083 58.8379L9.31909 58.7673C9.29983 58.6514 9.21868 58.5544 9.17108 58.4471C9.146 58.3905 9.13782 58.3279 9.14753 58.2667C9.23382 57.7477 8.7549 57.4066 8.23128 57.3548C8.19514 57.3512 8.15894 57.3482 8.12268 57.3458C7.99542 57.3493 7.8688 57.3615 7.74372 57.3824C7.32902 57.4515 6.76526 57.3853 6.53249 57.7354C6.43805 57.8698 6.33774 57.9999 6.23187 58.1253C6.15144 58.2206 6.0576 58.3044 5.95021 58.3678C5.71601 58.506 5.48782 58.6604 5.31525 58.8706L5.16396 59.0549Z" fill="white" fill-opacity="0.5"/>
</svg>
