<svg width="191" height="191" viewBox="0 0 191 191" fill="none" xmlns="http://www.w3.org/2000/svg">
<g clip-path="url(#clip0)">
<path d="M189.935 97.1428C182.436 84.2628 172.983 74.1824 156.113 73.9734C158.967 68.3196 161.421 63.8294 163.53 59.1573C164.848 56.2577 165.921 51.9493 162.048 51.1676C154.777 49.6769 150.386 41.2144 141.724 43.4232C136.997 44.623 131.489 42.9415 130.117 38.833C126.135 26.8619 115.519 32.3521 108.747 31.0795C97.6031 28.9889 87.15 35.088 78.3149 42.6597C74.8154 45.6683 45.1833 45.6502 43.7199 42.1507C40.2749 33.97 35.2665 37.6331 30.7672 39.451C23.7773 42.2416 17.36 46.6318 10.2338 48.8315C-1.56456 52.4765 -1.73727 60.1117 2.58939 68.8741C6.36158 76.5185 11.2791 84.2356 22.0957 79.3272C27.0495 77.1002 31.867 77.4456 32.8123 82.8903C34.503 92.5435 39.8023 96.2884 48.9464 96.352C52.7004 96.3975 54.0729 98.8153 54.7365 102.378C55.4818 106.396 57.2816 106.778 62.1263 106.151C76.2334 104.26 81.7781 109.368 80.6601 123.575C80.151 130.102 81.9871 131.129 87.1409 131.729C97.8667 133.01 106.656 129.974 112.965 119.976C112.837 128.766 111.301 138.428 119.273 141.918C128.744 146.072 137.497 150.39 145.124 157.443C150.968 162.861 158.413 159.479 163.657 156.843C169.92 153.689 166.166 148.063 163.403 143.082C158.394 134.165 164.821 121.239 175.174 118.276C186.245 115.14 193.908 103.978 189.935 97.1428Z" fill="white" fill-opacity="0.5"/>
</g>
<defs>
<clipPath id="clip0">
<rect width="191" height="191" fill="white"/>
</clipPath>
</defs>
</svg>
