<svg width="187" height="189" viewBox="0 0 187 189" fill="none" xmlns="http://www.w3.org/2000/svg">
<g clip-path="url(#clip0)">
<path d="M31.7367 14.5727L27.8788 16.4212L27.7705 17.7108L19.9896 17.0445L20.6832 19.9677L23.8475 20.6985L24.3677 22.7189H19.3611V26.0504L22.2654 27.7914L21.3551 29.4679L22.8939 31.1659L19.8162 46.3405L15.5682 45.4377L13.7043 47.6946L9.15281 47.5871L5.59833 50.8326L4.90477 57.0228L1.04686 58.3125L2.36896 59.946L0.656738 61.3646L5.25155 68.7369L4.23289 71.0797L9.39122 73.444L16.8253 71.3592L16.9336 78.796H26.7952L28.269 76.4962L29.7428 77.3344L38.759 72.8207L40.753 72.7133L41.2081 75.8728L40.4062 76.7111L41.7066 78.4091L40.6446 80.1501L44.6109 84.4273L51.7632 86.3188L63.3803 91.3268L65.7644 104.159L74.2604 103.879L73.8053 108.371L77.208 109.962L78.01 112.928L76.4278 121.934L74.1521 122.6L76.4711 125.523L76.1894 131.885L82.388 132.724L86.1809 131.671L88.1749 140.891L91.8594 139.817L93.6583 141.493L91.7294 148.543H95.1972L96.736 152.24L95.6957 156.001L85.7908 161.74L77.9016 171.477L81.6945 170.746L85.5091 175.819L87.308 174.336L95.9341 179.516L98.9901 183.449L96.606 185.147L96.7793 188.07L101.092 185.77L103.758 179.688L111.301 174.185L114.942 166.705L119.298 163.782L120.664 157.979L120.035 151.058L127.404 143.535L135.228 139.989L139.26 135.819L150.942 136.335L152.654 132.896L156.339 131.262L156.837 125.867L162.689 119.634L162.971 113.723L165.506 110.177L166.2 100.892L165.463 89.1345L170.556 86.4907L175.216 76.7756L179.919 74.7337L179.811 72.8207L184.753 66.867L186.096 57.9901L182.65 50.3383L174.371 49.5L161.432 38.9681L153.673 39.8279L152.134 38.1943L144.028 36.2814L141.752 38.4738L137.504 31.7677L135.402 33.1218L124.11 27.8988L120.945 28.8446L121.336 26.6092L115.375 23.7291L113.511 24.6318L113.056 22.5039L114.422 17.7753L111.409 14.5727L110.347 15.6259L108.18 9.73666L106.598 3.54646L106.142 7.02845L102.176 10.8543L101.027 15.8624L96.0424 14.0569L91.4476 13.9924L85.379 13.3261L87.0262 16.8726L79.4838 15.5829L72.2881 19.4518L67.6933 17.7753L66.2629 11.0263L68.2568 6.01824L66.2195 3.86887L66.1111 0L62.9251 0.107469L62.2966 3.54646L52.2617 7.82371L51.4814 6.19019L43.3105 5.05102L46.6482 11.4776L51.0696 14.1214L51.3514 15.3035L40.2978 21.9881L39.6693 20.0107L33.6657 21.6012L33.1455 17.0445L31.7367 14.5727Z" fill="white" fill-opacity="0.3"/>
<path d="M158.247 60.4198L158.962 59.0227L156.708 54.8959L157.423 50.3178L154.692 47.8245L155.212 39.6569L153.673 39.8288L152.135 38.1953L150.943 41.9352H149.62L147.15 45.5892L148.19 50.1673L146.239 52.7681L147.67 57.6471H143.053L135.359 61.6665L132.693 67.9211L133.452 70.7153V74.5842V74.6057L134.991 74.6917L136.291 78.3026L140.539 76.4756L141.558 76.8195L143.985 72.9507L142.685 71.79L144.787 70.4144L150.032 71.1237L154.952 67.1044L158.485 64.2027L157.51 61.8169L158.247 60.4198Z" fill="white" fill-opacity="0.3"/>
<path d="M177.085 59.2344L172.75 57.9448C172.75 57.9448 174.289 54.9142 174.354 54.6992C174.419 54.4843 171.775 54.8927 171.775 54.8927L168.827 57.042L167.57 55.2796L167.744 61.2118L166.465 62.3295L170.344 63.0388L173.899 60.2876L175.329 61.4698L173.899 64.178L174.354 66.3273L177.757 63.7481L182.612 61.2763L185.516 61.8137L186.188 57.9663L185.668 56.8271L178.169 55.9459L177.085 59.2344Z" fill="white" fill-opacity="0.3"/>
<path d="M182.652 50.3177L174.373 49.4795L167.611 55.2183L168.868 56.9808L171.816 54.8314C171.816 54.8314 174.46 54.4231 174.395 54.638C174.33 54.8529 172.791 57.8835 172.791 57.8835L177.126 59.1732L178.144 55.8846L185.643 56.7659L182.652 50.3177Z" fill="white" fill-opacity="0.3"/>
<path d="M174.374 49.4997L161.435 38.9678L155.215 39.6556L154.695 47.8232L157.426 50.3165L156.71 54.8946L158.965 59.0214L158.249 60.4185L163.148 60.9129L165.315 63.2987L166.507 62.267L167.786 61.1708L167.612 55.217L174.374 49.4997Z" fill="white" fill-opacity="0.3"/>
<path d="M131.783 31.4444L124.132 27.8765L120.946 28.8437L121.358 26.5868L115.398 23.7282L113.534 24.6309L113.079 22.4815H112.342L111.128 24.8673L107.747 26.2429L105.71 31.6809H103.369L96.8667 18.7846L91.1882 17.624C91.1882 17.624 91.0798 15.4746 90.9931 13.9055L85.3796 13.2822L87.0268 16.8287L79.4844 15.5176L72.2671 19.4079L71.5952 24.1795V27.2317L76.7319 33.1209L84.1009 35.9796L73.3074 57.9677L75.128 60.6974L81.7602 70.5415L112.103 73.0133L116.438 63.6205L117.608 59.1498L122.138 53.6689L120.708 50.2084L125.736 47.2208L131.783 31.4444Z" fill="white" fill-opacity="0.3"/>
<path d="M67.6949 17.7753L66.2644 11.0263L68.2584 6.01824L66.2211 3.86887L66.1127 0L62.9267 0.107469L62.2981 3.54646L52.2632 7.82371L51.483 6.19019L43.312 5.05102L46.6498 11.4776L51.0712 14.1214L51.3529 15.3035L54.0188 16.0343L54.8857 29.9837L59.4589 33.7022L60.0657 27.9418L64.4222 29.3174L66.2211 24.4384L71.5961 24.2234L72.2897 19.4518L67.6949 17.7753Z" fill="white" fill-opacity="0.3"/>
<path d="M96.8889 18.8294L103.391 31.7256H105.732L107.769 26.2877L111.15 24.9121L112.364 22.5263H113.101L114.445 17.7977L111.432 14.5522L110.348 15.6268L108.181 9.71607L106.577 3.52588L106.122 7.02936L102.156 10.8552L101.029 15.8418L96.0436 14.0578H91.4488H90.9937C90.9937 15.6268 91.1887 17.7762 91.1887 17.7762L96.8889 18.8294Z" fill="white" fill-opacity="0.3"/>
<path d="M120.682 50.1654L126.078 52.1643L125.341 60.1814L127.877 64.7166L130.023 63.556L130.283 65.4259L127.552 69.4023L131.107 74.4748L133.447 74.6037V74.5822V70.7134L132.689 67.9192L135.355 61.6645L143.049 57.6452H147.665L146.235 52.7661L148.185 50.1654L147.145 45.5872L149.616 41.9333H150.938L152.13 38.1934L144.024 36.2804L141.748 38.4728L137.5 31.7667L135.398 33.1208L131.779 31.4443L125.71 47.3282L120.682 50.1654Z" fill="white" fill-opacity="0.3"/>
<path d="M158.399 108.91L161.455 101.494L154.844 101.537L152.482 98.7433L139.933 94.0361L133.105 98.4853L128.077 97.2172V102.612L125.151 108.91L126.495 112.005L123.981 114.778L121.402 113.703L111.518 115.788L110.348 119.506L109.676 121.656L108.788 122.343L113.664 121.226L117.262 121.699L117.11 123.526L126.018 121.699L127.882 128.297H130.96L129.356 133.026L131.35 136.594L138.285 133.176L146.695 131.758L150.336 130.232L150.748 126.814L152.135 125.589L152.59 123.053L154.129 123.633L156.643 119.442L155.668 113.746L160.328 112.435L158.399 108.91Z" fill="white" fill-opacity="0.3"/>
<path d="M182.648 61.1278L177.793 63.6211L174.39 66.1788L173.935 64.1154L175.366 61.4072L173.935 60.2466L170.359 62.9763L166.501 62.267L165.309 63.2987L163.142 60.9129L158.244 60.4185L157.507 61.8156L158.482 64.2014L154.949 67.1031L157.485 71.1654L163.402 66.7807L169.297 70.4991L171.595 68.3282L174.629 70.4991L177.577 70.3916L180.698 68.0703L183.688 68.1348L184.75 66.8666L185.531 61.6867L182.648 61.1278Z" fill="white" fill-opacity="0.3"/>
<path d="M133.448 74.6039L131.107 74.4749L127.553 69.4024L130.283 65.4261L130.023 63.5561L127.878 64.7168L125.342 60.1816L126.079 52.1644L120.682 50.1655L122.113 53.626L117.561 59.1714L116.369 63.6421L112.164 73.0348L110.019 77.785L109.563 87.2422L112.88 85.4797L112.424 87.4571L116.737 89.2411L117.496 87.4571L121.809 89.6925L130.977 87.6721L130.023 79.311L133.448 74.6039Z" fill="white" fill-opacity="0.3"/>
<path d="M131.041 88.3831L130.976 87.6738L121.808 89.6942L117.495 87.4589L116.736 89.2429L112.423 87.4589L112.878 85.4814L109.562 87.2439L109.042 98.0768L101.088 103.88L98.2271 108.415L100.004 115.788L110.343 119.506L111.513 115.788L121.396 113.703L123.975 114.777L126.49 112.005L125.146 108.91L128.072 102.612V97.217L133.1 98.4852L131.041 88.3831Z" fill="white" fill-opacity="0.3"/>
<path d="M155.67 113.745L156.646 119.441L154.132 123.632L152.593 123.052L152.138 125.588L153.416 127.738L156.646 127.953L156.841 125.868L162.693 119.634L162.974 113.724L160.33 112.434L155.67 113.745Z" fill="white" fill-opacity="0.3"/>
<path d="M153.415 127.738L152.136 125.588L150.749 126.814L150.337 130.231L146.696 131.757L138.287 133.176L139.262 135.819L150.944 136.335L152.656 132.896L156.341 131.263L156.644 127.953L153.415 127.738Z" fill="white" fill-opacity="0.3"/>
<path d="M131.35 136.591L129.356 133.023L130.959 128.295H127.882L126.018 121.696L117.11 123.523L117.262 121.696L113.664 121.223L108.787 122.341L106.533 123.931L102.935 131.863L99.8578 133.174L99.0342 134.291H107.617L110.174 135.882H115.094L116.937 144.114L120.903 144.716L120.838 146.156L123.85 147.166L127.405 143.534L135.229 139.987L139.26 135.817L138.285 133.174L131.35 136.591Z" fill="white" fill-opacity="0.3"/>
<path d="M120.902 144.717L116.935 144.115L115.093 135.883H110.173L107.616 134.292H99.033L93.658 141.493L91.729 148.543H95.1968L96.7356 152.24L107.919 154.088L106.836 153.013L110.737 150.821L115.765 152.304L116.892 150.821L120.035 151.058L123.849 147.167L120.837 146.157L120.902 144.717Z" fill="white" fill-opacity="0.3"/>
<path d="M180.701 68.0693L177.58 70.3907L174.632 70.4981L171.598 68.3273L169.3 70.4981L177.883 75.6136L179.92 74.7324L179.812 72.8195L183.692 68.1338L180.701 68.0693Z" fill="white" fill-opacity="0.3"/>
<path d="M172.917 81.5464L170.555 80.9231L169.298 77.2907L171.226 76.4954L169.298 70.4987L163.402 66.7803L157.485 71.165L154.95 67.1027L150.03 71.122L144.785 70.4127L142.682 71.7883L143.983 72.949L141.555 76.8178L140.537 76.4739L136.289 78.3009L134.988 74.69L133.449 74.604L130.025 79.3111L130.979 87.6722L131.044 88.3814L133.103 98.4835L139.93 94.0343L152.479 98.7414L154.841 101.536L161.452 101.493L158.396 108.908L160.325 112.433L162.969 113.723L165.505 110.176L166.198 100.891L165.461 89.1337L170.555 86.49L172.917 81.5464Z" fill="white" fill-opacity="0.3"/>
<path d="M171.229 76.4982L169.3 77.2935L170.557 80.9259L172.92 81.5492L175.217 76.7776L177.883 75.617L169.3 70.5015L171.229 76.4982Z" fill="white" fill-opacity="0.3"/>
<path d="M100.012 115.785L96.5875 109.38L90.4322 110.691L85.4039 108.198L80.484 111.056L77.6014 111.4L78.0132 112.926L76.431 121.932L74.1553 122.599L76.4744 125.522L76.1926 131.884L82.3913 132.722L86.1841 131.669L88.1781 140.89L91.8626 139.815L93.6616 141.492L99.0366 134.291L99.8602 133.173L102.938 131.862L106.536 123.931L108.79 122.341L109.678 121.653L110.35 119.503L100.012 115.785Z" fill="white" fill-opacity="0.3"/>
<path d="M66.1717 82.8793L66.4751 78.2581L59.6046 78.7095L58.7376 67.0599L56.9821 68.371L52.9725 64.0078L49.4396 64.1583L47.0339 68.371H43.5011V70.4129L40.7702 70.155L39.8599 71.1222L36.1537 70.4559L34.3765 72.6268L36.7389 73.8519L38.7545 72.8202L40.7485 72.7128L41.2037 75.8723L40.4017 76.7106L41.7022 78.4086L40.6402 80.1496L44.6064 84.4268L51.7587 86.3183L63.3758 91.3263L68.6858 84.9642L66.1717 82.8793Z" fill="white" fill-opacity="0.3"/>
<path d="M34.3809 72.6281L19.9029 65.1697L2.36896 59.9468L0.656738 61.3654L5.25155 68.7377L4.23289 71.0805L9.39122 73.4448L16.8253 71.3599L16.9336 78.7968H26.7952L28.269 76.4969L29.7428 77.3352L36.7434 73.8532L34.3809 72.6281Z" fill="white" fill-opacity="0.3"/>
<path d="M81.7596 70.5643L75.1275 60.7202C74.7373 63.278 74.0655 67.5982 74.0655 67.5982L58.7422 67.0394L59.6091 78.689L66.4797 78.2376L66.1762 82.8588L68.6904 85.0081L63.3803 91.4563L65.7644 104.353L74.2822 104.052L73.827 108.565L77.2298 110.134L77.6199 111.596L80.4808 111.23L85.4008 108.393L90.429 110.887L96.5844 109.554L100.03 116.002L98.2316 108.608L101.114 104.095L109.047 98.2913L109.567 87.5444L110.022 78.1086L112.189 73.3585L81.7596 70.5643Z" fill="white" fill-opacity="0.3"/>
<path d="M115.766 152.307L110.737 150.824L106.836 153.016L107.92 154.091L96.7361 152.242L95.6958 156.004L103.975 156.778L110.217 162.172L114.899 162.839L113.62 166.256L114.942 166.708L119.298 163.784L120.664 157.981L120.035 151.06L116.893 150.824L115.766 152.307Z" fill="white" fill-opacity="0.3"/>
<path d="M114.898 162.837L110.216 162.171L103.974 156.776L95.6949 156.002L85.7901 161.741L77.9009 171.478L81.6938 170.747L85.5083 175.82L87.3072 174.337L95.9333 179.517L98.9893 183.45L96.6052 185.148L96.7786 188.071L101.092 185.771L103.758 179.688L111.3 174.186L114.941 166.706L113.619 166.255L114.898 162.837Z" fill="white" fill-opacity="0.3"/>
<path d="M34.469 72.6263L36.2462 70.4769L39.9307 71.1432L40.8627 70.176L43.5719 70.4339V68.392H47.0397L49.4671 64.0933L52.9999 63.9213L56.9879 68.2201L58.7434 66.8874L74.0667 67.4463C74.0667 67.4463 74.7386 63.1475 75.1287 60.5683L73.3081 57.9676L84.1449 36.001L76.7759 33.1423L71.6393 27.253V24.2224L66.2425 24.4159L64.4653 29.3164L60.1305 27.9408L59.5237 33.6797L54.8855 30.0257L53.9752 16.0333L51.331 15.281L40.2558 21.9871L39.649 20.0096L33.6237 21.5787L33.1685 17.1295L31.7381 14.6577L27.9669 16.4202L27.8585 17.7098L20.0126 17.1295L20.6845 20.0526L23.8705 20.7834L24.369 22.9328H19.2974V26.2428L22.18 27.9838L21.2697 29.6818L22.8085 31.3583L19.7526 46.5544L15.4178 45.6517L13.5322 47.801L9.00243 47.6936L5.42628 50.9606L4.75439 57.1508L0.896484 58.4404L2.1969 60.0739L19.7309 65.2969L34.469 72.6263Z" fill="white" fill-opacity="0.3"/>
</g>
<defs>
<clipPath id="clip0">
<rect x="0.656738" width="185.44" height="188.07" rx="5" fill="white"/>
</clipPath>
</defs>
</svg>
