<svg width="230" height="113" viewBox="0 0 230 113" fill="none" xmlns="http://www.w3.org/2000/svg">
<path fill-rule="evenodd" clip-rule="evenodd" d="M172.983 112.14C169.856 112.163 166.833 111.021 164.505 108.936C157.146 102.636 143.478 93.3287 132.644 88.4893C130.456 87.5063 128.471 87.0282 126.572 87.0282C124.489 87.0282 122.853 87.5934 121.269 88.1396C119.924 88.6026 118.654 89.0416 117.295 89.0416C115.751 89.0416 114.349 88.4826 112.882 87.2828C112.293 86.7978 111.721 86.3207 111.16 85.8523C106.43 81.9044 102.694 78.7858 97.7287 78.7858C97.3942 78.7858 97.0531 78.8 96.7052 78.8284C94.3951 79.0082 94.3777 79.2636 94.2109 81.7025C94.0135 84.5971 93.6816 89.4418 88.6913 97.3762C87.416 99.3722 85.559 100.34 83.0134 100.34C81.6285 100.294 80.2505 100.123 78.8963 99.8292C77.6979 99.5674 76.4788 99.4115 75.253 99.3634C74.9819 99.3625 74.7109 99.3779 74.4416 99.4095C74.2067 99.4395 73.9701 99.4547 73.7333 99.455C71.9184 99.455 70.584 98.5451 69.1709 97.5822C67.1245 96.1875 64.8056 94.6058 59.9848 94.6058V94.6058C59.4634 94.6093 59.018 94.2305 58.9377 93.7154L58.8153 92.9291C58.0504 87.9274 57.9121 87.0264 51.6895 84.1583C48.2259 82.569 45.6504 79.8762 42.9235 77.0256C39.8119 73.7718 36.5952 70.4081 31.5323 67.889C21.4729 62.8477 20.3052 61.5977 15.9122 51.1711C12.8807 44.0103 9.3585 40.3763 5.95151 36.862C4.52513 35.3902 3.1775 33.9998 1.89188 32.3853C0.981881 31.2487 0.718924 30.235 1.11468 29.3758C2.00465 27.441 5.79773 27.3092 11.0483 27.127C14.5314 27.0058 18.4789 26.8686 21.3801 26.0985C25.9714 24.8809 28.6622 24.0051 32.3854 22.7933C35.2204 21.8703 38.748 20.7224 44.1914 19.0764C52.7968 16.4517 54.705 14.1819 57.594 10.746C59.0519 8.95461 60.6308 7.26508 62.3198 5.6892C66.2927 2.0438 68.4666 0.14209 70.6394 0.14209C72.5111 0.14209 74.0063 1.55428 76.1102 4.16183C80.2405 9.34748 85.0466 12.5662 88.6579 12.5662C88.7405 12.5662 88.8231 12.5644 88.905 12.5612C88.9647 12.5588 89.0195 12.528 89.0536 12.4789V12.4789C91.8878 8.34692 92.7435 7.10039 94.0747 7.10039C94.9542 7.10039 95.5944 7.73182 96.48 8.60602C99.2956 11.3833 105.889 17.889 131.988 18.7516C141.494 19.0595 147.08 27.337 150.08 31.7841V31.7841C150.517 32.4299 151.499 32.2278 151.754 31.4913C152.707 28.7408 154.328 27.3492 156.591 27.3492C157.503 27.3838 158.405 27.5523 159.269 27.8492V27.8492C159.299 27.8578 159.326 27.8286 159.313 27.7996C159.107 27.3198 158.746 26.5751 158.122 25.4172C156.736 22.851 156.41 21.5773 156.922 20.7197C157.072 20.4824 157.283 20.29 157.533 20.1632C157.784 20.0363 158.064 19.9797 158.344 19.9993C159.364 19.9993 160.82 20.6178 162.835 21.4743C165.742 22.7104 169.361 24.2483 172.601 24.2483C173.116 24.2507 173.631 24.2063 174.139 24.1157C175.981 23.8301 177.724 23.0921 179.211 21.968C179.733 21.5913 180.111 21.3191 180.603 21.3191C181.736 21.3191 181.933 22.263 182.515 25.0664C182.768 26.2835 183.115 27.9496 183.639 30.165C185.007 36.0123 189.412 37.3608 196.71 39.5939C204.731 42.0495 215.717 45.4114 229.154 56.6292V56.6292C229.59 56.993 229.58 57.6658 229.134 58.0164V58.0164C217.075 67.5052 217.06 72.5053 217.048 76.9174C217.034 81.8023 217.021 86.0209 202.382 93.3395C187.49 100.758 183.903 110.647 183.869 110.745V110.745C183.665 111.331 182.942 111.537 182.46 111.148V111.148C182.155 110.932 181.782 110.835 181.41 110.874C180.417 110.939 179.434 111.102 178.473 111.361C176.679 111.828 174.838 112.089 172.985 112.14C172.984 112.14 172.984 112.14 172.983 112.14V112.14Z" fill="white" fill-opacity="0.5"/>
</svg>
