<svg width="169" height="151" viewBox="0 0 169 151" fill="none" xmlns="http://www.w3.org/2000/svg">
<path fill-rule="evenodd" clip-rule="evenodd" d="M167.677 125.828C167.677 125.828 167.677 125.828 167.677 125.828C165.118 126.853 164.612 126.774 162.265 127.362C159.545 128.043 160.912 130.087 159.333 130.541C157.755 130.995 158.205 132.13 155.937 135.094C153.948 137.698 145.424 138.204 144.395 135.094C143.944 133.719 140.998 132.357 138.292 132.13C135.572 131.916 137.588 129.405 134.657 129.632C131.711 129.859 131.035 131.676 127.652 132.811C124.256 133.96 124.016 133.279 122.212 132.811C120.408 132.357 117.914 136.457 113.841 139.408C109.768 142.373 112.01 142.146 109.754 144.203C107.767 145.992 106.267 146.294 104.132 147.904C103.978 148.019 103.814 148.148 103.638 148.29C101.369 150.106 98.6767 147.811 96.3942 149.879C94.1254 151.925 90.2781 145.793 87.5721 149.198C84.8523 152.617 82.809 150.56 83.2601 148.063C82.9288 149.906 74.4893 143.309 74.2118 145.111C73.7608 148.063 72.6195 149.879 69.6879 147.609C66.7425 145.324 65.8268 147.382 61.993 144.417C58.1321 141.465 56.5533 140.76 53.6081 141.238C47.9562 142.146 50.2118 137.819 45.9132 137.819C41.6146 137.819 45.6877 134.187 41.6148 134.187C41.3912 134.187 41.2046 134.244 41.0392 134.315C39.7394 134.875 40.4906 132.818 41.5811 131.915C42.3136 131.309 42.8783 130.523 43.2205 129.633C44.3482 126.895 45.9268 117.346 47.7444 114.381C49.5486 111.429 49.7879 105.059 50.6898 99.8231C51.0833 97.5391 52.8905 96.5003 52.0579 94.3373C51.7912 93.6445 51.8568 92.775 52.5075 91.4092C54.4177 87.3609 55.214 89.1252 52.945 86.8522C50.6898 84.5711 55.7574 80.0412 53.1842 81.8438C50.2252 83.887 51.3665 81.3897 47.5189 78.8923C43.5248 76.2884 41.4028 77.0625 40.0498 75.2457C37.1153 71.3209 35.9769 70.4647 37.5555 68.8756C39.134 67.2864 35.9769 66.1371 37.3299 65.9241C38.6966 65.697 40.0497 64.3213 37.1044 64.3213C34.159 64.3213 32.5806 62.5051 34.3845 61.5967C36.2022 60.6887 31.9038 58.6318 30.5372 58.8724C29.1841 59.0859 29.4747 55.7598 27.1409 56.1343C22.8425 56.8155 23.9809 61.3698 21.261 55.9071C20.3997 54.1704 16.8567 54.745 15.1476 52.7153C12.6532 49.7638 10.8465 53.8643 7.46354 52.4881C4.05373 51.1262 6.32252 49.0829 4.05373 48.3881C1.78782 47.707 4.74389 45.8907 6.99912 46.1178C9.25701 46.3448 3.82823 44.5282 5.87161 44.3016C7.90379 44.0745 2.4753 42.7122 1.5621 42.9392C0.657279 43.1663 0.206204 41.1092 1.5621 39.5202C2.92601 37.931 4.50747 39.0661 7.46354 38.8388C10.3954 38.612 13.3408 38.8388 13.7919 37.2498C14.2429 35.6609 15.5989 35.4196 18.093 35.1929C20.5846 34.9795 21.7148 33.8306 22.8425 35.8878C23.9809 37.9309 23.3044 39.9741 24.8857 38.8388C26.4643 37.7039 29.4097 36.7956 29.6352 38.1578C29.8607 39.52 33.4826 37.0228 34.1592 38.3849C34.8358 39.747 37.7812 39.9743 40.5008 39.7472C43.2204 39.5201 39.3735 38.612 40.7264 36.1146C42.0797 33.6036 41.1775 33.3767 41.6288 31.3334C42.08 29.2902 41.6287 27.9661 40.7264 25.6819C39.8244 23.4116 40.327 21.6611 39.4113 20.5262C38.5093 19.38 40.5006 19.38 42.3188 19.8341C44.1228 20.2991 46.5357 18.6961 46.5357 21.2071C46.5357 23.7072 49.1114 24.32 48.8724 25.909C48.6468 27.4984 50.69 30.6522 51.8179 29.2898C52.959 27.9139 53.3963 27.2329 55.4395 27.9139C57.4828 28.5949 59.5124 24.7354 62.6834 24.9624C65.8543 25.1894 67.672 25.4165 65.1777 24.0517C62.6834 22.6785 64.5011 22.4624 65.6288 20.8595C66.7563 19.2704 67.884 20.0333 70.1528 18.6712C72.4216 17.3092 72.8726 17.3091 76.4944 16.8414C80.1164 16.3873 85.0913 16.5455 85.0913 12.4319C85.0913 8.34559 86.6701 10.3888 86.458 8.57241C86.2189 6.74257 87.9034 5.76848 88.2621 4.69931C88.6208 3.64628 87.3464 1.13543 90.982 0.908195C92.9371 0.785336 93.7671 0.530465 94.6868 0.321911C96.6503 -0.123361 98.3162 1.60136 100.17 2.3862C101.566 2.97713 103.1 2.73659 104.103 4.032C105.682 6.07516 107.711 4.69926 109.078 6.52915C110.431 8.34539 110.882 7.8915 113.602 8.57231C116.322 9.26714 116.547 11.3104 116.083 13.3537C115.645 15.3968 116.773 16.5454 119.028 16.0781C121.297 15.624 121.522 14.716 121.973 12.6727C122.424 10.6156 124.467 10.1617 123.791 13.3537C123.101 16.5454 121.748 19.0432 125.37 19.9512C128.992 20.8593 127.864 24.0516 130.358 24.7353C132.839 25.4164 131.154 22.1969 132.613 21.7813C135.784 20.8594 133.516 23.3705 137.363 23.3705C139.909 23.3705 141.941 23.1981 143.944 23.7861C145.092 24.1164 146.165 24.6703 147.101 25.4164C150.272 27.9138 150.497 30.4248 154.57 30.4248C158.643 30.4248 159.545 31.7869 162.942 32.014C166.338 32.2411 169.283 34.5113 166.803 36.7953C164.308 39.0657 162.716 44.3011 162.716 47.4931C162.716 50.6716 161.137 52.7149 162.04 55.453C162.233 56.0056 162.314 56.5915 162.279 57.1762C162.118 58.4181 160.858 58.4042 159.333 57.7233C157.29 56.8151 151.85 60.6882 154.796 60.9152C157.742 61.1423 155.472 62.4908 153.217 64.0938C150.948 65.6966 147.101 66.8182 146.424 69.556C145.748 72.2937 143.253 77.5297 143.479 81.8433C143.705 86.1706 146.65 81.6162 147.327 80.2541C148.003 78.8921 153.217 77.289 153.894 79.3459C154.57 81.3891 155.698 80.9349 156.374 83.6598C156.928 85.895 157.677 88.9818 158.438 91.1555C158.773 92.1127 159.333 92.5192 159.333 93.9063C159.333 96.4169 163.406 94.3604 161.589 96.8576C159.771 99.3686 157.966 99.5956 157.064 101.412C156.149 103.242 162.04 103.923 161.137 106.874C160.222 109.84 158.869 109.158 160.222 113.699C161.588 118.253 160.01 119.615 163.406 119.842C166.803 120.069 169.919 119.936 168.381 123.035C167.469 124.844 167.676 125.821 167.677 125.827C167.678 125.828 167.677 125.828 167.677 125.828Z" fill="white" fill-opacity="0.5"/>
</svg>
