<svg width="238" height="238" viewBox="0 0 238 238" fill="none" xmlns="http://www.w3.org/2000/svg">
<path d="M24.1641 43.465C22.1672 42.9784 21.9341 46.0904 21.6604 48.2089C20.5656 56.7339 13.48 61.3867 9.25303 67.8843C5.85723 73.0743 -5.01947 80.3727 2.72498 85.8364C12.7401 92.9321 9.14153 106.627 20.9508 113.124C26.2422 116.034 31.7667 120.322 38.3961 121.71C28.6648 128.654 20.6974 134.706 35.1321 144.001C39.5922 146.9 39.1563 150.539 38.1123 155.8C37.1087 160.777 40.018 171.238 47.4989 165.987C54.9595 160.747 54.3209 166.707 56.5814 169.039C58.6087 171.096 56.9666 175.242 60.6158 176.844C62.6228 173.864 64.6198 170.914 66.5863 167.995C71.0059 169.931 71.6648 176.124 77.5036 176.601C79.5613 166.352 74.2801 157.848 71.4012 148.867C71.3506 148.806 71.31 148.755 71.2593 148.704C71.4012 148.471 71.5634 148.258 71.7256 148.056C71.8574 147.883 71.9892 147.762 72.1412 147.63C72.2426 147.528 72.3642 147.417 72.4656 147.326C72.6481 147.194 72.8508 147.174 73.0434 147.123C73.1346 147.123 73.2259 147.062 73.3171 147.062C73.6212 147.123 73.9456 147.265 74.2902 147.66C78.1827 151.826 82.7949 152.323 85.9576 148.137C89.8602 142.967 82.6125 143.687 81.173 141.223C79.9566 139.166 79.7944 136.479 79.1761 134.037C83.0179 133.57 86.3529 129.931 90.7725 132.769C94.5332 135.212 96.5707 140.098 101.913 140.565C102.491 135.435 101.538 129.465 103.93 125.512C109.9 115.588 108.025 110.479 96.7126 108.35C91.3807 107.357 85.6129 104.306 84.8628 99.4906C83.1396 88.026 74.3916 81.4574 68.5326 73.0135C63.9406 66.3942 64.5488 61.3563 67.9953 56.0852C69.2421 56.3183 70.3572 56.7542 71.3708 57.2813C71.8067 57.5449 72.1818 57.8794 72.5974 58.1429C73.1346 58.4977 73.7124 58.8322 74.199 59.258C74.2497 59.2985 74.3003 59.3897 74.3713 59.4404C79.4701 63.9209 82.5314 70.9557 90.5901 70.3881C90.6306 70.4286 90.6914 70.4996 90.732 70.5503C90.7522 70.6516 90.7624 70.8037 90.7826 70.905C90.4887 71.3409 90.1947 71.7971 89.9109 72.2228C90.2859 72.4357 90.661 72.608 91.0259 72.8108C90.9448 72.2026 90.8536 71.5741 90.7826 70.9355C90.9144 70.753 91.0259 70.5705 91.1678 70.3678H91.1982C90.9651 70.3881 90.7928 70.3171 90.5698 70.3475C90.2049 69.8407 89.7892 69.3237 89.4142 68.827C89.3534 68.7662 89.323 68.6952 89.2621 68.6344C88.8364 68.0364 88.4512 67.4788 88.2079 66.8098C87.1942 64.1439 89.5561 64.5392 90.7725 64.671C94.7461 65.0764 94.5535 72.7905 100.352 70.2766C93.7527 53.6929 98.1824 44.0123 114.198 43.2217C125.633 42.6642 137.837 39.7955 148.623 46.1005C155.12 49.8815 159.388 46.4046 161.081 41.9242C163.017 36.7849 164.335 32.2132 168.47 27.824C172.677 23.3334 167.376 19.6031 163.27 17.3832C160.736 15.9843 155.992 14.0077 155.739 18.3056C154.624 35.9435 138.557 31.7368 133.195 29.1114C114.411 19.8363 96.6721 25.8676 78.2537 27.1854C70.5295 27.7429 66.6978 35.6597 58.6797 34.0581C45.877 31.5847 37.5649 46.7594 24.1641 43.465Z" fill="white" fill-opacity="0.5"/>
<path d="M145.572 211.226C130.093 205.762 112.476 208.124 96.5711 202.073C92.1718 200.4 89.5667 203.613 88.4009 207.019C87.3264 210.182 88.9382 213.537 92.5367 213.973C113.297 216.406 133.236 226.208 154.938 220.613C159.125 219.518 161.436 218.038 161.324 212.453C156.205 209.675 151.624 213.365 145.572 211.226Z" fill="white" fill-opacity="0.5"/>
<path d="M167.883 97.1309C166.393 92.9748 164.487 87.7747 158.395 89.0722C154.725 89.8527 148.278 90.2379 149.718 95.3164C151.076 100.101 157.543 101.196 161.801 102.209C166.109 102.301 169.434 101.388 167.883 97.1309Z" fill="white" fill-opacity="0.5"/>
<path d="M222.862 188.766C222.649 191.047 223.987 193.479 226.106 192.77C232.654 190.54 236.982 185.998 237.996 176.571C229.552 178.457 223.622 180.494 222.862 188.766Z" fill="white" fill-opacity="0.5"/>
</svg>
