<svg width="59" height="153" viewBox="0 0 59 153" fill="none" xmlns="http://www.w3.org/2000/svg">
<path d="M34.8152 35.3033C43.3521 40.4917 45.1285 34.5913 50.6975 29.2197C57.4085 22.7202 59.0229 16.8692 58.8819 9.09369C58.8255 5.79457 57.6835 2.49546 57.19 -2.47062e-05C48.1668 -0.0211729 46.2564 11.6526 37.917 11.279C31.072 10.9618 29.5071 14.4724 27.787 19.5197C20.2089 41.6971 14.7174 64.7557 1.10505 84.4587C-0.0651507 86.1506 -0.128596 87.7578 0.512899 89.5272C8.09804 110.577 15.6973 131.619 23.2895 152.655C24.2059 152.774 25.1223 152.894 26.0458 153C29.7608 126.607 39.8274 101.765 44.064 74.5332C36.352 76.1898 28.7739 82.9713 24.7628 77.9169C21.0125 73.1727 28.6964 68.5553 33.2785 65.1645C33.6168 64.9178 33.4547 63.9944 33.5252 63.4022C24.9672 58.9893 23.4587 42.684 31.0509 36.7555C32.0801 35.9307 34.0892 34.8663 34.8152 35.3033Z" fill="white" fill-opacity="0.5"/>
</svg>
