<svg width="166" height="178" viewBox="0 0 166 178" fill="none" xmlns="http://www.w3.org/2000/svg">
<path fill-rule="evenodd" clip-rule="evenodd" d="M33.4125 100.415C34.7702 100.133 36.0912 98.8813 36.9632 101.072C37.8351 103.262 38.1188 104.951 39.2089 105.827C40.2989 106.703 39.4506 110.596 40.5799 112.192C43.2088 115.929 38.8857 116.161 39.9784 117.913C40.5078 118.81 40.7827 119.835 40.7735 120.877C40.7642 121.92 40.4711 122.94 39.9258 123.827C38.9907 125.516 40.7978 126.612 39.6946 128.44C38.3867 130.63 40.669 135.243 38.9255 135.9C37.182 136.557 35.3218 132.602 34.232 133.259C33.1289 133.916 36.194 139.637 33.5779 138.761C30.8464 137.848 28.7559 140.283 29.6283 138.98C30.4869 137.679 25.3444 136.314 25.7044 133.71C26.5763 127.345 24.8455 123.028 26.3582 122.732C29.6411 122.075 24.6013 120.528 26.3453 118.338C28.102 116.148 27.2301 111.535 25.6911 111.097C24.1655 110.646 22.6393 108.688 23.0753 107.36C23.5112 106.046 23.4851 105.157 23.9472 103.624C24.357 102.257 25.5756 105.658 29.6283 103.856C31.6031 102.979 30.3578 101.071 33.4125 100.415ZM129.63 151.494C130.066 149.081 127.655 152.37 126.129 151.494C124.59 150.618 123.949 154.779 120.884 152.589C117.819 150.398 115.626 155.874 113.215 154.56C110.817 153.246 108.406 157.202 106.008 155.655C103.597 154.122 103.379 155.874 100.968 153.966C98.5705 152.059 95.7889 155.964 92.2223 153.465C90.0294 151.931 88.7215 154.122 86.0924 157.202C83.4632 160.268 87.4002 162.471 90.4653 162.691C93.5302 162.896 95.056 165.757 97.6851 166.865C100.314 167.947 100.519 172.341 105.79 171.903C111.035 171.465 112.779 174.093 114.1 176.077C115.408 178.049 118.024 175.421 121.538 177.83C122.911 178.769 121.974 175.64 124.167 172.779C126.347 169.918 122.192 167.509 124.372 165.757C126.578 164.005 122.846 163.129 125.693 160.487C128.54 157.859 128.721 156.479 129.63 151.494ZM94.6655 20.8951C95.4472 22.4047 97.4448 21.129 96.9124 19.5146C95.8315 16.2377 90.2627 15.1458 91.3241 13.1799C92.6453 10.7571 87.8232 12.0849 89.4647 8.9548C90.3892 7.21596 82.3602 9.01828 80.8214 7.25295C79.2953 5.50075 76.6665 6.37682 75.3584 4.62467C74.0374 2.87222 71.8575 4.84352 71.6394 2.42103C71.4213 0.0116583 68.6402 -0.787866 66.3945 0.887608C64.1254 2.57658 59.8156 2.20199 56.9813 2.42103C54.1344 2.65331 54.1343 6.81489 51.2873 5.06268C50.1328 4.34877 49.4826 3.96205 48.866 3.84327C46.5278 3.39284 45.2947 7.52475 43.0752 6.66229C42.8465 6.57345 42.5963 6.47662 42.3235 6.37694C39.9122 5.50087 41.8742 8.78637 42.3235 9.89448C42.7461 10.9897 42.7461 13.18 41.6566 11.8658C40.5671 10.5517 39.6943 10.3324 37.9375 10.7574C36.1936 11.2089 35.7573 10.7574 34.4494 8.56721C33.1285 6.37694 33.5643 12.7419 31.1534 13.618C28.7425 14.4941 29.4095 17.5738 27.4345 16.6977C25.4725 15.8216 21.3043 14.7264 21.9587 12.0852C22.6257 9.45635 21.5356 8.5674 19.3427 9.89466C17.1495 11.209 14.3159 14.2754 13.6618 16.2599C13.0077 18.2336 11.4686 17.574 8.40378 16.9168C7.8092 16.7893 7.28024 16.7608 6.7951 16.7925C3.8659 16.9836 0.877987 20.0918 2.02665 22.7932C2.17715 23.1471 2.28716 23.558 2.28716 24.1608C2.28716 26.583 6.22375 24.5989 4.46705 27.0082C2.70986 29.431 0.965701 29.6496 0.0937891 31.4018C-0.79137 33.1674 4.90278 33.8246 4.01774 36.6718C3.14583 39.5324 1.8377 38.8754 3.14584 43.2559C4.46704 47.6498 2.94078 48.9639 6.22374 49.1831C9.49364 49.402 12.5192 49.2728 11.033 52.2625C10.1478 54.015 10.8015 54.7116 10.8015 54.7116C10.2895 54.9305 11.1876 54.5557 10.8015 54.7116C13.1994 52.7402 19.7789 50.9353 23.0618 47.2117C26.3448 43.4751 31.9623 43.2165 41.6567 47.2117C50.1975 50.7292 49.3124 56.4375 52.8133 58.8467C56.3141 61.2558 53.4673 63.8974 56.3143 64.9926C59.1613 66.0878 63.8546 72.3499 64.5217 75.6354C65.1758 78.9236 67.7021 78.818 69.8823 78.38C72.0883 77.9419 72.3067 81.4594 73.8191 83.6526C75.3582 85.8429 79.0771 86.4998 79.0771 87.6082C79.0771 88.7032 80.1671 90.8934 82.1293 91.9889C84.1042 93.0973 88.6953 97.9793 90.452 99.7315C92.2092 101.497 96.3643 100.996 98.775 101.214C101.186 101.433 102.712 109.564 106.867 105.827C109.047 103.869 108.406 110.659 110.368 110.44C112.343 110.221 118.024 112.63 116.267 113.944C114.523 115.272 117.139 117.024 120.204 118.119C123.269 119.215 123.18 121.07 125.898 119.871C128.629 118.686 128.309 119.433 128.745 124.046C129.18 128.659 133.118 133.04 134.221 136.557C135.298 139.998 139.132 138.465 133.349 142.922C129.913 145.577 136.107 146.699 131.605 152.589C129.412 155.449 131.453 158.36 134.439 158.516C137.401 158.669 140.774 156.764 142.313 151.042C143.839 145.345 146.801 146.068 148.109 143.426C149.43 140.798 147.508 139.199 148.393 137.009C149.265 134.805 151.713 137.434 152.585 135.243C153.459 133.04 150.176 132.602 149.74 130.411C149.315 128.208 148.277 126.469 145.866 125.579C143.468 124.703 143.686 123.827 144.122 122.732C144.558 121.637 145.583 120.104 144.929 118.995C144.275 117.9 146.236 115.929 147.34 113.944C148.419 111.973 149.52 111.973 150.841 113.944C152.149 115.929 155.65 113.765 157.407 114.82C160.69 116.805 160.908 119.652 163.101 120.98C165.281 122.294 162.922 117.708 164.461 117.502C165.987 117.269 164.627 114.382 161.78 111.754C158.933 109.113 155.445 108.455 153.47 107.579C151.508 106.703 150.854 104.075 146.917 101.214C142.98 98.367 138.812 98.1479 133.349 95.5062C127.873 92.8779 131.81 91.9887 133.349 90.8931C134.875 89.7984 134.862 88.806 131.797 87.0539C128.745 85.2883 124.795 87.7108 122.179 85.9584C119.55 84.1933 117.704 86.1644 114.19 83.098C111.329 80.7207 108.662 78.1175 106.213 75.3134C101.622 70.2623 100.968 64.5543 98.5444 61.0368C96.1464 57.5322 95.0564 54.4527 91.5553 51.3861C88.0545 48.3067 84.9894 49.6206 82.1557 46.9925C79.3085 44.3639 81.7065 40.6273 79.9626 38.2048C78.2054 35.7954 78.2054 34.0432 80.3985 33.8243C82.5784 33.6052 82.5784 31.1826 80.3985 28.1163C78.2054 25.0366 83.2456 24.8175 87.6186 24.1605C91.9915 23.5035 91.324 23.0653 92.8632 19.9853C93.7986 18.1045 93.9968 19.6038 94.6655 20.8951Z" fill="white" fill-opacity="0.5"/>
</svg>
