<svg width="146" height="155" viewBox="0 0 146 155" fill="none" xmlns="http://www.w3.org/2000/svg">
<path d="M139.144 37.6966C137.217 36.8143 136.158 35.5578 136.533 33.6167C138.53 23.1063 131.853 14.4946 130.321 4.75359C129.516 -0.392213 127.229 -1.28161 122.436 1.70423C106.561 11.5935 89.6627 19.9934 74.5218 30.8991C57.8067 42.913 46.5975 36.1437 35.2753 26.8756C31.5271 23.7839 28.4919 22.1392 23.7766 23.7204C18.6167 25.4709 18.9344 30.1861 19.1673 33.5814C21.3837 65.2962 9.66627 94.5475 3.0452 124.611C-2.14296 148.166 -3.13824 147.926 20.2261 152.295C20.932 152.443 21.5955 152.725 22.3084 152.874C37.0753 155.916 45.3763 153.191 53.0209 140.161C57.7855 132.05 64.1243 129.107 72.7006 127.709C77.917 126.862 84.9051 127.978 87.1357 120.778C88.851 115.272 92.0344 111.263 97.3426 109.088C101.853 107.246 101.38 105.249 98.3732 102.079C88.6957 91.8793 79.2582 81.4818 68.4795 69.8138C88.491 64.3221 107.789 59.0492 127.074 53.6705C131.888 52.3293 136.575 50.8117 140.471 47.2118C146.951 41.226 147.128 41.3389 139.144 37.6966Z" fill="white" fill-opacity="0.5"/>
</svg>
