<svg width="128" height="105" viewBox="0 0 128 105" fill="none" xmlns="http://www.w3.org/2000/svg">
<path d="M53.7297 79.5634C65.1468 90.4903 78.624 98.316 94.3521 100.242C103.449 101.353 113.008 109.481 122.4 98.4789C127.475 92.5442 129.477 80.9016 123.939 75.2403C119.842 71.0511 113.089 71.1209 110.046 66.6815C103.536 57.1917 93.3857 53.6716 84.1271 48.5224C81.2279 46.9165 78.7281 44.9324 75.4702 48.4758C74.446 49.5813 69.5042 52.025 70.9971 45.5899C71.8304 41.9883 67.7855 43.1055 65.9627 42.1571C64.6757 41.4829 63.4651 41.8981 62.1744 42.3845C59.5358 43.379 58.4353 40.0719 60.8994 38.701C63.081 37.4616 65.4188 36.618 63.2141 33.5459C61.3392 30.9392 60.043 32.9524 58.2086 33.8833C55.7203 35.1634 53.2089 36.49 49.9105 35.9314C46.6468 35.4019 47.4917 39.5621 45.9235 41.2901C44.6041 42.7447 46.4154 43.7862 48.1166 43.6524C50.657 43.4662 51.5829 45.683 51.0852 47.0154C48.8863 52.9734 52.1442 59.3678 49.7774 64.9767C47.1387 71.2489 49.87 75.8862 53.7297 79.5634Z" fill="white" fill-opacity="0.5"/>
<path d="M16.4128 24.9506C27.6968 30.1755 37.9102 23.5833 48.4766 21.5993C53.2101 20.7032 51.6014 17.3635 48.9569 15.2165C38.8884 7.06772 27.3419 2.43583 15.8241 0.31451C15.1818 0.196207 14.524 0.226863 13.8768 0.31472C8.9088 0.98912 3.73641 -1.32127 2.00407 2.02045C-0.385815 6.6286 1.87098 13.0521 3.05145 17.7882C3.86158 21.0931 11.6504 22.7513 16.4128 24.9506Z" fill="white" fill-opacity="0.5"/>
<path d="M45.4668 26.7961C45.571 28.0354 46.248 31.7418 48.366 31.1948C52.1794 30.4966 55.8597 31.0203 56.0275 27.9481C56.1664 25.5742 53.3078 23.8054 50.3682 23.7531C47.984 23.6774 45.218 23.9742 45.4668 26.7961Z" fill="white" fill-opacity="0.5"/>
</svg>
