<svg width="128" height="155" viewBox="0 0 128 155" fill="none" xmlns="http://www.w3.org/2000/svg">
<g clip-path="url(#clip0)">
<path d="M38.6692 122.908L36.0811 124.893C36.0367 124.879 35.9909 124.869 35.9514 124.853C35.8628 124.82 35.7854 124.763 35.6969 124.734C35.5263 124.674 35.3522 124.68 35.2275 124.521C35.1248 124.39 35.1832 124.141 35.1721 123.981C35.1755 123.76 35.1607 123.538 35.1278 123.319C35.0736 123.127 34.9887 122.945 34.8765 122.78C34.787 122.586 34.6479 122.419 34.4733 122.296C34.3153 122.221 34.145 122.175 33.9707 122.161C33.73 122.107 33.727 121.874 33.5736 121.719C33.4408 121.604 33.2706 121.541 33.0948 121.542C33.0015 121.531 32.909 121.513 32.8179 121.49C32.7311 121.473 32.6425 121.489 32.5572 121.473C32.334 121.432 32.2726 121.134 32.2203 120.953C32.1002 120.538 31.5547 120.581 31.245 120.382C31.1025 120.04 30.9335 119.712 30.7944 119.362C30.7531 119.258 30.6867 119.171 30.6504 119.066C30.6277 118.99 30.6008 118.915 30.5697 118.842C30.5097 118.721 30.4563 118.596 30.4038 118.473C30.3433 118.373 30.302 118.263 30.282 118.148C30.2807 117.948 30.4783 117.767 30.3959 117.557C30.3454 117.419 30.1746 117.385 30.0496 117.341C29.6955 117.218 29.656 116.958 29.9041 116.687C29.9832 116.6 30.1574 116.48 30.1193 116.343C30.0831 116.214 29.89 116.153 29.784 116.102C29.4788 115.962 29.4694 115.651 29.4267 115.349C29.4238 115.207 29.3725 115.071 29.2811 114.962C29.1348 114.819 28.9604 114.707 28.7689 114.634C28.6764 114.601 28.5777 114.588 28.4798 114.597C28.3818 114.606 28.2869 114.635 28.2017 114.684C28.1309 114.732 28.0484 114.759 27.9633 114.762C27.8782 114.766 27.7938 114.746 27.7192 114.705C27.4712 114.557 27.2258 114.219 26.9335 114.497C26.6598 114.756 26.4689 115.084 26.0481 115.104C25.6148 115.128 25.4759 114.8 25.2482 114.508C25.0253 114.219 24.7312 114.384 24.4656 114.516C24.4183 114.562 24.3724 114.606 24.3264 114.651C24.3249 113.333 24.3264 111.661 24.3264 111.661C24.3264 111.661 24.8276 110.89 25.2023 110.151C25.4633 109.521 25.6248 108.854 25.6812 108.175L25.8283 108.049C26.3019 108.464 26.8408 108.798 27.4234 109.038C28.3688 109.367 31.3854 110.753 31.4772 110.709C31.5608 110.666 33.7427 112.947 34.1108 113.332L34.062 114.272L34.6423 115.914L35.5309 118.305L37.7174 120.461L38.6692 122.908Z" fill="white" fill-opacity="0.5"/>
<path d="M25.83 108.049L25.6829 108.176C25.6265 108.855 25.4649 109.521 25.204 110.151C24.8295 110.89 24.3281 111.661 24.3281 111.661C24.3281 111.661 24.3266 113.334 24.3281 114.652C24.2703 114.708 24.2165 114.767 24.1669 114.83C24.1293 114.881 24.0762 114.919 24.0155 114.937C23.9548 114.956 23.8897 114.954 23.83 114.933C23.6784 114.878 23.3417 114.332 23.1897 114.528C23.1342 114.643 23.1066 114.769 23.1092 114.896C23.0948 115.054 23.0651 115.21 23.0206 115.362C22.9321 115.644 22.7705 115.77 22.4877 115.639C22.2516 115.521 22.0562 115.336 21.9266 115.106C21.7279 114.8 21.499 114.514 21.2434 114.253C21.0714 114.075 20.8214 113.993 20.6617 113.81C20.5822 113.704 20.5143 113.589 20.4592 113.468C20.3631 113.311 20.2525 113.162 20.1289 113.025C19.9553 112.766 19.7486 112.531 19.5139 112.325C19.2672 112.158 18.97 112.06 18.8752 111.75C18.8312 111.479 18.734 111.219 18.5893 110.985C18.4246 110.774 18.148 110.695 17.9865 110.48C17.8398 110.29 17.8936 110.19 18.0577 110.063C18.1381 109.989 18.1966 109.894 18.227 109.79C18.2574 109.685 18.2585 109.574 18.2302 109.468C18.1728 109.252 18.0455 109.06 17.868 108.923C17.4729 108.537 16.8721 108.174 16.8593 107.564C16.8429 107.476 16.8602 107.385 16.9077 107.31C16.9552 107.234 17.0294 107.179 17.1157 107.155C17.3385 107.073 17.4856 107.178 17.697 107.256C17.7556 107.28 17.9154 107.359 17.9281 107.264C17.939 107.19 17.778 107.056 17.7431 106.991C17.6767 106.873 17.6767 106.779 17.5628 106.687C17.5107 106.645 17.4553 106.607 17.4003 106.567L18.6442 104.871L20.0797 105.098L20.6266 104.155C20.6266 104.155 19.8172 102.668 19.4537 102.202C19.4537 102.202 20.3532 101.021 20.2964 100.635C20.1976 100.302 20.0133 100.001 19.7619 99.7613C19.4286 99.415 19.1236 99.0428 18.8497 98.6481C18.7469 98.3992 18.622 98.1264 18.3597 98.0461C18.1556 97.9847 17.2925 97.3302 16.752 97.3096C16.8818 97.1168 17.0636 96.9644 17.2764 96.8701C17.4734 96.8124 17.6806 96.7979 17.8837 96.8275C18.1508 96.8373 18.4153 96.8833 18.6698 96.9645C19.1715 97.1271 19.6338 97.3917 20.0275 97.7418C20.2254 97.9183 20.4213 98.0997 20.6253 98.2683C20.8063 98.3996 20.9765 98.5452 21.1342 98.7037C21.4251 99.0266 21.2354 99.3815 21.1137 99.7377C21.0329 99.9206 20.9963 100.12 21.0068 100.319C21.0173 100.519 21.0745 100.713 21.174 100.887C21.2657 101.026 21.5091 101.296 21.6511 101.063C21.7889 100.84 21.6559 100.532 21.5769 100.315C21.4543 99.8937 21.4258 99.4508 21.4932 99.0174C21.5224 98.728 21.5224 98.4364 21.4932 98.1469C21.4587 97.9315 21.4133 97.7179 21.3573 97.5069C21.2768 97.1129 21.5661 96.8589 21.7382 96.534C21.8981 96.2316 21.9264 95.7963 21.4726 95.7918C21.1168 95.7902 20.8118 96.0551 20.4827 96.1544C19.57 96.4125 18.5942 96.3294 17.7384 95.9209C17.3146 95.7158 17.0238 95.4242 17.1358 94.9245C17.1944 94.6629 17.3178 94.4219 17.3969 94.1647C17.4444 94.0224 17.5201 93.7861 17.4018 93.6553C17.1615 93.3906 16.7267 93.8636 16.5716 94.0117C16.4104 94.162 16.2358 94.2971 16.0499 94.4155C15.7213 94.6192 15.3772 94.7967 15.0207 94.9465C14.8952 94.9862 14.7856 95.0646 14.7078 95.1704C14.6681 95.2271 14.6207 95.2822 14.5862 95.3391C14.529 95.4339 14.5622 95.4968 14.5684 95.5945C14.565 95.6935 14.5939 95.7909 14.6508 95.8721C14.7168 95.9676 14.8032 96.0473 14.9036 96.1056C15.0949 96.1828 15.2983 96.2255 15.5045 96.2318C15.8246 96.2204 16.144 96.2708 16.4451 96.3799C16.706 96.5281 16.6475 96.7346 16.5179 96.9285C16.3265 96.999 16.1226 97.0297 15.9189 97.0186C15.4855 96.9793 14.4436 97.1666 14.1812 97.0879C13.9189 97.0077 13.492 96.7868 13.4462 96.9161C13.4004 97.0469 13.1047 97.5356 12.8769 97.4331C12.6491 97.3307 12.6271 96.5201 12.4438 96.3108C12.262 96.0996 11.1917 95.2937 11.5743 95.2416C11.9551 95.1915 13.4524 95.0889 13.6294 94.8569C13.7568 94.6538 13.9382 94.49 14.1535 94.3837C14.3687 94.2775 14.6093 94.2328 14.8484 94.2549C15.6039 94.2768 16.774 93.5345 16.3945 93.1417C15.9733 92.757 15.527 92.4005 15.0587 92.0744C15.0587 92.0744 13.8888 91.9909 13.8667 92.0051C13.8209 92.0051 11.7561 90.6132 11.7561 90.6132L9.508 88.6676L9.03835 88.5242L7.46533 87.0218L7.83682 87.0846L7.83526 87.0313L8.74906 87.4791L10.6177 86.7001L11.4748 85.201L13.9646 83.7852L14.8752 83.7395L16.333 82.9067L18.467 83.3831C18.5272 83.6746 18.6545 83.9481 18.8388 84.1821C19.1326 84.3882 19.3395 84.6956 19.4192 85.0449C19.4997 85.4657 20.0119 87.4792 20.0119 87.4792L20.8876 88.2008L20.7975 89.997L23.177 93.2886L23.2685 94.3685L23.7697 94.9803L23.8266 95.5589L24.6235 96.2193L24.5208 97.4112L24.6235 97.7187V98.0353L24.9758 98.5809L24.7371 99.5238L23.6999 99.6812L23.2907 100.567L23.1659 104.134C23.1659 104.134 24.8733 105.053 24.9758 105.688C25.0787 106.325 25.4313 107.7 25.4313 107.7C25.4313 107.7 25.5851 107.848 25.83 108.049Z" fill="white" fill-opacity="0.5"/>
<path d="M14.4057 106.33C14.4037 106.334 14.4011 106.338 14.3979 106.341C14.3896 106.352 14.3822 106.364 14.376 106.377C14.3474 106.44 14.31 106.498 14.2651 106.55C14.0958 106.7 13.9205 106.462 13.8004 106.367C13.6707 106.25 13.5207 106.156 13.3577 106.092C13.274 106.06 13.1816 106.061 13.0983 106.094C13.0151 106.126 12.9469 106.189 12.907 106.268C12.8345 106.402 12.9007 106.632 12.7313 106.7C12.5752 106.763 12.3948 106.642 12.2636 106.569C12.1168 106.486 11.9587 106.425 11.7942 106.388C11.625 106.355 11.3859 106.35 11.3625 106.14C11.3561 106.078 11.3909 105.976 11.3465 105.922C11.3057 105.871 11.1918 105.874 11.1336 105.877C10.975 105.9 10.8133 105.877 10.667 105.813C10.5688 105.769 10.5609 105.707 10.4992 105.622C10.4514 105.565 10.4001 105.511 10.3458 105.461C10.3561 105.3 10.3397 105.138 10.2971 104.982C10.2464 104.886 10.0519 104.822 9.95231 104.796C9.87923 104.787 9.80685 104.774 9.73573 104.755C9.65459 104.701 9.58521 104.631 9.53178 104.55C9.4052 104.402 9.25176 104.366 9.10798 104.242C9.01468 104.162 8.87407 104.027 8.96397 103.899C9.05909 103.765 9.64861 103.62 9.35446 103.378C9.25176 103.295 9.09235 103.336 8.97531 103.281C8.84058 103.232 8.70869 103.175 8.5802 103.112C8.35084 102.963 8.1544 102.77 8.00298 102.543C7.84392 102.308 7.61067 102.134 7.34057 102.048C7.24269 101.961 7.15897 101.86 7.09248 101.748C7.06639 101.668 7.05041 101.585 7.04492 101.5C7.01637 101.41 7.02089 101.312 7.05764 101.224C7.0944 101.137 7.16103 101.065 7.24578 101.021C7.3425 100.999 7.43561 100.962 7.52252 100.914C7.59786 100.84 7.66131 100.755 7.71059 100.662C7.84811 100.482 8.15957 100.424 8.36053 100.337C8.68389 100.26 9.02261 100.275 9.3376 100.381C9.76847 100.498 10.1932 100.635 10.6101 100.794C10.9044 100.877 11.1893 100.99 11.4605 101.132C11.6678 101.282 11.9025 101.39 12.1514 101.45C12.2202 101.448 12.2884 101.437 12.3539 101.415C12.4542 101.398 12.5574 101.411 12.651 101.45C12.8079 101.51 12.9583 101.585 13.1 101.674C12.9935 101.876 12.8758 102.071 12.7474 102.259C12.5989 102.44 12.3017 102.667 12.5309 102.86C12.7586 103.052 13.4305 103.654 13.3845 103.973C13.3467 104.238 13.6673 105.392 14.4057 106.33Z" fill="white" fill-opacity="0.5"/>
<path d="M62.2372 144.455C62.0813 144.543 61.9045 144.59 61.725 144.589C61.5035 144.574 61.2885 144.546 61.0686 144.518C60.8284 144.505 60.5925 144.586 60.411 144.743C60.3178 144.8 60.2373 144.876 60.1743 144.965C60.1112 145.054 60.067 145.155 60.0443 145.261C60.0494 145.349 60.0488 145.436 60.0426 145.524C60.0333 145.577 60.0129 145.628 60.0063 145.683C59.9936 145.776 60.0006 145.871 60.0269 145.962C60.1059 146.148 60.2343 146.309 60.3984 146.429C60.5665 146.621 60.7213 146.825 60.8617 147.039C60.9267 147.126 60.9778 147.224 61.0135 147.327C61.0277 147.371 61.0354 147.415 61.0532 147.458C61.0576 147.471 61.0846 147.468 61.0815 147.466C61.1351 147.63 61.0593 147.791 61.0593 147.956C61.0813 148.109 61.075 148.265 61.0406 148.415C60.9847 148.54 60.8943 148.646 60.78 148.721C60.6657 148.797 60.5323 148.838 60.3952 148.841C60.1754 148.872 59.7455 148.844 59.6539 149.106C59.6307 149.222 59.6313 149.342 59.6556 149.459C59.657 149.576 59.6708 149.693 59.6966 149.807C59.7787 150.056 60.0776 150.015 60.2847 149.987C60.533 149.921 60.797 149.951 61.0243 150.07C61.2316 150.219 61.14 150.486 61.2475 150.685C61.3613 150.893 61.6302 150.911 61.7582 151.103C61.823 151.193 61.862 151.299 61.8709 151.409C61.8798 151.519 61.8583 151.63 61.8087 151.729C61.686 151.867 61.6097 152.04 61.5905 152.224C61.5804 152.453 61.5581 152.68 61.524 152.907C61.4942 153.105 61.4151 153.288 61.3915 153.488C61.3757 153.632 61.3788 154.207 61.1181 154.135C60.9012 154.076 60.8428 153.704 60.6799 153.567C60.5187 153.433 60.2672 153.421 60.1582 153.228C60.0222 152.99 60.1882 152.891 60.4064 152.862C60.5312 152.847 60.7101 152.84 60.8 152.736C60.8167 152.72 60.8293 152.701 60.8365 152.679C60.8436 152.657 60.8453 152.633 60.8412 152.61C60.8372 152.588 60.8276 152.566 60.8132 152.548C60.7989 152.53 60.7803 152.515 60.7591 152.506C60.6516 152.453 60.5296 152.52 60.4286 152.555C60.3009 152.605 60.1583 152.604 60.0318 152.55C59.948 152.519 59.7709 152.385 59.6775 152.432C59.5858 152.479 59.6176 152.662 59.597 152.744C59.5114 153.082 59.151 152.599 59.1367 152.43C59.129 152.34 59.173 152.277 59.1209 152.192C58.8363 151.719 58.1989 151.677 57.7834 151.39C57.6965 151.33 57.6333 151.259 57.5398 151.202C57.415 151.126 57.2807 151.065 57.1525 150.996C57.0103 150.919 56.8824 150.827 56.7448 150.737C56.6715 150.682 56.5931 150.633 56.5107 150.592C56.4365 150.559 56.3542 150.554 56.2783 150.523C56.1363 150.46 55.9989 150.388 55.8671 150.307C55.665 150.184 55.4784 150.033 55.2792 149.907C55.0489 149.813 54.8061 149.754 54.5585 149.73C54.2928 149.654 54.0207 149.586 53.7583 149.499C53.5401 149.429 53.3394 149.317 53.1217 149.243C52.9712 149.192 52.7533 149.143 52.7311 148.953C52.6914 148.618 53.286 148.558 53.5136 148.59C53.6828 148.616 53.8549 148.616 54.0243 148.591C54.2283 148.562 54.4275 148.603 54.6316 148.587C54.8116 148.559 54.9899 148.521 55.1657 148.473C55.2407 148.464 55.3125 148.438 55.3755 148.396C55.4384 148.355 55.4906 148.299 55.5279 148.234C55.5702 148.175 55.6274 148.129 55.6936 148.1C55.7598 148.071 55.8325 148.061 55.9042 148.069C56.1554 148.058 56.4022 148.057 56.6537 148.069C56.8669 148.082 57.0644 148.091 57.0267 147.825C57.0045 147.669 56.9462 147.45 56.758 147.442C56.404 147.425 56.056 147.639 55.7067 147.663C55.5421 147.674 55.3506 147.609 55.2102 147.721C55.0664 147.833 55.0915 148.019 54.9084 148.099C54.7532 148.169 54.5588 148.139 54.4181 148.237C54.312 148.18 54.2835 148.102 54.1667 148.159C54.0767 148.21 53.9826 148.252 53.8854 148.287C53.7552 148.327 53.6279 148.375 53.5042 148.432C53.2201 148.504 52.9292 148.546 52.6362 148.557C52.4071 148.61 52.4262 148.84 52.4039 149.03C52.3898 149.156 52.3943 149.322 52.246 149.366C52.1778 149.374 52.1089 149.361 52.0483 149.329C51.9878 149.297 51.9386 149.247 51.9073 149.186C51.7498 148.893 51.5203 148.644 51.2402 148.463C51.1271 148.382 51.0002 148.321 50.8657 148.284C50.714 148.281 50.5661 148.235 50.4388 148.153C50.2283 147.972 50.0893 147.719 49.7891 147.69C49.6137 147.674 49.4381 147.647 49.2611 147.636C49.1188 147.626 48.9605 147.645 48.8563 147.529C48.7568 147.414 48.7314 147.248 48.6368 147.128C48.5481 147.013 48.4502 146.9 48.3552 146.789C48.137 146.536 47.7259 146.536 47.5314 146.275C47.4556 146.176 47.4808 146.072 47.4571 145.959C47.4238 145.816 47.3416 145.689 47.2247 145.599C47.1016 145.506 46.923 145.523 46.8076 145.426C46.6857 145.32 46.7666 145.192 46.8328 145.082C46.8795 145.004 46.9041 144.916 46.9038 144.825C46.9036 144.735 46.8785 144.647 46.8313 144.569C46.7485 144.429 46.6475 144.3 46.5309 144.185C46.4712 144.11 46.4276 144.024 46.4029 143.931C46.2829 143.647 46.1089 143.389 45.8906 143.171C45.7436 143.017 45.5792 142.744 45.8241 142.597C45.9151 142.545 46.0207 142.523 46.125 142.536C46.2294 142.548 46.3268 142.594 46.4027 142.667C46.5385 142.771 46.8659 143.087 46.8692 142.73C46.8798 142.62 46.8623 142.51 46.8183 142.409C46.7743 142.308 46.7053 142.219 46.6178 142.152C46.537 142.086 46.4169 142.003 46.4043 141.889C46.3948 141.779 46.4912 141.708 46.5606 141.637C46.7394 141.465 46.703 141.317 46.7158 141.09C46.7236 140.919 46.7427 140.757 46.7409 140.593C49.816 140.976 52.9338 142.771 52.9338 142.771C53.359 142.287 53.6088 140.742 53.6387 140.31C53.669 139.879 52.8341 139.364 52.8341 139.364L52.6604 138.872C52.6604 138.872 51.582 138.509 51.5597 138.509C51.5361 138.509 51.3164 137.669 50.9811 136.858C50.6475 136.048 53.1219 135.359 53.1219 135.359L53.0697 134.178C52.9286 133.928 52.7662 133.69 52.5843 133.467C52.3929 133.27 51.3844 132.452 51.6499 132.249C51.9155 132.044 53.0016 132.846 53.3951 133.013C53.7905 133.178 54.2835 134.61 54.2835 134.61C54.2835 134.61 54.7847 134.883 54.7847 134.905C54.7847 134.927 55.8059 134.648 55.8059 134.648L56.4699 135.154L57.4344 135.08L59.2175 133.784L62.16 133.433C62.1612 133.438 62.1616 133.443 62.1613 133.448C62.16 133.628 62.1613 133.806 62.1613 133.984C62.1613 134.363 62.0854 134.735 62.0824 135.105L61.9781 135.936C61.9131 136.084 61.9844 136.256 61.9954 136.403C62.0029 136.538 61.9576 136.672 61.869 136.775C61.6979 136.974 61.5929 137.221 61.5685 137.483C61.5585 137.679 61.5815 137.876 61.6365 138.064C61.6952 138.275 61.7758 138.478 61.8769 138.671C61.9574 138.837 62.0317 139.013 62.1267 139.173C62.1868 139.275 62.2987 139.345 62.3511 139.45C62.398 139.61 62.4136 139.778 62.397 139.944C62.4169 140.128 62.3997 140.314 62.3465 140.492C62.253 140.743 61.9797 140.861 61.9338 141.124C61.9131 141.243 61.875 141.345 61.8436 141.462C61.8091 141.643 61.799 141.828 61.8137 142.012C61.7999 142.219 61.8052 142.427 61.8295 142.633C61.858 142.749 61.8993 142.861 61.9526 142.967C61.9984 143.073 62.0632 143.16 62.1123 143.259C62.1503 143.335 62.1945 143.404 62.2341 143.472C62.2629 143.526 62.2878 143.582 62.3084 143.639C62.3225 143.671 62.3416 143.667 62.3416 143.649C62.3474 143.74 62.3453 143.832 62.3354 143.923C62.3445 143.98 62.365 144.036 62.3954 144.085C62.419 144.155 62.4159 144.232 62.3867 144.3C62.3575 144.368 62.3043 144.423 62.2372 144.455Z" fill="white" fill-opacity="0.5"/>
<path d="M62.1591 133.434L59.2167 133.785L57.4336 135.081L56.4691 135.155L55.8051 134.649C55.8051 134.649 54.7838 134.928 54.7838 134.906C54.7838 134.884 54.2826 134.611 54.2826 134.611C54.2826 134.611 53.7896 133.179 53.3942 133.014C53.0005 132.847 51.9145 132.045 51.6491 132.25C51.3836 132.453 52.3921 133.271 52.5834 133.468C52.7653 133.691 52.9277 133.929 53.0689 134.179L53.1211 135.36C53.1211 135.36 50.6466 136.049 50.9802 136.859C51.3155 137.67 51.5352 138.51 51.5589 138.51C51.5812 138.51 52.6595 138.873 52.6595 138.873L52.8333 139.365C52.8333 139.365 53.6682 139.88 53.6378 140.311C53.6079 140.743 53.3581 142.288 52.9329 142.772C52.9329 142.772 49.8151 140.977 46.7401 140.594C46.7403 140.517 46.735 140.44 46.7245 140.364C46.6661 140.103 46.6422 139.834 46.6533 139.566C46.7327 139.276 46.7305 138.97 46.6469 138.68C46.5774 138.568 46.5246 138.446 46.4904 138.318C46.4916 138.212 46.5321 138.11 46.6041 138.032C46.6444 137.989 46.6749 137.937 46.6937 137.88C46.7126 137.824 46.7193 137.764 46.7135 137.705C46.7078 137.646 46.6895 137.589 46.6601 137.537C46.6307 137.485 46.5907 137.44 46.5427 137.405C46.4467 137.34 46.3668 137.254 46.309 137.153C46.2512 137.053 46.2171 136.94 46.2091 136.825C46.179 136.547 46.2849 136.277 46.103 136.037C46.0146 135.922 45.9038 135.827 45.809 135.718C45.7172 135.614 45.6444 135.501 45.5557 135.396C45.4641 135.265 45.3324 135.166 45.1801 135.115C45.0278 135.064 44.863 135.063 44.7102 135.112C44.5788 135.155 44.4363 135.149 44.3092 135.095C44.1821 135.04 44.0791 134.942 44.0193 134.818C43.9031 134.619 43.7743 134.428 43.6335 134.246C43.485 134.064 43.3269 133.891 43.1622 133.724C42.8698 133.428 42.5617 133.149 42.2391 132.887C42.0351 132.716 41.6194 132.407 41.711 132.102C41.7901 131.831 42.16 132.001 42.3117 132.076C42.4825 132.16 42.952 132.403 43.1259 132.213C43.2999 132.021 43.1687 131.566 43.1387 131.345C43.142 131.034 43.0486 130.73 42.8714 130.475C42.7148 130.312 42.4556 130.277 42.3197 130.095C42.2423 129.99 42.2202 129.855 42.1441 129.749C42.0434 129.627 41.9135 129.531 41.7663 129.47C41.6499 129.411 41.5458 129.33 41.4597 129.232C41.3511 129.144 41.2511 129.046 41.1608 128.939C41.0865 128.824 41.1701 128.214 40.9221 128.284C40.7575 128.327 40.8779 128.633 40.7497 128.743C40.6645 128.723 40.438 128.691 40.4003 128.604C40.3813 128.561 40.413 128.455 40.413 128.406C40.4158 128.344 40.4056 128.282 40.3829 128.225C40.3463 128.14 40.2673 128.149 40.1931 128.115C40.0794 128.059 39.9862 127.977 39.8675 127.93C39.7602 127.901 39.6473 127.898 39.5387 127.922C39.3635 127.937 39.187 127.921 39.017 127.876C38.8508 127.827 38.7195 127.533 38.5474 127.594C38.3056 127.679 38.1901 127.991 38.1112 128.207C38.0184 128.221 37.9237 128.216 37.8331 128.192C37.728 128.148 37.642 128.068 37.5904 127.966C37.5388 127.865 37.5251 127.749 37.5517 127.638C37.5927 127.458 37.7145 127.203 37.5517 127.063C37.4718 127.016 37.4086 126.946 37.3709 126.862C37.3332 126.777 37.3228 126.683 37.3414 126.593C37.3759 126.379 37.5184 126.229 37.3951 126.01C37.3193 125.861 37.198 125.741 37.0488 125.666C36.8708 125.601 36.698 125.523 36.5318 125.433C36.4431 125.371 36.3731 125.287 36.3296 125.188C36.2964 125.111 36.2979 125.026 36.2332 124.965C36.1895 124.929 36.1379 124.905 36.0829 124.894L38.6709 122.909L37.7194 120.462L35.5329 118.305L34.6443 115.915L34.064 114.272L34.1128 113.333C34.1476 113.369 34.1667 113.388 34.1667 113.388L35.7713 114.149L36.1239 114.944L38.9492 116.407L40.2471 114.525V114.318L39.4945 113.591L39.4598 112.696L39.7126 112.637L41.4075 113.274L42.7737 113.159C42.8212 113.218 42.8615 113.282 42.8936 113.35C42.9756 113.646 42.9955 113.955 42.9522 114.259C43.009 114.256 43.0375 114.127 43.0848 114.089C43.2209 113.977 43.3458 114.004 43.4991 113.96C43.6098 113.929 43.7285 113.774 43.8549 113.857C43.9166 113.897 43.9622 114.097 43.9672 114.174C43.9517 114.426 43.9617 114.678 43.9972 114.928C44.0379 115.023 44.063 115.125 44.0715 115.228C44.0666 115.341 44.0605 115.456 44.0573 115.576C44.0563 115.623 44.0457 115.669 44.0261 115.712C44.0065 115.755 43.9783 115.793 43.9434 115.825C43.9117 115.863 43.888 115.907 43.8735 115.955C43.8591 116.002 43.8544 116.052 43.8595 116.101C43.8555 116.324 43.8762 116.546 43.9213 116.765C43.937 116.842 43.9134 117.03 43.9735 117.08C44.0179 117.118 44.0777 117.085 44.1315 117.099C44.1801 117.114 44.2253 117.138 44.2644 117.17C44.3497 117.234 44.4204 117.316 44.4715 117.41C44.4949 117.496 44.4065 117.608 44.3715 117.679C44.3158 117.759 44.2826 117.853 44.2754 117.95C44.2912 118.061 44.3892 118.091 44.4839 118.099C44.6171 118.108 44.7291 118.073 44.843 118.161C44.9367 118.235 45.016 118.325 45.0769 118.427C45.1088 118.477 45.1197 118.537 45.1073 118.595C45.0948 118.653 45.0601 118.704 45.0105 118.737C44.9727 118.771 44.9307 118.801 44.8855 118.824C44.8825 118.826 44.8522 118.837 44.8241 118.847C44.8128 118.851 44.8019 118.856 44.7907 118.858C44.7931 118.858 44.7953 118.857 44.7972 118.856C44.6297 118.904 44.2484 118.959 44.3955 119.171C44.5204 119.204 44.6406 119.278 44.7717 119.314C44.8883 119.343 45.0026 119.38 45.1135 119.426C45.3068 119.514 45.5237 119.538 45.7315 119.492C45.9211 119.459 46.0082 119.272 46.1742 119.21C46.3682 119.168 46.5676 119.156 46.7653 119.174C46.8077 119.174 46.85 119.17 46.8917 119.162C46.9722 119.144 47.0417 119.122 47.1222 119.109C47.2741 119.078 47.432 119.102 47.5682 119.176C47.7421 119.27 47.6487 119.431 47.7562 119.55C47.8494 119.656 48.0709 119.623 48.1944 119.601C48.3351 119.568 48.4827 119.579 48.6167 119.633C48.7507 119.687 48.8644 119.782 48.942 119.904C49.0225 120.051 49.1516 120.166 49.3073 120.229C49.4117 120.253 49.5122 120.291 49.6062 120.342C49.6898 120.389 49.8575 120.426 49.9033 120.52C49.9117 120.564 49.909 120.609 49.8954 120.651C49.8819 120.693 49.858 120.731 49.8259 120.761C49.7529 120.828 49.6425 120.829 49.5633 120.88C49.5271 120.909 49.4976 120.946 49.4766 120.987C49.4556 121.029 49.4436 121.074 49.4415 121.121C49.4358 121.18 49.4413 121.24 49.4576 121.298C49.4601 121.329 49.4653 121.361 49.4732 121.392C49.4732 121.392 49.437 121.353 49.4448 121.378C49.5034 121.586 49.647 121.655 49.8132 121.753C50.0066 121.88 50.1557 122.063 50.24 122.278C50.2674 122.386 50.2807 122.497 50.2795 122.609C50.3211 122.73 50.3503 122.855 50.3666 122.981C50.4527 123.184 50.5569 123.379 50.678 123.563C50.8069 123.708 50.9218 123.865 51.0211 124.031C51.0409 124.102 51.054 124.174 51.0604 124.247C51.0849 124.4 51.1183 124.551 51.1603 124.7C51.2149 124.818 51.3087 124.914 51.4258 124.971C51.6178 125.061 51.8014 125.168 51.9743 125.291C52.1283 125.417 52.2357 125.591 52.2796 125.784C52.3285 125.983 52.3941 126.178 52.4755 126.366C52.5579 126.568 52.7855 126.653 52.9118 126.82C53.0352 126.979 53.2249 127.134 53.2533 127.346C53.2818 127.552 53.2437 127.776 53.2533 127.987C53.2483 128.1 53.2842 128.21 53.3546 128.299C53.5189 128.431 53.5696 128.137 53.5869 128.037C53.599 127.958 53.6336 127.884 53.6867 127.824C53.6975 127.814 53.8715 127.697 53.873 127.755C53.8806 127.855 53.9052 127.953 53.9458 128.045C53.9783 128.139 54.0252 128.226 54.0848 128.305C54.1906 128.408 54.27 128.257 54.3125 128.164C54.3395 128.099 54.3979 127.908 54.4913 127.922C54.564 127.933 54.6507 128.14 54.6935 128.193C54.859 128.376 55.0496 128.535 55.2595 128.665C55.3904 128.739 55.5102 128.83 55.6152 128.938C55.6703 129.02 55.7085 129.112 55.7273 129.209C55.7724 129.319 55.8361 129.42 55.9156 129.508C55.9565 129.559 56.0009 129.607 56.0484 129.652C56.0532 129.655 56.0895 129.686 56.1068 129.704C56.1165 129.715 56.0943 129.707 56.0832 129.702C56.1781 129.805 56.2951 129.879 56.3837 129.981C56.4218 130.032 56.4732 130.072 56.5322 130.096C56.5913 130.12 56.6558 130.127 56.7187 130.117C56.949 130.108 57.1782 130.153 57.3876 130.249C57.6657 130.345 57.8129 130.675 57.9883 130.897C58.249 131.227 58.7472 131.242 59.0617 131.498C59.1707 131.588 59.2451 131.704 59.3558 131.793C59.4221 131.845 59.4744 131.903 59.544 131.949C59.6943 132.043 59.8494 132.13 60.0086 132.209C60.1023 132.265 60.2042 132.305 60.3106 132.329C60.3943 132.348 60.4894 132.344 60.5777 132.367C60.8023 132.435 61.0325 132.483 61.2655 132.512C61.391 132.519 61.5123 132.56 61.6163 132.63C61.7202 132.701 61.8029 132.798 61.8554 132.912C61.8843 133.016 61.9348 133.112 62.0037 133.194C62.0552 133.24 62.1004 133.292 62.138 133.349C62.1427 133.358 62.1464 133.367 62.149 133.377C62.1559 133.395 62.1593 133.414 62.1591 133.434Z" fill="white" fill-opacity="0.5"/>
<path d="M20.6286 104.155L20.0817 105.098L18.6461 104.871L17.4022 106.568C17.3736 106.547 17.3468 106.526 17.3198 106.505C17.161 106.385 16.9923 106.279 16.8154 106.187C16.719 106.134 16.724 106.085 16.7112 105.979C16.6984 105.883 16.6603 105.795 16.6417 105.7C16.6162 105.528 16.605 105.355 16.6085 105.181C16.6036 105.077 16.6417 104.95 16.5671 104.863C16.5168 104.808 16.3934 104.745 16.3192 104.78C16.2463 104.814 16.24 104.913 16.2257 104.983C16.1705 105 16.1435 105.036 16.0834 105.046C16.0321 105.053 15.98 105.049 15.9302 105.035C15.8052 104.975 15.6954 104.888 15.6093 104.779C15.5557 104.735 15.4915 104.706 15.423 104.694C15.3546 104.682 15.2842 104.688 15.2187 104.711C15.0953 104.748 15.0178 104.846 14.8836 104.864C14.6953 104.89 14.2717 104.83 14.2909 105.118C14.3081 105.379 14.6827 105.402 14.6938 105.651C14.6975 105.745 14.6829 105.84 14.651 105.929C14.6368 105.965 14.61 106.036 14.6051 106.048C14.5992 106.062 14.5612 106.137 14.5596 106.146L14.5579 106.148C14.5138 106.212 14.4566 106.269 14.4076 106.33C13.6692 105.393 13.3485 104.238 13.3863 103.974C13.4323 103.655 12.7603 103.053 12.5326 102.861C12.3034 102.668 12.6006 102.441 12.7492 102.26C12.8775 102.072 12.9952 101.877 13.1017 101.675C13.1952 101.734 13.2852 101.792 13.3754 101.85C13.5428 101.959 13.7073 102.071 13.8702 102.183C14.0191 102.303 14.1778 102.411 14.3445 102.506C14.6058 102.683 14.8957 102.813 15.2015 102.892C15.3086 102.903 15.421 102.892 15.5286 102.894C15.6948 102.894 15.8559 102.883 16.0185 102.876C16.2282 102.889 16.4369 102.914 16.6433 102.954C16.7917 102.968 16.9419 102.968 17.0874 102.99C17.4148 103.039 17.478 103.482 17.5411 103.747C17.5525 103.858 17.607 103.959 17.6927 104.03C17.7862 104.101 17.9538 104.187 18.0595 104.09C18.1298 103.987 18.1643 103.863 18.1577 103.739C18.1567 103.567 18.12 103.396 18.05 103.239C18.009 103.148 17.9078 103.051 17.9315 102.941C17.9506 102.856 18.0533 102.815 18.0709 102.73C18.2255 102.757 18.3237 102.856 18.3885 102.646C18.4321 102.504 18.4259 102.352 18.371 102.214C18.3296 102.139 18.2843 102.067 18.2352 101.997C18.1971 101.929 18.1734 101.858 18.1386 101.788C17.999 101.517 17.8339 101.259 17.6454 101.019C17.4748 100.791 17.277 100.59 17.111 100.362C17.0187 100.238 16.9173 100.121 16.8076 100.012C16.7107 99.9363 16.6198 99.8536 16.5357 99.7642C16.4093 99.5953 16.4599 99.3477 16.4549 99.1543C16.4518 98.9538 16.4313 98.7534 16.4264 98.5549C16.4249 98.4212 16.4137 98.2792 16.4201 98.1463C16.4304 98.0173 16.467 97.8918 16.5276 97.7774C16.5848 97.6544 16.6353 97.5334 16.6922 97.4149C16.7063 97.386 16.7221 97.358 16.7395 97.331C16.7443 97.3234 16.7493 97.317 16.7542 97.3091C17.2947 97.3296 18.1579 97.984 18.3619 98.0456C18.6242 98.126 18.7491 98.3988 18.8518 98.6475C19.1258 99.0422 19.4308 99.4145 19.7641 99.7608C20.0155 100.001 20.1997 100.302 20.2986 100.634C20.3553 101.02 19.4559 102.201 19.4559 102.201C19.8191 102.668 20.6286 104.155 20.6286 104.155Z" fill="white" fill-opacity="0.5"/>
<path d="M16.5176 96.9269C16.5 96.9538 16.4795 96.9807 16.4591 97.0072C16.4057 97.0728 16.3659 97.1484 16.342 97.2294C16.3412 97.3068 16.3241 97.3831 16.2916 97.4533C16.1598 97.6387 15.9978 97.8007 15.8123 97.9327C15.7062 98.0222 15.5941 98.1028 15.4898 98.1945C15.4047 98.2816 15.3255 98.3743 15.2526 98.4717C15.1309 98.6108 14.9681 98.6313 14.8162 98.7211C14.7707 98.7568 14.7207 98.7864 14.6675 98.8093C14.644 98.8171 14.6675 98.7838 14.6724 98.7776C14.4832 98.8821 14.3101 99.0132 14.1585 99.167C13.8989 99.433 13.5497 99.5937 13.1782 99.6182C13.0194 99.6227 12.8628 99.657 12.7167 99.7191C12.6054 99.7516 12.4961 99.7905 12.3894 99.8355C12.274 99.9064 12.1839 99.99 12.0623 100.053C11.9009 100.133 11.7223 100.157 11.5627 100.238C11.3496 100.336 11.11 100.361 10.8812 100.309C10.7457 100.279 10.6084 100.258 10.4701 100.247C10.4084 100.239 10.3479 100.223 10.2901 100.2C10.2678 100.195 10.2473 100.182 10.2251 100.176C10.2141 100.173 10.211 100.208 10.1998 100.203C9.99123 100.14 9.91208 99.9318 9.81879 99.7632C9.70643 99.563 9.46464 99.4635 9.29842 99.3136C9.14664 99.132 8.97014 98.9723 8.77404 98.8394C8.66013 98.7523 8.52545 98.6963 8.38324 98.6768C8.19391 98.6837 8.00926 98.7374 7.84586 98.833C7.71469 98.9054 7.58822 98.9591 7.46331 99.041C7.33821 99.1259 7.1892 99.1689 7.03792 99.1637C6.84012 99.118 6.64855 99.0487 6.46736 98.9573C6.29326 98.8798 6.12426 98.7914 5.96137 98.6926C5.79806 98.5957 5.61225 98.543 5.42225 98.5396C5.24098 98.523 5.05837 98.5277 4.87822 98.5538C4.80956 98.5714 4.74834 98.6104 4.70346 98.6652C4.65857 98.7199 4.63234 98.7875 4.62861 98.8581C4.59961 99.0039 4.5943 99.1534 4.61282 99.3008C4.66331 99.4634 4.88297 99.61 4.99375 99.7283C5.18975 99.9577 5.41028 100.165 5.65145 100.347C5.83341 100.459 5.9708 100.631 6.04044 100.833C6.08487 100.913 6.10986 101.002 6.1134 101.093C6.11694 101.183 6.09892 101.274 6.06081 101.357C5.96913 101.502 5.87119 101.439 5.73345 101.447C5.57088 101.456 5.41203 101.499 5.26719 101.573C5.20225 101.612 5.21202 101.637 5.13606 101.606C5.0536 101.573 4.97784 101.461 4.92424 101.396C4.67615 101.095 4.41034 100.811 4.14165 100.527L2.06557 97.5919L0.18457 96.1321L1.10288 93.8286L0.54045 92.6922L0.418838 88.9478L1.28662 88.7967L3.2615 87.5229L3.3054 86.4018L5.10145 85.6592L6.51309 86.8559L7.46352 87.018L7.46503 87.0197L9.03805 88.5221L9.50771 88.6656L11.7558 90.6111C11.7558 90.6111 13.8205 92.0031 13.8664 92.0031C13.8884 91.9889 15.0584 92.0724 15.0584 92.0724C15.5267 92.3984 15.973 92.7549 16.3942 93.1396C16.7737 93.5324 15.6036 94.2748 14.8481 94.2528C14.609 94.2308 14.3684 94.2754 14.1531 94.3817C13.9379 94.488 13.7565 94.6518 13.6291 94.8548C13.4521 95.0868 11.9548 95.1894 11.5739 95.2396C11.1914 95.2917 12.2618 96.0976 12.4435 96.3088C12.6268 96.5181 12.6489 97.3284 12.8766 97.4311C13.1043 97.5337 13.4001 97.0448 13.4459 96.9141C13.4917 96.7847 13.9186 97.0055 14.1809 97.0859C14.4434 97.1646 15.4852 96.9773 15.9185 97.0166C16.1223 97.0278 16.3261 96.9973 16.5176 96.9269Z" fill="white" fill-opacity="0.5"/>
<path d="M47.7959 111.444C47.3184 111.582 46.555 112.171 45.9525 112.625C45.4769 112.985 44.7434 113.434 44.4554 113.607C44.4238 113.587 44.3904 113.567 44.359 113.544C44.0995 113.331 43.892 113.061 43.7521 112.756C43.6082 112.515 43.3899 112.154 43.0721 112.143C42.805 112.134 42.4078 112.298 42.4459 112.616C42.5041 112.823 42.6172 113.011 42.7735 113.159L41.4073 113.273L39.7124 112.636L39.4596 112.695L39.4943 113.59L40.2468 114.317V114.524L38.949 116.406L36.1237 114.943L35.7711 114.148L34.1665 113.387C34.1665 113.387 34.1474 113.368 34.1125 113.332C33.7444 112.947 31.5625 110.666 31.4789 110.708C31.3871 110.752 28.3705 109.367 27.4252 109.037C26.8425 108.797 26.3036 108.463 25.83 108.048C25.5851 107.847 25.4318 107.698 25.4318 107.698C25.4318 107.698 25.0792 106.324 24.9762 105.687C24.8738 105.051 23.1664 104.132 23.1664 104.132L23.2912 100.566L23.7003 99.68L24.7375 99.5226L24.9762 98.5797L24.6239 98.0341V97.7175L24.5212 97.41L24.6239 96.2181L23.827 95.5577L23.7701 94.9791L23.2689 94.3673L23.1775 93.2873L20.798 89.9958L20.888 88.1996L20.0121 87.4777C20.0121 87.4777 19.4999 85.4642 19.4194 85.0435C19.3397 84.6941 19.1329 84.3867 18.839 84.1807C18.6547 83.9466 18.5275 83.6731 18.4673 83.3817L20.273 82.4579L19.6136 78.8853L20.6541 78.1805L20.5701 77.5374L20.9195 77.348L21.5707 77.8479L22.0277 77.6665L21.8523 76.645L22.4134 76.5078L23.9251 77.9018L28.0019 77.1968L29.0045 77.7803C29.0045 77.7803 29.7776 80.429 30.0968 80.733C30.4163 81.0358 31.8423 81.8904 32.3353 82.6627C32.8283 83.435 34.2802 85.6298 34.2802 85.6298L39.1082 90.574L37.4454 93.776L38.5379 94.9789L38.7435 96.7966L37.1941 97.7725L40.4416 101.328L42.672 101.928C42.672 101.928 43.3106 104.065 43.3106 104.098C43.3106 104.132 46.3164 106.937 47.17 107.664C48.0237 108.39 48.3668 109.22 48.4459 110.401C48.5249 111.581 48.2751 111.309 47.7959 111.444Z" fill="white" fill-opacity="0.5"/>
<path d="M80.3249 84.2203L76.9197 88.2359L77.0411 89.9779L77.6343 91.616L76.7379 91.9045L76.3269 92.7828L73.6976 93.8596L73.6218 95.6788L72.2687 97.6781L72.2984 98.9518L70.5495 100.847L69.3957 101.135L67.4812 105.121L65.8402 105.561L64.4109 106.789L64.1518 109.518C64.0871 109.647 64.0442 109.785 64.0251 109.928C63.9875 110.081 63.9621 110.238 63.9321 110.395C63.897 110.611 63.8738 110.83 63.8626 111.049H63.8356C63.6936 111.035 63.5506 111.034 63.4084 111.046C63.277 111.099 63.1705 111.2 63.1099 111.328C63.0731 111.442 63.043 111.559 63.0197 111.677C62.9813 111.793 62.9348 111.906 62.8806 112.016C62.7598 112.241 62.5896 112.437 62.3827 112.588C62.2687 112.653 62.141 112.692 62.0096 112.7C61.8782 112.708 61.7467 112.686 61.6254 112.635C61.3329 112.547 60.9836 112.529 60.9172 112.178C60.876 111.955 60.9566 111.61 60.8221 111.416C60.7952 111.377 60.7607 111.344 60.7205 111.319C60.6804 111.294 60.6355 111.278 60.5887 111.27C60.5419 111.263 60.4941 111.266 60.4483 111.278C60.4025 111.29 60.3597 111.311 60.3225 111.34C60.2198 111.424 60.3162 111.665 60.3716 111.769C60.4474 111.913 60.566 112.044 60.6339 112.19C60.6986 112.326 60.6275 112.469 60.7256 112.602C60.7721 112.66 60.8223 112.715 60.8758 112.767C60.8758 112.764 60.8885 112.769 60.9026 112.789C61.0639 112.983 61.1335 113.217 61.3563 113.346C61.4698 113.407 61.568 113.492 61.6438 113.596C61.7196 113.7 61.771 113.82 61.7941 113.946C61.8127 114.084 61.8003 114.224 61.7579 114.357C61.7155 114.489 61.6442 114.611 61.549 114.713C61.4798 114.864 61.384 115.002 61.266 115.119C61.1695 115.194 61.0556 115.261 60.9547 115.328C60.8348 115.391 60.7014 115.425 60.5657 115.427C60.4534 115.436 60.3034 115.403 60.2035 115.46C60.1022 115.55 60.0218 115.662 59.9681 115.786C59.9419 115.843 59.9217 115.903 59.9079 115.964C59.9015 116.003 59.8983 116.042 59.8983 116.081C59.8974 116.087 59.8968 116.093 59.8967 116.098C59.8955 116.106 59.895 116.114 59.8953 116.122C59.8629 116.275 59.8548 116.433 59.8714 116.589C59.8824 116.628 59.9379 117.027 59.8967 117.005C59.7006 116.901 59.5821 116.7 59.372 116.622C59.119 116.524 59.1269 116.836 59.092 117.011C59.0537 117.236 59.0452 117.464 59.0668 117.691C59.0747 117.79 59.0698 117.888 59.0732 117.986C59.0764 118.118 59.1268 118.246 59.1427 118.377C59.171 118.555 59.1525 118.738 59.0889 118.908C58.9394 118.87 58.7984 118.804 58.673 118.714C58.5844 118.664 58.5199 118.575 58.4216 118.539C58.3275 118.522 58.2308 118.527 58.1388 118.553C57.9484 118.554 57.7628 118.494 57.6092 118.381C57.4131 118.279 57.2486 118.574 57.0875 118.467C57.0179 118.391 56.9722 118.296 56.9562 118.195C56.9401 118.093 56.9544 117.989 56.9973 117.896C57.1333 117.655 57.3023 117.844 57.4619 117.94C57.6359 118.044 57.8666 118.262 58.0799 118.235C58.1718 118.22 58.3188 118.156 58.3062 118.041C58.2952 117.935 58.1592 117.897 58.0738 117.877C57.7275 117.787 57.201 117.561 57.4207 117.13C57.6548 117.049 57.9457 117.2 58.1433 117.005C58.1915 116.948 58.2239 116.879 58.2374 116.805C58.251 116.731 58.2452 116.655 58.2207 116.584C58.1845 116.453 58.099 116.193 57.9599 116.135C57.6974 116.028 57.8381 116.529 57.6755 116.598C57.5536 116.65 57.4573 116.519 57.3986 116.434C57.3071 116.297 57.2535 116.179 57.0747 116.224C56.975 116.251 56.815 116.269 56.7947 116.387C56.7661 116.532 56.9024 116.603 57.0019 116.664C57.2627 116.834 57.1932 117.088 57.0415 117.304C56.9692 117.416 56.9113 117.537 56.8692 117.664C56.836 117.76 56.8468 117.984 56.7347 118.025C56.6177 118.066 56.4518 117.894 56.3521 117.851C56.2113 117.79 56.0642 117.749 55.9237 117.686C55.8719 117.671 55.8253 117.641 55.7893 117.601C55.7533 117.561 55.7292 117.512 55.7198 117.459C55.7179 117.403 55.7023 117.348 55.6745 117.299C55.6467 117.25 55.6074 117.209 55.5601 117.178C55.4473 117.131 55.3419 117.069 55.2469 116.992C54.9994 116.785 54.7761 116.551 54.5814 116.294C54.5308 116.214 54.4502 116.092 54.3522 116.19C54.2702 116.272 54.3665 116.607 54.1498 116.56C54.028 116.533 53.9934 116.27 53.8447 116.402C53.7609 116.476 53.8068 116.751 53.6375 116.697C53.5694 116.657 53.5071 116.608 53.4526 116.551C53.3979 116.491 53.354 116.422 53.3229 116.347C53.3009 116.3 53.1269 115.789 53.0131 116.009C52.9703 116.09 53.1173 116.445 52.9641 116.445C52.8281 116.445 52.7523 116.142 52.6986 116.056C52.5878 115.868 52.5154 115.975 52.3698 116.067C52.2984 116.111 52.2667 116.176 52.2069 116.221C52.1495 116.258 52.0818 116.276 52.0136 116.272C51.9453 116.268 51.8801 116.243 51.8274 116.199C51.734 116.125 51.6789 115.99 51.5333 116.038C51.4606 116.064 51.4084 116.15 51.3452 116.196C51.2768 116.259 51.1897 116.298 51.0969 116.308C50.9201 116.295 50.747 116.25 50.5863 116.176C50.4048 116.121 50.2117 116.118 50.0284 116.166C49.857 116.238 49.6911 116.321 49.532 116.417C49.5219 116.492 49.5045 116.567 49.4799 116.639C49.4529 116.679 49.4238 116.718 49.3928 116.756C49.271 116.942 49.3405 117.104 49.3391 117.3C49.3374 117.41 49.2505 117.542 49.1239 117.525C49.0288 117.513 48.9944 117.412 48.9673 117.335C48.9258 117.152 48.9015 116.965 48.8947 116.778C48.8973 116.581 48.8476 116.388 48.7507 116.217C48.6514 116.105 48.4679 116.07 48.3872 115.944C48.2701 115.767 48.2671 115.146 47.9258 115.32C47.7957 115.391 47.6812 115.488 47.5888 115.603C47.5665 115.633 47.5474 115.666 47.5319 115.7C47.5176 115.742 47.5429 115.785 47.5163 115.824C47.4276 115.955 47.2204 115.848 47.1051 115.838C47.0466 115.83 46.988 115.851 46.9281 115.842C46.8431 115.812 46.7614 115.774 46.6843 115.728C46.5295 115.664 46.4316 115.723 46.3002 115.807C46.2455 115.841 46.1839 115.862 46.1199 115.869C46.0558 115.877 45.991 115.869 45.9301 115.848C45.8692 115.827 45.8137 115.793 45.7678 115.748C45.722 115.703 45.6868 115.648 45.6649 115.588C45.5428 115.321 45.7545 115.015 45.6219 114.75C45.5407 114.62 45.4435 114.5 45.3325 114.394C45.2427 114.29 45.1589 114.181 45.0639 114.082C44.8804 113.9 44.6761 113.741 44.4552 113.607C44.7432 113.434 45.4766 112.985 45.9523 112.625C46.5548 112.171 47.3182 111.582 47.7957 111.444C48.275 111.309 48.5246 111.582 48.4456 110.4C48.3665 109.219 48.0233 108.391 47.1697 107.664C46.3162 106.937 43.3103 104.132 43.3103 104.098C43.3103 104.065 42.6717 101.928 42.6717 101.928L40.4413 101.328L37.1938 97.7724L38.7432 96.7966L39.7234 97.9995H41.5669L42.1596 97.183L43.3201 97.1149L43.799 97.5235L46.782 97.205L48.787 96.7055L49.2425 97.4998L50.2208 97.6369L52.02 94.5707L51.383 92.8222L51.5426 90.1203L53.2498 88.6883L53.4556 87.1451L54.526 85.4642L55.9155 82.0339L56.7123 80.7095C56.7345 80.7095 61.4948 80.6492 61.4948 80.6492L61.9343 81.8222C61.9343 81.8222 63.0364 81.868 63.5438 81.458C64.0527 81.0498 64.5918 80.3607 64.5162 79.9823C64.44 79.6041 64.342 79.1959 64.342 79.1959L65.2607 79.0966L67.112 77.9914L67.2036 76.9319L69.466 76.1372L70.7099 76.8262L74.0127 76.4478L74.961 76.8719L75.9716 76.7727C75.9716 76.7727 77.026 77.4772 77.679 77.5671C78.332 77.6586 78.6512 77.7641 78.6353 77.9771C78.6213 78.1881 78.6813 78.4611 78.12 79.1876L78.5453 79.642L80.0867 78.6958C80.0424 79.1832 80.0332 79.6797 80.0332 79.8987C80.0332 80.2284 79.8401 81.4551 79.8401 81.4551L80.3237 82.1928L80.3249 84.2203Z" fill="white" fill-opacity="0.5"/>
<path d="M51.9526 67.394C52.1726 67.2648 52.9928 65.8647 53.1745 65.4567C53.3563 65.0466 52.5073 64.2756 52.3319 64.2001C52.158 64.1244 51.2696 63.4574 51.2696 63.4574L48.8096 64.9679C48.2235 63.8502 47.5578 62.7759 46.8175 61.7533C46.8175 61.7533 46.3734 61.8794 45.6206 61.3337C44.8698 60.7882 43.6968 60.0505 43.3901 59.6076C43.0818 59.1645 41.7048 57.4618 40.8162 57.2915C39.9275 57.1213 39.6319 57.2237 39.2905 56.7571C39.0012 56.363 38.5303 55.7545 38.032 55.573C37.9466 55.5401 37.8563 55.522 37.7649 55.5194C37.1722 55.5085 37.1722 55.6518 36.7847 55.4106C36.6548 55.3051 36.5032 55.2293 36.3407 55.1887C36.1781 55.1481 36.0086 55.1437 35.8441 55.1757C35.4266 55.2215 34.5538 55.2058 34.2568 55.0086C34.0955 54.8608 33.9012 54.7535 33.69 54.6957C33.4788 54.6378 33.2568 54.631 33.0424 54.6759C32.4278 54.8054 31.3494 55.108 30.6807 54.9788C29.8757 54.9097 29.1171 54.5739 28.5258 54.0249C27.5235 53.1927 25.5124 51.7987 25.3907 51.3228C25.2689 50.8451 25.2833 50.4666 25.0113 50.2397C24.7376 50.0126 23.9332 49.6184 23.7813 49.0809C23.6295 48.5446 23.0668 46.0145 23.0668 46.0145L22.839 45.1599L20.4946 41.4503L19.6961 41.2013L18.8773 41.9738L17.6251 41.526L16.5769 39.9448L15.2505 39.604L15.1619 43.7947L15.6806 46.0837L15.527 46.0996C13.7184 45.9483 11.8796 46.9935 11.8796 46.9935L7.33581 47.1905L4.96459 52.3585L4.76542 56.8297L5.54167 59.483L4.69126 60.0743V61.1953L3.04853 62.4832L2.93808 63.8039C2.93808 64.0736 2.92216 64.3448 2.90485 64.6159C2.89849 64.709 2.87784 64.8083 2.87158 64.9029C2.93511 64.9284 2.99294 64.9663 3.04176 65.0142C3.09059 65.0621 3.12943 65.1191 3.15607 65.182C3.21461 65.3129 3.29388 65.4265 3.35202 65.5572C3.43286 65.8167 3.4808 66.0852 3.49471 66.3566C3.50998 66.6269 3.49613 66.8981 3.4534 67.1654C3.44853 67.3608 3.43931 67.5594 3.43931 67.7549C3.44878 67.9236 3.43921 68.0929 3.41077 68.2594C3.36233 68.5506 3.35005 68.8466 3.37419 69.1407C3.36871 69.3128 3.38469 69.4849 3.42176 69.653C3.4661 69.8391 3.51501 70.0284 3.55152 70.2192C3.57311 70.409 3.62488 70.5942 3.70486 70.7678C3.77752 70.8776 3.83893 70.9943 3.88822 71.1163C3.94054 71.2768 3.99722 71.4346 4.05261 71.5954C4.10182 71.7256 4.16549 71.8499 4.24244 71.966C4.40345 72.1894 4.55024 72.4226 4.68195 72.6643C4.7551 72.8399 4.8045 73.0245 4.82882 73.2131C4.84144 73.3075 4.84143 73.3548 4.91749 73.4179C4.96619 73.4548 5.02055 73.4836 5.07847 73.5031C5.1352 73.5209 5.19029 73.5436 5.24311 73.5709C5.3858 73.656 5.52929 73.7348 5.67483 73.8154C5.91494 73.9446 6.13154 74.0912 6.38143 74.2047L8.59792 74.6555L8.77978 76.3221L7.63983 77.3672L9.28087 79.612L9.23503 81.3845L7.077 82.2041L6.14895 84.0519L6.81946 85.7971L7.82171 86.4939L7.83594 87.03L8.74974 87.4778L10.6184 86.6988L11.4755 85.1997L13.9652 83.7839L14.8759 83.7382L16.3337 82.9054L18.4677 83.3818L20.2734 82.458L19.6141 78.8854L20.6545 78.1807L20.5706 77.5375L20.9199 77.3482L21.5711 77.848L22.0282 77.6667L21.8528 76.6451L22.4138 76.508L23.9255 77.9019L28.0023 77.1969L29.005 77.7804C29.005 77.7804 29.778 80.4292 30.0972 80.7332C30.4167 81.036 31.8428 81.8906 32.3358 82.6629C32.8288 83.4351 34.2806 85.63 34.2806 85.63C34.8352 85.4182 35.3299 85.0751 35.7221 84.6303C36.1935 83.9952 36.086 84.0632 36.383 84.0028C36.679 83.9429 37.3774 83.7164 37.5593 83.8282C37.7411 83.9429 38.0905 84.3056 38.394 84.1166C38.6975 83.9277 39.7379 83.2841 39.4879 83.1924C39.2367 83.1025 38.8874 82.8519 38.8413 82.625C38.8242 82.3577 38.7115 82.1054 38.5238 81.9139C38.3104 81.769 37.4994 81.0201 37.4075 80.5883C37.3157 80.1577 37.1498 79.4988 37.5133 79.1724C37.8787 78.8477 38.6296 78.8556 38.949 78.3257C39.2683 77.7958 39.6919 77.1686 40.0271 77.1418C40.3607 77.1134 42.0223 77.1671 42.3795 77.0236C42.7368 76.8801 43.0104 76.6909 43.3141 76.9164C43.6175 77.1435 45.0515 77.9993 45.5005 77.9773C45.9479 77.9534 46.3053 77.902 46.5628 78.1365C46.8206 78.37 46.8964 78.5828 47.3137 78.3397C47.731 78.0989 47.807 78.0152 47.8227 77.7644C47.8372 77.5153 47.747 77.1371 48.1502 77.0236C48.5515 76.9101 48.5059 76.713 48.8014 76.902C49.0988 77.0914 49.9335 77.4018 49.9795 77.5295C50.0257 77.6589 50.1994 78.0294 50.1994 78.0294C50.1994 78.0294 51.0942 77.9159 51.1179 77.9098C51.14 77.902 51.2093 77.197 51.6651 77.197C52.1209 77.197 52.705 77.1892 52.6133 77.0236C52.5219 76.8565 52.484 76.8864 52.4317 76.7429C52.3779 76.5994 52.3475 76.3565 52.1264 76.4103C51.9066 76.4623 51.9827 76.7888 51.6714 76.7349C51.3614 76.6829 50.1014 76.8485 50.1994 76.6218C50.2973 76.395 50.0018 75.9705 50.1772 75.8491C50.4366 75.6246 50.6847 75.3873 50.9203 75.1381V73.3298L51.8925 71.6917C51.5417 71.4024 51.1714 71.1375 50.7843 70.8987C50.7843 70.8987 51.2917 68.5969 51.3757 68.1287C51.4011 67.9673 51.4674 67.8152 51.5684 67.6866C51.6693 67.558 51.8016 67.4573 51.9526 67.394ZM29.4445 72.6171C29.103 72.9435 28.8531 72.3302 28.6998 72.2845C28.5481 72.2387 28.4342 72.406 28.2225 72.5037C28.0105 72.603 27.8508 72.2168 27.669 72.1253C27.4856 72.0355 27.4019 72.3759 27.0603 72.4281C26.7189 72.4817 26.703 72.0119 26.6968 71.7391C26.6889 71.4664 26.7711 71.0818 26.9846 71.0045C27.3467 70.8475 27.6499 70.5804 27.8508 70.2414C28.1086 69.8095 28.1844 69.8694 28.6016 69.8395C29.0189 69.8095 28.6317 70.2319 28.3742 70.5363C28.115 70.8389 28.7379 71.2992 28.9116 71.3371C29.0872 71.3766 29.1251 71.2551 29.1251 71.0503C29.1251 70.8454 29.1946 70.7696 29.5663 70.7696C29.938 70.7696 30.1053 70.9445 30.0973 71.4665C30.0895 71.9897 29.4445 72.6171 29.4445 72.6171ZM29.6864 68.0672C29.3986 67.9694 28.9574 67.7944 29.1488 67.416C29.3384 67.0378 31.0586 66.2353 31.1803 66.6436C31.3037 67.0519 30.9242 67.0912 31.0917 67.2805C31.2578 67.4696 31.7985 67.424 31.7226 67.6053C31.6453 67.7881 31.2957 67.7424 31.1141 67.9693C31.0767 68.0124 31.0561 68.0676 31.0561 68.1246C31.0561 68.1817 31.0767 68.2368 31.1141 68.28C31.1594 68.3531 31.1829 68.4376 31.1819 68.5235C31.181 68.6095 31.1556 68.6935 31.1087 68.7656C31.0618 68.8377 30.9953 68.8951 30.917 68.9311C30.8387 68.9671 30.7518 68.9802 30.6664 68.9688C30.1195 68.9312 29.9757 68.165 29.6864 68.0672ZM33.6798 71.2771C33.5554 71.6383 33.4867 72.0162 33.476 72.398C33.5059 72.8221 33.5059 73.4196 33.1709 73.314C32.8372 73.2068 31.8806 72.5416 31.5551 72.4123C31.2279 72.2846 30.4987 71.5356 31.1898 71.3764C31.8809 71.2173 32.0184 71.0123 32.0862 71.2093C32.154 71.4063 32.5194 71.6949 32.7532 71.4064C32.9888 71.1179 33.8097 70.558 33.6798 71.2771ZM46.002 75.8193C45.5609 75.9186 45.2495 75.5542 44.9998 75.5087C44.7483 75.4645 44.157 75.381 43.9815 75.1303C43.8077 74.8811 43.2005 74.8354 42.9333 74.8196C42.7921 74.8083 42.6578 74.7535 42.5491 74.6629C42.4404 74.5722 42.3626 74.4501 42.3265 74.3135C42.2283 74.0031 41.0742 73.2007 41.4315 72.9498C41.7886 72.7008 42.995 73.7759 43.2148 74.0171C43.3094 74.0908 43.4188 74.1431 43.5356 74.1706C43.6524 74.1981 43.7738 74.2001 43.8914 74.1764C44.4146 74.2741 44.9918 73.7002 45.4015 73.6847C45.8109 73.6704 46.1838 74.6999 46.3198 74.919C46.4574 75.1382 47.4819 75.4708 47.4819 75.6537C47.4817 75.8348 46.4415 75.7215 46.0018 75.8193L46.002 75.8193Z" fill="white" fill-opacity="0.5"/>
<path d="M39.4548 52.5968C39.4552 52.7666 39.4188 52.9345 39.3481 53.089C39.2775 53.2435 39.1742 53.3811 39.0454 53.4922C38.7768 53.6689 38.2598 54.1292 38.2487 54.5153C38.2085 54.8737 38.136 55.2278 38.032 55.5732C37.9466 55.5404 37.8563 55.5223 37.7649 55.5197C37.1722 55.5087 37.1722 55.652 36.7847 55.4109C36.6548 55.3053 36.5032 55.2295 36.3407 55.1889C36.1781 55.1483 36.0086 55.1439 35.8442 55.1759C35.4266 55.2217 34.5538 55.206 34.2568 55.0089C34.0955 54.8611 33.9012 54.7538 33.69 54.6959C33.4788 54.638 33.2568 54.6313 33.0424 54.6762C32.4278 54.8056 31.3494 55.1082 30.6807 54.979C29.8757 54.9099 29.1171 54.5742 28.5258 54.0251C27.5235 53.1929 25.5125 51.799 25.3908 51.323C25.269 50.8453 25.2833 50.4669 25.0113 50.24C24.7377 50.0129 23.9332 49.6186 23.7814 49.0811C23.6295 48.5448 23.0668 46.0147 23.0668 46.0147L22.8391 45.1601L20.4946 41.4505L19.6961 41.2015L18.8774 41.974L17.6251 41.5262L16.5769 39.945L15.2505 39.6042L15.2536 39.4594L14.7983 36.899L15.6188 31.928L17.8683 30.1229L19.1598 30.1987L19.2513 28.6977L17.9281 27.4255L17.6548 26.3029L26.38 21.2406L28.5679 20.6493L28.4306 19.847L27.6876 17.8605L29.6478 17.3008L30.8037 17.7094L32.0938 17.3008L33.1132 19.0287C33.1132 19.0287 34.8461 19.7712 34.8461 19.8171C34.8461 19.8612 34.9378 20.711 34.9378 20.711L34.2689 21.7878L34.7844 23.8941L36.7006 24.7722L36.7464 25.9247L37.3266 26.1628C37.3162 26.4687 37.3667 26.7736 37.4752 27.0598C37.3072 27.5653 37.2558 28.102 37.325 28.63C37.4232 29.6078 37.9005 30.9475 37.9575 31.8227C38.0142 32.696 37.9575 35.7499 37.9575 35.7499L39.3931 36.8408L39.6428 37.976L39.3123 39.8267L38.3212 39.7591L36.8411 40.4748L36.2833 43.7115C35.9367 44.0516 35.6549 44.4517 35.4517 44.8922C34.9172 45.8573 33.7442 47.924 33.7442 47.924C33.7442 47.924 34.3701 48.7866 34.1884 49.0199C34.1443 49.0704 34.1114 49.1297 34.092 49.1939C34.0726 49.258 34.067 49.3256 34.0757 49.392C34.0844 49.4585 34.1071 49.5223 34.1423 49.5793C34.1776 49.6364 34.2246 49.6853 34.2802 49.7229C34.6815 49.9078 35.0693 50.1206 35.4406 50.3598C35.8512 50.6342 36.3003 50.8462 36.7733 50.989C36.9836 50.9795 37.6553 51.0173 37.774 51.183C37.8957 51.3484 38.7037 51.9949 38.9819 52.0231C39.0514 52.0282 39.1191 52.0472 39.1809 52.0792C39.2427 52.1111 39.2974 52.1553 39.3416 52.2089C39.3859 52.2625 39.4187 52.3246 39.4381 52.3912C39.4576 52.4579 39.4633 52.5278 39.4548 52.5968Z" fill="white" fill-opacity="0.5"/>
<path d="M74.4323 26.7376C73.9652 28.0236 73.575 29.336 73.2638 30.668C73.1961 31.2309 72.3185 30.799 72.1475 30.7879C71.9764 30.7768 71.8694 31.0827 71.7602 31.3555C71.4843 31.9748 71.2576 32.6147 71.0823 33.2694C71.0556 33.9264 71.1211 34.5838 71.2769 35.2227C71.3559 35.6202 70.6443 35.937 70.2916 36.1531C69.9388 36.3691 69.1866 37.9314 68.9539 38.3443C68.3313 39.138 67.6457 39.8804 66.9036 40.5642C66.6079 40.8085 66.3978 40.5988 66.2665 40.4571C66.1351 40.3153 65.8567 40.4634 65.8329 40.5249C65.8113 40.588 65.5266 40.588 65.3781 40.6447C65.2296 40.7014 65.6514 41.5985 65.8002 41.8712C65.9471 42.1423 65.9297 42.3017 65.9645 43.4887C65.9879 43.7559 65.9479 44.0249 65.8478 44.2738C65.6642 44.6522 65.296 44.6365 64.9464 44.676C64.4453 44.6716 63.957 44.5179 63.5442 44.2346C63.5106 44.2111 63.4783 44.1858 63.4474 44.1589C63.2138 43.9492 63.1743 42.8015 63.0713 42.4044C62.8968 41.9139 62.5991 41.4764 62.2066 41.1335C61.9791 41.0137 61.9173 40.6732 61.8256 40.4636C61.7342 40.2522 60.5609 39.3727 60.4186 39.2764C60.2763 39.1801 59.7527 38.8222 59.5713 38.7387C59.2662 38.6817 58.9532 38.6811 58.648 38.7371C58.3458 38.7655 58.2842 38.3509 58.2275 38.0955C58.1436 37.833 57.9701 37.6082 57.7372 37.4601C57.5665 37.3624 57.3215 36.7554 57.048 36.5173C56.7685 36.2823 56.4538 36.0924 56.1154 35.9546C55.8638 35.8646 55.369 35.2277 55.1698 34.9834C54.9642 34.7326 54.671 34.5688 54.3492 34.5247C54.0473 34.4962 53.3013 33.7127 53.1478 33.5359C53.0352 33.4031 52.8776 33.3161 52.7049 33.2915C52.3899 33.128 52.0955 32.9279 51.8276 32.6954C51.6191 32.5252 51.3896 32.3822 51.1448 32.2698C50.8733 32.0957 50.6485 31.8582 50.4899 31.5778C50.4181 31.4865 50.3274 31.4118 50.224 31.3588C50.1206 31.3057 50.0069 31.2755 49.8907 31.2702C49.6132 31.0698 49.3694 30.8267 49.1685 30.5499C49.0148 30.3448 48.6624 30.3163 48.2689 30.3733C47.8224 30.362 47.3781 30.307 46.9424 30.2091C46.7082 30.1981 46.5375 30.6743 46.4476 30.8398C46.3559 31.0036 46.2768 31.0888 45.951 31.1567C45.627 31.2243 45.1606 30.9296 44.9157 30.7483C44.6707 30.5671 42.5299 30.9689 42.1205 31.0368C41.7094 31.1061 41.2081 29.4476 41.0501 29.1702C40.8904 28.891 40.5143 28.9085 40.0416 28.9257C39.5687 28.9414 38.8574 28.005 38.7263 27.8693C38.5003 27.5911 38.1771 27.4086 37.8217 27.3585C37.7434 27.3418 37.6705 27.3055 37.61 27.2532C37.5495 27.2008 37.5032 27.134 37.4756 27.059C37.3671 26.7727 37.3165 26.4678 37.3269 26.1619L38.5997 26.682L40.0967 24.4686L39.9086 23.2878L40.6232 22.6808L41.4438 23.1049L43.6635 22.9079L43.9212 21.21L43.1764 19.6649L41.7331 19.0579L41.2745 17.8298L40.0306 17.2086L39.7572 14.0099L38.5553 10.5698L38.4954 9.96412L35.3937 8.53908L35.3778 6.46116L34.1019 4.26481H33.5391L32.9638 5.27911C32.7565 5.25588 32.5524 5.21046 32.3549 5.14364C32.3549 5.09943 32.3091 4.17404 32.3091 4.17404L33.0979 4.02263L34.4055 2.47599L36.0482 2.20331L36.9302 0.141113L38.3436 0.232541L38.4955 0.899401L39.6656 0.945151L40.0969 1.44499V2.46031L40.8054 3.14442L40.2125 3.64425L40.7292 4.2797L41.5199 3.70255L44.7877 3.05156L47.0833 3.11282L48.1774 2.26482L50.0476 2.24906L50.914 2.90173L52.7353 3.52141L54.2562 7.82691L58.6956 10.4488L59.592 12.1609L68.2414 15.1485L70.7788 17.8301L72.3298 21.453L73.3939 22.6212L74.32 26.6823L74.4323 26.7376Z" fill="white" fill-opacity="0.5"/>
<path d="M97.0684 77.9493L97.0149 77.962L94.6462 79.7641L94.2893 80.6722L93.8575 81.3988C92.7032 81.8686 91.7845 83.1395 91.7845 83.1395V84.442L91.4053 86.094C91.4053 86.094 90.4645 86.206 90.0077 86.2358C89.5527 86.2673 88.9455 85.9489 88.4143 85.9489C87.8831 85.9489 87.1609 86.0197 87.1609 86.0197C86.9331 85.6672 86.6579 85.3474 86.343 85.0693L86.1757 84.7965L86.16 83.7494L86.8141 82.7497L85.6745 82.2043L85.2777 81.0366L83.6682 81.0979L81.4171 84.1438L80.3243 84.221V82.1935L79.8407 81.4557C79.8407 81.4557 80.0338 80.2291 80.0338 79.8993C80.0338 79.6804 80.043 79.1838 80.0873 78.6964V78.6949C80.1076 78.4643 80.1404 78.2349 80.1855 78.0077C80.4252 77.0376 80.7422 76.0881 81.1335 75.1683C81.338 74.768 81.3816 74.3051 81.2556 73.8739C81.1137 73.482 81.0022 73.0799 80.922 72.6711C80.8901 72.433 80.8236 72.2009 80.7244 71.9821C80.6482 71.7851 80.4636 71.7015 80.582 71.361C80.7004 71.0204 81.0122 70.5364 80.7781 70.2401L78.5459 67.4622C78.5459 67.4622 79.1452 65.9785 79.1227 65.5844C79.0988 65.1919 79.0469 64.4414 79.2891 64.2145C79.7083 63.907 80.1448 63.6237 80.5966 63.3662C80.5814 63.7454 80.6255 64.1247 80.7274 64.4903C80.8262 64.6258 80.9601 64.7319 81.1148 64.7972C81.2695 64.8625 81.4391 64.8844 81.6054 64.8608C82.2139 64.8324 83.1657 64.8434 83.6715 65.2627C84.1789 65.6838 84.8447 66.524 85.4879 66.6029C87.0759 66.9794 88.6341 67.471 90.1503 68.0738C91.0735 68.4869 91.4308 69.0387 91.9271 69.0607C92.4224 69.0844 92.9691 69.272 93.037 69.0041C93.1068 68.7375 93.0829 68.3291 93.4133 68.5911C93.7437 68.8511 94.1706 69.4312 94.4268 69.5164C94.6829 69.6016 95.0592 70.0381 94.9044 70.147C94.7508 70.2542 94.5978 70.2132 94.3809 70.754C94.1644 71.293 93.733 72.0418 93.8403 72.1665C94.0892 72.5646 94.19 73.0372 94.1249 73.5018C94.0002 74.0174 93.6632 74.8293 94.0061 74.9161C94.3461 74.9996 96.6352 76.2499 96.6352 76.2499L97.0684 77.9493Z" fill="white" fill-opacity="0.5"/>
<path d="M112.382 50.7815L109.826 53.9977C109.687 54.7997 109.472 55.5867 109.184 56.3483C108.751 57.4156 106.489 62.4652 106.489 62.4652L105.752 63.0328L105.533 64.6458L105.039 65.0918L105.706 66.2807L105.449 66.8024L105.852 67.0751L105.738 67.6127L105.866 67.9911L106.87 69.7836L105.433 70.4127L105.388 71.1079L104.476 71.0323L103.929 74.1695L105.038 74.5495L104.415 75.5648L104.612 75.8374L105.051 75.8675L105.03 76.5453L102.215 77.4094L101.067 76.9774L97.0677 77.9485L96.6343 76.2491C96.6343 76.2491 94.3452 74.9987 94.0052 74.9152C93.6623 74.8285 93.9993 74.0165 94.1241 73.501C94.1891 73.0364 94.0884 72.5637 93.8395 72.1657C93.7321 72.0411 94.1635 71.2921 94.38 70.7531C94.5969 70.2124 94.7499 70.2533 94.9036 70.1462C95.0583 70.0374 94.682 69.6005 94.4259 69.5156C94.1697 69.4306 93.7429 68.8502 93.4124 68.5902C93.082 68.3284 93.1059 68.7367 93.0361 69.0032C92.9682 69.2712 92.4215 69.0835 91.9262 69.0599C91.4298 69.038 91.0726 68.4861 90.1494 68.073C88.6333 67.4702 87.075 66.9785 85.487 66.602C84.8438 66.5232 84.178 65.683 83.6706 65.2618C83.1648 64.8426 82.213 64.8316 81.6045 64.8599C81.4382 64.8836 81.2686 64.8616 81.1139 64.7963C80.9592 64.7311 80.8253 64.625 80.7265 64.4895C80.6246 64.1238 80.5805 63.7446 80.5957 63.3654C80.5906 63.2393 80.5894 63.1556 80.5894 63.1556C80.527 62.7971 80.4895 62.4348 80.4773 62.0711C80.4371 61.3268 79.451 60.8507 79.4115 60.5891C79.3735 60.3368 79.8133 59.8575 79.8477 59.8212C79.8635 59.8225 79.8794 59.8215 79.895 59.818C80.2036 59.7551 80.6523 59.7203 80.6762 59.2899C80.702 58.8523 80.7564 58.4168 80.8392 57.9862C80.8392 57.9862 83.1599 58.1202 83.8207 58.1723C84.4816 58.2258 85.3004 57.7877 85.999 57.6804C86.6981 57.5748 87.0854 57.4156 88.132 56.8402C88.6946 56.5015 89.3538 56.3579 90.0068 56.4317C90.676 53.7375 91.1091 53.5546 91.1091 53.5546C91.5128 53.5915 91.9132 53.6574 92.3073 53.7517C93.0442 53.9188 92.7929 55.0838 92.8023 55.5159C92.7919 55.8859 92.8891 56.2511 93.082 56.5674C93.2876 56.9314 94.1525 56.7644 94.3201 56.9472C94.7924 57.2272 95.2874 57.4672 95.8 57.6646C96.0956 57.4101 96.419 57.1895 96.7641 57.0072C97.1198 56.8638 98.0621 55.183 98.2753 54.7968C98.4872 54.4107 99.6714 54.2137 100.286 54.1159C100.901 54.0164 102.116 52.5707 102.116 52.5707L103.034 52.7757L103.665 52.2144L104.067 52.2603C104.299 52.0195 104.569 51.8177 104.865 51.6626C105.422 51.3678 106.013 51.1438 106.625 50.9959C107.039 50.9233 108.781 49.6462 109.675 48.9731L111.651 49.7077L112.382 50.7815Z" fill="white" fill-opacity="0.5"/>
<path d="M109.675 48.9736C108.781 49.6467 107.039 50.9238 106.625 50.9964C106.013 51.1443 105.422 51.3683 104.865 51.6631C104.569 51.8182 104.299 52.02 104.067 52.2608L103.665 52.2149L103.034 52.7762L102.116 52.5713C102.116 52.5713 100.901 54.0169 100.287 54.1164C99.6715 54.2142 98.4872 54.4112 98.2754 54.7973C98.0622 55.1837 97.1199 56.8643 96.7641 57.0077C96.419 57.19 96.0956 57.4106 95.8 57.6651C95.2875 57.4677 94.7925 57.2277 94.3202 56.9477C94.1525 56.7649 93.2877 56.9319 93.082 56.5679C92.8891 56.2516 92.792 55.8864 92.8023 55.5164C92.793 55.0843 93.0443 53.9193 92.3074 53.7522C91.9133 53.6579 91.5128 53.592 91.1092 53.5551C91.1092 53.5551 90.676 53.738 90.0069 56.4322C89.3539 56.3584 88.6947 56.502 88.1321 56.8407C87.0857 57.4161 86.6983 57.5753 85.9991 57.6809C85.3003 57.7882 84.4817 58.2263 83.8208 58.1728C83.1599 58.1209 80.8392 57.9867 80.8392 57.9867C80.8533 57.9144 80.8728 57.8432 80.8976 57.7738C80.9937 57.5358 81.1822 56.3597 80.6763 55.8772C80.1688 55.3946 77.6295 54.2596 77.6295 54.2596C77.6961 54.0098 77.8018 53.772 77.9427 53.555C78.1308 53.317 79.002 51.403 78.9342 50.6887C78.8661 49.973 78.7241 49.5078 77.8461 49.2792C76.969 49.0522 76.1042 48.513 75.393 48.4564C74.6819 48.3997 73.331 48.264 73.3138 48.253C73.0577 47.4845 72.5353 46.8322 71.8403 46.4132C70.7354 45.8282 70.8255 45.5208 69.9558 45.4987C69.6375 45.4577 69.314 45.4896 69.01 45.592C68.7059 45.6944 68.4293 45.8647 68.2011 46.0897L65.8471 44.2735C65.9472 44.0246 65.9872 43.7556 65.9638 43.4884C65.929 42.3014 65.9464 42.1422 65.7995 41.8709C65.6508 41.5982 65.2288 40.7012 65.3774 40.6444C65.5261 40.5876 65.8106 40.5876 65.8322 40.5246C65.8562 40.4631 66.1347 40.3149 66.2658 40.4567C66.397 40.5986 66.6073 40.8082 66.9029 40.5639C67.645 39.8801 68.3307 39.1377 68.9532 38.344C69.1858 37.9311 69.9386 36.3687 70.2909 36.1527C70.6432 35.9368 71.3552 35.6201 71.2763 35.2224C71.1205 34.5835 71.0549 33.9261 71.0816 33.2691C71.257 32.6144 71.4836 31.9745 71.7595 31.3552C71.8688 31.0824 71.9762 30.7766 72.1468 30.7876C72.3174 30.7986 73.1954 31.2305 73.2631 30.6677C73.5743 29.3357 73.9645 28.0233 74.4316 26.7373L75.7784 27.3948L76.1282 28.3187L78.9866 29.7439L80.4156 33.1382L82.1465 34.0321L83.0748 33.594L84.0309 33.6081L84.8674 34.5035L85.734 34.4121L85.9473 33.5183L87.8176 33.2755L88.88 37.1256L88.5464 37.9896L89.0793 39.0805L90.0829 39.4288V40.5828L91.4505 40.9297C91.5405 40.742 91.6419 40.5598 91.754 40.3843C91.9843 40.3971 92.2133 40.4277 92.4388 40.4758L92.9085 42.0665L93.6086 42.0964C93.6086 42.0964 94.2013 40.9914 94.2459 40.9914H99.0488L100.312 40.036L101.374 40.1131L101.558 41.3098L103.167 44.2342L104.644 44.7498L106.604 47.2201L109.355 48.4783L109.644 48.9624L109.675 48.9736Z" fill="white" fill-opacity="0.5"/>
<path d="M126.181 63.06L126.835 64.4695C126.835 64.4695 126.104 65.0765 126.118 65.0305C125.984 64.8117 125.832 64.6041 125.664 64.4095L125.436 64.4253L124.752 65.2876L124.342 65.3476L124.082 64.8336L123.368 64.6366L122.454 65.9245L121.893 65.1821L121.468 65.2576L121.484 66.3047L119.932 66.7272L119.948 67.0456L120.539 67.5013L120.647 69.0322L120.952 69.8188C120.952 69.8188 119.978 70.7916 119.721 71.5482C119.721 71.5482 117.668 72.3364 117.197 72.9735L116.71 72.4863L116.149 72.2907L115.328 73.0034L115.115 72.1692L114.187 71.7911L113.383 70.6702L112.714 70.8813L112.545 71.9881L109.735 70.9112L109.628 69.8958L109.233 69.7744L108.306 70.2285L106.891 69.7744L106.869 69.7839L105.865 67.9914L105.737 67.6129L105.851 67.0754L105.447 66.8027L105.705 66.281L105.038 65.0921L105.532 64.6461L105.751 63.0331L106.488 62.4655C106.488 62.4655 108.75 57.4159 109.183 56.3486C109.471 55.587 109.686 54.7999 109.825 53.9979L112.381 50.7817L112.971 51.6472L114.279 51.3728L120.724 54.0862L121.757 53.9649L121.984 54.8603L123.428 55.3145L123.901 56.5112L126.727 57.8607L127.184 60.5439L126.621 62.4832L126.181 63.06Z" fill="white" fill-opacity="0.5"/>
<path d="M110.601 80.7329L110.587 81.5808L109.324 81.8693L108.611 83.8701L107.684 83.9158L107.517 86.0679L108.641 88.0842L107.788 89.9477L106.421 89.6592L105.159 90.736L104.004 90.8431L103.656 93.1764L103.077 94.2533L102.408 94.4047L101.573 94.1916L100.19 94.6318L98.7292 93.905L96.4654 94.8887L96.2076 96.5269L95.264 96.6342L94.2759 95.9358L93.5628 97.0422H92.0262L90.9937 98.0735L90.0515 98.0422L88.3948 96.0727L87.3292 95.7085L86.3572 92.9938L85.6123 91.9344L86.3271 89.8125L85.9617 88.781L87.8776 87.7061C87.7413 87.1056 87.4984 86.5342 87.1603 86.019C87.1603 86.019 87.8825 85.9481 88.4137 85.9481C88.945 85.9481 89.5521 86.2666 90.0071 86.235C90.464 86.2052 91.4047 86.0933 91.4047 86.0933L91.7839 84.4412V83.1387C91.7839 83.1387 92.7026 81.8678 93.8569 81.398L94.2887 80.6714L94.6456 79.7634L97.0143 77.9613L97.0678 77.9486L101.067 76.9775L102.215 77.4094L105.03 76.5454L105.022 76.7615L107.441 78.6724L108.411 78.505L108.656 79.4588L110.601 80.7329Z" fill="white" fill-opacity="0.5"/>
<path d="M80.8985 57.774C80.8737 57.8434 80.8542 57.9146 80.8402 57.9869C80.7574 58.4175 80.703 58.853 80.6772 59.2906C80.6534 59.7211 80.2046 59.7558 79.896 59.8187C79.8804 59.8222 79.8645 59.8232 79.8487 59.8219C79.5545 59.8045 79.2385 59.1093 79.0536 58.9154C78.8605 58.7106 78.029 58.6191 77.022 58.5229C76.4046 58.4858 75.8061 58.2968 75.2799 57.9728C75.0128 57.8197 75.0284 58.2801 74.9381 58.5008C74.9024 58.5981 74.8439 58.6854 74.7675 58.7556C74.6911 58.8258 74.599 58.8768 74.4989 58.9044C74.2837 58.9785 74.1239 58.7563 74.0148 58.6711C73.8331 58.5974 73.6304 58.5934 73.446 58.6599C73.2575 58.7106 73.0822 58.6711 72.1652 58.608C71.2482 58.5465 70.9859 59.1425 70.6902 59.3474C70.3535 59.6128 69.9414 59.7655 69.5126 59.7839C68.9939 59.7905 67.7006 58.8808 67.1314 58.5465C66.5625 58.2106 64.3823 57.7678 64.3823 57.7678L61.8432 56.218L60.9482 56.27L60.3792 55.7702L60.1405 54.2029L59.23 53.4306L59.0242 50.4208C59.0242 50.4208 59.0242 48.6393 59.0022 48.6047C58.9785 48.5699 60.6418 47.3103 60.6418 47.3103L61.7798 47.0834L63.5445 44.2344C63.9573 44.5177 64.4456 44.6714 64.9467 44.6758C65.2962 44.6364 65.6644 44.652 65.848 44.2736L68.202 46.0898C68.4302 45.8648 68.7068 45.6946 69.0109 45.5922C69.3149 45.4897 69.6384 45.4578 69.9567 45.4988C70.8264 45.5209 70.7364 45.8283 71.8412 46.4133C72.5362 46.8323 73.0586 47.4846 73.3147 48.2531C73.3319 48.2641 74.6823 48.3997 75.3939 48.4565C76.1055 48.5134 76.9699 49.0524 77.847 49.2793C78.7251 49.5079 78.867 49.9731 78.9351 50.6888C79.0031 51.4031 78.1319 53.3171 77.9437 53.5551C77.8027 53.7721 77.697 54.0099 77.6305 54.2598C77.6305 54.2598 80.1697 55.3948 80.6771 55.8773C81.1831 56.3598 80.9947 57.5359 80.8985 57.774Z" fill="white" fill-opacity="0.5"/>
<path d="M63.5441 44.2349L61.7794 47.0839L60.6414 47.3108C60.6414 47.3108 58.9781 48.5705 59.0018 48.6053C59.0238 48.6398 59.0238 50.4213 59.0238 50.4213L57.794 49.8207L57.4065 48.911H54.8328L53.5807 47.5158L54.8896 46.5495L54.6622 46.1866L52.8189 45.7202L52.4537 44.9822L50.882 44.3579L49.573 46.3224L47.4434 44.8119C47.7219 44.05 47.8194 43.2341 47.7282 42.4282L45.2918 42.9263L42.5236 42.9846L41.0217 41.9503L41.2273 38.9754L39.6431 37.9757L39.3934 36.8405L37.9578 35.7496C37.9578 35.7496 38.0145 32.6959 37.9578 31.8224C37.9007 30.9473 37.4236 29.6074 37.3253 28.6298C37.2561 28.1018 37.3075 27.565 37.4755 27.0596C37.5032 27.1346 37.5494 27.2014 37.61 27.2538C37.6705 27.3061 37.7433 27.3424 37.8217 27.3591C38.1771 27.4092 38.5003 27.5917 38.7262 27.8699C38.8573 28.0056 39.5686 28.942 40.0415 28.9263C40.5142 28.909 40.8903 28.8915 41.05 29.1708C41.208 29.4482 41.7093 31.1067 42.1204 31.0374C42.5298 30.9695 44.6705 30.5676 44.9156 30.7489C45.1607 30.9303 45.627 31.2249 45.951 31.1573C46.2766 31.0894 46.3558 31.0042 46.4475 30.8404C46.5374 30.6749 46.7082 30.1987 46.9423 30.2097C47.378 30.3076 47.8223 30.3626 48.2688 30.3739C48.6624 30.317 49.0149 30.3454 49.1684 30.5504C49.3693 30.8272 49.6131 31.0704 49.8906 31.2708C50.0068 31.2761 50.1205 31.3063 50.2239 31.3594C50.3273 31.4124 50.418 31.4871 50.4899 31.5784C50.6484 31.8588 50.8732 32.0963 51.1448 32.2704C51.3896 32.3828 51.619 32.5258 51.8276 32.696C52.0954 32.9285 52.3899 33.1286 52.7049 33.2921C52.8776 33.3167 53.0352 33.4037 53.1478 33.5365C53.3012 33.7132 54.0473 34.4967 54.3492 34.5253C54.671 34.5694 54.9641 34.7332 55.1698 34.984C55.369 35.2284 55.8637 35.8652 56.1153 35.9552C56.4538 36.093 56.7685 36.2829 57.048 36.5179C57.3214 36.756 57.5664 37.363 57.7372 37.4607C57.9701 37.6088 58.1435 37.8336 58.2274 38.0961C58.2841 38.3515 58.3457 38.7661 58.6479 38.7377C58.9531 38.6817 59.2662 38.6823 59.5712 38.7393C59.7528 38.8228 60.2762 39.1808 60.4185 39.277C60.5608 39.3732 61.734 40.2528 61.8256 40.4642C61.9173 40.6738 61.979 41.0143 62.2065 41.1341C62.599 41.477 62.8968 41.9146 63.0712 42.405C63.1743 42.8021 63.2139 43.9498 63.4474 44.1595C63.4782 44.1864 63.5105 44.2115 63.5441 44.2349Z" fill="white" fill-opacity="0.5"/>
<path d="M61.0723 57.7678L59.787 57.6651L58.3625 58.5639C58.3625 58.5639 55.2766 58.3478 55.2432 58.3478C55.2085 58.3478 54.3309 58.7342 54.3309 58.7342H51.8947L51.7241 60.4038L50.7455 60.9146L51.2687 63.4575L48.8087 64.968C48.2227 63.8503 47.5569 62.776 46.8166 61.7533C46.8166 61.7533 46.3725 61.8795 45.6198 61.3338C44.8689 60.7883 43.6959 60.0506 43.3892 59.6077C43.0809 59.1646 41.7039 57.4619 40.8153 57.2916C39.9267 57.1214 39.631 57.2238 39.2896 56.7572C39.0003 56.3631 38.5294 55.7545 38.0311 55.573C38.135 55.2276 38.2076 54.8736 38.2478 54.5152C38.2588 54.1291 38.7758 53.6688 39.0445 53.492C39.1733 53.3809 39.2765 53.2434 39.3472 53.0889C39.4178 52.9343 39.4543 52.7665 39.4539 52.5966C39.4624 52.5277 39.4568 52.4578 39.4374 52.3911C39.4179 52.3244 39.3851 52.2624 39.341 52.2087C39.2968 52.155 39.2421 52.1109 39.1803 52.0789C39.1185 52.0469 39.0508 52.0278 38.9814 52.0227C38.7033 51.9945 37.8951 51.348 37.7735 51.1826C37.6548 51.0169 36.9831 50.9791 36.7728 50.9885C36.2998 50.8458 35.8506 50.6338 35.4401 50.3594C35.0687 50.1202 34.681 49.9074 34.2796 49.7225C34.224 49.6849 34.177 49.636 34.1418 49.5789C34.1065 49.5219 34.0838 49.458 34.0751 49.3916C34.0665 49.3251 34.072 49.2576 34.0914 49.1935C34.1109 49.1293 34.1437 49.07 34.1878 49.0195C34.3696 48.7861 33.7437 47.9236 33.7437 47.9236C33.7437 47.9236 34.9167 45.8569 35.4511 44.8918C35.6544 44.4513 35.9361 44.0512 36.2827 43.7111L36.8406 40.4744L38.3206 39.7587L39.3117 39.8263L39.6423 37.9756L41.2265 38.9753L41.0209 41.9502L42.5227 42.9845L45.291 42.9261L47.7274 42.428C47.8186 43.2339 47.7211 44.0499 47.4426 44.8118L49.5721 46.3222L50.8812 44.3577L52.4528 44.982L52.8182 45.7197L54.6617 46.1862L54.8891 46.549L53.5802 47.5153L54.8323 48.9106H57.4061L57.7936 49.8203L59.0234 50.4209L59.2292 53.4306L60.1397 54.203L60.3784 55.7703L60.9474 56.2701L61.0723 57.7678Z" fill="white" fill-opacity="0.5"/>
<path d="M81.1331 75.1679C80.7418 76.0877 80.4248 77.0372 80.1851 78.0074C80.14 78.2345 80.1072 78.4639 80.0869 78.6946V78.6961L78.5455 79.6423L78.1202 79.1879C78.6815 78.4613 78.6214 78.1882 78.6355 77.9773C78.6514 77.7644 78.3322 77.6588 77.6792 77.5674C77.0262 77.4774 75.9718 76.7729 75.9718 76.7729L74.9612 76.8722L74.013 76.4481L70.7101 76.8265L69.4662 76.1375L67.2039 76.9322L67.1122 77.9917L65.2609 79.0969L64.3422 79.1961C64.3422 79.1961 64.4403 79.6044 64.5164 79.9826C64.592 80.361 64.053 81.0501 63.544 81.4583C63.0366 81.8682 61.9345 81.8225 61.9345 81.8225L61.4951 80.6495C61.4951 80.6495 56.7348 80.7098 56.7126 80.7098C56.6888 80.7098 55.998 77.7805 55.9158 77.4618C55.8773 77.2335 55.7831 77.0182 55.6414 76.8348C55.4998 76.6515 55.3151 76.5057 55.1035 76.4104C54.4583 76.0618 54.6779 76.0003 54.131 75.4565C53.6389 74.9352 53.2965 74.2915 53.1395 73.5929C53.0668 73.1405 53.0524 73.0947 52.5594 72.3821C52.3672 72.1247 52.143 71.8927 51.8922 71.6916C51.5413 71.4023 51.1711 71.1374 50.7839 70.8986C50.7839 70.8986 51.2913 68.5968 51.3754 68.1286C51.4008 67.9672 51.4671 67.8151 51.5681 67.6865C51.669 67.5579 51.8013 67.4572 51.9522 67.3939C52.1722 67.2647 52.9925 65.8646 53.1742 65.4566C53.356 65.0465 52.5069 64.2755 52.3316 64.2C52.1576 64.1243 51.2693 63.4573 51.2693 63.4573L50.7461 60.9144L51.7247 60.4036L51.8953 58.734H54.3314C54.3314 58.734 55.2091 58.3476 55.2438 58.3476C55.2771 58.3476 58.3631 58.5637 58.3631 58.5637L59.7876 57.6649L61.0728 57.7676L60.9478 56.2698L61.8428 56.2178L64.3819 57.7676C64.3819 57.7676 66.562 58.2104 67.131 58.5463C67.7002 58.8806 68.9935 59.7904 69.5122 59.7837C69.941 59.7653 70.3531 59.6126 70.6898 59.3472C70.9854 59.1423 71.2478 58.5463 72.1648 58.6078C73.0818 58.6709 73.2571 58.7104 73.4456 58.6597C73.63 58.5932 73.8326 58.5972 74.0143 58.6709C74.1234 58.7561 74.2833 58.9783 74.4985 58.9042C74.5986 58.8766 74.6907 58.8256 74.7671 58.7554C74.8435 58.6852 74.902 58.5979 74.9377 58.5006C75.028 58.2799 75.0123 57.8195 75.2795 57.9726C75.8057 58.2966 76.4042 58.4856 77.0216 58.5227C78.0286 58.6189 78.8601 58.7104 79.0532 58.9152C79.2381 59.1091 79.5541 59.8043 79.8483 59.8217C79.8139 59.8582 79.3741 60.3373 79.4121 60.5896C79.4516 60.8512 80.4378 61.3274 80.4779 62.0716C80.4901 62.4353 80.5276 62.7976 80.59 63.1561C80.59 63.1561 80.5912 63.2398 80.5963 63.3659C80.1445 63.6234 79.708 63.9066 79.2888 64.2141C79.0466 64.4411 79.0986 65.1915 79.1224 65.5841C79.1449 65.9781 78.5456 67.4619 78.5456 67.4619L80.7778 70.2398C81.012 70.5361 80.7003 71.0201 80.5817 71.3606C80.4631 71.7012 80.6479 71.7847 80.7241 71.9817C80.8233 72.2006 80.8898 72.4327 80.9217 72.6707C81.0019 73.0796 81.1134 73.4817 81.2553 73.8735C81.3813 74.3048 81.3376 74.7677 81.1331 75.1679Z" fill="white" fill-opacity="0.5"/>
<path d="M56.7124 80.7099L55.9156 82.0343L54.526 85.4647L53.4557 87.1455L53.2499 88.6888L51.5427 90.1207L51.3831 92.8227L52.0201 94.5712L50.2209 97.6373L49.2425 97.5002L48.787 96.7059L46.7821 97.2054L43.7991 97.5239L43.3202 97.1153L42.1596 97.1834L41.5669 97.9999H39.7234L38.7432 96.797L38.5377 94.9793L37.4452 93.7762L39.1083 90.5744L34.2803 85.6302C34.8349 85.4184 35.3296 85.0753 35.7218 84.6306C36.1931 83.9955 36.0857 84.0634 36.3827 84.003C36.6786 83.9431 37.377 83.7167 37.5589 83.8284C37.7407 83.9431 38.0901 84.3059 38.3936 84.1169C38.6971 83.9279 39.7375 83.2843 39.4875 83.1927C39.2364 83.1027 38.887 82.8522 38.841 82.6253C38.8239 82.358 38.7112 82.1057 38.5234 81.9142C38.31 81.7692 37.499 81.0203 37.4072 80.5885C37.3153 80.158 37.1495 79.499 37.513 79.1727C37.8783 78.8479 38.6292 78.8559 38.9486 78.3259C39.268 77.796 39.6916 77.1688 40.0267 77.142C40.3603 77.1137 42.022 77.1673 42.3792 77.0238C42.7364 76.8803 43.01 76.6911 43.3137 76.9167C43.6171 77.1437 45.0511 77.9996 45.5001 77.9776C45.9476 77.9536 46.305 77.9022 46.5624 78.1367C46.8203 78.3702 46.896 78.5831 47.3133 78.3399C47.7307 78.0991 47.8067 78.0154 47.8224 77.7646C47.8368 77.5156 47.7466 77.1374 48.1498 77.0238C48.5511 76.9104 48.5055 76.7132 48.8011 76.9022C49.0984 77.0917 49.9331 77.4021 49.9791 77.5298C50.0253 77.6591 50.199 78.0296 50.199 78.0296C50.199 78.0296 51.0938 77.9161 51.1175 77.91C51.1397 77.9022 51.209 77.1972 51.6647 77.1972C52.1205 77.1972 52.7047 77.1894 52.613 77.0238C52.5215 76.8567 52.4836 76.8867 52.4313 76.7432C52.3775 76.5997 52.3472 76.3567 52.126 76.4106C51.9062 76.4625 51.9823 76.789 51.671 76.7351C51.3611 76.6831 50.101 76.8488 50.199 76.622C50.2969 76.3953 50.0014 75.9707 50.1768 75.8493C50.4363 75.6248 50.6843 75.3876 50.92 75.1383V73.33L51.8922 71.6919C52.143 71.893 52.3672 72.125 52.5594 72.3825C53.0524 73.095 53.0668 73.1409 53.1395 73.5932C53.2965 74.2919 53.6389 74.9355 54.131 75.4569C54.6778 76.0005 54.4583 76.0622 55.1035 76.4107C55.315 76.506 55.4998 76.6518 55.6414 76.8352C55.7831 77.0185 55.8773 77.2339 55.9157 77.4621C55.998 77.7807 56.6886 80.7099 56.7124 80.7099Z" fill="white" fill-opacity="0.5"/>
</g>
<defs>
<clipPath id="clip0">
<rect x="0.185547" y="0.141113" width="127" height="154" rx="5" fill="white"/>
</clipPath>
</defs>
</svg>
