<svg width="68" height="139" viewBox="0 0 68 139" fill="none" xmlns="http://www.w3.org/2000/svg">
<path d="M17.6659 4.56246C17.5332 4.73299 17.5266 4.96167 17.4925 5.17505C17.459 5.38479 17.3625 5.5838 17.2014 5.72215C17.1498 5.76645 17.0947 5.80677 17.0365 5.84267C16.8912 5.95417 16.9582 5.85383 16.7906 5.99875C16.6465 6.1453 16.5225 6.31029 16.4219 6.48939C16.3548 6.58973 16.0083 6.55628 15.8965 6.60089C15.7847 6.6455 15.7065 6.61202 15.6059 6.75697C15.5053 6.90191 15.4494 7.15835 15.36 7.25868C15.2706 7.35901 14.9353 7.582 14.8571 7.6489C14.7788 7.71581 14.7006 7.66006 14.6558 7.805C14.611 7.94995 14.544 8.26211 14.5217 8.34015C14.4993 8.41819 14.7229 8.8976 14.7229 9.02025C14.7229 9.08259 14.6702 9.29754 14.6185 9.50998C14.543 9.82006 14.5421 10.1403 14.6506 10.4404C14.6664 10.4839 14.683 10.5271 14.7006 10.57C14.7453 10.7038 14.6894 10.8822 14.79 11.0717C14.9105 11.2923 15.0437 11.5058 15.1888 11.711C15.2132 11.7455 15.2436 11.7753 15.2793 11.7978C15.3451 11.8393 15.4131 11.877 15.4832 11.9106C15.5213 11.929 15.5438 11.9735 15.5172 12.0066C15.5018 12.0258 15.4825 12.0416 15.4606 12.0528C15.3824 12.0974 15.2594 12.3093 15.3712 12.365C15.483 12.4208 15.6841 12.6549 15.6283 12.8221C15.5258 13.0809 15.5025 13.3641 15.5612 13.636C15.6506 13.9705 15.7177 14.3384 15.74 14.4834C15.7624 14.6284 15.8071 14.9182 15.8518 15.1189C15.8965 15.3196 15.7624 15.3865 15.9636 15.4868C16.0361 15.5117 16.1019 15.5528 16.1562 15.6069C16.2104 15.661 16.2515 15.7267 16.2765 15.799C16.3298 15.9102 16.3417 16.0366 16.3101 16.1558C16.2765 16.245 16.2206 16.2561 16.2094 16.1558C16.1983 16.0554 16.243 15.9885 16.12 15.9328C15.9971 15.877 15.8853 15.8882 15.8741 15.9439C15.8652 15.981 15.8593 16.0185 15.8563 16.0561C15.8371 16.2986 15.9763 16.5199 16.0703 16.7443C16.2764 17.2363 16.6065 18.0936 16.6565 18.2184C16.7236 18.3856 16.813 18.5083 16.6789 18.7089C16.511 18.9319 16.4137 19.1998 16.3995 19.4782C16.4106 19.757 16.5895 19.9799 16.8018 20.3925C16.9593 20.6578 17.0903 20.9379 17.193 21.2286C17.2318 21.3932 17.5487 23.3819 17.6315 23.9028C17.6448 23.9863 17.6556 24.0689 17.666 24.1527C17.6958 24.3935 17.7677 24.9091 17.8525 25.0528C17.9644 25.2424 18.0984 26.1231 18.199 26.2123C18.2996 26.3015 18.4114 26.3015 18.579 26.3461C18.7467 26.3907 19.0485 26.3573 19.0485 26.4687C19.0485 26.5801 19.0596 26.5802 18.9143 26.5802C18.769 26.5802 18.5008 26.4352 18.4896 26.5802C18.4575 26.8311 18.4804 27.0859 18.5567 27.3272C18.7011 27.7571 18.7948 28.2024 18.8361 28.6539C18.8509 29.0521 18.8359 29.4509 18.7914 29.8469C18.7577 30.0738 18.6669 30.9719 18.6242 31.4006C18.6089 31.5541 18.5869 31.706 18.558 31.8575C18.4697 32.3209 18.2773 33.3399 18.2773 33.4258C18.2773 33.5373 17.9084 35.0201 17.8861 35.1204C17.8603 35.3901 17.8193 35.6581 17.7632 35.9232C17.6805 36.227 17.5682 36.522 17.4279 36.804C17.3132 37.0416 17.2449 37.2989 17.2267 37.5621C17.2267 37.6959 17.0925 38.075 17.0367 38.3426C16.9808 38.6101 16.869 38.8889 16.8354 39.1118C16.8018 39.3347 16.6998 39.4685 16.7844 39.6469C16.869 39.8253 16.8131 39.9034 16.936 39.9257C17.0589 39.9479 17.0701 39.9034 17.126 39.8699C17.1819 39.8365 17.4054 39.8253 17.4613 39.7584C17.4734 39.744 17.4792 39.7248 17.4809 39.7037C17.4887 39.6062 17.3664 39.5744 17.2825 39.6246C17.2639 39.6358 17.239 39.6259 17.2146 39.6032C17.0941 39.4912 17.1041 39.2965 17.1155 39.1323C17.1285 38.9448 17.227 38.7781 17.3251 38.6179C17.4021 38.4921 17.4736 38.363 17.5395 38.2309C17.635 38.0295 17.6736 37.806 17.6513 37.5843C17.6513 37.2164 17.5843 37.4505 17.6848 37.1272C17.7569 36.88 17.8622 36.6437 17.9978 36.4248C18.0984 36.2687 18.2549 36.224 18.2213 36.0123C18.1878 35.8005 18.1207 35.8004 18.0985 35.5664C18.0936 35.2345 18.1543 34.9049 18.2773 34.5964C18.389 34.3511 18.4673 34.2062 18.5455 34.2508C18.6238 34.2954 18.7468 34.3511 18.702 34.4738C18.5859 34.7163 18.4851 34.9658 18.4002 35.2208C18.3555 35.4326 18.3108 35.6779 18.389 35.7671C18.4673 35.8563 18.6126 35.7782 18.6685 35.7448C18.7244 35.7113 18.9032 35.6556 18.9032 35.4772C18.9032 35.2989 18.8026 35.1762 18.9144 35.2208C19.0261 35.2654 19.0489 35.2654 19.0487 35.3769C19.0485 35.4884 19.0597 35.5441 19.1379 35.5218C19.2161 35.4995 19.272 35.3992 19.3055 35.4661C19.3391 35.5329 19.5626 35.6221 19.3055 35.7336C19.085 35.8213 18.875 35.9335 18.6797 36.0681C18.5383 36.1487 18.4163 36.2591 18.322 36.3914C18.2437 36.5364 18.0985 36.659 18.1543 36.7928C18.2102 36.9266 18.322 36.9823 18.2772 37.0269C18.2324 37.0715 18.1207 37.0938 18.1654 37.2722C18.2101 37.4506 18.2772 37.6067 18.3778 37.5509C18.4784 37.4952 18.5902 37.3949 18.6237 37.5175C18.6329 37.546 18.6494 37.5717 18.6715 37.5919C18.6937 37.6122 18.7207 37.6264 18.75 37.6332C18.7793 37.6399 18.8098 37.639 18.8386 37.6304C18.8674 37.6219 18.8935 37.606 18.9143 37.5844C19.0261 37.4952 19.1267 37.3057 19.149 37.4283C19.1714 37.551 19.2384 37.7516 19.3503 37.6847C19.4621 37.6178 19.5515 37.3837 19.652 37.4729C19.6884 37.5052 19.6999 37.5418 19.6993 37.5817C19.6967 37.7424 19.6397 37.9095 19.524 38.0211C19.4086 38.1324 19.2296 38.1239 19.0789 38.179C19.0725 38.1814 19.066 38.1838 19.0597 38.1864C18.9368 38.2199 18.9479 38.2645 18.825 38.2088C18.7852 38.1853 18.7439 38.1645 18.7015 38.1465C18.6079 38.1068 18.5105 38.0822 18.4399 38.1553C18.372 38.2254 18.4385 38.351 18.5072 38.4202C18.6236 38.5374 18.7669 38.6257 18.9255 38.677C19.1268 38.7551 19.4173 38.8108 19.5179 38.9223C19.5399 38.9414 19.5602 38.9621 19.5788 38.9842C19.6989 39.127 19.6667 39.4384 19.5291 39.3125C19.395 39.1898 19.205 39.0226 19.0932 39.0449C18.9814 39.0673 18.825 39.0338 18.8138 39.201C18.7932 39.5546 18.5438 39.8412 18.244 40.0297C18.1998 40.0574 18.1554 40.0847 18.1106 40.1115C17.992 40.1825 17.8646 40.2367 17.7272 40.2213C17.6803 40.216 17.631 40.2118 17.5844 40.2157C17.4503 40.2268 17.2714 40.2157 17.2603 40.4944C17.2249 40.7388 17.1747 40.9808 17.1099 41.2191C17.0158 41.6076 16.8904 41.9879 16.7349 42.3563C16.6679 42.5013 16.4331 42.6127 16.4443 42.8134C16.4555 43.0141 16.5449 43.1033 16.5002 43.1925C16.4555 43.2817 16.3661 43.2148 16.2989 43.3709C16.2318 43.527 16.2766 43.2928 16.2319 43.527C16.2159 43.7112 16.137 43.8844 16.0083 44.0175C16.0033 44.0218 15.9983 44.0262 15.9934 44.0305C15.7544 44.2426 15.6858 44.576 15.6214 44.8889C15.4674 45.6376 15.1809 47.0204 15.1477 47.1282C15.1031 47.2731 14.3766 49.5587 14.3095 49.7705C14.2423 49.9824 13.5718 51.3983 13.4935 51.5098C13.4153 51.6213 13.1471 51.9223 13.1471 52.1007C13.1536 52.1914 13.1788 52.2798 13.2211 52.3604C13.3053 52.5207 13.5176 52.5483 13.6354 52.6858C13.6449 52.6969 13.6536 52.7099 13.6612 52.725C13.692 52.7864 13.7058 52.8714 13.7269 52.9391C13.7548 53.0288 13.8548 53.0465 13.9459 53.0695C14.0342 53.0918 14.1144 53.1404 14.1738 53.2094C14.2344 53.2798 14.2862 53.3663 14.2648 53.4163C14.2312 53.4943 14.1306 53.5501 14.0859 53.5947C13.9396 53.7411 13.8833 53.9555 13.8308 54.1557C13.6632 54.7953 13.2763 56.223 13.2589 56.2928C13.2365 56.382 12.6218 58.7456 12.4988 59.0132C12.3759 59.2807 11.4706 61.5886 11.3141 61.8451C11.1576 62.1015 10.5764 63.0603 10.4311 63.2833C10.2532 63.6013 10.1108 63.9378 10.0064 64.2867C9.96311 64.4134 9.93315 64.5442 9.91696 64.677C9.9058 64.8442 9.81637 65.6804 9.83872 65.803C9.86107 65.9257 8.96693 67.6092 8.94458 67.6761C8.92223 67.743 9.11222 67.8991 9.13457 68.0106C9.15017 68.0832 9.14818 68.1586 9.12874 68.2303C9.09015 68.3727 8.93906 68.4314 8.82944 68.5303C8.81326 68.5448 8.79612 68.564 8.77692 68.5903C8.6875 68.7129 8.4528 69.1924 8.31868 69.3819C8.18456 69.5714 7.73747 69.7833 7.69277 69.9728C7.64807 70.1624 7.69276 70.4187 7.56989 70.4411C7.44702 70.4635 7.21223 70.363 7.14518 70.4968C7.07814 70.6306 6.55281 71.4111 6.36281 71.5337C6.1728 71.6564 5.96044 71.6898 6.03869 71.8793C6.11695 72.0689 6.22869 72.0577 6.32929 72.1358C6.4299 72.2138 6.48576 72.2361 6.49694 72.4925C6.50813 72.7489 6.50811 72.9384 6.63106 73.0054C6.6385 73.0085 6.64597 73.0115 6.65347 73.0144C6.81811 73.0786 7.1724 73.2458 6.9999 73.2842C6.89932 73.3065 6.77636 73.2396 6.75401 73.2842C6.73166 73.3288 6.79872 73.3845 6.7093 73.4737C6.61988 73.5629 6.44106 73.3622 6.38517 73.418C6.32929 73.4737 6.44107 73.4737 6.25107 73.6298C6.06106 73.7859 6.00515 73.8528 5.96045 73.719C5.91575 73.5852 6.02752 73.5852 6.06103 73.4849C6.09455 73.3845 6.00515 73.273 6.01634 73.2062C6.02752 73.1393 6.12811 73.195 6.16164 73.117C6.19518 73.0389 5.97163 72.9497 6.0834 72.9051C6.19517 72.8605 6.30694 72.8494 6.31811 72.8048C6.32927 72.7602 6.12811 72.7379 6.15046 72.6598C6.17281 72.5818 6.23987 72.5373 6.21753 72.4926C6.19625 72.4501 6.03317 72.5087 5.89227 72.476C5.878 72.4727 5.86426 72.4672 5.85125 72.4604C5.68575 72.3748 5.46201 72.3545 5.33619 72.4919C4.88082 72.9892 3.94343 74.0114 3.89272 74.0535C3.82561 74.1092 3.68037 73.9977 3.69147 73.8862C3.70257 73.7747 3.65794 73.6075 3.55736 73.6967C3.45677 73.7859 3.46794 73.9382 3.43449 74.0683C3.40104 74.1984 3.30036 74.243 3.19978 74.1873C3.0992 74.1315 2.90917 74.1427 2.93152 74.0201C2.96521 73.8352 2.6968 74.0231 2.5147 74.0693C2.4793 74.0783 2.44301 74.0842 2.40622 74.0869C2.29445 74.1092 2.14915 74.1984 2.14915 74.2877C2.14915 74.3769 2.17151 74.3769 2.28328 74.4884C2.33356 74.5386 2.37933 74.573 2.42058 74.5936C2.50132 74.6339 2.59005 74.5859 2.67431 74.5536C2.76854 74.5174 2.87196 74.5103 2.96769 74.5423C3.07166 74.577 3.18555 74.6363 3.19978 74.7002C3.22213 74.8005 3.15506 74.8897 3.1439 75.0458C3.13273 75.2019 3.11036 75.3357 3.19978 75.4361C3.2892 75.5364 3.59098 75.7371 3.6804 75.8151C3.76982 75.8932 3.73628 76.3614 3.69156 76.5621C3.64684 76.7628 3.50155 76.8743 3.51274 77.075C3.52392 77.2757 3.59098 77.4429 3.59098 77.6324C3.59974 77.7671 3.57275 77.9017 3.51274 78.0227C3.44567 78.1899 3.12156 79.3271 3.11037 79.3829C3.09919 79.4386 2.40622 79.8734 2.33926 80.0184C2.30284 80.0972 2.18041 80.5288 2.06371 80.9224C1.92847 81.3785 1.69146 81.8314 1.73555 82.3051C1.74037 82.3569 1.74786 82.4086 1.75804 82.46C1.82511 82.7499 1.71421 83.1178 1.7305 83.3854C1.73854 83.5696 1.71764 83.754 1.66859 83.9317C1.63506 84.1325 1.59037 85.1804 1.59037 85.3811C1.59353 85.4589 1.58666 85.5362 1.57024 85.6115C1.52678 85.8105 1.27741 85.9244 1.27741 86.1281C1.27741 86.2119 1.30874 86.4261 1.325 86.5888C1.33656 86.7044 1.31193 86.819 1.25861 86.9222C1.13808 87.1555 1.04908 87.4085 1.05197 87.6712C1.05368 87.8272 1.05245 87.981 1.04268 88.0346C1.02033 88.1573 0.953264 88.4137 0.87503 88.436C0.796796 88.4583 0.69621 88.436 0.685025 88.4917C0.673839 88.5475 0.774444 88.6255 0.685025 88.6701C0.550234 88.7452 0.421097 88.8297 0.298574 88.9231C0.160348 89.0283 0.0489913 89.1894 0.0104659 89.3588C-0.00631139 89.4326 0.0233379 89.4944 0.0645625 89.5579C0.21952 89.7964 0.389418 90.0249 0.573258 90.2422C0.621099 90.2873 0.657265 90.3434 0.678663 90.4055C0.700061 90.4676 0.706057 90.534 0.696131 90.5989C0.689328 90.7597 0.634866 90.9149 0.53964 91.0448C0.504545 91.0812 0.479035 91.1257 0.465384 91.1744C0.438279 91.2709 0.477693 91.3721 0.531106 91.457C0.587125 91.5461 0.657937 91.6254 0.74083 91.6915C0.886134 91.8029 1.25498 91.959 1.34437 91.9144C1.43377 91.8698 1.7244 91.7584 1.8138 91.7026C1.90319 91.6469 2.19382 91.58 2.28324 91.6692C2.37266 91.7583 2.60736 91.8409 2.66324 91.9223C2.76648 92.0726 2.94599 92.1591 3.11935 92.2158C3.13115 92.2196 3.14305 92.2232 3.15502 92.2266C3.2109 92.2489 3.28916 92.4274 3.44563 92.3381C3.6021 92.2489 4.01566 92.104 4.29513 91.9813C4.57459 91.8587 4.55218 91.7918 4.88749 91.8588C5.16397 91.9115 5.44434 91.9413 5.72575 91.948C5.97166 91.9591 6.41874 91.9145 6.63109 91.9145C6.84344 91.9145 6.73168 91.9814 7.06698 91.7807C7.40229 91.58 7.72643 91.1452 7.89409 91.0003C8.08957 90.8596 8.26285 90.6904 8.40821 90.4986C8.54689 90.2559 8.64503 89.9923 8.69881 89.7181C8.73601 89.6112 8.76014 89.5004 8.77081 89.3881C8.78023 89.289 8.77112 89.1883 8.73397 89.0959C8.73281 89.093 8.73166 89.0902 8.73051 89.0874C8.68038 88.9633 8.69128 88.817 8.76472 88.7051C8.80174 88.6488 8.85201 88.6023 8.91117 88.5698C9.03597 88.4913 9.15432 88.4034 9.26521 88.3069C9.46655 88.1318 9.62926 87.9137 9.72963 87.6665C9.74896 87.6188 9.76675 87.5706 9.78297 87.5218C9.80532 87.4214 9.79415 87.3434 9.73827 87.3992C9.68239 87.455 9.64885 87.3992 9.72709 87.3211C9.82462 87.2287 9.90419 87.1191 9.9618 86.9978C10.0701 86.7662 10.1634 86.5278 10.2412 86.2843C10.3418 86.0055 10.2859 85.816 10.5989 85.4927C10.8428 85.2417 11.0635 84.9693 11.2583 84.6788C11.3925 84.478 11.7948 83.8537 11.8842 83.7311C11.9989 83.5591 12.1299 83.3986 12.2754 83.2517C12.4431 83.0956 12.6331 82.8169 12.9013 82.7946C13.1734 82.7805 13.446 82.778 13.7183 82.787C13.8367 82.791 13.9436 82.8224 13.9967 82.9284C14.0597 83.0561 14.0831 83.1998 14.0637 83.3409C14.0414 83.4412 14.0414 83.5304 14.019 83.6085C13.9967 83.6865 13.8402 83.7423 13.7955 83.8092C13.7508 83.8762 13.7619 84.0545 13.7172 84.0657C13.6725 84.0768 13.5944 83.9876 13.6166 83.8984C13.6389 83.8092 13.6055 83.7535 13.6837 83.6866C13.762 83.6197 13.9073 83.4747 13.8737 83.3521C13.8402 83.2295 13.8178 83.2629 13.5719 83.196C13.3261 83.1291 13.2925 83.0622 13.136 83.0845C12.9795 83.1068 12.756 83.0511 12.6107 83.2629C12.4587 83.4485 12.3344 83.655 12.2418 83.8761C12.0947 84.2336 11.9151 84.577 11.7053 84.9018C11.5666 85.1178 11.4398 85.3411 11.3253 85.5708C11.251 85.7131 11.1911 85.8625 11.1465 86.0167C11.127 86.1199 11.1166 86.2244 11.1153 86.3291C11.113 86.5223 11.1793 86.7055 11.2837 86.8679C11.2855 86.8706 11.2872 86.8734 11.289 86.8761C11.3641 86.9943 11.4317 87.1284 11.424 87.2683C11.4162 87.4082 11.3284 87.5298 11.2833 87.6625C11.2719 87.6962 11.2611 87.7302 11.2509 87.7644C11.192 87.9635 11.106 88.3904 11.2994 88.3148C11.3005 88.3143 11.3017 88.3139 11.3029 88.3133C11.4045 88.2502 11.4983 88.1754 11.5823 88.0903C11.6941 88.0012 11.6829 88.1349 11.627 88.2799C11.5711 88.4248 11.4594 88.4917 11.437 88.5921C11.3969 88.757 11.4167 88.9308 11.4929 89.0826C11.5935 89.2387 11.6941 89.3056 11.6717 89.5285C11.6706 89.6943 11.6067 89.8536 11.4929 89.9744C11.4062 90.0837 11.2834 90.1588 11.1464 90.1862C11.0346 90.1974 10.934 90.1305 10.7887 90.1193C10.6434 90.1082 10.5764 90.0524 10.4087 90.1751C10.2411 90.2977 10.0511 90.4984 9.96174 90.5541C9.8724 90.6099 9.79409 90.621 9.64878 90.7102C9.50348 90.7994 9.49232 90.8328 9.41406 90.8775C9.33581 90.9221 9.17936 90.9221 9.17936 91.0782C9.17936 91.2344 9.20171 91.5131 9.35818 91.5576C9.41238 91.5758 9.47063 91.578 9.52608 91.5642C9.63598 91.5368 9.7239 91.4432 9.83529 91.4638C9.89557 91.4749 9.9638 91.4905 10.04 91.4796C10.1964 91.4573 10.2076 91.357 10.3194 91.3124C10.4312 91.2677 10.6659 91.2678 10.7218 91.357C10.7777 91.4461 10.8112 91.5577 10.9565 91.5799C11.0118 91.5884 11.0752 91.5969 11.1307 91.6079C11.2492 91.6312 11.2399 91.7532 11.1318 91.8071C11.0774 91.8342 11.0173 91.8481 10.9565 91.8475C10.8112 91.8475 10.7106 91.736 10.5988 91.736C10.5118 91.736 10.4044 91.7022 10.3084 91.761C10.2462 91.799 10.1965 91.8598 10.1729 91.9287C10.1611 91.9634 10.1572 92.0002 10.1614 92.0366C10.1657 92.0729 10.1781 92.1079 10.1977 92.1388C10.2173 92.1698 10.2436 92.196 10.2747 92.2155C10.5255 92.3748 10.3687 92.53 10.0764 92.4767C10.0155 92.4657 9.95491 92.4529 9.89467 92.4384C9.85903 92.4343 9.82296 92.4409 9.7911 92.4574C9.75924 92.4738 9.73303 92.4994 9.71585 92.5309C9.68231 92.5945 9.38055 92.3827 9.17936 92.3492C9.14074 92.3479 9.10238 92.3504 9.0648 92.3567C8.85378 92.3917 8.77691 92.7019 8.56463 92.7283C8.47515 92.7394 8.43051 92.7506 8.43051 92.8509C8.43051 92.9511 8.38579 93.0627 8.47521 93.1073C8.56463 93.1519 8.67647 93.0627 8.82171 93.2522C8.9624 93.4344 9.06501 93.643 9.12348 93.8654C9.15202 93.9897 9.15957 94.1178 9.14582 94.2445C9.12347 94.3449 8.97817 94.2111 8.87759 94.0661C8.77701 93.9212 8.4306 93.4975 8.31874 93.4641C8.20689 93.4306 8.05048 93.531 7.98343 93.5421C7.91638 93.5533 7.72637 93.5756 7.68165 93.4975C7.66185 93.4508 7.65882 93.3986 7.67307 93.3499C7.68733 93.3011 7.71799 93.2588 7.7599 93.2299C7.8493 93.1631 7.92755 93.0962 7.87167 92.9958C7.81578 92.8955 7.77107 92.9178 7.64813 92.9066C7.58852 92.8947 7.53196 92.8708 7.48198 92.8363C7.432 92.8017 7.38964 92.7574 7.35752 92.7059C7.32398 92.639 7.2681 92.6836 7.30164 92.5163C7.33517 92.3491 7.54753 92.2042 7.37988 92.1261C7.19021 92.0378 6.98604 92.0396 6.81102 92.1542C6.78748 92.1696 6.7647 92.1863 6.74279 92.2042C6.6234 92.3145 6.47688 92.3915 6.31807 92.4271C6.11956 92.4707 5.91761 92.4968 5.71452 92.5052C5.50215 92.494 5.49099 92.4271 5.30099 92.494C5.14339 92.5659 4.96585 92.5816 4.79802 92.5386C4.62204 92.4976 4.44221 92.4752 4.26152 92.4717C4.24137 92.4732 4.22214 92.4807 4.20631 92.4932C4.19048 92.5058 4.1788 92.5227 4.17277 92.542C4.16675 92.5612 4.16665 92.5818 4.17251 92.6011C4.17838 92.6204 4.18992 92.6375 4.20564 92.6501C4.24091 92.6877 4.28464 92.7165 4.33322 92.7339C4.3818 92.7513 4.43386 92.757 4.48507 92.7505C4.59684 92.7393 4.64153 92.6724 4.7533 92.7505C4.82415 92.812 4.89246 92.8763 4.95806 92.9433C5.09548 93.0836 5.23632 93.2211 5.38574 93.3486C5.59588 93.5278 5.73495 93.7654 5.79174 94.0357C5.80716 94.1091 5.82305 94.1856 5.8388 94.2591C5.89797 94.5352 6.07071 94.7568 6.20478 95.0053C6.22579 95.0443 6.24496 95.0843 6.26219 95.1252C6.34042 95.3705 6.32925 95.4597 6.38505 95.5935C6.44085 95.7273 6.51917 95.7831 6.46328 96.006C6.40337 96.1948 6.36221 96.389 6.34041 96.5858C6.34041 96.7307 6.37395 97.1321 6.37395 97.2547C6.38306 97.4085 6.36798 97.5627 6.32925 97.7118C6.29087 97.9085 6.23857 98.1023 6.17276 98.2916C6.16747 98.3029 6.16223 98.3143 6.15704 98.3257C6.01514 98.6364 5.89902 98.9649 5.67669 99.2243C5.65617 99.2482 5.63521 99.2718 5.61383 99.295C5.58031 99.3396 5.54679 99.4958 5.63621 99.4958C5.72563 99.4958 5.90444 99.4178 5.94914 99.4958C5.99384 99.5738 5.93797 99.7299 6.0609 99.663C6.09605 99.6439 6.15677 99.6047 6.22818 99.5567C6.56625 99.3294 6.93676 99.076 7.33509 99.1613C7.58045 99.1851 7.82705 99.1304 8.03924 99.0052C8.20689 98.8827 8.95574 98.7488 9.26869 98.7488C9.7514 98.7732 10.1784 98.496 10.5878 98.2392C10.6129 98.2234 10.6382 98.2079 10.6635 98.1925C10.819 98.0986 10.9871 98.0287 11.1547 97.9587C11.2719 97.9097 11.3873 97.8566 11.5008 97.7996C11.7071 97.6959 11.9374 97.5624 11.9623 97.3329C11.9623 97.076 11.9892 96.8421 12.2194 96.728C12.2575 96.7091 12.2969 96.6927 12.3375 96.679C12.5012 96.624 12.6768 96.6149 12.8453 96.6528C13.0344 96.6969 13.2105 96.7848 13.3594 96.9092C13.5516 97.0351 13.7365 97.1714 13.9135 97.3176C14.0221 97.4073 14.1174 97.5132 14.1837 97.6375C14.2252 97.7155 14.2846 97.7682 14.3722 97.757C14.4509 97.7469 14.555 97.7335 14.656 97.7454C14.846 97.7677 14.9354 97.8346 15.036 97.8346C15.1365 97.8346 15.4048 97.8569 15.4495 97.712C15.4942 97.5672 15.7513 97.1323 15.6842 96.9873C15.6171 96.8424 15.3936 96.6194 15.4271 96.4745C15.4607 96.3295 15.673 96.1177 15.7178 96.0396C15.7625 95.9616 15.6954 95.7275 15.796 95.6829C15.8966 95.6383 16.0642 95.5268 16.1313 95.5491C16.1984 95.5714 16.0531 95.7944 16.0531 95.8613C16.0531 95.9282 16.1984 96.1065 16.1872 96.1957C16.176 96.2849 16.0978 96.3183 16.109 96.4187C16.1201 96.5191 16.1425 96.7532 16.1872 96.7643C16.2319 96.7755 16.3325 96.664 16.3884 96.7532C16.4444 96.8424 16.422 96.9427 16.4555 96.9985C16.4647 97.0102 16.471 97.024 16.4737 97.0386C16.4764 97.0533 16.4755 97.0684 16.4711 97.0826C16.4667 97.0968 16.459 97.1098 16.4485 97.1204C16.4379 97.131 16.425 97.1389 16.4108 97.1434C16.3437 97.1657 16.2655 97.0654 16.2431 97.1992C16.22 97.2957 16.2278 97.3971 16.2655 97.489C16.299 97.5671 16.2878 97.6116 16.2767 97.8235C16.2793 97.9721 16.2711 98.1206 16.2519 98.2678C16.2353 98.3953 16.1078 98.5173 16.1761 98.6263C16.2319 98.7155 16.2655 98.9719 16.3996 98.9161C16.5337 98.8604 16.489 98.8046 16.6567 98.8269C16.8243 98.8492 16.9808 98.8492 17.0032 98.9495C17.0386 99.1937 17.1734 99.4134 17.3607 99.5741C17.4038 99.6111 17.4486 99.6462 17.4949 99.6793C17.5736 99.7402 17.5183 99.8584 17.4189 99.8598C17.3435 99.8609 17.2682 99.8659 17.1932 99.8749C16.9026 99.9083 16.5337 99.9083 16.4331 99.808C16.3325 99.7076 15.8408 99.1613 15.7178 99.0833C15.6842 99.062 15.6615 99.0415 15.6444 99.0234C15.5784 98.9539 15.4709 98.9733 15.4233 99.0564C15.3993 99.0984 15.3889 99.1468 15.3937 99.1948C15.4049 99.2729 15.3937 99.3621 15.3154 99.2952C15.2372 99.2283 15.0919 99.1726 15.0919 99.0722C15.0919 99.0335 15.0936 98.9915 15.0956 98.9546C15.0994 98.8851 15.0939 98.7438 15.036 98.7823C15.0025 98.8046 14.9354 98.9273 14.8795 98.9273C14.8567 98.9263 14.8348 98.9183 14.8168 98.9043C14.7987 98.8903 14.7855 98.871 14.779 98.8492C14.7678 98.8158 14.5889 98.8046 14.5554 98.7823C14.5123 98.7524 14.4715 98.7193 14.4334 98.6832C14.4021 98.6537 14.3752 98.6113 14.3335 98.6007C14.286 98.5887 14.2905 98.662 14.3043 98.709C14.3272 98.7869 14.3629 98.8607 14.4101 98.9273C14.4771 99.0388 14.5329 99.1056 14.5106 99.1503C14.4883 99.1949 14.4436 99.3063 14.3765 99.3175C14.3095 99.3286 13.9741 98.9273 13.8065 98.7712C13.6388 98.6151 13.27 98.4033 13.2253 98.2583C13.2057 98.1564 13.1796 98.0559 13.1471 97.9573C13.1311 97.9035 13.1097 97.8519 13.0832 97.8032C12.9682 97.591 12.7388 97.4584 12.4988 97.4333C12.3907 97.4333 12.3023 97.532 12.3749 97.612C12.3856 97.6238 12.397 97.6348 12.4093 97.6451C12.5322 97.7677 12.6328 97.7789 12.6664 97.9015C12.6999 98.0242 12.6217 97.9907 12.6999 98.1357C12.7781 98.2806 12.7334 98.2249 12.8787 98.3475C12.8915 98.3606 12.9044 98.3736 12.9173 98.3865C13.1404 98.6077 13.4714 98.6951 13.6946 98.9161C13.8428 99.0859 13.9635 99.2778 14.0523 99.4847C14.1417 99.652 14.3094 99.9753 14.3876 100.176C14.4658 100.377 14.4994 100.878 14.6447 101.28C14.7576 101.629 14.8105 101.994 14.8012 102.361C14.8123 102.696 15.0135 105.082 14.9912 105.293C14.9688 105.505 14.4994 106.609 14.4882 106.899C14.477 107.189 14.5218 107.189 14.3988 107.412C14.2758 107.635 14.2647 107.702 14.1753 107.891C14.0858 108.081 13.9964 109.14 13.8847 109.341C13.7729 109.541 13.527 110.333 13.4599 110.489C13.355 110.71 13.2154 110.913 13.0464 111.091C12.9235 111.191 12.6105 111.091 12.4875 111.269C12.3646 111.448 12.3311 111.425 12.3311 111.582C12.3311 111.738 12.2528 111.883 12.3087 111.86C12.3646 111.838 12.6887 111.704 12.7893 111.76C12.8899 111.816 12.834 111.883 12.8452 111.983C12.8564 112.083 12.8452 112.094 12.9905 112.184C13.1358 112.273 13.3705 112.496 13.4711 112.496C13.5717 112.496 13.6388 112.351 13.7617 112.496C13.8708 112.639 13.9506 112.801 13.9965 112.975C14.0412 113.12 14.0635 113.321 14.0859 113.421C14.114 113.512 14.114 113.609 14.0859 113.7C14.0286 113.884 13.9372 114.061 13.9316 114.254C13.9291 114.341 13.9358 114.428 13.9518 114.514C13.9796 114.758 14.0244 115 14.0859 115.238C14.1194 115.417 14.1529 115.472 14.1194 115.584C14.0175 115.876 13.9317 116.174 13.8623 116.476C13.8383 116.609 13.8207 116.743 13.8096 116.878C13.7926 117.083 13.8184 117.3 13.9518 117.457C14.0076 117.535 14.0188 117.769 14.0523 117.825C14.0796 117.87 14.1363 117.879 14.1865 117.88C14.2088 117.881 14.2311 117.883 14.2528 117.887C14.3683 117.914 14.4715 118.044 14.3834 118.123C14.3779 118.128 14.3719 118.133 14.3653 118.137C14.3427 118.155 14.3212 118.175 14.301 118.196C14.2119 118.287 14.1462 118.419 14.2055 118.532C14.2066 118.534 14.2077 118.536 14.2088 118.538C14.2759 118.661 14.1529 119.575 14.1641 119.687C14.1753 119.798 14.0747 119.865 14.0188 119.943C13.9629 120.021 13.8847 120.077 13.9071 120.2C13.9294 120.322 14.0076 120.378 13.9629 120.579C13.9182 120.779 13.717 121.348 13.6947 121.515C13.6674 121.655 13.6871 121.8 13.7506 121.928C13.8176 122.073 13.8623 122.307 13.9294 122.418C13.9965 122.53 14.0859 122.597 14.0859 122.675C14.0859 122.753 14.3206 123.801 14.2983 123.935C14.2759 124.068 13.8176 124.927 13.8065 125.172C13.7953 125.417 13.8065 125.863 13.7953 126.075C13.7841 126.287 13.2141 127.469 13.1247 127.625C13.0949 127.692 13.0616 127.757 13.0248 127.82C12.9559 127.939 12.8586 128.036 12.7416 128.108C12.6884 128.141 12.6337 128.175 12.5919 128.21C12.5308 128.262 12.5213 128.346 12.5286 128.425C12.5343 128.487 12.5428 128.549 12.5542 128.611C12.5672 128.681 12.5661 128.754 12.5389 128.82C12.5341 128.832 12.5291 128.844 12.524 128.855C12.47 128.978 12.4786 129.121 12.5311 129.245C12.5396 129.265 12.5456 129.286 12.5452 129.308C12.5435 129.389 12.5114 129.534 12.5211 129.621C12.5238 129.646 12.5335 129.688 12.5466 129.741C12.6321 130.082 12.6594 130.438 12.5428 130.77C12.5258 130.819 12.5074 130.867 12.4875 130.914C12.4428 131.037 12.3087 131.315 12.264 131.405C12.2524 131.425 12.2404 131.445 12.2279 131.464C12.1189 131.636 11.9945 131.818 11.8057 131.895C11.7051 131.929 11.4481 131.895 11.4481 131.995C11.4481 132.096 11.504 132.107 11.5375 132.185C11.571 132.263 11.5263 132.408 11.5599 132.453C11.5934 132.497 11.7387 132.508 11.7387 132.631C11.729 132.861 11.7318 133.095 11.6957 133.323C11.6951 133.326 11.6946 133.33 11.694 133.333C11.6812 133.385 11.6577 133.434 11.625 133.476C11.5923 133.518 11.5511 133.553 11.504 133.579C11.3286 133.68 11.1763 133.817 11.057 133.98C10.9228 134.17 10.6658 134.393 10.5652 134.537C10.5225 134.586 10.4913 134.643 10.4739 134.704C10.4565 134.766 10.4533 134.831 10.4646 134.894C10.4816 134.952 10.4932 135.011 10.4992 135.07C10.5127 135.204 10.4325 135.298 10.3305 135.385C10.2556 135.44 10.2007 135.519 10.174 135.608C10.1702 135.626 10.1657 135.644 10.1604 135.662C10.118 135.806 10.082 135.995 9.93936 136.043C9.83884 136.076 9.76051 136.02 9.74932 136.121C9.73814 136.221 9.69344 136.243 9.76051 136.31C9.82758 136.377 9.87228 136.411 9.91698 136.377C9.96167 136.344 9.95052 136.288 9.98406 136.232C10.0176 136.176 10.0287 136.087 10.0735 136.143C10.0893 136.163 10.1063 136.181 10.1244 136.199C10.1946 136.267 10.3075 136.319 10.3924 136.368C10.4323 136.391 10.4536 136.398 10.49 136.426C10.5334 136.459 10.5673 136.504 10.5876 136.555C10.6211 136.667 10.7441 136.767 10.6994 136.857C10.6546 136.946 10.6547 137.057 10.6994 137.079C10.7441 137.102 10.7888 137.057 10.8111 137.001C10.8335 136.946 10.7105 137.013 10.8335 136.946C10.9565 136.879 11.0347 136.901 11.0905 136.812C11.1463 136.723 11.1353 136.522 11.1688 136.466C11.1935 136.423 11.2292 136.387 11.2724 136.361C11.3155 136.336 11.3646 136.322 11.4147 136.321C11.6456 136.344 11.8258 136.205 11.9656 136.019C11.9946 135.981 12.0236 135.952 12.0518 135.942C12.2149 135.877 12.3939 135.861 12.5659 135.898C12.7895 135.953 12.8118 135.998 12.9683 135.965C13.0015 135.957 13.0407 135.931 13.0828 135.893C13.3959 135.61 13.7359 135.324 14.1307 135.474C14.3207 135.552 14.7007 135.574 14.8125 135.485C14.9242 135.396 14.8907 135.162 15.1701 135.128C15.2268 135.116 15.2837 135.105 15.3408 135.095C15.6196 135.045 15.9062 135.042 16.1831 135.101C16.2369 135.113 16.2905 135.125 16.3437 135.14C16.4331 135.151 16.4778 135.14 16.4778 135.206C16.4778 135.273 16.5225 135.396 16.5561 135.374C16.5896 135.351 16.6678 135.385 16.6902 135.262C16.7125 135.14 16.7796 134.961 16.7125 134.85C16.6455 134.738 16.5225 134.772 16.6008 134.66C16.679 134.549 16.7236 134.404 16.8914 134.404C17.0591 134.404 16.9473 134.426 17.059 134.404C17.1708 134.381 17.2267 134.471 17.2826 134.471C17.3384 134.471 17.4279 134.426 17.4054 134.359C17.383 134.292 17.3272 134.259 17.3384 134.214C17.3496 134.17 17.4054 134.058 17.4948 134.069C17.6219 134.097 17.7406 134.154 17.8413 134.236C17.9308 134.314 18.009 134.359 17.9642 134.381C17.9194 134.404 17.8524 134.426 17.886 134.471C17.9018 134.499 17.9244 134.523 17.9517 134.54C17.979 134.558 18.0101 134.568 18.0425 134.571C18.1207 134.571 18.2548 134.482 18.3889 134.482C18.5512 134.465 18.7119 134.435 18.8695 134.393C18.8969 134.381 18.9249 134.372 18.9532 134.364C19.0793 134.329 19.2103 134.365 19.334 134.408C19.3399 134.41 19.3459 134.412 19.3518 134.414C19.4244 134.438 19.4834 134.438 19.5134 134.368C19.5311 134.326 19.5828 134.293 19.626 134.28C19.6338 134.278 19.6416 134.276 19.6495 134.274C19.7885 134.24 19.9463 134.277 20.0558 134.369C20.0754 134.386 20.091 134.405 20.099 134.426C20.1266 134.518 20.1811 134.599 20.2555 134.66C20.2738 134.676 20.2934 134.691 20.3139 134.704C20.4395 134.782 20.5982 134.784 20.7361 134.839C20.7808 134.85 21.3061 134.85 21.4961 134.85C21.6861 134.85 22.0103 134.928 22.122 134.928C22.395 134.961 22.6622 134.868 22.9228 134.78C22.9907 134.757 23.0591 134.736 23.128 134.716C23.4454 134.669 23.7312 134.846 23.9821 135.046C24.0328 135.086 24.0815 135.123 24.1227 135.151C24.2903 135.262 24.5586 135.474 24.7039 135.485C24.8492 135.496 24.8268 135.53 24.9386 135.441C25.0505 135.351 25.2627 135.117 25.4304 135.106C25.4798 135.108 25.5288 135.114 25.5768 135.125C25.7401 135.162 25.8925 135.248 26.0599 135.251C26.1841 135.254 26.3043 135.216 26.416 135.162C26.4749 135.133 26.5321 135.106 26.5704 135.095C26.7764 135.049 26.9857 135.019 27.1963 135.006C27.3528 135.006 27.4758 134.961 27.554 135.073C27.6322 135.184 27.7552 135.407 27.9005 135.474C28.0457 135.541 28.1687 135.474 28.314 135.552C28.4593 135.63 32.3712 137.916 32.3824 137.949C32.3994 138 32.4748 137.885 32.5277 137.893C32.5682 137.905 32.609 137.915 32.6501 137.923C32.8561 137.967 33.134 138.131 33.2654 137.966C33.3325 137.882 33.3324 137.782 33.4666 137.793C33.6008 137.804 33.6567 137.86 33.7349 137.826C33.8131 137.793 34.2267 137.681 34.2937 137.581C34.366 137.484 34.4623 137.407 34.5732 137.358C34.671 137.312 34.75 137.233 34.7967 137.135C34.9088 136.965 35.0799 136.842 35.2773 136.79C35.5197 136.753 35.7563 136.686 35.9814 136.589C36.1715 136.477 36.4173 136.176 36.6185 136.109C36.8036 136.043 36.9911 135.984 37.1808 135.932C37.3235 135.893 37.4788 135.923 37.6244 135.896C37.6994 135.883 37.7691 135.848 37.8256 135.797C38.0603 135.619 38.7086 135.072 38.8763 134.95C39.0434 134.859 39.1855 134.729 39.2898 134.571C39.4686 134.314 39.7481 133.79 39.938 133.645C40.074 133.541 40.2144 133.443 40.3589 133.351C40.6014 133.196 40.8671 133.078 41.1489 133.022C41.3389 132.983 41.5321 132.961 41.7263 132.954C42.0952 132.954 42.8776 132.854 43.1682 132.921C43.4587 132.988 43.727 133.032 43.7605 133.099C43.7768 133.136 43.7919 133.174 43.8057 133.212C43.8248 133.264 43.8874 133.291 43.9161 133.243C43.9342 133.213 43.9423 133.179 43.9394 133.144C43.9394 133.01 43.9617 133.01 43.8388 132.798C43.7158 132.586 43.6041 132.464 43.6041 132.319C43.6041 132.174 43.6041 132.252 43.6152 131.984C43.6264 131.717 43.5593 131.772 43.5258 131.627C43.4923 131.482 43.3135 131.215 43.3135 131.103C43.3135 130.926 43.3001 130.796 43.378 130.637C43.4668 130.456 43.5635 130.266 43.5629 130.065C43.5627 130.005 43.5541 129.946 43.537 129.888C43.4699 129.665 43.4588 129.743 43.3135 129.442C43.147 129.063 43.0414 128.661 43.0005 128.249C42.9893 127.948 43.0005 127.223 43.0117 126.811C43.02 126.38 42.9596 125.951 42.8328 125.54C42.6987 125.072 42.0505 123.845 42.0058 123.633C41.9611 123.422 41.6593 122.842 41.7375 122.563C41.8157 122.284 41.771 122.039 41.9499 121.716C42.1287 121.392 43.2464 119.241 43.3135 119.062C43.3806 118.884 43.3693 117.947 43.4699 117.758C43.5705 117.568 46.0406 115.573 46.1971 115.26C46.3536 114.948 47.3595 111.615 47.4601 111.514C47.5607 111.414 49.6955 111.068 49.8408 110.979C49.986 110.89 50.2431 110.366 50.3661 110.344C50.4315 110.332 50.7462 110.43 51.0385 110.528C51.3939 110.647 51.7798 110.744 52.1209 110.589C52.2438 110.522 52.5679 110.522 52.5903 110.321C52.6128 110.121 52.445 109.619 52.5121 109.507C52.5792 109.396 53.6857 105.995 53.6857 105.906C53.6857 105.817 53.8198 105.672 53.5628 105.661C53.3618 105.652 51.9836 106.08 51.3293 106.278C51.1062 106.345 50.8623 106.386 50.6594 106.272C50.4562 106.157 50.3548 105.932 50.2837 105.71C50.1156 105.184 49.8415 104.24 49.8074 104.189C49.7627 104.122 48.9691 103.587 48.8797 103.465C48.7903 103.342 47.6726 101.792 47.5273 101.592C47.382 101.391 46.4208 99.5734 46.309 99.4732C46.1973 99.3729 45.8061 99.384 45.7502 99.2279C45.6943 99.0718 45.5378 98.8934 45.6384 98.7596C45.739 98.6259 46.1526 98.2802 46.1638 98.1241C46.1751 97.9681 45.9738 97.7005 46.052 97.4775C46.1615 97.2411 46.2332 96.9891 46.2644 96.7305C46.2644 96.4852 46.0856 95.9947 46.2532 95.7159C46.4209 95.4372 47.0468 94.9578 47.125 94.4784C47.2033 93.9989 46.9909 92.7949 47.0803 92.4604C47.1697 92.1259 47.2703 91.6576 47.438 91.4681C47.6056 91.2785 48.7233 91.0779 48.9804 90.7546C49.2374 90.4312 49.7516 89.2048 50.0086 89.1714C50.2657 89.1379 50.7463 89.0264 50.9587 88.993C51.171 88.9595 51.1599 89.0376 51.3163 88.8815C51.4728 88.7254 51.5176 88.5916 51.6517 88.5024C51.6717 88.4891 51.6935 88.4777 51.7162 88.4675C51.9622 88.3563 52.0864 88.1015 52.054 87.8335C52.0205 87.6662 51.797 87.5102 51.8752 87.2983C51.9194 87.1688 51.992 87.0508 52.0876 86.9527C52.1658 86.8523 52.0205 86.6182 52.1434 86.4621C52.2664 86.306 53.4176 84.7786 53.5294 84.511C53.5618 84.4334 53.5745 84.3754 53.5769 84.3279C53.5872 84.1289 53.6002 83.9404 53.6333 83.7439C53.6596 83.5881 53.6338 83.4241 53.5185 83.316C53.3671 83.1741 53.1452 83.0287 53.1605 82.8832C53.1829 82.6713 53.2723 82.6044 53.1382 82.348C52.9251 82.0386 52.6693 81.7608 52.3782 81.523C52.3083 81.4673 52.2271 81.4275 52.1402 81.4063C52.0534 81.3851 51.9629 81.3831 51.8752 81.4004C51.6628 81.445 50.6681 81.8129 50.5004 81.746C50.3328 81.6791 49.9639 81.5119 50.0086 81.3112C50.0533 81.1105 50.0534 80.252 49.9528 80.0959C49.8521 79.9399 48.4774 79.3601 48.388 79.2598C48.3615 79.2354 48.3363 79.2098 48.3123 79.1832C48.1295 78.9802 48.0558 78.7052 47.9473 78.4546C47.8534 78.2376 47.7509 78.0032 47.7509 77.933C47.7509 77.8103 47.8738 77.2083 47.8627 77.0968C47.8516 76.9853 46.6332 76.0153 46.5215 75.692C46.4097 75.3687 46.2197 75.168 46.2085 74.945C46.1973 74.7221 46.1303 74.6774 46.1861 74.5548C46.242 74.4321 46.1862 74.4099 46.3203 74.2649C46.3735 74.2074 46.4126 74.178 46.4419 74.1551C46.5271 74.0883 46.5196 73.965 46.5319 73.8574C46.5469 73.7268 46.669 73.6253 46.6417 73.4966C46.6395 73.4864 46.6367 73.4749 46.6333 73.4621C46.5886 73.2948 46.3427 73.3729 46.3874 73.083C46.3884 73.0766 46.3894 73.0703 46.3903 73.0641C46.4501 72.6708 46.4912 72.2255 46.2198 71.9346C46.108 71.7897 45.8621 71.8455 45.7391 71.7005C45.5714 71.4974 45.3923 71.3038 45.2026 71.1208C45.0909 71.0316 44.9568 70.7975 44.5656 70.4407C44.1744 70.0839 43.9844 69.7717 43.7608 69.571C43.6525 69.4887 43.5461 69.4037 43.4419 69.3162C43.2178 69.128 43.0388 68.8988 42.9338 68.6256C42.9208 68.592 42.9061 68.5543 42.8891 68.5119C42.7329 68.1458 42.5135 67.8099 42.2408 67.5196C42.0061 67.2631 41.7938 67.0067 41.7938 66.8952C41.7938 66.7837 41.7715 66.583 42.0397 66.583C42.308 66.583 42.5539 66.505 42.5762 66.6054C42.5985 66.7057 42.6433 66.951 42.7103 66.8618C42.8231 66.7119 42.9892 66.7382 43.1719 66.7805C43.3543 66.8228 43.5402 66.85 43.7274 66.8618C43.9174 66.8618 44.4875 66.8395 44.7333 66.8618C44.9792 66.8841 45.3257 67.0179 45.7728 67.1182C46.0957 67.1878 46.4325 67.1526 46.734 67.0179C46.8905 66.951 47.0805 66.7837 47.237 66.806C47.3935 66.8283 47.5052 66.9286 47.5946 66.9398C47.6841 66.9511 48.4441 66.9064 48.5111 66.9175C48.5782 66.9286 48.6006 67.0179 48.6788 67.0179C48.757 67.0179 48.9694 66.7837 49.0812 66.806C49.1929 66.8283 49.4724 66.8841 49.6065 66.9286C49.7338 66.9835 49.8703 67.0137 50.0089 67.0178C50.0401 67.015 50.0799 67.0085 50.1239 67.0005C50.3814 66.9538 50.6417 66.9708 50.9034 66.9696C51.0266 66.969 51.1498 66.9591 51.2719 66.9397C51.5402 66.8617 51.8084 66.5607 51.8755 66.5384C51.9425 66.5161 52.1996 66.5607 52.289 66.5495C52.3784 66.5384 52.6243 65.9697 52.8814 65.6687C53.1385 65.3677 53.2614 64.8213 53.3396 64.4758C53.4179 64.1302 53.4961 63.7399 53.5744 63.4612C53.6526 63.1825 53.8008 62.7588 53.7211 62.5581C53.6414 62.3574 53.4514 62.1567 53.552 62.0118C53.6526 61.8668 54.3455 61.0976 54.502 60.8077C54.6585 60.5178 54.2002 59.782 54.2114 59.5144C54.2226 59.2469 54.8373 58.9124 54.8597 58.6225C54.882 58.3326 54.6026 58.1096 54.6249 57.8643C54.6473 57.6191 54.8622 57.3403 54.8609 57.0951C54.8597 56.85 54.1667 56.4262 53.9991 56.1363C53.8314 55.8464 53.5072 55.2889 53.5296 55.0771C53.5519 54.8653 52.3225 54.7092 52.2666 54.4416C52.2146 53.8254 52.2003 53.2067 52.2238 52.589C52.2339 52.3229 52.2797 52.057 52.43 51.8372C52.6123 51.5709 52.8843 51.2619 53.0602 51.1303C53.3284 50.9296 53.4067 50.7067 53.7196 50.6175C54.0326 50.5283 54.7169 50.6955 54.8609 50.5617C55.0049 50.4279 55.6085 49.1904 55.7203 49.09C55.8321 48.9897 56.3909 48.8893 56.458 48.7221C56.525 48.5549 56.7933 48.1535 56.648 47.8636C56.5026 47.5737 55.9326 47.1835 55.765 46.8044C55.5973 46.4254 55.1167 45.8345 55.1391 45.6561C55.1508 45.5107 55.1783 45.3674 55.221 45.2287C55.2984 44.977 55.4565 44.7611 55.6363 44.5687C55.7573 44.4392 55.8814 44.3056 55.955 44.1955C56.0892 43.9949 56.1673 43.9279 56.1673 43.705C56.1426 43.3976 56.0978 43.0922 56.0332 42.7907C56.0109 42.6904 55.5973 42.5566 55.5191 42.4674C55.4727 42.4016 55.4442 42.3248 55.4363 42.2447C55.4285 42.1646 55.4416 42.0838 55.4744 42.0103C55.5526 41.8653 55.7203 41.5866 55.8544 41.3525C55.977 41.1395 56.0568 40.9047 56.0891 40.6613C56.1024 40.2509 56.0762 39.8402 56.0109 39.4348C55.9662 39.2119 55.6979 38.6655 55.6979 38.4314C55.6979 38.1973 55.7315 37.1493 55.6979 36.6364C55.6644 36.1235 55.3067 35.2762 55.3962 35.1313C55.4856 34.9863 55.8431 34.9863 55.8767 34.741C55.9103 34.4958 55.7091 34.3954 55.5638 34.1947C55.4185 33.9941 54.9491 33.5815 54.8373 33.2024C54.7256 32.8234 54.7255 32.3885 54.5467 32.0541C54.4584 31.8718 54.3454 31.7031 54.2113 31.5525C54.0538 31.3756 53.8309 31.2919 53.6248 31.1751C53.5807 31.1501 53.5437 31.1159 53.5184 31.0618C53.4506 30.9304 53.392 30.7945 53.3432 30.6553C53.2477 30.3833 53.0415 29.9517 53.3284 29.9803C53.6957 29.9924 54.0632 29.9625 54.4237 29.8911C54.5664 29.8676 54.7076 29.8365 54.8466 29.7981C55.4324 29.6363 55.9112 29.2277 56.2708 28.7378C56.4344 28.5148 56.5901 28.2859 56.7373 28.0515C56.8763 27.7491 56.9776 27.4308 57.0391 27.1038C57.095 26.8251 57.0502 26.4237 57.2291 26.2007C57.4079 25.9778 58.0897 25.175 58.3468 24.874C58.6038 24.573 58.8274 23.7591 59.1515 23.681C59.4756 23.603 59.7886 23.6699 60.1351 23.5918C60.4815 23.5138 60.9846 23.0901 61.1074 22.9898C61.2303 22.8895 61.7222 22.8226 61.9569 22.7222C62.1917 22.6219 62.4375 22.4992 62.6164 22.4435C62.7952 22.3877 62.9628 22.4992 63.097 22.3654C63.2311 22.2317 63.1417 21.663 63.3205 21.585C63.4993 21.507 63.8347 21.4512 64.047 21.2394C64.2594 21.0276 64.3041 21.0275 64.36 20.7265C64.4158 20.4255 64.2371 20.236 64.4382 20.1133C64.6393 19.9907 64.807 20.0018 65.1312 19.7677C65.4553 19.5335 65.6341 19.5669 65.7906 19.2102C65.9471 18.8535 66.6065 17.7831 66.7295 17.5044C66.8628 17.2075 67.0357 16.93 67.2436 16.6794C67.4449 16.3691 67.5993 16.031 67.7018 15.6759C67.7801 15.4529 68.1154 15.23 67.9589 15.0293C67.8024 14.8285 67.4783 14.5499 67.2548 14.3269C67.0312 14.1039 66.7853 13.9701 66.6848 13.7471C66.5842 13.5242 66.5953 13.3792 66.2824 13.2677C65.9694 13.1563 64.7623 12.5653 64.6058 12.5096C64.4494 12.4538 64.1699 12.5096 63.7563 12.4984C63.4571 12.4825 63.1571 12.5012 62.8622 12.5542C62.6387 12.5988 62.5716 12.5988 62.4934 12.6767C62.4151 12.7547 62.281 12.9443 62.1134 12.9109C61.9457 12.8774 60.9733 11.6399 60.9174 11.5507C60.8845 11.4982 60.6543 11.245 60.4727 11.0114C60.2879 10.7739 60.2768 10.4759 60.3793 10.193C60.4261 10.0635 60.4789 9.9362 60.5374 9.81141C60.6268 9.58843 60.8057 9.35429 60.8392 9.09785C60.8727 8.84142 60.7945 8.5181 60.8392 8.17247C60.8511 7.97298 60.9167 7.78039 61.0292 7.61501C61.1074 7.48122 61.2751 7.39202 61.0739 7.28053C60.8727 7.16904 60.638 7.22478 60.4368 7.15797C60.2356 7.09115 60.0792 7.10222 60.1015 6.72313C60.1012 6.424 60.1741 6.12931 60.3139 5.86465C60.4256 5.70857 60.6045 5.65283 60.4704 5.42984C60.4108 5.32269 60.3365 5.22524 60.2502 5.14006C60.0586 4.95107 59.7809 4.81635 59.5293 4.91165C59.4881 4.92726 59.4411 4.94737 59.3862 4.97265C59.0956 5.10644 59.0173 5.31829 58.6262 5.39633C58.1587 5.44881 57.688 5.4652 57.2184 5.44544C56.9433 5.43387 56.6531 5.3898 56.4581 5.19533C56.3599 5.09732 56.2836 4.97962 56.2343 4.85003C56.1449 4.58243 56.1114 4.35945 55.899 4.27025C55.6866 4.18105 55.2731 4.01384 55.1948 4.11417C55.0643 4.28246 55.0007 4.49287 55.016 4.70508C55.0384 4.98381 55.0831 5.31829 54.7925 5.40748C54.4601 5.52985 54.1 5.55688 53.753 5.48552C53.3954 5.38517 53.2836 5.36296 53.2054 5.40748C53.1271 5.45201 52.8477 5.65276 52.7248 5.61931C52.6018 5.58586 52.2553 5.08415 52.1771 4.87232C52.0989 4.66049 51.8865 4.44865 51.8082 4.49323C51.73 4.53782 51.1488 5.19564 50.9923 5.2068C50.8358 5.21795 49.7852 5.35174 49.707 5.2068C49.6287 5.06185 49.7964 4.50439 49.3046 4.40406C48.8129 4.30372 48.4551 4.18107 48.1646 4.3037C47.874 4.42633 47.6057 4.52669 47.5163 4.64934C47.4483 4.72607 47.3981 4.81678 47.3691 4.91503C47.3401 5.01329 47.3331 5.11669 47.3487 5.21793C47.3934 5.49666 47.561 5.92033 47.6169 6.23252C47.6728 6.5447 47.7063 6.64503 47.5163 6.86801C47.3263 7.091 45.9404 7.90489 45.5716 8.09443C45.2028 8.28396 45.0462 8.31741 44.8005 8.28396C44.5547 8.2505 44.4764 8.20592 44.2528 8.17247C44.0292 8.13901 43.9287 8.15017 43.8616 8.30627C43.7834 8.4902 43.6936 8.66906 43.593 8.8418C43.5749 8.87186 43.559 8.90229 43.544 8.93152C43.4327 9.14868 43.1697 9.05187 42.9858 8.89144C42.8904 8.80816 42.8018 8.71699 42.7212 8.61881C42.5759 8.46273 42.3077 8.39583 42.2853 8.184C42.263 7.97218 42.2965 7.79378 42.1959 7.70458C42.0953 7.61539 41.4582 7.42585 41.3241 7.50383C41.19 7.58181 41.1453 7.63764 41.2682 7.81601C41.3911 7.99439 41.5476 8.16165 41.3129 8.23969C41.0324 8.32885 40.7443 8.39229 40.4523 8.42922C40.2735 8.44038 40.0835 8.40692 39.9717 8.54071C39.8599 8.67449 39.7258 8.8083 39.5358 8.74146C39.3458 8.67462 39.2117 8.64113 39.234 8.49618C39.2564 8.35124 39.1669 8.2063 39.3122 8.01676C39.4575 7.82723 39.6811 7.67113 39.6923 7.50389C39.7034 7.33666 39.1558 7.15828 38.9212 7.20287C38.6865 7.24746 38.2953 7.3924 38.1835 7.26977C38.1537 7.23713 38.1153 7.18948 38.0713 7.13671C37.8338 6.85191 37.4606 6.80787 37.0929 6.85572C36.6696 6.9108 36.248 6.9775 35.8284 7.05574C35.4837 7.12002 35.1776 7.27343 34.9199 7.51116C34.6688 7.74275 34.3709 7.9946 34.2492 7.94986C34.0369 7.8718 34.0412 7.77149 33.9999 7.42579C33.9586 7.08009 33.8245 5.8872 33.7351 5.79802C33.4555 5.51914 33.1024 6.16482 33.0484 6.556C33.037 6.63831 33.0242 6.71315 33.0101 6.76902C32.9919 6.84126 32.927 6.87489 32.8543 6.89112C32.8034 6.90249 32.7528 6.91488 32.7024 6.92831C32.396 7.00997 32.1037 7.17263 31.9429 7.44596C31.9348 7.45961 31.927 7.4734 31.9194 7.48732C31.8215 7.66702 31.8162 7.88446 31.7245 8.06744C31.6783 8.15963 31.6131 8.24111 31.5333 8.30659C31.3768 8.40692 31.321 8.6522 30.6615 8.73024C30.0021 8.80828 29.7115 8.90864 29.4321 8.84173C29.1527 8.77483 28.7503 8.8306 28.7168 8.46267C28.6833 8.09474 28.5044 7.44809 28.4932 7.28085C28.4821 7.11361 28.5715 6.90178 28.3704 6.82374C28.1693 6.7457 27.9568 6.87949 27.778 6.55615C27.5991 6.23281 27.4091 5.78695 27.4762 5.73112C27.5433 5.67529 28.0798 4.96192 28.2698 4.7946C28.4598 4.62727 28.5492 4.64965 28.5604 4.47128C28.5715 4.2929 28.3815 4.01418 28.6386 3.83578C28.8956 3.65738 29.6333 3.45672 29.7338 3.33407C29.8343 3.21142 29.8344 3.15567 29.8679 2.75431C29.9015 2.35296 29.9238 2.28605 29.7451 2.0742C29.5663 1.86236 29.4321 1.51675 29.1303 1.6171C28.8286 1.71746 28.7839 2.14117 28.3592 1.92926C28.3003 1.89982 28.2512 1.87529 28.2103 1.85444C27.9927 1.74339 27.9801 1.47682 27.9779 1.23251C27.9764 1.06705 27.9806 0.901552 27.9904 0.736303C27.9904 0.424122 28.281 -0.144474 27.8563 0.0339005C27.4316 0.212275 25.9562 0.881289 25.7886 1.00385C25.6378 1.14731 25.5097 1.3127 25.4085 1.49441C25.2857 1.66165 24.2797 1.92922 23.7432 1.99612C23.4346 2.04764 23.1199 2.04727 22.8122 1.9954C22.7023 1.97689 22.5976 1.93719 22.4922 1.90124C22.2555 1.82054 21.9943 1.84923 21.7755 1.97037C21.644 2.04321 21.5205 2.13029 21.4073 2.23026C21.2494 2.35998 21.0766 2.46938 20.8929 2.55639C20.6 2.6952 20.2739 2.69054 19.9502 2.67357C19.8384 2.6677 19.7377 2.67827 19.6749 2.73198C19.5184 2.8657 19.4402 3.26712 19.3731 3.41206C19.306 3.55701 19.0713 4.06988 18.8142 4.15906C18.5572 4.24823 18.0095 4.25941 17.7971 4.42665C17.7484 4.46733 17.7045 4.51289 17.6659 4.56246Z" fill="white" fill-opacity="0.5"/>
</svg>
