<svg width="381" height="152" viewBox="0 0 381 152" fill="none" xmlns="http://www.w3.org/2000/svg">
<path d="M17.6244 56.9258C5.07428 50.4501 -3.75456 54.7733 1.59017 71.6466C2.90355 75.7327 3.83386 80.4572 3.12245 84.5251C-1.72976 112.489 17.6244 143.901 45.1142 152C53.0309 118.947 85.5371 105.959 118.718 121.117C149.035 134.908 181.979 129.217 213.099 127.028C233.767 125.568 243.234 127.028 244.31 149.41C267.787 137.006 267.495 137.06 262.059 110.701C260.892 104.846 266.255 100.505 271.417 98.9905C291.902 92.8067 305.948 96.8015 303.923 126.553C320.176 94.9409 347.338 85.5831 375.138 77.1191C377.217 76.5171 379.917 74.2369 380.355 72.2486C381.796 65.9371 376.031 65.9918 372.31 64.1129C339.713 47.3673 301.114 56.3968 268.517 39.7972C268.553 39.9248 268.717 40.1073 268.644 40.2167C268.389 40.9281 267.823 41.8402 267.24 42.0226C234.241 50.0488 207.955 35.9847 183.147 16.74C176.325 11.45 169.63 5.97761 162.333 1.41726C158.375 -1.04533 152.775 -0.352158 150.495 3.91633C147.613 9.26106 153.158 11.1764 156.679 13.5843C160.053 15.8644 165.617 14.9706 167.003 21.4281C133.275 34.27 99.4553 47.1849 65.6357 60.0816C67.5511 41.4936 80.3018 31.6433 104.089 22.6138C60.2363 27.4477 53.3045 34.1788 58.0838 59.7168C44.5487 60.5376 31.5426 64.1494 17.6244 56.9258Z" fill="white" fill-opacity="0.5"/>
<path d="M268.079 39.5965C268.206 39.6877 268.389 39.6877 268.48 39.7789C268.389 39.3958 268.261 38.9398 268.097 38.5567C268.097 38.9033 267.933 39.5052 268.079 39.5965Z" fill="white" fill-opacity="0.5"/>
</svg>
