<svg width="163" height="131" viewBox="0 0 163 131" fill="none" xmlns="http://www.w3.org/2000/svg">
<path fill-rule="evenodd" clip-rule="evenodd" d="M23.1144 31.4873C22.7157 31.4873 22.5512 32.3347 22.8915 32.5427C24.5456 33.5807 27.4459 30.2466 29.5129 32.1151C31.5901 33.9957 29.9355 34.6185 31.7964 35.2414C33.6646 35.864 33.0452 36.9019 30.1423 39.1979C27.2395 41.4814 27.2395 47.9292 24.752 46.8913C22.272 45.8534 25.1746 47.7216 25.1746 50.225C25.1746 52.7161 26.6199 54.3769 24.9582 55.6346C23.3041 56.8805 26.2068 56.4529 25.1746 60.2143C24.1299 63.951 26.2068 67.7001 23.3041 68.3229C20.4013 68.9456 16.879 67.7 18.118 69.5683C19.3691 71.4491 20.608 76.4313 21.6427 77.8968C22.685 79.35 22.685 83.9295 21.4461 84.9698C20.1951 86.0077 17.7175 90.3798 19.782 93.0784C21.8491 95.7897 23.3042 93.9087 22.0656 97.2428C21.8332 97.8689 22.2631 98.5981 22.9309 98.5981H112.979C113.078 98.5981 113.175 98.5589 113.245 98.4882C114.484 97.2428 111.168 97.6578 112.419 96.6199C113.898 95.3809 114.294 91.6936 114.163 89.769C114.134 89.3472 114.247 89.0775 114.703 89.1343C116.354 89.3418 115.954 83.3067 116.974 83.0992C118.018 82.8917 121.528 80.3879 119.245 79.3501C116.974 78.3123 115.941 78.5097 114.484 76.4314C113.039 74.3554 111.168 71.2292 114.909 65.4166C116.815 62.4254 117.812 61.6675 119.67 60.2143C125.075 55.9901 127.54 50.4203 127.127 52.0936C126.715 53.7543 128.172 53.9618 129.411 51.4707C130.65 48.9671 128.573 48.7721 130.03 47.0988C131.476 45.4381 142.054 40.6511 145.164 39.4055C148.273 38.1598 147.848 38.7829 149.512 36.4867C151.163 34.2034 154.698 32.8604 156.763 32.8604C157.852 32.8604 157.373 31.4873 156.283 31.4873L23.1144 31.4873Z" fill="white" fill-opacity="0.5"/>
<path d="M160.492 30.2472C161.318 30.6625 159.666 23.1742 161.318 23.5895C162.982 24.007 157.383 21.5036 160.492 21.3059C163.053 21.1267 162.738 19.4623 161.121 18.7372C160.375 18.4026 159.557 18.1929 158.943 17.6525C158.056 16.8717 157.719 16.5647 155.719 18.1796C153.641 19.8403 151.176 17.7419 149.087 19.6328C147.01 21.5035 143.488 15.8961 141.01 19.01C138.52 22.1362 136.65 20.2554 137.063 17.9719C136.759 19.6577 129.033 13.6251 128.779 15.2733C128.366 17.9719 127.322 19.6328 124.638 17.5568C121.941 15.4682 121.103 17.3493 117.593 14.6381C114.059 11.9395 112.614 11.2942 109.917 11.7319C104.743 12.5621 106.82 8.60545 102.873 8.60545C98.9379 8.60545 102.666 5.284 98.9379 5.284C98.3497 5.284 98.0369 5.71276 97.6654 5.65229C96.6218 5.48241 95.8537 4.46533 94.7965 4.45355C92.3064 4.45355 92.3187 3.61086 90.2541 4.64874C88.5153 5.52822 85.4653 5.08053 84.5184 4.9115C84.3247 4.87692 84.1316 4.84734 83.936 4.82589C82.9219 4.71469 79.525 4.28945 77.5982 3.40288C75.3148 2.365 75.3273 5.90655 73.2504 5.07618C71.1857 4.23324 70.5637 4.23324 68.9023 2.98759C67.2481 1.74215 63.303 4.64853 58.3231 4.02572C53.356 3.40288 46.5055 3.40288 44.2343 2.98759C41.951 2.57273 40.9285 2.98759 41.3416 2.365C41.7546 1.7424 40.0929 1.53463 38.2324 2.57273C36.3741 3.61065 29.1107 3.61065 26.2204 3.40288C23.3051 3.2079 18.35 1.32708 18.9694 0.704271C19.5889 0.0814665 16.6736 0.911573 17.0866 0.0816351C17.105 0.0401436 17.0688 0 17.0235 0H16.0988C16.0045 0 15.9106 0.0143511 15.8211 0.0443623C14.7956 0.388373 13.8294 0.891089 12.9575 1.53464C11.7064 2.57273 10.4674 2.98759 12.5319 3.61065C14.6091 4.23324 12.1191 5.07618 11.0869 4.85609C10.0546 4.64853 7.56464 6.94442 6.32599 6.32183C5.07492 5.69899 4.0424 7.56727 1.346 9.02044C-1.35057 10.486 2.58486 10.6812 1.12711 11.5113C-0.317966 12.3543 6.11961 11.9392 3.21657 15.4679C1.62737 17.4115 4.03011 16.0557 4.45543 18.3868C4.89322 20.7199 3.42295 23.1738 6.32599 22.7587C9.22903 22.3436 6.53238 23.7991 4.24879 24.8369C2.14796 25.7983 6.83409 27.3869 9.1438 27.4425C9.66846 27.4551 10.2873 27.4456 11.0744 27.3405C14.1836 26.9254 15.8478 27.9633 14.803 30.0391C14.4169 30.7432 15.0282 31.4873 15.8312 31.4873H16.5601C16.737 31.4873 16.9126 31.4608 17.0844 31.419C17.9399 31.2109 18.8273 31.1813 19.6919 31.33C20.1526 31.4093 20.6156 31.4873 21.0831 31.4873H156.977C158.269 31.4873 159.337 29.6669 160.492 30.2472Z" fill="white" fill-opacity="0.5"/>
<path d="M17.5054 104.521C15.8537 108.686 13.9831 107.44 17.0926 111.812C17.5054 112.435 18.54 113.888 21.234 113.473C23.9306 113.058 27.6715 113.68 29.3355 112.85C30.9872 112.02 29.7485 114.718 30.9872 114.51C32.2258 114.303 35.9546 115.964 37.4024 118.052C38.8476 120.128 39.0639 120.128 40.3052 119.09C41.5438 118.052 38.8476 119.92 40.9248 122.009C41.5786 122.669 43.218 123.254 41.9667 123.669C40.728 124.085 41.5539 127.626 42.7925 128.041C44.0438 128.456 44.8597 130.533 47.1432 129.91C47.2568 129.879 47.3601 129.853 47.4542 129.832C48.2281 129.657 49.0329 130.086 49.8262 130.086C50.043 130.086 50.2601 130.06 50.4673 129.997C53.3988 129.096 51.9241 127.535 56.8839 125.538C62.0578 123.462 66.841 121.801 67.8731 122.424C68.908 123.047 69.7436 122.839 74.0819 120.543C78.442 118.26 79.268 118.467 82.5837 117.845C84.77 117.442 86.9962 117.303 89.2152 117.429C90.6605 117.429 92.9439 114.926 94.4013 116.391C95.583 117.579 97.7303 113.625 98.249 110.435C98.4517 109.188 98.7008 107.876 99.5692 106.959C101.282 105.15 103.063 104.276 104.555 103.276C106.426 102.03 106.826 99.9419 109.097 100.162C110.773 100.314 110.271 98.5986 108.589 98.5986H24.3459C22.5495 98.5986 20.8318 99.525 19.6655 100.891C18.9701 101.706 18.239 102.691 17.5054 104.521Z" fill="white" fill-opacity="0.5"/>
</svg>
