<svg width="404" height="159" viewBox="0 0 404 159" fill="none" xmlns="http://www.w3.org/2000/svg">
<g clip-path="url(#clip0)">
<path fill-rule="evenodd" clip-rule="evenodd" d="M307.772 8.69843C317.416 5.5545 325.785 15.9115 343.21 9.06292C353.804 4.90339 335.283 20.3609 355.301 22.2325C366.336 30.5502 350.041 39.2709 367.066 43.0655C384.712 47.0089 374.297 47.954 383.47 55.3642C378.61 60.1971 385.587 66.7187 378.098 64.5201C370.571 62.34 374.993 64.9553 376.747 77.6711C378.536 90.3865 384.27 82.0498 382.482 91.2424C380.728 100.45 388.217 109.642 393.952 108.333C399.69 107.027 395.194 118.232 401.041 120.16C403.671 121.049 403.45 123.575 404 125.755C386.904 135.055 397.023 121.905 384.637 121.905C374.518 121.905 381.607 118.18 360.819 116.216C348.837 115.074 352.779 117.563 346.682 123.284C337.4 112.332 343.685 122.358 323.81 122.358C292.21 122.358 282.345 143.809 257.651 131.112C243.11 143.809 235.146 133.746 228.535 135.49C228.094 145.572 228.973 147.752 229.411 153.455C224.151 158.27 226.343 159.523 214.87 156.707C210.452 145.137 224.551 153.891 218.378 141.175C215.161 134.564 211.619 143.809 208.259 143.809C195.032 143.809 198.978 130.241 186.192 140.758C173.405 151.257 183.086 159.597 175.597 155.635C176.477 156.108 156.71 161.666 153.571 157.399C143.852 144.267 138.117 147.752 130.152 142.068C122.226 136.361 111.956 137.689 114.736 144.267C118.279 152.585 99.4994 152.875 97.9652 156.525C95.773 161.777 79.0062 149.077 84.3033 144.684C89.6007 140.305 74.1469 144.267 73.7093 140.305C74.1096 143.682 61.1394 143.794 60.4854 142.938C57.8178 139.434 49.8159 144.754 48.136 142.503C44.1519 137.235 60.9226 139.434 61.7979 134.62C62.0192 133.474 46.3103 135.182 46.3819 135.49C45.9438 133.292 43.7143 128.478 48.5736 130.241C53.4334 131.986 53.8711 122.794 49.0117 124.538C44.1519 126.298 45.4688 120.16 38.8547 120.16C30.9274 120.16 44.3352 111.167 32.2443 105.718C27.3849 103.519 26.9473 98.7048 20.771 103.519C14.5983 108.333 23.4382 96.5097 18.1412 92.1315C12.8437 87.7343 18.1074 83.8279 20.771 87.7343C27.3849 97.3811 21.2122 87.7343 26.5097 88.6233C31.8066 89.4977 20.3335 81.1795 25.1927 79.8513C30.0521 78.5453 21.2122 76.8004 24.3176 74.1665C27.3851 71.5327 9.73914 68.9175 23.4384 64.085C4.22484 64.6836 17.9618 64.8105 13.2856 54.8924C10.1767 48.3187 14.1606 52.2767 20.7712 49.1887C27.3851 46.1382 34.4741 36.9275 37.1044 41.76C39.7343 46.5553 42.8391 37.8165 47.2608 41.3062C50.2199 43.6683 76.1183 42.0312 68.4119 39.1262C59.1681 35.6179 81.1986 36.0562 88.2501 33.4228C75.4973 29.0441 59.1682 35.1637 64.9032 24.2303C70.6419 13.2778 98.4034 34.7475 108.122 23.36C117.841 11.9684 126.643 18.0919 139.43 8.89893C152.217 -0.293191 168.108 8.89893 176.51 1.88673C184.879 -5.12618 184 9.76967 196.786 8.46401C209.572 7.13602 200.332 15.9117 214.87 16.3474C229.41 16.7826 219.475 24.6285 228.093 22.9022C230.323 22.4855 241.322 30.8041 258.964 22.9022C272.08 17.0539 282.82 40.7407 307.772 8.69868V8.69843ZM0.532597 32.6044C-1.9884 34.4566 5.20889 33.5305 6.12151 35.7105C7.07186 37.8534 6.45069 43.7389 10.7978 42.5039C15.1822 41.2685 16.0948 38.7986 21.721 36.0008C27.314 33.2221 26.6892 38.1809 22.6376 38.7986C18.5824 39.4158 16.7159 43.1211 12.99 46.845C9.23027 50.5508 14.853 49.6242 18.9082 46.5366C22.9926 43.3451 27.373 40.5472 31.9903 38.1809C37.1376 35.5471 33.0824 32.7678 36.8123 31.5329C40.5721 30.2979 38.0879 25.6475 43.6804 25.0298C49.2698 24.4122 50.2197 29.9706 53.0332 26.5737C55.8425 23.1586 62.2023 30.8966 62.9314 22.396C63.553 20.2159 61.3603 22.7049 54.8211 18.0544C48.2822 13.4231 40.5011 7.3733 37.9797 3.97731C31.2569 4.1739 24.7554 3.19611 19.7872 1.0346C14.7821 -1.13043 12.6272 3.81337 9.19314 4.44965C5.75857 5.04876 4.80877 5.37618 2.03273 8.80623C5.42948 11.2947 7.95093 11.2425 7.00098 15.5841C6.05058 19.9071 1.70354 18.3633 1.3743 21.4699C1.08284 24.5575 4.3338 28.2809 0.532798 32.6044H0.532597Z" fill="white" fill-opacity="0.5"/>
</g>
<defs>
<clipPath id="clip0">
<rect width="404" height="159" rx="5" fill="white"/>
</clipPath>
</defs>
</svg>
