<svg width="135" height="192" viewBox="0 0 135 192" fill="none" xmlns="http://www.w3.org/2000/svg">
<path fill-rule="evenodd" clip-rule="evenodd" d="M25.7837 0.433117C25.7836 0.433236 25.7837 0.433374 25.7839 0.433314C28.3757 -0.791201 31.3305 0.738785 30.015 3.03076C29.2916 4.30998 37.8072 2.00546 39.2767 2.02655C39.4445 2.02896 39.6104 2.03876 39.7735 2.05682C42.6899 2.38139 48.5408 2.38139 49.209 1.40745C49.8568 0.433513 56.3561 -0.215903 54.0687 2.38139C51.8007 4.97864 56.356 5.95258 51.8007 8.24441C47.2648 10.5174 42.8226 14.3351 40.746 15.3874C38.6497 16.4357 37.2759 18.4815 35.8664 17.66C38.1344 18.9782 42.3656 18.3289 41.0698 20.277C39.7739 22.225 40.0783 22.2249 37.4668 22.2249C34.8749 22.2249 38.4779 23.2184 36.8383 24.5166C35.2183 25.8157 37.8108 24.8221 41.0698 23.8482C44.3297 22.8737 48.2172 20.6015 54.0687 22.5494C59.9396 24.5166 58.6241 21.5754 63.8272 22.5494C69.0307 23.543 71.2639 20.7149 72.6141 26.7896C73.2622 29.7311 68.0587 30.0363 68.7068 33.9517C69.3548 37.8477 66.7433 38.4968 64.1317 42.4125C61.5398 46.3083 60.5875 49.2303 55.6889 49.2303C53.9676 49.2303 54.4554 50.1584 55.9409 51.028C56.3869 51.2892 56.7555 51.6542 57.004 52.1522C58.624 55.4179 60.5875 54.1197 57.004 55.4179C53.4205 56.7162 54.0882 54.1197 51.1525 57.0418C48.2367 59.9832 42.0417 58.6646 40.8981 57.7302C39.7544 56.7756 40.7459 60.6324 50.4852 59.9832C60.244 59.3339 55.2512 55.8955 62.2078 60.3071C69.1831 64.7199 65.9039 59.5058 69.1635 64.7199C72.4074 69.9144 73.8906 66.1515 75.5302 73.6381C77.1499 81.125 79.4961 80.4953 80.066 86.3392C80.4095 89.5894 82.3534 90.7905 84.9453 90.8882C94.0561 91.2128 95.3912 98.8875 98.2877 99.998C106.75 103.264 95.6957 100.647 99.2596 104.563C102.843 108.458 105.455 112.699 104.237 113.309C102.329 114.217 101.779 113.725 103.714 114.576C104.249 114.812 104.847 115.061 105.532 115.335C110.314 117.244 110.314 122.783 106.427 125.705C102.519 128.627 102.519 126.354 105.759 129.296C109.019 132.218 109.667 133.192 111.934 128.302C114.222 123.432 118.762 123.757 122.989 125.056C127.241 126.354 137.553 131.873 133.341 139.36C129.11 146.866 134.618 142.302 130.73 145.548C130.279 145.923 129.85 146.247 129.445 146.525C129.218 146.681 125.837 151.594 125.601 151.736C124.514 152.39 123.607 152.495 122.882 152.347C122.594 152.288 118.942 152.177 118.664 152.272C116.092 153.133 123.677 153.743 120.437 156.34C117.177 158.938 114.929 158.746 113.27 158.003C111.63 157.275 114.281 160.885 109.936 159.778C112.622 160.467 116.377 161.918 120.074 162.145C125.277 162.47 131.093 159.72 130.481 161.82C129.832 164.113 132.12 166.635 127.564 167.934C121.182 169.769 123.181 173.148 118.645 171.505C115.081 170.207 114.546 177.443 105.455 174.846C96.3442 172.249 88.2837 178.898 88.5292 176.469C88.7791 174.025 84.7935 177.979 82.3538 174.846C79.9142 171.697 77.6661 170.129 79.2855 172.726C80.905 175.323 79.4184 176.793 76.8264 176.793C74.2149 176.793 66.8216 175.957 69.7573 177.255C72.6731 178.573 69.4137 181.992 65.1237 180.369C60.8182 178.742 60.5685 181.683 58.2809 179.066C56.0128 176.469 52.4294 176.144 49.1894 177.118C45.9304 178.092 42.0225 176.793 41.6986 179.391C41.3747 182.008 40.7463 186.232 38.4586 186.882C36.171 187.531 32.9509 187.586 32.6074 185.599C32.2639 183.631 25.9753 185.046 27.7278 183.291C29.5195 181.55 19.9327 186.882 19.6085 184.605C19.2846 182.317 19.1132 187.261 14.3309 187.242C9.52574 187.206 14.405 190.453 11.4893 191.771C8.55385 193.05 8.22971 188.505 4.3223 189.479C0.43428 190.453 -2.11842 187.758 2.70233 186.882C7.52335 186.021 9.52594 185.258 12.7851 181.683C16.0251 178.092 16.9969 177.443 21.2285 175.17C25.46 172.878 19.9327 168.333 24.8123 169.632C29.6918 170.931 26.834 166.178 29.1018 165.544C39.1262 162.814 37.8111 165.086 40.4221 165.411C43.014 165.736 50.1807 166.71 50.5049 164.418C50.829 162.145 54.069 159.223 55.6892 159.872C57.3286 160.521 56.3564 156.626 60.9118 154.333C54.4125 156.626 55.6892 158.574 51.4771 158.574C47.2649 158.574 48.8656 161.82 43.6621 161.82C41.1155 161.82 39.1116 160.488 37.7317 159.133C36.2005 157.629 34.1003 156.491 32.0504 157.127C31.5839 157.272 31.1214 157.429 30.6632 157.6C28.0522 158.574 25.7839 155.957 28.0522 155.957C30.3393 155.957 29.9958 156.015 27.841 153.837C25.671 151.681 25.784 153.684 22.8485 153.684C19.9327 153.684 14.7292 157.275 16.3489 155.308C17.969 153.359 8.85815 156.301 11.1458 153.684C13.4138 151.087 8.40153 148.204 12.1177 147.84C15.8343 147.457 18.9605 144.899 22.5438 144.574C26.1077 144.249 31.7328 141.578 33.2747 136.438C33.7314 134.928 28.8167 135.464 34.1141 131.932C36.4096 130.409 27.2834 127.188 25.8208 129.523C25.6845 129.74 25.5646 129.988 25.4599 130.27C24.4877 132.866 23.84 129.62 21.2284 130.27C18.6365 130.899 20.9045 127.328 24.8122 126.679C28.7198 126.029 26.5451 123.659 30.1286 121.711C33.712 119.763 17.6646 121.465 25.1358 117.569C32.6071 113.673 33.6767 119.458 31.846 120.623C30.0154 121.809 33.9031 119.517 37.811 118.543C41.7189 117.569 40.746 119.861 44.9774 118.543C45.6672 118.331 46.2896 118.261 46.8483 118.293C47.8534 118.35 48.8885 117.195 49.857 116.92C50.7782 116.656 51.7375 117.527 52.7487 118.349C54.5017 119.775 53.9698 117.556 52.217 116.13C51.6586 115.676 51.1652 115.235 50.707 114.932C50.4275 114.748 50.3973 114.094 50.5478 113.794C50.8867 113.12 51.5237 106.935 51.8983 106.28C54.4709 101.735 57.9762 98.3748 53.4208 99.9981C48.8654 101.621 49.7631 94.3071 48.674 97.7998C47.5695 101.297 49.9348 105.498 45.7035 98.3553C41.472 91.1933 42.3659 89.5893 44.9773 86.6479C45.2088 86.4019 45.449 86.1654 45.6973 85.9387C48.1137 83.7325 48.0475 83.6628 44.8867 82.8168C44.3098 82.6624 43.8658 82.4326 43.6619 82.0988C42.6902 80.4755 42.6902 86.0142 40.4219 84.0467C38.1345 82.0988 36.2884 89.0927 34.1334 86.1861C29.3672 79.8256 29.0431 90.5633 26.7557 87.3128C24.4877 84.0465 22.8484 83.3974 20.9045 84.3907C20.1959 84.7286 19.4409 85.783 18.9508 85.1697C17.5697 83.441 16.3013 81.83 16.6931 81.4491C17.3406 80.8 18.6367 83.7218 19.9328 82.7479C21.2289 81.7739 18.3125 80.1506 20.9047 76.904C23.5159 73.6377 23.516 72.0146 26.1079 70.7159C28.7194 69.4171 21.2286 67.125 22.544 63.5533C22.7606 62.9566 23.8552 57.1714 24.0167 56.5574C24.1281 56.1341 24.3131 55.667 24.5858 55.1515C21.8767 59.6383 18.1019 65.6933 15.7207 59.3331C14.7294 56.7162 14.7294 60.9367 15.3968 62.5797C16.0252 64.203 11.7937 67.4691 11.146 71.3651C10.4982 75.2611 6.86004 74.7291 8.87793 69.7418C10.8999 64.7387 13.0897 62.5797 11.4698 60.5577C9.84986 58.551 12.2507 60.0961 13.203 56.3919C14.1789 52.6876 12.2311 48.2752 16.1774 48.3693C26.108 48.6001 10.5175 49.6521 15.3968 46.0615C20.2761 42.4709 8.554 47.2814 12.1179 43.3859C15.7207 39.4705 -0.23291 44.3598 4.97056 41.4184C10.1742 38.4963 10.7478 36.1845 12.7853 36.2238C14.8269 36.2433 10.4043 33.8925 16.2553 33.8925C22.1064 33.8925 9.84965 31.0092 13.757 29.0616C17.6644 27.1139 11.1458 24.8213 13.757 23.5422C16.3489 22.2241 8.22968 18.328 12.1177 18.0035C16.0251 17.6592 17.3405 14.4126 18.9605 16.3605C19.4813 16.9486 20.1218 17.4181 20.8389 17.7372C21.5132 18.0373 21.8247 17.2589 21.2426 16.8051C19.0603 15.104 15.9929 12.4648 17.9689 12.4648C20.9046 12.4648 16.3489 8.56872 19.6085 8.56872C22.8485 8.56872 21.2285 5.32206 24.1639 5.6469C27.0797 5.95178 19.6089 3.3544 25.7835 0.432929C25.7836 0.43287 25.7837 0.432998 25.7837 0.433117Z" fill="white" fill-opacity="0.5"/>
</svg>
