<svg width="76" height="156" viewBox="0 0 76 156" fill="none" xmlns="http://www.w3.org/2000/svg">
<path d="M0.86772 11.224C3.71075 16.3527 7.91534 20.5926 10.2928 26.2434C11.4145 28.9101 15.4145 29.1288 18.9277 27.9577C25.2981 25.8342 24.1129 33.3192 27.4427 35.4639C29.0653 36.5079 27.0123 38.4974 25.1217 38.9136C14.5961 41.2698 19.1605 44.4656 24.4868 47.993C36.4797 55.9577 43.6261 68.5009 52.6138 79.1393C59.2663 87.0335 52.8607 98.4339 55.5132 108.085C56.9947 113.453 54.7725 117.376 48.8395 119.019C39.2945 121.644 35.4356 132.409 26.0459 135.464C25.4533 135.654 24.8395 137.707 24.8818 137.735C32.9876 142.187 24.642 150.321 29.2839 156.007C30.3633 155.52 31.7037 155.132 32.769 154.37C43.6402 146.568 52.5573 136.12 65.3192 130.857C68.9171 129.404 72.4938 127.062 73.4533 122.772C77.291 105.799 75.6966 89.4744 63.0194 76.7972C55.7531 69.545 48.6702 62.3563 42.1799 54.3633C36.3527 47.1746 37.5873 42.1517 43.1252 35.8448C48.2469 30.0176 53.6508 24.7055 61.1781 19.7672C50.1869 16.4727 46.9912 14.8854 47.7319 10.9912C48.8607 5.17108 46.5961 3.19577 41.94 4.32452C37.0935 5.50971 35.0899 -2.96296 30.6878 1.14992C23.1605 8.16932 14.4056 7.22399 5.46737 6.52558C2.06701 6.27867 0.126979 9.89066 0.86772 11.224Z" fill="white" fill-opacity="0.5"/>
</svg>
