<svg id="Layer_1" data-name="Layer 1" xmlns="http://www.w3.org/2000/svg" viewBox="0 0 344.88 103.28"><defs><style>.cls-1,.cls-4{fill:#2e4354;}.cls-2{fill:#5c7e97;}.cls-3{fill:none;stroke:#2e4354;stroke-miterlimit:10;stroke-width:0.1px;}.cls-3,.cls-4{fill-rule:evenodd;}</style></defs><path class="cls-1" d="M406.92,348.7H388.31c-4.46,0-8.11-3.34-8.11-7.41V252.9c0-4.07,3.65-7.41,8.11-7.41h18.61c4.46,0,8.11,3.34,8.11,7.41v88.39c0,4.07-3.65,7.41-8.11,7.41" transform="translate(-273.07 -245.49)"/><path class="cls-1" d="M351.17,347.74c-.25.13-3.57,1.8-6.28.4-3.64-1.87-3.48-7.84-4.08-19.57-.5-9.81-.75-14.72-1.51-20.09-1.26-8.82-2.5-16.75-7.8-24.76A41.94,41.94,0,0,0,319.76,272c-12-7.91-29.48-10.16-31.07-10.35-4.53-.55-9.51-.77-11.42-4.16a7.36,7.36,0,0,1,.38-7.21c2.07-3.29,6.47-3.8,15.06-4.25,11.25-.59,16.34-.38,26.32-.46,10.42-.08,14.67-.39,20.72,1.94a25,25,0,0,1,8.56,5c5.24,4.86,6.78,11.16,7.65,15.43,3.17,15.62,2.4,29.43,1.65,50.84-.6,17-.74,26-6.44,28.95" transform="translate(-273.07 -245.49)"/><path class="cls-1" d="M304.1,348.38l-18.15.31c-4.41.08-8.07-3.16-8.14-7.2l-.66-37.71c-.07-4,3.48-7.41,7.89-7.48l18.15-.32c4.41-.08,8.07,3.16,8.14,7.2L312,340.9c.07,4-3.47,7.4-7.88,7.48" transform="translate(-273.07 -245.49)"/><path class="cls-2" d="M365.29,313.44c-13.79,16.57-32.63,31.82-55.42,34.8-10.81,1.41-23.27-.25-31.23-7.95-6.91-6.67-7.82-17.46-.26-24-10.77,21.3,18.32,28.7,34.91,26C333.62,338.91,350.7,326.57,365.29,313.44Z" transform="translate(-273.07 -245.49)"/><path class="cls-2" d="M410,309.66l-2.82-8.26c.22-.2.42-.4.6-.59,1.49-1.59,1.17-2.17.57-2.67s-1.07-.68-2.18.3l-2-5.85c.18-.17.36-.34.51-.51,1.49-1.58,1.17-2.17.57-2.67s-1-.66-2.09.22l-2.86-8.36c6.92-7.71,6.65-9.54,5.31-10.69h0c-1.35-1.14-3.3-1.2-10.6,6.21l-9.1-1.74c.81-1.09.51-1.57,0-2s-1.24-.75-2.73.84l-.48.54-6.36-1.21c.9-1.16.59-1.65.07-2.09s-1.25-.74-2.74.84l-.55.63-9-1.71a3.08,3.08,0,0,0-2.38.77l-1.9,2,28.24,10.57c-4.62,5.25-9.39,11.08-12.45,15.37l-8.84-.62a1.29,1.29,0,0,0-.84.37l-.73.77,8.05,3.07a5.35,5.35,0,0,0-.94,2.34,10.09,10.09,0,0,0-1.55,2h0a12.5,12.5,0,0,0,1.94-1.7,6,6,0,0,0,2.35-1.15l4.13,7.22.73-.78a1.12,1.12,0,0,0,.29-.82l-1.66-8.26c4.14-3.37,9.71-8.52,14.69-13.47L407.58,314l1.89-2A2.72,2.72,0,0,0,410,309.66Z" transform="translate(-273.07 -245.49)"/><path class="cls-1" d="M419.66,334.37a27.69,27.69,0,0,1,1.55-4,.76.76,0,0,1,.75-.44,1.48,1.48,0,0,1,.85.27.81.81,0,0,1,.4.7.85.85,0,0,1-.1.4l-.62,1.35a1.9,1.9,0,0,1,.48,3.06,1.85,1.85,0,0,1-1.36.57,1.91,1.91,0,0,1-1.37-.57A1.82,1.82,0,0,1,419.66,334.37Z" transform="translate(-273.07 -245.49)"/><path class="cls-1" d="M424.56,346.4a2.08,2.08,0,0,1,.38-1.11,1.08,1.08,0,0,1,.9-.59,1.59,1.59,0,0,1,.73.24,8.36,8.36,0,0,0,1.1.5,4.11,4.11,0,0,0,1.54.26c1,0,1.55-.26,1.55-.79,0-.29-.2-.53-.6-.71a7.17,7.17,0,0,0-1.46-.47,14.14,14.14,0,0,1-1.73-.51,3.32,3.32,0,0,1-1.46-1,2.8,2.8,0,0,1-.6-1.85,3.86,3.86,0,0,1,1.13-2.79,4.8,4.8,0,0,1,3.57-1.15,8,8,0,0,1,3,.51q1.29.51,1.29,1.29a2.3,2.3,0,0,1-.4,1.16,1.18,1.18,0,0,1-1,.67,5,5,0,0,1-1.15-.32,5,5,0,0,0-1.65-.31,2,2,0,0,0-1.06.23.64.64,0,0,0-.36.54c0,.24.2.43.61.58s.9.28,1.47.42a12.7,12.7,0,0,1,1.73.53,3.27,3.27,0,0,1,1.47,1.1,3.08,3.08,0,0,1,.62,2,3.53,3.53,0,0,1-1.27,2.89,5.4,5.4,0,0,1-3.56,1.05A7.5,7.5,0,0,1,426,348C425,347.55,424.56,347,424.56,346.4Z" transform="translate(-273.07 -245.49)"/><path class="cls-1" d="M440.21,345.24a2.94,2.94,0,0,1,1.51-2.82,9.25,9.25,0,0,1,4.34-.82h.9v-.26a2.12,2.12,0,0,0-.45-1.36,1.67,1.67,0,0,0-1.42-.58,3.82,3.82,0,0,0-2,.46,3.29,3.29,0,0,1-.95.47,1.07,1.07,0,0,1-1-.59,2.6,2.6,0,0,1-.35-1.34c0-.55.46-1,1.39-1.41a7.36,7.36,0,0,1,2.89-.59,5.87,5.87,0,0,1,4.28,1.4,4.73,4.73,0,0,1,1.42,3.5v5.95a1,1,0,0,1-.54.85,2.47,2.47,0,0,1-1.36.35,2,2,0,0,1-1.23-.37,1.13,1.13,0,0,1-.5-.91v-.59a4.92,4.92,0,0,1-3.8,2.12,3.12,3.12,0,0,1-2.29-.89A3.44,3.44,0,0,1,440.21,345.24Zm3.9-.51a.86.86,0,0,0,1,1,1.81,1.81,0,0,0,1.25-.65,2.1,2.1,0,0,0,.62-1.48v-.1h-.1a12.31,12.31,0,0,0-1.36.07,2.23,2.23,0,0,0-1,.36A.94.94,0,0,0,444.11,344.73Z" transform="translate(-273.07 -245.49)"/><path class="cls-1" d="M453,347.25v-9.53a1,1,0,0,1,.53-.85,2.7,2.7,0,0,1,1.37-.32,2.16,2.16,0,0,1,1.22.33,1,1,0,0,1,.5.85v.94a4.2,4.2,0,0,1,1.24-1.59,2.76,2.76,0,0,1,1.74-.68h.72a1.21,1.21,0,0,1,1,.5,1.8,1.8,0,0,1,.42,1.19,1.84,1.84,0,0,1-.42,1.21,1.21,1.21,0,0,1-1,.5h-.72a2.39,2.39,0,0,0-1.9,1,4.18,4.18,0,0,0-.83,2.68v3.74a1,1,0,0,1-.59.83,2.5,2.5,0,0,1-1.38.37,2.38,2.38,0,0,1-1.35-.36A1,1,0,0,1,453,347.25Z" transform="translate(-273.07 -245.49)"/><path class="cls-1" d="M475.26,343.45v-5.7a1,1,0,0,1,.58-.82,2.45,2.45,0,0,1,1.37-.38,2.52,2.52,0,0,1,1.34.37,1,1,0,0,1,.59.83v5.68a1.87,1.87,0,0,0,.54,1.3,1.74,1.74,0,0,0,1.28.57,1.68,1.68,0,0,0,1.26-.57,1.87,1.87,0,0,0,.54-1.3v-5.71a1,1,0,0,1,.59-.82,2.62,2.62,0,0,1,1.36-.35,2.57,2.57,0,0,1,1.38.35,1,1,0,0,1,.55.82v5.73a4.88,4.88,0,0,1-1.69,3.67,5.85,5.85,0,0,1-8,0A4.84,4.84,0,0,1,475.26,343.45Z" transform="translate(-273.07 -245.49)"/><path class="cls-1" d="M488.76,347.25v-9.53a1,1,0,0,1,.54-.85,2.71,2.71,0,0,1,1.38-.32,2.17,2.17,0,0,1,1.21.33,1,1,0,0,1,.5.85v.58a3.38,3.38,0,0,1,1.28-1.36,3.8,3.8,0,0,1,2.06-.55,3.75,3.75,0,0,1,3,1.55,5.68,5.68,0,0,1,1.26,3.7v5.6a1,1,0,0,1-.57.89,3.07,3.07,0,0,1-2.71,0,1,1,0,0,1-.59-.88v-5.58a1.87,1.87,0,0,0-.54-1.3,1.68,1.68,0,0,0-1.26-.57,1.6,1.6,0,0,0-1.16.51,1.83,1.83,0,0,0-.51,1.36v5.58a1,1,0,0,1-.59.83,2.75,2.75,0,0,1-2.74,0A1,1,0,0,1,488.76,347.25Z" transform="translate(-273.07 -245.49)"/><path class="cls-1" d="M501.68,343.4v-1.75A5.61,5.61,0,0,1,503,338a4,4,0,0,1,3.13-1.55A3.37,3.37,0,0,1,508,337a3.7,3.7,0,0,1,1.26,1.36V331a1,1,0,0,1,.57-.85,2.73,2.73,0,0,1,1.41-.32,2.56,2.56,0,0,1,1.36.32,1,1,0,0,1,.54.85v16.3a1,1,0,0,1-.55.84,2.43,2.43,0,0,1-1.35.36,2,2,0,0,1-1.21-.38,1.07,1.07,0,0,1-.52-.83v-.55a3.43,3.43,0,0,1-1.37,1.42,4.07,4.07,0,0,1-2.13.59,3.84,3.84,0,0,1-3-1.6A5.65,5.65,0,0,1,501.68,343.4Zm3.88,0a1.9,1.9,0,0,0,.54,1.33,1.66,1.66,0,0,0,1.26.58,1.86,1.86,0,0,0,1.32-.59,1.63,1.63,0,0,0,.6-1v-2a1.71,1.71,0,0,0-.58-1.34,1.91,1.91,0,0,0-1.31-.52,1.72,1.72,0,0,0-1.29.57,1.83,1.83,0,0,0-.54,1.29Z" transform="translate(-273.07 -245.49)"/><path class="cls-1" d="M520.39,344.29V332.78A1,1,0,0,1,521,332a2.77,2.77,0,0,1,1.33-.34,2.71,2.71,0,0,1,1.36.33.93.93,0,0,1,.59.79v3.81h2.83a.75.75,0,0,1,.69.45,2.09,2.09,0,0,1,.25,1.05,2.05,2.05,0,0,1-.25,1.06.76.76,0,0,1-.69.44h-2.83v4.59a1,1,0,0,0,.22.71,1.26,1.26,0,0,0,.8.2h1.08a1.53,1.53,0,0,1,1.23.51,1.82,1.82,0,0,1,.42,1.19,1.79,1.79,0,0,1-.42,1.2,1.55,1.55,0,0,1-1.23.5h-1.08Q520.39,348.45,520.39,344.29Z" transform="translate(-273.07 -245.49)"/><path class="cls-1" d="M529.56,347.25V331a1,1,0,0,1,.54-.85,2.61,2.61,0,0,1,1.38-.32,2.71,2.71,0,0,1,1.38.32,1,1,0,0,1,.57.85v7.36a3.42,3.42,0,0,1,1.19-1.36,3.3,3.3,0,0,1,1.91-.55,3.77,3.77,0,0,1,3,1.55,5.68,5.68,0,0,1,1.26,3.7v5.6a1,1,0,0,1-.57.89,2.81,2.81,0,0,1-1.38.31,2.75,2.75,0,0,1-1.33-.32,1,1,0,0,1-.59-.88v-5.58a1.87,1.87,0,0,0-.54-1.3,1.68,1.68,0,0,0-1.26-.57,1.6,1.6,0,0,0-1.16.51,1.8,1.8,0,0,0-.52,1.36v5.58a1,1,0,0,1-.58.83,2.49,2.49,0,0,1-1.37.37,2.45,2.45,0,0,1-1.37-.36A1,1,0,0,1,529.56,347.25Z" transform="translate(-273.07 -245.49)"/><path class="cls-1" d="M542.46,343.4v-1.82a4.73,4.73,0,0,1,1.69-3.65,5.83,5.83,0,0,1,4.06-1.53,5.69,5.69,0,0,1,3.8,1.34,4.31,4.31,0,0,1,1.57,3.42,3.45,3.45,0,0,1-.2,1.3,1.22,1.22,0,0,1-.6.69,2.48,2.48,0,0,1-.73.26,5.32,5.32,0,0,1-.89.06h-4.83v.16a1.86,1.86,0,0,0,.7,1.5,2.86,2.86,0,0,0,1.85.57,4.1,4.1,0,0,0,1.84-.48,4,4,0,0,1,1.29-.47,1.19,1.19,0,0,1,1,.59,2,2,0,0,1,.4,1.11c0,.52-.44,1-1.33,1.51a6.82,6.82,0,0,1-3.32.74,7,7,0,0,1-4.56-1.46A4.77,4.77,0,0,1,542.46,343.4Zm3.87-2.1h3.1a.47.47,0,0,0,.53-.54,1.15,1.15,0,0,0-.54-1,2.27,2.27,0,0,0-1.29-.36,2.22,2.22,0,0,0-1.26.36,1.15,1.15,0,0,0-.54,1Z" transform="translate(-273.07 -245.49)"/><path class="cls-1" d="M559.23,338c0-.42.29-.78.87-1.09a3.49,3.49,0,0,1,1.68-.46q.88,0,1.08.6l2.22,6.35,1.6-5.38c.15-.5.58-.75,1.28-.75s1.12.25,1.27.75l1.6,5.38,2.23-6.35q.2-.6,1.05-.6a3.58,3.58,0,0,1,1.69.47c.57.32.86.7.86,1.13a1,1,0,0,1-.1.47l-3.85,9.63c-.18.45-.68.68-1.5.68s-1.43-.23-1.6-.68L568,343.75l-1.65,4.35c-.17.45-.71.68-1.63.68s-1.29-.23-1.47-.68l-3.85-9.63A1.63,1.63,0,0,1,559.23,338Z" transform="translate(-273.07 -245.49)"/><path class="cls-1" d="M590.48,347.25v-9.53a1,1,0,0,1,.54-.85,2.66,2.66,0,0,1,1.36-.32,2.19,2.19,0,0,1,1.23.33,1,1,0,0,1,.5.85v.94a4.2,4.2,0,0,1,1.24-1.59,2.71,2.71,0,0,1,1.73-.68h.73a1.21,1.21,0,0,1,1,.5,1.79,1.79,0,0,1,.41,1.19,1.83,1.83,0,0,1-.41,1.21,1.21,1.21,0,0,1-1,.5h-.73a2.4,2.4,0,0,0-1.9,1,4.18,4.18,0,0,0-.82,2.68v3.74a1,1,0,0,1-.59.83,2.51,2.51,0,0,1-1.39.37,2.43,2.43,0,0,1-1.35-.36A1,1,0,0,1,590.48,347.25Z" transform="translate(-273.07 -245.49)"/><path class="cls-1" d="M600.56,347.25V330.93a1,1,0,0,1,.54-.85,2.59,2.59,0,0,1,1.38-.33,2.7,2.7,0,0,1,1.39.33,1,1,0,0,1,.56.85v16.32a1,1,0,0,1-.57.83,2.77,2.77,0,0,1-2.75,0A1,1,0,0,1,600.56,347.25Z" transform="translate(-273.07 -245.49)"/><path class="cls-1" d="M606.48,343.4v-1.75a5.61,5.61,0,0,1,1.3-3.7,4,4,0,0,1,3.13-1.55,3.39,3.39,0,0,1,1.91.55,3.7,3.7,0,0,1,1.26,1.36V331a1,1,0,0,1,.56-.85,2.79,2.79,0,0,1,1.42-.32,2.56,2.56,0,0,1,1.36.32,1,1,0,0,1,.54.85v16.3a1,1,0,0,1-.55.84,2.43,2.43,0,0,1-1.35.36,2,2,0,0,1-1.21-.38,1,1,0,0,1-.52-.83v-.55a3.43,3.43,0,0,1-1.37,1.42,4.07,4.07,0,0,1-2.13.59,3.83,3.83,0,0,1-3-1.6A5.65,5.65,0,0,1,606.48,343.4Zm3.88,0a1.94,1.94,0,0,0,.53,1.33,1.67,1.67,0,0,0,1.27.58,1.86,1.86,0,0,0,1.32-.59,1.63,1.63,0,0,0,.6-1v-2a1.71,1.71,0,0,0-.58-1.34,1.94,1.94,0,0,0-1.32-.52,1.72,1.72,0,0,0-1.29.57,1.86,1.86,0,0,0-.53,1.29Z" transform="translate(-273.07 -245.49)"/><g id="globe"><path class="cls-3" d="M473.43,341a5.61,5.61,0,1,1-6.63-4.38A5.61,5.61,0,0,1,473.43,341Z" transform="translate(-273.07 -245.49)"/><path class="cls-4" d="M467.17,347.68a5.43,5.43,0,0,1-1.2-.31,6.12,6.12,0,0,0-.2-.82c-.14-.18-.33-.12-.49-.26s-.3-.53-.52-.6c0-.27-.16-.42.07-.62a.53.53,0,0,1,.12-.68s-.05,0-.06-.08-.07.07-.05.15c-.15,0-.25-.12-.41-.12-.09-.35-.52-.15-.69-.36-.27.15-.52-.05-.79-.07-.06-.23-.28-.36-.48-.5a1,1,0,0,1,0-.17,5.55,5.55,0,0,1,.47-3.61l.08,0s0-.07,0-.09l.09-.16c.06.07-.06.14,0,.26.12-.12.09-.23.18-.29s-.1,0-.16,0l.16-.26c0,.16.09.1.15.26.06,0,.07-.09.14-.1s0,.14.05.2c.19-.1.07-.32.2-.39-.12-.06-.18,0-.29,0,.11-.2-.06-.06-.08-.11a.32.32,0,0,1,0-.14l.2-.25,0,0a.28.28,0,0,0,.05.34s-.07-.39.2-.44c.06.09.08.05,0,.21.16-.05.1-.15.32-.21,0,.08.11.05.05.16.11-.1.28,0,.49,0,0,.12,0,.09-.06.2a1.5,1.5,0,0,0,.43.1c0,.14-.08.15-.08.26s-.16-.11-.28-.1c0,.26.24.21.23.35s-.17,0-.27,0,.11.05.17.08c-.31.26-.39-.29-.74,0,.08-.23.27-.17.3-.47,0-.12-.12-.17-.27-.09.09-.17-.11-.07-.13-.18,0,.13-.1.08-.25.18.17.14-.06.12.1.33-.19.15-.09.08-.29.15a.57.57,0,0,0,.39.17c-.15.09-.23.19-.41.19,0-.07,0-.17.06-.24s-.17.13-.22,0c0,.07.06.07.15,0a2.13,2.13,0,0,0-.45.78c0,.11.2,0,.17.2.29-.14.34.12.64,0,.06.13.08.34.24.33s0-.05.07-.06,0-.18-.1-.2.16-.15.16-.28a.16.16,0,0,0-.14-.19c.09-.17,0-.23,0-.45.26-.12.32,0,.55,0,0,.06,0,.12,0,.18s.08,0,.09.07c.17,0,.1-.23.25-.26a1,1,0,0,0,.61.59c-.06.54-.64.3-.8.67.05.08.14-.15.31-.12-.09.16,0,.26.17.28s.06-.26.15-.13-.21.28-.36.37c0-.1.07-.08.06-.16-.18,0-.19.18-.34.23l0,.18c-.3.1-.27.43-.3.71-.17.06-.2.21-.28.33s.23.26.18.46c-.16,0-.2-.22-.28-.35-.09.15-.38-.12-.4.14-.71-.1-.63,1,0,.83.07,0,.08-.13.07-.23l.25-.05c0,.1,0,.29,0,.36.1.08.33-.05.4.07a.31.31,0,0,0,.23.4c.1,0,.07-.09.19-.08a.83.83,0,0,0,.83.09c.18.4.75.14.93.54.06.14-.08.13-.06.24s0-.09.1-.11a2.59,2.59,0,0,1,1.1.28.69.69,0,0,1-.15.59,1.29,1.29,0,0,1,0,.75c-.22,0-.26.15-.38.24.08.21.05.48-.08.42A.64.64,0,0,1,467.17,347.68Zm2.45-7.33c.08-.06-.07-.25-.11-.3C469.59,340.17,469.43,340.38,469.62,340.35Zm3.13,4.28.15-.05c.08-.26.27-.81.08-1a.6.6,0,0,1-.29.39C472.79,344.25,472.63,344.4,472.75,344.63Zm-.37-4c.12.19.29.21.34.37.16,0,.26-.07.26-.17a.9.9,0,0,0,.35.18c-.09.42-.56.61-.89.91-.28-.36-.59-.7-.9-1.06,0,0,0,.13-.08.06a3.74,3.74,0,0,0,1,1.13,2.88,2.88,0,0,0,.47-.19c0,.57-.44.86-.63,1.34,0,.29.22.48.19.79-.11.14-.28.23-.32.41s.06.1.06.21-.1.2-.17.28a1,1,0,0,1-.76,1c-.22-.35-.39-.85-.64-1.22a.73.73,0,0,1,.05-.48.93.93,0,0,0-.45-.69,1.88,1.88,0,0,0,0-.34c-.13-.2-.32,0-.45-.18-.29.08-.49.31-.75.3s-.49-.34-.74-.51c-.12-.5-.19-1.14.22-1.42-.19-.22.15-.34.13-.55s-.12-.08-.22-.05a1.35,1.35,0,0,1-.09-.6c.13,0,.34-.13.42,0s0-.2,0-.24-.25-.08-.31-.23a.6.6,0,0,0,.36-.25c-.11-.09-.31,0-.39.11s-.07-.27,0-.38a.53.53,0,0,0-.25-.19c0-.13-.05-.23,0-.29s0,.15.18.07c0,.28.39.39.4.63.3-.14.08-.26.41-.34a1.65,1.65,0,0,0-.12-.31c.05,0,0,0,.13-.11-.08.47.39.37.75.18l-.06-.21c.05-.09.09,0,.19,0s-.08-.11-.1-.22.3,0,.33-.11c-.24-.05-.49.2-.61-.26a.73.73,0,0,0,.19-.28c-.31-.25-.21.32-.39.39,0,.17.24.18.15.25s0,.44-.23.48a2.73,2.73,0,0,1-.23-.38c-.13,0-.09.18-.27.18a.9.9,0,0,1-.2-.44c.48-.39.51-1.39,1.3-1.13,0,0,0,0-.06,0a2,2,0,0,1,.85.32c0,.23-.22.12-.4.09,0,.06.1.31.34.28,0,0-.1,0-.12-.12s.11.07.21,0,0-.05,0-.12.1-.11.26,0v0a5.56,5.56,0,0,1,2.29,3.36c-.13,0-.26.05-.34-.08C472.75,341,472.61,340.52,472.38,340.66Zm-.95-.37c-.16.13-.31-.07-.36.1-.22-.05-.29-.12-.34-.35-.13,0-.14.06-.24.08s.1.09.13.16,0,.13-.09.15a1.78,1.78,0,0,0-.81-.7c0,.29.37.29.5.48-.2-.11,0,.17-.19.26a.24.24,0,0,1-.19-.06c.11,0,.2,0,.24-.09-.11-.25-.42-.16-.53-.42-.17,0-.19.17-.42.16.11.18-.08.11-.12.21s.06.47-.32.48c0,.18.21,0,.31,0,.11-.2.59-.26.78-.28,0,.1.07.17,0,.28.28,0,.44.17.72.15,0-.1,0-.17,0-.19a3.61,3.61,0,0,0,.93,0C471.43,340.57,471.51,340.48,471.43,340.29Zm.3-.48c-.15-.19-.39-.18-.42-.42,0,.09-.23,0-.17.15s.09-.07.14,0a.23.23,0,0,1-.2.07c-.08-.09,0-.1-.12-.16s-.25.4-.08.5c0,0-.1,0,0,0C471.07,339.75,471.43,340,471.73,339.81Zm.58.27c.12,0,.13.11.27,0s0-.05.07-.05-.1-.18-.16-.27.15.07.1-.09c-.14,0-.21-.13-.36-.21.06-.05.17-.08.15-.18-.17-.11-.28.1-.37.16C472.14,339.76,472.39,339.77,472.31,340.08ZM465,337.33a5.53,5.53,0,0,1,1.66-.68.61.61,0,0,1,0,.17c0,.05.05,0,.08,0s0,0-.06.06.27,0,.29.18-.14,0-.22,0,0,.16,0,.24a.43.43,0,0,1,.26-.19.7.7,0,0,1-.34.59c.08.24-.06.45-.2.39,0,.15-.21.28,0,.48-.05,0-.05.1-.1.12s0,.22.07.41c-.12,0-.25.09-.25-.08-.2.27-.4,0-.58-.13s.07-.11.05-.2c-.13.21-.25-.15-.27-.35s.25-.26.1-.36,0,.17-.16.19,0-.12,0-.23a.19.19,0,0,1,.19,0c-.05-.19-.15-.13-.27-.06A.51.51,0,0,0,465,337.33Zm1.7-.32c-.08-.12,0-.18-.12-.21S466.64,337,466.7,337Zm-1,3.53a1.67,1.67,0,0,0-.1.4c.24,0,.28-.08.42,0,0-.15-.16-.15-.09-.27C465.72,340.78,465.79,340.6,465.72,340.54Zm1.82-2.6c-.19-.13-.3,0-.49.1,0-.18-.23-.06-.19,0,.2-.1.15.1.16.2C467.3,338.29,467.48,338.19,467.54,337.94Zm-3.24,5.5c.24-.17.43.09.7,0C464.87,343.35,464.43,343.2,464.3,343.44Zm.77.17a.57.57,0,0,0,.35-.16c-.09,0-.33-.05-.34,0s.05,0,.05,0S465.07,343.56,465.07,343.61Zm4.36-4.84h-.08l0,.08h.08Zm-5.24.4c.09,0,.14-.06.14-.14S464.16,339,464.19,339.17Zm4-.16c0,.05,0,0-.08,0s0,.11-.1.11c.05.17.1.17.07.32.16,0,.13-.13.26-.14C468.29,339.18,468.29,339,468.18,339Zm-4.2-.89-.23.24A.35.35,0,0,0,464,338.12Zm-1.47,5.45,0,.12.06,0Z" transform="translate(-273.07 -245.49)"/></g><g id="globe-2" data-name="globe"><path class="cls-3" d="M588.49,340.89a5.61,5.61,0,1,1-6.63-4.37A5.61,5.61,0,0,1,588.49,340.89Z" transform="translate(-273.07 -245.49)"/><path class="cls-4" d="M582.23,347.58a5.43,5.43,0,0,1-1.2-.31,6.12,6.12,0,0,0-.2-.82c-.14-.18-.33-.12-.49-.26s-.3-.53-.52-.6c0-.27-.16-.42.07-.62a.53.53,0,0,1,.12-.68s0,0-.06-.08-.07.07-.05.15c-.15,0-.25-.12-.41-.12-.09-.35-.52-.15-.69-.36-.27.15-.52-.05-.79-.07-.06-.23-.27-.36-.48-.5a1,1,0,0,1,0-.17,5.55,5.55,0,0,1,.47-3.61l.08,0s0-.07,0-.09l.09-.16c.06.07-.06.14,0,.26.12-.12.09-.23.18-.29s-.1,0-.16,0l.16-.26c0,.16.09.1.15.26.06,0,.07-.09.14-.1s0,.14,0,.2c.19-.1.07-.32.2-.39-.12-.06-.18,0-.29,0,.11-.2-.06-.06-.08-.11a.32.32,0,0,1,0-.14l.2-.25,0,0a.28.28,0,0,0,0,.34s-.07-.39.2-.44c.06.09.08.05,0,.21.16,0,.1-.15.32-.21,0,.08.11.05.05.16.11-.1.28,0,.49,0,0,.12,0,.09-.06.2a1.5,1.5,0,0,0,.43.1c0,.14-.08.15-.08.26s-.16-.11-.28-.1c0,.26.24.22.23.35s-.17,0-.27,0,.11,0,.17.08c-.31.26-.39-.29-.74,0,.08-.22.27-.17.3-.47,0-.12-.12-.17-.27-.09.09-.17-.11-.07-.13-.18,0,.13-.1.08-.25.18.17.14-.06.12.1.33-.19.15-.09.08-.29.15a.57.57,0,0,0,.39.17c-.15.09-.23.19-.41.19,0-.07,0-.17.06-.24s-.17.13-.22,0c0,.07.06.07.15,0a2.13,2.13,0,0,0-.45.78c0,.11.2,0,.17.2.29-.14.34.12.64,0,.06.13.08.34.24.33s0,0,.07-.06,0-.18-.1-.2.16-.15.16-.28-.06-.17-.14-.18c.1-.18,0-.23,0-.46.26-.12.32,0,.55,0,0,.06,0,.12,0,.18s.08,0,.09.07c.17,0,.1-.23.25-.26a1,1,0,0,0,.61.59c-.06.54-.64.3-.8.67,0,.08.14-.15.31-.12-.09.16,0,.26.17.28s.06-.26.15-.13-.21.28-.36.37c0-.09.07-.08.06-.16-.18,0-.19.18-.34.23l0,.18c-.29.1-.27.43-.3.71-.17.06-.19.21-.28.33.06.17.23.26.18.46-.16,0-.2-.22-.28-.35-.09.15-.38-.12-.4.14-.71-.1-.63,1,0,.83.07,0,.08-.13.07-.23l.25,0c-.05.1,0,.29-.05.36.1.08.33,0,.4.07a.31.31,0,0,0,.23.4c.1,0,.07-.09.19-.08a.83.83,0,0,0,.83.09c.18.4.75.14.93.54.06.14-.08.13-.06.24s0-.09.1-.11a2.68,2.68,0,0,1,1.11.28.72.72,0,0,1-.16.59,1.29,1.29,0,0,1,0,.75c-.22,0-.26.15-.38.24.08.21,0,.48-.08.42A.64.64,0,0,1,582.23,347.58Zm2.45-7.33c.08-.06-.07-.25-.11-.3C584.65,340.07,584.49,340.28,584.68,340.25Zm3.13,4.28.15,0c.08-.26.27-.81.08-1a.6.6,0,0,1-.29.39C587.85,344.15,587.69,344.3,587.81,344.53Zm-.37-4c.12.19.29.21.34.37.16,0,.26-.07.26-.17a.9.9,0,0,0,.35.18c-.09.42-.56.61-.89.91-.28-.36-.59-.7-.9-1.06,0,0,0,.13-.08.06a3.89,3.89,0,0,0,1,1.13,2.56,2.56,0,0,0,.47-.19c0,.57-.43.86-.63,1.34,0,.29.22.48.19.79-.11.14-.28.23-.32.41s.07.1.06.21-.1.2-.17.28a1,1,0,0,1-.76,1c-.22-.35-.39-.85-.64-1.22a.73.73,0,0,1,0-.48.93.93,0,0,0-.45-.69,1.88,1.88,0,0,0,0-.34c-.13-.2-.32,0-.45-.18-.29.09-.49.31-.75.3s-.49-.34-.74-.51c-.12-.5-.19-1.14.22-1.42-.19-.22.15-.34.13-.55s-.12-.08-.22,0a1.35,1.35,0,0,1-.09-.6c.13,0,.34-.13.42,0s0-.2,0-.24-.25-.08-.31-.23a.6.6,0,0,0,.36-.25c-.11-.09-.31.05-.39.11s-.07-.27,0-.38a.53.53,0,0,0-.25-.19c0-.13,0-.23,0-.29s0,.15.18.07c0,.28.39.39.4.63.3-.14.08-.26.41-.34a1.65,1.65,0,0,0-.12-.31s0-.05.13-.11c-.08.47.39.37.75.18l-.06-.21c0-.09.1,0,.2,0s-.09-.11-.11-.22.3,0,.33-.11c-.24-.05-.49.2-.61-.26a.67.67,0,0,0,.19-.28c-.31-.25-.21.32-.39.39,0,.17.24.18.15.25s0,.44-.23.48a2,2,0,0,1-.22-.38c-.14,0-.1.18-.28.18a.9.9,0,0,1-.2-.44c.48-.39.51-1.39,1.3-1.13,0,0,0,0-.06,0a2,2,0,0,1,.85.32c0,.23-.22.12-.4.09,0,.06.1.31.34.28,0,0-.1,0-.12-.12s.11.07.21,0,0-.05-.05-.12.1-.11.26,0v0a5.61,5.61,0,0,1,2.3,3.36c-.14,0-.27.05-.35-.08C587.81,340.9,587.67,340.42,587.44,340.56Zm-1-.37c-.16.13-.31-.07-.36.1-.22-.05-.29-.12-.34-.35-.13,0-.14.06-.23.08s.09.09.12.16,0,.13-.09.15a1.78,1.78,0,0,0-.81-.7c0,.29.37.29.5.48-.2-.11,0,.17-.19.26a.21.21,0,0,1-.18-.06.31.31,0,0,0,.23-.09c-.11-.25-.42-.16-.53-.42-.17,0-.19.17-.42.16.11.18-.08.11-.12.21s.06.47-.31.48c0,.18.2,0,.3,0,.11-.2.59-.26.78-.28,0,.1.07.17,0,.28.28,0,.44.17.72.15,0-.1,0-.17,0-.19a3.61,3.61,0,0,0,.93,0C586.5,340.47,586.57,340.38,586.49,340.19Zm.3-.48c-.15-.19-.39-.18-.42-.42,0,.09-.23,0-.17.15s.09-.07.14,0a.23.23,0,0,1-.2.07c-.08-.09,0-.1-.12-.16s-.25.4-.08.5c0,0-.1,0,0,.05C586.13,339.65,586.49,339.86,586.79,339.71Zm.58.27c.13,0,.13.11.27,0s0,0,.07,0-.1-.18-.16-.27.15.07.1-.09c-.14,0-.21-.13-.36-.21.06,0,.17-.08.15-.18-.17-.11-.28.1-.37.16C587.2,339.66,587.45,339.67,587.37,340Zm-7.31-2.75a5.53,5.53,0,0,1,1.66-.68.61.61,0,0,1,0,.17s0,0,.08,0,0,.05-.06.06.27,0,.29.18c-.1.06-.14,0-.22,0s0,.16,0,.24a.43.43,0,0,1,.26-.19.7.7,0,0,1-.34.59c.08.24-.06.45-.2.39.05.15-.21.28,0,.48,0,0,0,.1-.1.12.1.14,0,.22.07.41-.11,0-.25.09-.25-.08-.2.27-.4,0-.58-.13s.07-.11.05-.2c-.13.21-.25-.15-.27-.35s.25-.26.1-.36.05.17-.16.19,0-.12,0-.23a.19.19,0,0,1,.19,0c0-.19-.15-.13-.27-.06A.51.51,0,0,0,580.06,337.23Zm1.7-.32c-.08-.12,0-.18-.12-.21S581.7,336.85,581.76,336.91Zm-1,3.53a1.67,1.67,0,0,0-.1.4c.24,0,.28-.08.42,0,0-.15-.16-.15-.09-.27C580.78,340.68,580.85,340.5,580.78,340.44Zm1.82-2.6c-.19-.13-.3,0-.49.1,0-.18-.23-.06-.19,0,.2-.1.15.11.16.2C582.36,338.19,582.54,338.09,582.6,337.84Zm-3.24,5.5c.24-.17.43.09.7,0C579.93,343.25,579.49,343.1,579.36,343.34Zm.77.17a.57.57,0,0,0,.35-.16c-.09,0-.33-.05-.34,0s.05,0,.05,0S580.13,343.46,580.13,343.51Zm4.36-4.84h-.08l0,.08h.08Zm-5.24.4c.09,0,.14-.06.14-.14S579.23,338.94,579.25,339.07Zm4-.16s0,0-.08,0,0,.11-.1.11c.05.17.1.17.07.32.16,0,.13-.13.26-.14C583.36,339.08,583.35,338.89,583.24,338.91ZM579,338l-.23.24A.35.35,0,0,0,579,338Zm-1.47,5.45,0,.12.06,0Z" transform="translate(-273.07 -245.49)"/></g></svg>