<svg width="184" height="55" viewBox="0 0 184 55" fill="none" xmlns="http://www.w3.org/2000/svg">
<g clip-path="url(#clip0)">
<path d="M71.2712 55H61.4641C60.3774 55.0464 59.3166 54.6576 58.5131 53.9184C57.7097 53.1793 57.229 52.1498 57.1758 51.0547V3.94522C57.2312 2.85092 57.7127 1.82286 58.5156 1.0842C59.3185 0.345548 60.378 -0.0440805 61.4641 -5.45883e-05H71.2712C72.3574 -0.0440805 73.4169 0.345548 74.2198 1.0842C75.0227 1.82286 75.5041 2.85092 75.5596 3.94522V51.0547C75.5041 52.149 75.0227 53.1771 74.2198 53.9157C73.4169 54.6544 72.3574 55.044 71.2712 55Z" fill="white"/>
<path d="M41.788 54.4967C41.2814 54.7661 40.7241 54.9245 40.1526 54.9617C39.581 54.9989 39.0081 54.9139 38.4714 54.7123C36.5457 53.7148 36.6259 50.5244 36.3139 44.2785C36.0464 39.0481 35.9127 36.4329 35.5115 33.5661C34.8428 28.8659 34.192 24.6421 31.3925 20.3733C29.749 17.878 27.6271 15.7391 25.1516 14.0824C18.8127 9.86757 9.56731 8.69027 8.72925 8.56446C6.33097 8.26789 3.70087 8.15106 2.69342 6.34468C2.39732 5.74009 2.25989 5.06908 2.29422 4.39572C2.32856 3.72235 2.53352 3.06909 2.88956 2.49828C3.98617 0.754816 6.31314 0.47624 10.8511 0.24258C16.8067 -0.0719627 19.4903 0.0358815 24.7683 -0.00905309C30.2781 -0.00905309 32.5248 -0.215758 35.7254 1.02444C37.3966 1.61356 38.9358 2.52981 40.2545 3.72052C43.0183 6.30875 43.8207 9.66986 44.2933 11.9435C45.9694 20.2654 45.5682 27.6257 45.1848 39.0391C44.8728 48.098 44.7925 52.888 41.7791 54.4697" fill="white"/>
<path d="M16.7262 54.9009L7.13311 54.9458C6.05785 54.9924 5.00767 54.6101 4.21002 53.8818C3.41237 53.1534 2.93147 52.1377 2.8715 51.0545L2.77344 30.9507C2.81981 29.8652 3.29011 28.8422 4.08176 28.1048C4.87341 27.3674 5.92219 26.9755 6.99939 27.0144L16.5925 26.9695C17.6684 26.9206 18.7199 27.302 19.518 28.0309C20.3162 28.7597 20.7964 29.7768 20.8541 30.8609L20.9432 50.9646C20.8969 52.0485 20.4278 53.0701 19.6381 53.8073C18.8484 54.5444 17.8019 54.9374 16.7262 54.9009Z" fill="white"/>
<path d="M49.2593 30.9331C41.9664 39.7673 31.9988 47.8914 19.954 49.4821C14.2391 50.237 7.65056 49.3473 3.44244 45.2493C-0.212928 41.6545 -0.694388 35.9388 3.30868 32.4429C-2.38834 43.8024 12.991 47.7207 21.7638 46.2918C32.507 44.4944 41.5385 37.9339 49.2593 30.9331Z" fill="#F4807F"/>
<path d="M72.9024 28.9201L69.9158 20.1219L69.8712 19.9691L67.7671 13.7861C71.4314 9.67908 71.2887 8.69952 70.5755 8.0974C69.8623 7.49527 68.7924 7.45933 64.9676 11.4136L48.6522 8.26815C48.4243 8.24519 48.1942 8.27006 47.9763 8.34121C47.7584 8.41236 47.5575 8.52824 47.3862 8.68154C47.0029 9.08595 46.3877 9.75998 46.3877 9.75998L61.3212 15.3948C58.8694 18.1897 56.3553 21.2992 54.7326 23.5819L50.0609 23.2493C49.8927 23.2555 49.7332 23.3263 49.6151 23.4471L49.2317 23.8605L53.4844 25.4961C53.2223 25.8668 53.0512 26.2949 52.9852 26.7453C52.6677 27.0684 52.3922 27.4308 52.165 27.8237C52.5342 27.5611 52.8749 27.2599 53.1813 26.925C53.6379 26.8192 54.0647 26.6102 54.4295 26.3139L56.6138 30.1603L56.9972 29.7469C57.0511 29.6879 57.0923 29.6184 57.1184 29.5426C57.1445 29.4669 57.1548 29.3865 57.1487 29.3065L56.2572 24.9119C58.4504 23.1145 61.3925 20.3645 64.0226 17.7224L71.583 31.2567L72.5904 30.1783C72.7354 30.0071 72.8389 29.8045 72.8931 29.5862C72.9472 29.3679 72.9504 29.1399 72.9024 28.9201Z" fill="#F4807F"/>
<path d="M77.9404 47.2711C78.1594 46.5339 78.4366 45.8157 78.7696 45.1233C78.8001 45.0455 78.8548 44.9797 78.9256 44.936C78.9963 44.8922 79.0792 44.8728 79.1619 44.8806C79.3254 44.8831 79.4842 44.9364 79.6165 45.0334C79.7141 45.0899 79.7857 45.1829 79.8157 45.2923C79.8458 45.4016 79.8319 45.5184 79.777 45.6175L79.4472 46.3455C79.6536 46.4492 79.8189 46.6207 79.9158 46.8317C80.0128 47.0427 80.0356 47.2806 79.9807 47.5065C79.9257 47.7323 79.7962 47.9325 79.6133 48.0743C79.4305 48.2161 79.2053 48.291 78.9746 48.2866C78.8408 48.2881 78.7079 48.2626 78.5839 48.2116C78.4599 48.1607 78.3472 48.0854 78.2525 47.9901C78.1537 47.8987 78.0749 47.7876 78.0212 47.6638C77.9674 47.54 77.9399 47.4062 77.9404 47.2711Z" fill="white"/>
<path d="M80.5527 53.724C80.5591 53.5112 80.6273 53.3049 80.7489 53.1308C80.7937 53.0396 80.862 52.9623 80.9467 52.9069C81.0315 52.8516 81.1294 52.8203 81.2303 52.8163C81.3696 52.824 81.5046 52.8673 81.6226 52.9421C81.8083 53.0474 82.0021 53.1375 82.2021 53.2117C82.4653 53.3059 82.7431 53.3516 83.0223 53.3465C83.5751 53.3465 83.8515 53.2028 83.8515 52.9242C83.8515 52.6456 83.7445 52.6456 83.5305 52.5377C83.2803 52.4319 83.0206 52.3506 82.7549 52.2951C82.4517 52.2229 82.1538 52.1299 81.8633 52.0165C81.5572 51.909 81.286 51.7195 81.0787 51.4683C80.8601 51.1839 80.7495 50.8301 80.7667 50.4707C80.7602 50.1942 80.8099 49.9192 80.9126 49.6626C81.0153 49.4061 81.1689 49.1734 81.364 48.9789C81.6229 48.7521 81.9245 48.5803 82.2508 48.4738C82.5771 48.3672 82.9214 48.3281 83.2631 48.3588C83.8021 48.3466 84.3382 48.4413 84.8411 48.6374C85.2958 48.8171 85.5276 49.0508 85.5276 49.3204C85.5127 49.5455 85.4388 49.7625 85.3136 49.9495C85.264 50.051 85.1881 50.1372 85.0939 50.1988C84.9998 50.2605 84.8909 50.2955 84.7787 50.3C84.5708 50.271 84.3673 50.2166 84.1724 50.1382C83.8875 50.0291 83.5857 49.9713 83.2809 49.9675C83.0857 49.956 82.8912 49.9995 82.7192 50.0933C82.6639 50.119 82.6165 50.1593 82.5819 50.2099C82.5474 50.2605 82.5271 50.3196 82.5231 50.3808C82.5231 50.5067 82.63 50.6145 82.8529 50.6864C83.1103 50.7778 83.3722 50.8558 83.6375 50.9201C83.94 50.9945 84.2378 51.0876 84.529 51.1987C84.8388 51.3214 85.1099 51.5264 85.3136 51.7918C85.5359 52.0954 85.649 52.4662 85.6346 52.8433C85.649 53.1368 85.5962 53.4297 85.4802 53.6993C85.3643 53.9689 85.1883 54.208 84.9659 54.398C84.4183 54.8046 83.7454 55.0021 83.0669 54.9552C82.4522 54.9737 81.8417 54.8475 81.2838 54.5867C80.7935 54.38 80.5527 54.0565 80.5527 53.724Z" fill="white"/>
<path d="M88.88 53.1038C88.8552 52.7998 88.9176 52.495 89.0599 52.2257C89.2021 51.9564 89.4182 51.734 89.6824 51.5851C90.4069 51.2568 91.1981 51.1059 91.9915 51.1447H92.4462V51.0099C92.4516 50.7438 92.3667 50.4838 92.2055 50.273C92.1124 50.1649 91.9951 50.0808 91.8633 50.0276C91.7315 49.9745 91.589 49.9538 91.4477 49.9674C91.0806 49.9512 90.7163 50.0384 90.3956 50.219C90.24 50.3265 90.0685 50.4084 89.8874 50.4617C89.7833 50.462 89.6811 50.4327 89.5928 50.377C89.5045 50.3214 89.4335 50.2417 89.3882 50.1472C89.261 49.9296 89.1962 49.6807 89.2009 49.4282C89.2009 49.1406 89.4417 48.88 89.9409 48.6733C90.426 48.4659 90.9475 48.359 91.4744 48.3587C91.8855 48.3253 92.2991 48.3749 92.691 48.5045C93.0829 48.6341 93.4452 48.8412 93.7568 49.1137C94.0034 49.3577 94.1972 49.6506 94.3261 49.9738C94.455 50.2971 94.5161 50.6437 94.5057 50.9919V54.1823C94.5033 54.2775 94.4756 54.3702 94.4254 54.4509C94.3752 54.5315 94.3044 54.5971 94.2204 54.6406C94.001 54.7673 93.7509 54.8295 93.4982 54.8204C93.2655 54.8295 93.0364 54.7599 92.8474 54.6226C92.7669 54.5699 92.7005 54.4981 92.6538 54.4135C92.6072 54.3289 92.5818 54.2341 92.5799 54.1374V53.8228C92.3516 54.1556 92.0502 54.4309 91.6992 54.6273C91.3482 54.8237 90.9571 54.9359 90.5561 54.9552C90.3324 54.9639 90.1093 54.9261 89.9007 54.8441C89.6921 54.7622 89.5025 54.6378 89.3436 54.4788C89.1757 54.2948 89.0477 54.0774 88.9679 53.8406C88.8881 53.6039 88.8581 53.3529 88.88 53.1038ZM90.9573 52.8253C90.9467 52.8962 90.9529 52.9686 90.9751 53.0367C90.9974 53.1047 91.0351 53.1666 91.0854 53.2173C91.1357 53.268 91.1971 53.3061 91.2647 53.3285C91.3322 53.351 91.4041 53.3571 91.4744 53.3465C91.6036 53.3369 91.7296 53.3009 91.8445 53.2406C91.9595 53.1804 92.0611 53.0971 92.1431 52.996C92.2484 52.8936 92.3319 52.7707 92.3886 52.6348C92.4454 52.4988 92.474 52.3526 92.4729 52.2052V52.1512H92.4462C92.2047 52.1493 91.9634 52.1643 91.724 52.1962C91.5379 52.2109 91.3592 52.2761 91.2069 52.3849C91.1304 52.4295 91.0669 52.4937 91.0231 52.5711C90.9792 52.6484 90.9565 52.7361 90.9573 52.8253Z" fill="white"/>
<path d="M95.6816 54.1819V49.0684C95.682 48.9727 95.7089 48.8791 95.7593 48.7981C95.8098 48.7171 95.8817 48.652 95.9669 48.61C96.1872 48.4865 96.4373 48.4274 96.6891 48.4393C96.918 48.4301 97.1445 48.4895 97.3399 48.61C97.4213 48.6574 97.4889 48.7255 97.5358 48.8076C97.5828 48.8896 97.6075 48.9827 97.6074 49.0774V49.5716C97.758 49.2415 97.9841 48.952 98.2671 48.7269C98.5121 48.5022 98.8278 48.3718 99.1587 48.3584H99.5777C99.6786 48.3605 99.7777 48.3859 99.8674 48.4326C99.957 48.4794 100.035 48.5462 100.095 48.628C100.233 48.8133 100.308 49.0388 100.308 49.2706C100.308 49.5024 100.233 49.7279 100.095 49.9131C100.035 49.995 99.957 50.0618 99.8674 50.1086C99.7777 50.1553 99.6786 50.1807 99.5777 50.1827H99.1944C98.9936 50.1897 98.7973 50.2436 98.6209 50.3403C98.4444 50.437 98.2928 50.5739 98.178 50.74C97.8741 51.1551 97.72 51.6624 97.7411 52.1778V54.1819C97.7305 54.276 97.6963 54.3658 97.6417 54.4429C97.5871 54.5199 97.5139 54.5817 97.4291 54.6223C97.207 54.76 96.9497 54.8287 96.6891 54.82C96.438 54.8298 96.1897 54.7641 95.9758 54.6313C95.8926 54.5882 95.8218 54.5242 95.7703 54.4455C95.7187 54.3668 95.6882 54.276 95.6816 54.1819Z" fill="white"/>
<path d="M107.54 52.142V49.0864C107.548 48.9917 107.581 48.9007 107.634 48.822C107.687 48.7433 107.759 48.6797 107.843 48.6371C108.062 48.4996 108.317 48.4309 108.574 48.4394C108.826 48.4333 109.074 48.5021 109.287 48.6371C109.372 48.6777 109.446 48.7395 109.5 48.8165C109.555 48.8936 109.589 48.9834 109.6 49.0775V52.133C109.601 52.2622 109.628 52.3899 109.678 52.5086C109.729 52.6274 109.802 52.7349 109.894 52.825C109.977 52.9237 110.081 53.0029 110.198 53.0572C110.315 53.1115 110.443 53.1396 110.571 53.1396C110.7 53.1396 110.827 53.1115 110.944 53.0572C111.061 53.0029 111.165 52.9237 111.249 52.825C111.428 52.6394 111.53 52.3919 111.534 52.133V49.0685C111.54 48.973 111.573 48.8812 111.628 48.8034C111.683 48.7256 111.759 48.6648 111.846 48.6281C112.065 48.4988 112.315 48.4335 112.568 48.4394C112.825 48.4298 113.079 48.4953 113.299 48.6281C113.383 48.669 113.454 48.7312 113.505 48.8085C113.557 48.8858 113.587 48.9755 113.594 49.0685V52.142C113.593 52.5152 113.513 52.8839 113.359 53.2234C113.206 53.5628 112.981 53.8652 112.702 54.1102C112.125 54.6522 111.365 54.9535 110.576 54.9535C109.787 54.9535 109.027 54.6522 108.449 54.1102C108.166 53.8681 107.937 53.5667 107.78 53.2268C107.623 52.887 107.541 52.5169 107.54 52.142Z" fill="white"/>
<path d="M114.734 54.1821V49.0685C114.737 48.9733 114.764 48.8806 114.815 48.7999C114.865 48.7193 114.936 48.6537 115.02 48.6102C115.246 48.4856 115.502 48.4266 115.76 48.4395C115.983 48.43 116.204 48.4896 116.393 48.6102C116.474 48.6575 116.542 48.7257 116.589 48.8077C116.636 48.8897 116.66 48.9828 116.66 49.0775V49.3831C116.818 49.081 117.055 48.829 117.347 48.6551C117.779 48.3958 118.291 48.3066 118.785 48.4044C119.278 48.5023 119.719 48.7804 120.021 49.1854C120.468 49.7479 120.705 50.4509 120.69 51.1715V54.1821C120.69 54.2825 120.662 54.3808 120.608 54.4653C120.554 54.5498 120.477 54.6169 120.387 54.6584C120.16 54.7717 119.909 54.8272 119.656 54.8202C119.407 54.8268 119.161 54.768 118.943 54.6494C118.851 54.6108 118.772 54.5459 118.717 54.4629C118.662 54.3798 118.631 54.2822 118.63 54.1821V51.1895C118.629 50.9274 118.526 50.6763 118.345 50.4885C118.261 50.3915 118.156 50.314 118.039 50.2612C117.922 50.2085 117.796 50.1818 117.668 50.1829C117.436 50.1886 117.215 50.2854 117.052 50.4525C116.959 50.5497 116.886 50.6653 116.838 50.792C116.791 50.9188 116.77 51.0541 116.776 51.1895V54.1821C116.767 54.2767 116.734 54.3672 116.679 54.4446C116.624 54.5219 116.55 54.5833 116.464 54.6224C116.248 54.7587 115.997 54.8275 115.742 54.8202C115.485 54.8298 115.231 54.7643 115.011 54.6314C114.931 54.5861 114.864 54.5211 114.815 54.4426C114.767 54.364 114.739 54.2744 114.734 54.1821Z" fill="white"/>
<path d="M121.608 52.1154V51.1717C121.591 50.4478 121.835 49.7421 122.295 49.1856C122.492 48.9294 122.745 48.7217 123.034 48.5785C123.323 48.4353 123.64 48.3601 123.962 48.3588C124.323 48.3517 124.677 48.4552 124.978 48.6554C125.258 48.8377 125.488 49.088 125.647 49.3833V45.3931C125.653 45.2976 125.684 45.2055 125.737 45.1263C125.79 45.0472 125.864 44.9842 125.95 44.9438C126.179 44.8171 126.438 44.755 126.699 44.764C126.954 44.756 127.207 44.8182 127.43 44.9438C127.513 44.9866 127.583 45.0507 127.633 45.1297C127.683 45.2086 127.711 45.2995 127.715 45.3931V54.1464C127.709 54.2405 127.678 54.3313 127.627 54.41C127.575 54.4887 127.504 54.5527 127.421 54.5957C127.204 54.7274 126.953 54.7929 126.699 54.7845C126.469 54.7924 126.243 54.7228 126.057 54.5868C125.978 54.5408 125.911 54.4757 125.863 54.3972C125.814 54.3188 125.786 54.2295 125.781 54.1374V53.8408C125.616 54.1616 125.362 54.4271 125.05 54.6047C124.71 54.8158 124.317 54.9249 123.917 54.9193C123.601 54.9127 123.291 54.8321 123.011 54.684C122.731 54.5358 122.489 54.3241 122.304 54.0655C121.854 53.5166 121.608 52.8271 121.608 52.1154ZM123.668 52.1154C123.67 52.3827 123.771 52.6395 123.953 52.8343C124.037 52.9302 124.139 53.007 124.255 53.0597C124.37 53.1124 124.495 53.1397 124.622 53.1399C124.756 53.1393 124.888 53.1111 125.011 53.057C125.133 53.0029 125.244 52.9241 125.335 52.8253C125.498 52.6912 125.608 52.5034 125.647 52.2951V51.1897C125.652 51.0539 125.627 50.9186 125.573 50.7941C125.519 50.6695 125.438 50.559 125.335 50.4708C125.148 50.2905 124.898 50.1906 124.64 50.1922C124.51 50.1897 124.381 50.2158 124.263 50.2686C124.144 50.3214 124.039 50.3995 123.953 50.4977C123.772 50.6822 123.67 50.9304 123.668 51.1897V52.1154Z" fill="white"/>
<path d="M131.559 52.5823V46.4083C131.564 46.3116 131.598 46.2185 131.655 46.1404C131.712 46.0623 131.79 46.0024 131.88 45.968C132.094 45.8446 132.337 45.7824 132.584 45.7882C132.835 45.7808 133.084 45.8397 133.306 45.959C133.395 45.9928 133.472 46.0513 133.529 46.1277C133.586 46.2041 133.62 46.2951 133.627 46.3903V48.4304H135.125C135.204 48.4302 135.281 48.453 135.348 48.496C135.414 48.5391 135.467 48.6005 135.499 48.673C135.587 48.8486 135.633 49.0425 135.633 49.2392C135.633 49.4358 135.587 49.6298 135.499 49.8054C135.465 49.8755 135.411 49.9345 135.345 49.9758C135.279 50.0171 135.203 50.039 135.125 50.039H133.627V52.5015C133.618 52.5705 133.624 52.6406 133.644 52.7072C133.664 52.7737 133.698 52.8353 133.743 52.8879C133.872 52.9654 134.021 53 134.171 52.9868H134.741C134.864 52.9807 134.986 53.0026 135.099 53.0508C135.211 53.0991 135.312 53.1724 135.392 53.2654C135.536 53.4481 135.615 53.6746 135.615 53.9079C135.615 54.1413 135.536 54.3677 135.392 54.5505C135.311 54.6412 135.21 54.7119 135.097 54.7571C134.984 54.8023 134.862 54.8207 134.741 54.8111H134.171C132.432 54.8201 131.559 54.0832 131.559 52.5823Z" fill="white"/>
<path d="M136.444 54.1821V45.3929C136.448 45.2992 136.477 45.2083 136.527 45.1294C136.577 45.0504 136.647 44.9863 136.73 44.9435C136.955 44.8158 137.211 44.7536 137.47 44.7638C137.725 44.7579 137.977 44.8199 138.201 44.9435C138.288 44.9822 138.363 45.0449 138.416 45.1243C138.47 45.2038 138.5 45.2968 138.504 45.3929V49.3471C138.645 49.0507 138.864 48.7989 139.137 48.6192C139.438 48.4189 139.792 48.3155 140.153 48.3226C140.465 48.3268 140.771 48.4036 141.047 48.547C141.324 48.6905 141.565 48.8967 141.749 49.1494C142.196 49.7119 142.433 50.4149 142.418 51.1355V54.1461C142.418 54.2465 142.39 54.3449 142.336 54.4293C142.282 54.5138 142.205 54.5809 142.115 54.6224C141.888 54.7357 141.637 54.7912 141.384 54.7842C141.135 54.7909 140.889 54.732 140.67 54.6135C140.579 54.5748 140.5 54.51 140.445 54.4269C140.389 54.3439 140.359 54.2462 140.358 54.1461V51.1535C140.356 50.8915 140.254 50.6403 140.073 50.4525C139.988 50.3555 139.884 50.278 139.767 50.2253C139.65 50.1725 139.523 50.1458 139.395 50.147C139.163 50.1527 138.943 50.2494 138.78 50.4165C138.686 50.5137 138.614 50.6293 138.566 50.7561C138.519 50.8828 138.497 51.0181 138.504 51.1535V54.1461C138.495 54.2407 138.461 54.3313 138.407 54.4086C138.352 54.4859 138.278 54.5473 138.192 54.5865C137.976 54.7227 137.724 54.7915 137.47 54.7842C137.213 54.7939 136.959 54.7283 136.739 54.5955C136.66 54.5557 136.592 54.4973 136.541 54.4253C136.49 54.3533 136.457 54.2698 136.444 54.1821Z" fill="white"/>
<path d="M143.309 52.1153V51.1358C143.307 50.7635 143.386 50.3954 143.54 50.0571C143.694 49.7187 143.919 49.4182 144.2 49.1766C144.791 48.6327 145.567 48.3397 146.367 48.3588C147.103 48.3422 147.82 48.598 148.382 49.0778C148.646 49.2948 148.859 49.5691 149.004 49.8802C149.149 50.1913 149.223 50.5314 149.22 50.8751C149.228 51.1135 149.192 51.3512 149.113 51.5761C149.06 51.735 148.948 51.8671 148.801 51.9446C148.676 52.0078 148.544 52.0561 148.409 52.0884C148.251 52.0995 148.093 52.0995 147.936 52.0884H145.368V52.1693C145.361 52.3237 145.39 52.4777 145.454 52.6183C145.517 52.759 145.613 52.8824 145.734 52.9781C146.018 53.1945 146.368 53.3028 146.724 53.2836C147.065 53.277 147.401 53.1909 147.704 53.032C147.913 52.9056 148.142 52.8173 148.382 52.7714C148.494 52.7719 148.604 52.8021 148.701 52.8589C148.798 52.9156 148.878 52.997 148.935 53.0949C149.064 53.2659 149.139 53.4729 149.149 53.6881C149.149 53.9667 148.908 54.2363 148.435 54.4969C147.885 54.7824 147.271 54.9187 146.652 54.8923C145.775 54.9304 144.912 54.6534 144.218 54.1104C143.929 53.8671 143.697 53.5616 143.54 53.2165C143.383 52.8713 143.304 52.4952 143.309 52.1153ZM145.377 50.992H147.027C147.214 50.992 147.303 50.8931 147.303 50.6954C147.305 50.5897 147.28 50.4853 147.23 50.3923C147.18 50.2994 147.107 50.2211 147.018 50.1652C146.815 50.0275 146.575 49.9583 146.331 49.9675C146.093 49.9596 145.859 50.0289 145.663 50.1652C145.572 50.2198 145.498 50.2977 145.448 50.391C145.398 50.4843 145.373 50.5894 145.377 50.6954V50.992Z" fill="white"/>
<path d="M152.242 49.1852C152.242 48.9695 152.393 48.7718 152.697 48.61C152.968 48.4519 153.275 48.3653 153.588 48.3584C153.9 48.3584 154.087 48.4663 154.159 48.6819L155.344 52.088L156.236 49.2032C156.316 48.9336 156.539 48.7988 156.914 48.7988C157.288 48.7988 157.511 48.9336 157.591 49.2032L158.438 52.088L159.624 48.6819C159.695 48.4663 159.882 48.3584 160.186 48.3584C160.499 48.3653 160.806 48.4519 161.077 48.61C161.38 48.7808 161.532 48.9875 161.532 49.2122C161.534 49.302 161.516 49.3912 161.478 49.4728L159.428 54.6403C159.33 54.8739 159.071 54.9998 158.634 54.9998C158.197 54.9998 157.868 54.8739 157.743 54.6403L156.851 52.3037L155.96 54.6403C155.87 54.8739 155.585 54.9998 155.068 54.9998C154.551 54.9998 154.382 54.8739 154.283 54.6403L152.233 49.4728C152.219 49.3771 152.222 49.2798 152.242 49.1852Z" fill="white"/>
<path d="M168.879 54.1819V49.0684C168.879 48.9727 168.906 48.8791 168.957 48.7981C169.007 48.7171 169.079 48.652 169.164 48.61C169.384 48.4865 169.635 48.4274 169.886 48.4393C170.115 48.4301 170.342 48.4895 170.537 48.61C170.619 48.6574 170.686 48.7255 170.733 48.8076C170.78 48.8896 170.805 48.9827 170.805 49.0774V49.5716C170.955 49.2415 171.181 48.952 171.464 48.7269C171.709 48.5022 172.025 48.3718 172.356 48.3584H172.739C172.839 48.3598 172.937 48.3849 173.025 48.4318C173.114 48.4786 173.19 48.5459 173.248 48.628C173.391 48.8108 173.47 49.0372 173.47 49.2706C173.47 49.5039 173.391 49.7304 173.248 49.9131C173.19 49.9953 173.114 50.0625 173.025 50.1094C172.937 50.1562 172.839 50.1814 172.739 50.1827H172.356C172.155 50.1897 171.959 50.2436 171.782 50.3403C171.606 50.437 171.454 50.5739 171.34 50.74C171.032 51.1531 170.877 51.6618 170.903 52.1778V54.1819C170.892 54.276 170.858 54.3658 170.803 54.4429C170.749 54.5199 170.676 54.5817 170.591 54.6223C170.369 54.76 170.111 54.8287 169.851 54.82C169.6 54.8298 169.351 54.7641 169.137 54.6313C169.061 54.5838 168.997 54.5179 168.952 54.4394C168.907 54.361 168.882 54.2725 168.879 54.1819Z" fill="white"/>
<path d="M174.236 54.182V45.3928C174.239 45.2976 174.266 45.2049 174.317 45.1242C174.367 45.0436 174.438 44.978 174.522 44.9345C174.748 44.8108 175.004 44.7518 175.262 44.7637C175.519 44.7531 175.774 44.8121 176.002 44.9345C176.089 44.9756 176.163 45.04 176.217 45.1209C176.27 45.2017 176.301 45.2958 176.305 45.3928V54.1551C176.294 54.2491 176.26 54.3389 176.205 54.416C176.151 54.493 176.078 54.5548 175.993 54.5954C175.774 54.7329 175.519 54.8017 175.262 54.7931C175.005 54.8028 174.751 54.7372 174.531 54.6044C174.451 54.5638 174.382 54.504 174.331 54.4303C174.28 54.3566 174.247 54.2714 174.236 54.182Z" fill="white"/>
<path d="M177.393 52.1154V51.1717C177.379 50.4468 177.626 49.7413 178.089 49.1856C178.284 48.9296 178.535 48.722 178.823 48.5787C179.11 48.4354 179.426 48.3602 179.747 48.3588C180.108 48.3518 180.462 48.4552 180.763 48.6554C181.048 48.8347 181.281 49.0856 181.441 49.3834V45.3932C181.445 45.2984 181.474 45.2064 181.526 45.1272C181.578 45.0481 181.65 44.9846 181.735 44.9438C181.968 44.8184 182.229 44.7564 182.493 44.7641C182.745 44.7549 182.996 44.8172 183.215 44.9438C183.298 44.9866 183.368 45.0507 183.418 45.1297C183.468 45.2086 183.496 45.2995 183.5 45.3932V54.1464C183.494 54.2405 183.463 54.3313 183.412 54.41C183.36 54.4887 183.289 54.5527 183.206 54.5958C182.992 54.7276 182.744 54.7933 182.493 54.7845C182.26 54.791 182.032 54.7217 181.842 54.5868C181.765 54.5386 181.701 54.4727 181.654 54.3946C181.608 54.3165 181.581 54.2283 181.574 54.1375V53.8409C181.407 54.1596 181.153 54.4243 180.843 54.6048C180.503 54.8145 180.11 54.9235 179.711 54.9193C179.394 54.9134 179.082 54.8332 178.8 54.685C178.518 54.5369 178.275 54.3248 178.089 54.0655C177.639 53.5166 177.393 52.8271 177.393 52.1154ZM179.453 52.1154C179.454 52.3827 179.556 52.6395 179.738 52.8343C179.822 52.9313 179.927 53.0089 180.044 53.0616C180.161 53.1143 180.287 53.141 180.415 53.1399C180.548 53.1392 180.679 53.1108 180.8 53.0567C180.921 53.0026 181.03 52.9238 181.12 52.8253C181.286 52.6927 181.4 52.5047 181.441 52.2951V51.1897C181.446 51.0539 181.421 50.9186 181.367 50.7941C181.313 50.6696 181.231 50.559 181.129 50.4708C180.937 50.2916 180.686 50.192 180.424 50.1922C180.295 50.1897 180.166 50.2158 180.048 50.2686C179.929 50.3214 179.823 50.3996 179.738 50.4977C179.557 50.6823 179.455 50.9305 179.453 51.1897V52.1154Z" fill="white"/>
<path fill-rule="evenodd" clip-rule="evenodd" d="M103.234 54.3797C103.014 54.3535 102.798 54.2992 102.592 54.2179C102.569 54.0683 102.533 53.921 102.485 53.7776C102.413 53.6787 102.306 53.7147 102.226 53.6338C102.146 53.5529 102.066 53.3552 101.95 53.3192C101.834 53.2833 101.861 53.0946 101.95 52.9867C101.915 52.9279 101.902 52.8584 101.914 52.7909C101.925 52.7233 101.96 52.6621 102.012 52.6183C102.012 52.6183 102.012 52.6182 102.012 52.5733C102.003 52.5846 101.998 52.599 101.998 52.6138C101.998 52.6286 102.003 52.6429 102.012 52.6542C101.932 52.6542 101.879 52.5913 101.789 52.5913C101.789 52.4026 101.513 52.5104 101.424 52.4026C101.281 52.4745 101.147 52.4026 101.005 52.3576C100.862 52.3127 100.853 52.1689 100.746 52.097C100.742 52.0642 100.742 52.031 100.746 51.9982C100.61 51.3442 100.698 50.6629 100.996 50.066H101.04V50.021V49.9402C101.04 49.9402 101.04 50.012 101.04 50.0749C101.04 50.1379 101.085 49.9491 101.13 49.9222C101.174 49.8952 101.085 49.9222 101.049 49.9222L101.139 49.7784C101.139 49.8683 101.183 49.8323 101.21 49.9222C101.237 50.0121 101.254 49.9222 101.29 49.8683C101.326 49.8143 101.29 49.9402 101.29 49.9761C101.29 50.0121 101.29 49.8053 101.397 49.7694C101.504 49.7334 101.299 49.7694 101.237 49.7694C101.174 49.7694 101.237 49.7694 101.237 49.7155C101.228 49.6924 101.228 49.6667 101.237 49.6436L101.335 49.5088C101.316 49.5349 101.306 49.5664 101.306 49.5986C101.306 49.6309 101.316 49.6624 101.335 49.6885C101.335 49.6885 101.335 49.4728 101.442 49.4548C101.549 49.4369 101.486 49.4549 101.442 49.5627C101.397 49.6706 101.486 49.4818 101.602 49.4459C101.718 49.4099 101.665 49.4459 101.602 49.5357C101.54 49.6256 101.754 49.5357 101.861 49.5357C101.968 49.5357 101.861 49.5897 101.861 49.6436C101.934 49.6762 102.013 49.6945 102.092 49.6975C102.092 49.7694 102.092 49.7784 102.092 49.8413C102.092 49.9042 102.003 49.7784 101.941 49.7874C101.879 49.7964 102.075 49.9042 102.066 49.9761C102.057 50.048 101.977 49.9761 101.923 49.9761C101.87 49.9761 101.977 49.9761 102.012 50.021C101.843 50.1558 101.807 49.8593 101.62 50.021C101.62 49.9042 101.763 49.9312 101.78 49.7694C101.798 49.6076 101.709 49.6795 101.629 49.7245C101.682 49.6346 101.575 49.7245 101.566 49.6256C101.558 49.5267 101.513 49.6256 101.433 49.7245C101.522 49.7964 101.433 49.7874 101.486 49.9042C101.379 49.9851 101.433 49.9042 101.326 49.9851C101.384 50.0395 101.46 50.0713 101.54 50.0749C101.459 50.0749 101.415 50.1738 101.317 50.1738C101.219 50.1738 101.317 50.0839 101.317 50.048C101.317 50.012 101.228 50.1199 101.201 50.048C101.174 49.9761 101.201 50.048 101.281 50.048C101.175 50.169 101.094 50.3093 101.04 50.4614C101.04 50.5243 101.147 50.4614 101.13 50.5782C101.281 50.4973 101.308 50.6411 101.468 50.5782C101.468 50.6501 101.513 50.758 101.593 50.758H101.638C101.638 50.758 101.638 50.6681 101.584 50.6501C101.531 50.6322 101.665 50.5782 101.673 50.5063C101.675 50.4945 101.674 50.4826 101.67 50.4712C101.667 50.4598 101.661 50.4492 101.654 50.44C101.646 50.4309 101.637 50.4232 101.627 50.4176C101.616 50.412 101.605 50.4086 101.593 50.4075C101.647 50.3086 101.593 50.2817 101.593 50.1648C101.727 50.0929 101.763 50.1648 101.887 50.1648V50.2637H101.932C101.932 50.2637 101.986 50.1468 102.066 50.1289C102.095 50.2022 102.14 50.2682 102.197 50.3225C102.253 50.3768 102.321 50.418 102.396 50.4434C102.396 50.731 102.057 50.5962 101.968 50.8029C101.968 50.8478 102.048 50.722 102.128 50.731C102.208 50.74 102.128 50.8748 102.226 50.8838C102.324 50.8928 102.226 50.749 102.298 50.8209C102.369 50.8928 102.191 50.9647 102.11 51.0186C102.03 51.0725 102.11 50.9737 102.11 50.9287C102.11 50.8838 102.003 51.0276 101.923 51.0545V51.1444C101.772 51.1983 101.78 51.378 101.763 51.5308C101.745 51.6836 101.665 51.6477 101.62 51.7106C101.575 51.7735 101.736 51.8454 101.709 51.9532C101.682 52.0611 101.602 51.8364 101.558 51.7735C101.513 51.8454 101.361 51.7016 101.344 51.8364C100.969 51.8364 101.014 52.3756 101.344 52.2858C101.344 52.2858 101.344 52.2228 101.344 52.1689H101.468C101.468 52.2228 101.468 52.3217 101.468 52.3576C101.468 52.3936 101.647 52.3576 101.682 52.3576C101.671 52.4029 101.678 52.4507 101.702 52.4909C101.725 52.5311 101.763 52.5607 101.807 52.5733C101.861 52.5733 101.807 52.5284 101.905 52.5284C101.968 52.5763 102.043 52.6066 102.121 52.616C102.199 52.6255 102.279 52.6139 102.351 52.5823C102.449 52.798 102.752 52.6542 102.85 52.8699C102.85 52.9418 102.806 52.9418 102.85 52.9957C102.895 53.0496 102.85 52.9508 102.904 52.9418C103.108 52.9459 103.309 52.9949 103.492 53.0856C103.502 53.1422 103.501 53.2003 103.487 53.2561C103.473 53.3118 103.447 53.364 103.412 53.4091C103.447 53.5385 103.447 53.6751 103.412 53.8045C103.296 53.8045 103.269 53.8854 103.207 53.9393C103.145 53.9933 103.207 54.191 103.207 54.164C103.235 54.2322 103.244 54.3067 103.234 54.3797ZM104.535 50.4524C104.58 50.4524 104.535 50.3176 104.473 50.2907C104.411 50.2637 104.428 50.4884 104.535 50.4794V50.4524ZM106.203 52.7531H106.283C106.327 52.6183 106.425 52.3217 106.283 52.2318C106.263 52.3165 106.212 52.3904 106.14 52.4385C106.22 52.5823 106.14 52.6452 106.203 52.78V52.7531ZM106.006 50.6142C106.069 50.722 106.158 50.731 106.185 50.8119C106.211 50.8928 106.318 50.8119 106.327 50.722C106.379 50.767 106.44 50.8006 106.506 50.8209C106.506 51.0456 106.211 51.1534 106.042 51.3062C105.89 51.1174 105.721 50.9377 105.552 50.74C105.552 50.74 105.552 50.8119 105.552 50.74C105.684 50.975 105.859 51.1825 106.069 51.3511C106.154 51.3236 106.237 51.2906 106.318 51.2522C106.318 51.5488 106.087 51.7106 105.989 51.9622C105.89 52.2138 106.096 52.2318 106.078 52.3936C106.06 52.5554 105.935 52.5194 105.908 52.6183C105.882 52.7171 105.908 52.6183 105.908 52.7261C105.908 52.8339 105.855 52.8339 105.819 52.8789C105.822 52.9991 105.784 53.1166 105.711 53.2116C105.638 53.3066 105.534 53.3732 105.418 53.4001C105.293 53.2114 105.204 52.9418 105.079 52.7441C105.051 52.6595 105.051 52.5681 105.079 52.4835C105.07 52.4075 105.044 52.3346 105.002 52.2706C104.96 52.2067 104.904 52.1534 104.838 52.115C104.843 52.0552 104.843 51.9951 104.838 51.9353C104.767 51.8274 104.669 51.9353 104.598 51.8364C104.437 51.8364 104.339 52.0072 104.197 51.9982C104.054 51.9892 103.938 51.8184 103.804 51.7285C103.742 51.4589 103.697 51.1175 103.92 50.9647C103.822 50.8478 104 50.7849 103.991 50.6681C103.983 50.5513 103.929 50.6232 103.876 50.6681C103.831 50.5664 103.813 50.4552 103.822 50.3446C103.893 50.3446 104 50.2817 104.045 50.3446C104.09 50.4075 104.045 50.2457 104.045 50.2187C104.045 50.1918 103.911 50.1738 103.884 50.0929C103.96 50.0752 104.026 50.0304 104.072 49.9671C104.018 49.9132 103.902 49.9671 103.867 50.021C103.831 50.075 103.867 49.8772 103.867 49.8233C103.833 49.7755 103.787 49.7381 103.733 49.7155C103.733 49.6436 103.733 49.5897 103.733 49.5627C103.733 49.5358 103.733 49.6436 103.831 49.5627C103.831 49.7155 104.036 49.7784 104.036 49.9042C104.197 49.8233 104.081 49.7604 104.259 49.7155C104.243 49.6597 104.222 49.6055 104.197 49.5537C104.197 49.5537 104.197 49.5537 104.268 49.4998C104.223 49.7424 104.473 49.6885 104.66 49.5897V49.4728C104.66 49.4728 104.705 49.4728 104.758 49.4728C104.812 49.4728 104.714 49.4189 104.705 49.356C104.696 49.2931 104.865 49.356 104.883 49.2931C104.758 49.2931 104.624 49.4099 104.562 49.1583C104.605 49.1146 104.638 49.0626 104.66 49.0055C104.491 48.8707 104.544 49.1763 104.446 49.2212C104.348 49.2661 104.58 49.3111 104.535 49.356C104.491 49.4009 104.535 49.5897 104.411 49.6076C104.364 49.5452 104.322 49.4791 104.286 49.4099C104.214 49.4099 104.232 49.5088 104.143 49.4998C104.054 49.4908 104.081 49.4099 104.036 49.2661C104.286 49.0504 104.304 48.5202 104.723 48.655C104.883 48.6737 105.036 48.7324 105.168 48.8258C105.168 48.9516 105.052 48.8887 104.963 48.8707C104.874 48.8527 105.017 49.0415 105.142 49.0235C105.142 49.0235 105.088 49.0235 105.079 48.9606C105.07 48.8977 105.142 48.9606 105.186 48.9606C105.231 48.9606 105.186 48.9606 105.186 48.8977C105.186 48.8348 105.24 48.8348 105.32 48.8977C105.939 49.3182 106.376 49.961 106.541 50.695C106.47 50.695 106.408 50.6951 106.363 50.6501C106.203 50.7849 106.122 50.5692 106.006 50.6411V50.6142ZM105.498 50.4165C105.418 50.4884 105.329 50.4165 105.311 50.4704C105.293 50.5243 105.151 50.4075 105.124 50.2817C105.097 50.1558 105.052 50.2817 104.999 50.2817C104.945 50.2817 105.052 50.3356 105.07 50.3715C105.088 50.4075 105.07 50.4344 105.017 50.4524C104.916 50.2853 104.767 50.1535 104.589 50.0749C104.589 50.2277 104.785 50.2277 104.856 50.3266C104.749 50.2727 104.856 50.4254 104.749 50.4704C104.718 50.4829 104.683 50.4829 104.651 50.4704C104.714 50.4704 104.758 50.4704 104.776 50.4255C104.794 50.3805 104.553 50.3356 104.5 50.2008C104.411 50.2008 104.402 50.2907 104.277 50.2907C104.33 50.3805 104.277 50.3446 104.214 50.3985C104.152 50.4524 104.214 50.6501 104.045 50.6591C104.045 50.758 104.152 50.6591 104.205 50.6591C104.259 50.6591 104.518 50.5153 104.624 50.5063C104.731 50.4973 104.624 50.5962 104.624 50.6591C104.767 50.6591 104.856 50.749 104.999 50.74C104.999 50.6861 104.999 50.6501 104.999 50.6411C105.164 50.668 105.333 50.668 105.498 50.6411C105.498 50.5962 105.543 50.5513 105.498 50.4434V50.4165ZM105.659 50.1648C105.578 50.057 105.445 50.066 105.436 49.9312C105.436 49.9851 105.311 49.9312 105.347 50.0121C105.382 50.0929 105.347 50.0121 105.418 50.0121C105.383 50.0252 105.345 50.0252 105.311 50.0121C105.311 49.9581 105.311 49.9581 105.249 49.9222C105.186 49.8862 105.115 50.1379 105.204 50.1918C105.293 50.2457 105.151 50.1918 105.204 50.1918C105.302 50.1558 105.498 50.2637 105.659 50.1918V50.1648ZM105.971 50.2996C106.033 50.2996 106.033 50.3625 106.113 50.2996C106.194 50.2367 106.113 50.2996 106.113 50.2996C106.113 50.2996 106.06 50.2008 106.024 50.1558C105.989 50.1109 106.104 50.1558 106.078 50.1109C106.051 50.066 105.971 50.039 105.89 49.9941C105.81 49.9491 105.98 49.9941 105.971 49.8952C105.962 49.7964 105.819 49.9491 105.775 49.9851C105.73 50.021 106.006 50.1648 105.971 50.3266V50.2996ZM102.075 48.8258C102.35 48.6578 102.652 48.5364 102.966 48.4663C102.969 48.4962 102.969 48.5262 102.966 48.5562C102.966 48.5562 103.109 48.5562 103.118 48.646C103.127 48.7359 103.046 48.646 103.002 48.646C102.957 48.646 103.002 48.7359 103.002 48.7808C103.017 48.7539 103.037 48.7305 103.062 48.7119C103.087 48.6934 103.115 48.6801 103.145 48.673C103.141 48.737 103.123 48.7994 103.092 48.8555C103.061 48.9115 103.018 48.9598 102.966 48.9965C102.966 49.1134 102.966 49.2302 102.859 49.1942C102.752 49.1583 102.743 49.347 102.859 49.4548C102.975 49.5627 102.859 49.5088 102.806 49.5178C102.752 49.5268 102.806 49.6436 102.806 49.7424C102.806 49.8413 102.672 49.7874 102.672 49.6975C102.565 49.8413 102.458 49.6975 102.369 49.6256C102.28 49.5537 102.369 49.5717 102.369 49.5178C102.298 49.6346 102.226 49.4369 102.217 49.329C102.208 49.2212 102.351 49.1942 102.271 49.1403C102.191 49.0864 102.271 49.2302 102.191 49.2392C102.11 49.2482 102.191 49.1763 102.191 49.1223C102.191 49.0684 102.262 49.1223 102.289 49.1223C102.315 49.1223 102.217 49.0504 102.146 49.1223C102.16 49.0751 102.16 49.025 102.148 48.9775C102.135 48.93 102.11 48.8868 102.075 48.8527V48.8258ZM102.966 48.664C102.922 48.5921 102.966 48.5652 102.904 48.5472C102.841 48.5292 102.948 48.655 102.984 48.691L102.966 48.664ZM102.44 50.5513C102.417 50.6217 102.399 50.6938 102.387 50.767C102.512 50.767 102.538 50.722 102.61 50.767C102.681 50.8119 102.529 50.6861 102.565 50.6232C102.458 50.704 102.494 50.6142 102.458 50.5782L102.44 50.5513ZM103.412 49.1583C103.305 49.0864 103.252 49.1583 103.153 49.2122C103.153 49.1134 103.029 49.2122 103.046 49.2122C103.064 49.2122 103.127 49.2751 103.136 49.3201C103.192 49.3406 103.255 49.338 103.31 49.3129C103.365 49.2877 103.408 49.2419 103.43 49.1853L103.412 49.1583ZM101.691 52.106C101.816 52.0161 101.914 52.1599 102.057 52.106C102.003 52.088 101.772 52.0071 101.709 52.133L101.691 52.106ZM102.092 52.1959C102.163 52.1931 102.229 52.1643 102.28 52.115C102.235 52.115 102.101 52.115 102.101 52.115C102.101 52.115 102.11 52.1959 102.11 52.2228L102.092 52.1959ZM104.419 49.5986H104.375H104.419ZM101.629 49.8143C101.673 49.8143 101.7 49.8143 101.7 49.7424C101.7 49.6705 101.629 49.7694 101.647 49.8862L101.629 49.8143ZM103.751 49.7334C103.751 49.7334 103.751 49.7334 103.706 49.7334C103.662 49.7334 103.706 49.7964 103.653 49.7964C103.599 49.7964 103.706 49.8862 103.697 49.9671C103.688 50.048 103.76 49.9042 103.831 49.8952C103.902 49.8862 103.831 49.7514 103.769 49.7604L103.751 49.7334ZM101.513 49.2571L101.397 49.383C101.426 49.3794 101.453 49.3685 101.477 49.3512C101.5 49.3338 101.519 49.3107 101.531 49.2841L101.513 49.2571ZM100.728 52.1779C100.732 52.1987 100.732 52.22 100.728 52.2408V52.1779Z" fill="white"/>
<path fill-rule="evenodd" clip-rule="evenodd" d="M164.484 54.3797C164.264 54.3535 164.048 54.2992 163.842 54.2179C163.819 54.0683 163.783 53.921 163.735 53.7776C163.663 53.6787 163.565 53.7147 163.476 53.6338C163.387 53.5529 163.316 53.3552 163.2 53.3192C163.084 53.2833 163.111 53.0946 163.2 52.9867C163.168 52.927 163.157 52.8584 163.169 52.7918C163.18 52.7251 163.213 52.6641 163.262 52.6183C163.262 52.6183 163.262 52.6182 163.262 52.5733C163.253 52.5846 163.248 52.599 163.248 52.6138C163.248 52.6286 163.253 52.6429 163.262 52.6542C163.182 52.6542 163.128 52.5913 163.039 52.5913C162.995 52.4026 162.763 52.5104 162.674 52.4026C162.531 52.4745 162.397 52.4026 162.255 52.4026C162.112 52.4026 162.103 52.2139 161.996 52.142C161.992 52.1091 161.992 52.0759 161.996 52.0431C161.86 51.3891 161.948 50.7078 162.246 50.1109H162.29C162.29 50.1109 162.29 50.1109 162.29 50.066C162.287 50.0391 162.287 50.012 162.29 49.9851C162.29 49.9851 162.29 50.057 162.29 50.1199C162.29 50.1828 162.335 49.9941 162.389 49.9671C162.442 49.9401 162.335 49.9671 162.299 49.9671L162.389 49.8233C162.389 49.9132 162.433 49.8772 162.46 49.9671C162.487 50.057 162.504 49.9222 162.54 49.9132C162.576 49.9042 162.54 49.9941 162.54 50.021C162.54 50.048 162.54 49.8503 162.647 49.8143C162.754 49.7784 162.549 49.8143 162.487 49.8143C162.424 49.8143 162.487 49.8143 162.487 49.7604C162.478 49.7373 162.478 49.7116 162.487 49.6885L162.594 49.5537C162.575 49.5798 162.565 49.6113 162.565 49.6436C162.565 49.6759 162.575 49.7073 162.594 49.7334C162.594 49.7334 162.594 49.5178 162.701 49.4998C162.808 49.4818 162.745 49.4998 162.701 49.6076C162.656 49.7155 162.745 49.5268 162.87 49.4908C162.995 49.4549 162.923 49.4908 162.87 49.5807C162.816 49.6705 163.022 49.5807 163.137 49.5807C163.137 49.6526 163.137 49.6346 163.137 49.6885C163.211 49.7211 163.289 49.7394 163.369 49.7424C163.369 49.8233 163.325 49.8233 163.325 49.8862C163.325 49.9491 163.235 49.8233 163.173 49.8323C163.111 49.8413 163.307 49.9491 163.298 50.021C163.289 50.0929 163.209 50.021 163.155 50.021C163.102 50.021 163.218 50.021 163.244 50.066C163.084 50.2008 163.039 49.9042 162.852 50.066C162.897 49.9492 162.995 49.9761 163.013 49.8143C163.03 49.6526 162.941 49.7245 162.861 49.7694C162.915 49.6795 162.808 49.7694 162.799 49.6706C162.79 49.5717 162.745 49.7155 162.665 49.7694C162.754 49.8413 162.665 49.8323 162.718 49.9491C162.62 50.03 162.674 49.9491 162.558 50.03C162.617 50.0832 162.693 50.1148 162.772 50.1199C162.692 50.1648 162.656 50.2187 162.558 50.2187C162.46 50.2187 162.558 50.1289 162.558 50.0929C162.558 50.057 162.469 50.1648 162.442 50.0929C162.415 50.021 162.442 50.0929 162.522 50.0929C162.416 50.2139 162.335 50.3543 162.282 50.5063C162.282 50.5692 162.388 50.5063 162.371 50.6232C162.522 50.5423 162.549 50.6861 162.709 50.6232C162.709 50.6951 162.754 50.8119 162.843 50.8029C162.843 50.8029 162.843 50.713 162.79 50.695C162.736 50.6771 162.879 50.6232 162.879 50.5513C162.879 50.4794 162.879 50.4614 162.799 50.4524C162.718 50.4434 162.799 50.3266 162.799 50.2097C162.932 50.1468 162.968 50.2097 163.093 50.2097V50.3086H163.137C163.137 50.3086 163.191 50.1918 163.271 50.1738C163.3 50.2471 163.345 50.3132 163.402 50.3674C163.459 50.4217 163.527 50.463 163.601 50.4884C163.601 50.7759 163.262 50.6411 163.173 50.8478C163.173 50.8928 163.253 50.7669 163.342 50.7759C163.289 50.8658 163.342 50.9197 163.432 50.9287C163.521 50.9377 163.432 50.7939 163.512 50.8658C163.592 50.9377 163.396 51.0096 163.316 51.0635C163.235 51.1174 163.316 51.0186 163.316 50.9736C163.316 50.9287 163.218 51.0725 163.128 51.0995V51.1893C162.977 51.2433 162.986 51.423 162.968 51.5758C162.95 51.7286 162.87 51.6926 162.825 51.7555C162.781 51.8184 162.941 51.8903 162.915 51.9982C162.888 52.106 162.816 51.8813 162.763 51.8184C162.718 51.8903 162.567 51.7465 162.558 51.8813C162.183 51.8813 162.219 52.4205 162.558 52.3307C162.602 52.3307 162.602 52.2678 162.602 52.2138H162.736C162.736 52.2678 162.736 52.3666 162.736 52.4026C162.736 52.4385 162.906 52.4026 162.941 52.4026C162.93 52.4478 162.937 52.4956 162.96 52.5358C162.984 52.5761 163.022 52.6056 163.066 52.6183C163.12 52.6183 163.066 52.5733 163.173 52.6183C163.236 52.6631 163.309 52.6908 163.386 52.6987C163.462 52.7066 163.539 52.6943 163.61 52.6632C163.708 52.8789 164.011 52.7351 164.109 52.9508C164.109 53.0227 164.065 53.0227 164.109 53.0766C164.154 53.1305 164.109 53.0316 164.163 53.0227C164.367 53.0267 164.568 53.0758 164.751 53.1665C164.761 53.223 164.759 53.2812 164.746 53.337C164.732 53.3928 164.706 53.4449 164.671 53.49C164.706 53.6194 164.706 53.756 164.671 53.8854C164.555 53.8854 164.528 53.9663 164.466 54.0202C164.403 54.0741 164.466 54.2719 164.466 54.2449C164.479 54.2885 164.485 54.3341 164.484 54.3797ZM165.785 50.4524C165.83 50.4524 165.785 50.3176 165.723 50.2907C165.661 50.2637 165.687 50.4344 165.785 50.4255V50.4524ZM167.453 52.7531H167.533C167.533 52.6183 167.675 52.3217 167.533 52.2318C167.523 52.2749 167.504 52.3154 167.478 52.351C167.452 52.3866 167.419 52.4163 167.381 52.4385C167.47 52.5194 167.39 52.5823 167.453 52.7261V52.7531ZM167.256 50.6142C167.319 50.722 167.408 50.731 167.435 50.8119C167.461 50.8928 167.577 50.8119 167.577 50.722C167.629 50.767 167.69 50.8006 167.756 50.8209C167.711 51.0456 167.461 51.1534 167.292 51.3062C167.14 51.1174 166.971 50.9377 166.811 50.74C166.811 50.74 166.811 50.8119 166.766 50.74C166.898 50.975 167.074 51.1825 167.283 51.3511C167.369 51.3267 167.453 51.2936 167.533 51.2522C167.533 51.5578 167.301 51.7106 167.203 51.9712C167.105 52.2318 167.319 52.2318 167.292 52.3936C167.265 52.5554 167.149 52.5194 167.132 52.6183C167.114 52.7171 167.132 52.6183 167.132 52.7261C167.132 52.8339 167.078 52.8339 167.042 52.8789C167.045 52.9991 167.007 53.1166 166.934 53.2116C166.861 53.3066 166.757 53.3732 166.641 53.4001C166.516 53.2114 166.436 52.9508 166.302 52.7441C166.27 52.6603 166.27 52.5673 166.302 52.4835C166.29 52.4084 166.263 52.3368 166.221 52.2733C166.18 52.2098 166.125 52.1558 166.062 52.115C166.062 52.0701 166.062 51.9982 166.062 51.9353C166.062 51.8723 165.892 51.9353 165.821 51.8364C165.66 51.8903 165.562 52.0071 165.42 52.0071C165.277 52.0071 165.161 51.8184 165.028 51.7285C164.965 51.4589 164.929 51.1175 165.143 50.9647C165.045 50.8478 165.224 50.7849 165.215 50.6681C165.206 50.5513 165.152 50.6232 165.099 50.6681C165.058 50.5657 165.042 50.4545 165.054 50.3446C165.117 50.3446 165.224 50.2817 165.268 50.3446C165.313 50.4075 165.268 50.2367 165.268 50.2097C165.268 50.1828 165.134 50.1648 165.108 50.0929C165.182 50.0684 165.248 50.0213 165.295 49.9581C165.241 49.9042 165.126 49.9581 165.09 50.0121C165.054 50.066 165.09 49.8683 165.09 49.8143C165.09 49.7604 165.036 49.7514 164.956 49.7065C164.876 49.6615 164.956 49.5807 164.956 49.5537C164.956 49.5268 164.956 49.6346 165.054 49.5537C165.054 49.7065 165.259 49.7694 165.268 49.8952C165.42 49.8143 165.268 49.7514 165.482 49.7065C165.467 49.6507 165.446 49.5965 165.42 49.5447C165.42 49.5447 165.42 49.5447 165.491 49.4908C165.447 49.7335 165.696 49.6885 165.883 49.5807V49.4638C165.883 49.4638 165.937 49.4638 165.981 49.4638C166.026 49.4638 165.937 49.4099 165.928 49.347C165.919 49.2841 166.088 49.347 166.106 49.2841C165.981 49.2841 165.848 49.4009 165.785 49.1493C165.828 49.1056 165.861 49.0537 165.883 48.9965C165.714 48.8617 165.767 49.1673 165.669 49.2122C165.571 49.2571 165.803 49.3021 165.759 49.347C165.714 49.3919 165.759 49.5807 165.634 49.6076C165.509 49.6346 165.545 49.4728 165.509 49.4009C165.473 49.329 165.455 49.4998 165.366 49.4908C165.277 49.4818 165.304 49.4009 165.259 49.2571C165.518 49.0504 165.527 48.5112 165.946 48.646C166.109 48.6661 166.264 48.7246 166.4 48.8168C166.4 48.9426 166.285 48.8797 166.187 48.8617C166.088 48.8437 166.24 49.0325 166.365 49.0145C166.365 49.0145 166.311 49.0145 166.302 48.9516C166.293 48.8887 166.365 48.9516 166.418 48.9516C166.472 48.9516 166.418 48.9516 166.418 48.8887C166.418 48.8258 166.472 48.8258 166.552 48.8887C167.169 49.3134 167.607 49.9539 167.782 50.6861C167.702 50.6861 167.64 50.6861 167.595 50.6411C167.453 50.7849 167.337 50.5153 167.256 50.5872V50.6142ZM166.748 50.4165C166.668 50.4884 166.588 50.4165 166.561 50.4704C166.534 50.5243 166.409 50.4075 166.374 50.2817C166.338 50.1558 166.302 50.2817 166.249 50.2817C166.195 50.2817 166.302 50.3356 166.32 50.3715C166.338 50.4075 166.32 50.4434 166.267 50.4524C166.166 50.2853 166.017 50.1535 165.839 50.0749C165.839 50.2277 166.035 50.2277 166.106 50.3266C165.999 50.2727 166.106 50.4254 166.008 50.4704C165.993 50.4783 165.976 50.4824 165.959 50.4824C165.942 50.4824 165.925 50.4783 165.91 50.4704C165.933 50.4736 165.956 50.4712 165.978 50.4634C166 50.4556 166.019 50.4426 166.035 50.4255C165.973 50.2906 165.812 50.3356 165.75 50.2008C165.661 50.2008 165.652 50.2907 165.527 50.2907C165.58 50.3805 165.482 50.3446 165.464 50.3985C165.447 50.4524 165.464 50.6501 165.295 50.6591C165.295 50.758 165.402 50.6591 165.455 50.6591C165.509 50.6591 165.767 50.5153 165.874 50.5063C165.981 50.4973 165.874 50.5962 165.874 50.6591C166.017 50.6591 166.106 50.749 166.258 50.74C166.258 50.6861 166.258 50.6501 166.258 50.6411C166.423 50.668 166.592 50.668 166.757 50.6411C166.757 50.5423 166.793 50.4973 166.748 50.3895V50.4165ZM166.909 50.1648C166.828 50.057 166.704 50.066 166.686 49.9312C166.686 49.9851 166.57 49.9312 166.597 50.0121C166.623 50.0929 166.641 50.0121 166.668 50.0121C166.636 50.0237 166.602 50.0237 166.57 50.0121C166.525 49.9581 166.57 49.9581 166.499 49.9222C166.427 49.8862 166.365 50.1379 166.454 50.1918C166.543 50.2457 166.409 50.1918 166.454 50.1918C166.561 50.1019 166.748 50.2098 166.909 50.1379V50.1648ZM167.221 50.2996C167.283 50.2996 167.283 50.3625 167.363 50.2996C167.444 50.2367 167.363 50.2996 167.363 50.2996C167.363 50.2996 167.31 50.2008 167.274 50.1558C167.239 50.1109 167.363 50.1558 167.328 50.1558C167.292 50.1558 167.221 50.084 167.14 50.039C167.06 49.9941 167.23 50.039 167.221 49.9402C167.212 49.8413 167.069 49.9941 167.025 50.03C166.98 50.066 167.256 50.1109 167.221 50.2727V50.2996ZM163.325 48.8258C163.6 48.6578 163.902 48.5364 164.216 48.4663V48.5562C164.216 48.5562 164.359 48.5562 164.368 48.646C164.377 48.7359 164.296 48.646 164.252 48.646C164.207 48.646 164.252 48.7359 164.252 48.7808C164.267 48.7539 164.287 48.7305 164.312 48.7119C164.337 48.6934 164.365 48.6801 164.395 48.673C164.393 48.7375 164.376 48.8007 164.345 48.8571C164.314 48.9135 164.27 48.9614 164.216 48.9965C164.216 49.1134 164.216 49.2302 164.109 49.1942C164.002 49.1583 163.993 49.347 164.109 49.4548C164.225 49.5627 164.109 49.5088 164.056 49.5268C164.002 49.5447 164.056 49.6436 164.056 49.7424C164.056 49.8413 163.922 49.7874 163.922 49.6975C163.815 49.8413 163.708 49.6975 163.619 49.6256C163.53 49.5537 163.619 49.5717 163.619 49.5178C163.548 49.6346 163.476 49.4369 163.467 49.338C163.458 49.2392 163.601 49.1942 163.521 49.1403C163.441 49.0864 163.521 49.2302 163.441 49.2392C163.36 49.2482 163.441 49.1763 163.441 49.1223C163.455 49.1137 163.472 49.1091 163.49 49.1091C163.507 49.1091 163.524 49.1137 163.539 49.1223C163.539 49.0235 163.467 49.0504 163.396 49.1223C163.421 49.0681 163.428 49.0068 163.415 48.9482C163.403 48.8896 163.371 48.837 163.325 48.7988V48.8258ZM164.216 48.664C164.216 48.5921 164.216 48.5652 164.154 48.5472C164.091 48.5292 164.198 48.6011 164.234 48.637L164.216 48.664ZM163.69 50.5513C163.667 50.6217 163.649 50.6938 163.637 50.767C163.77 50.767 163.788 50.722 163.86 50.767C163.931 50.8119 163.779 50.6861 163.815 50.6232C163.708 50.6501 163.77 50.5602 163.708 50.5243L163.69 50.5513ZM164.662 49.1583C164.564 49.0864 164.501 49.1583 164.403 49.2122C164.403 49.1134 164.279 49.2122 164.305 49.2122C164.332 49.2122 164.377 49.2751 164.386 49.3201C164.416 49.3266 164.448 49.3268 164.478 49.3208C164.509 49.3147 164.538 49.3025 164.564 49.2849C164.589 49.2673 164.611 49.2446 164.628 49.2182C164.645 49.1918 164.657 49.1623 164.662 49.1313V49.1583ZM162.941 52.106C163.066 52.0161 163.164 52.1599 163.307 52.106C163.253 52.0341 163.022 51.9532 162.959 52.079L162.941 52.106ZM163.342 52.1959C163.377 52.1959 163.412 52.1887 163.444 52.1748C163.477 52.1609 163.506 52.1406 163.53 52.115C163.485 52.115 163.36 52.115 163.351 52.115C163.342 52.115 163.351 52.115 163.351 52.115C163.351 52.115 163.36 52.142 163.36 52.1689L163.342 52.1959ZM165.669 49.5986H165.714H165.669ZM162.879 49.8143C162.923 49.8143 162.95 49.8143 162.95 49.7424C162.95 49.6705 162.879 49.7245 162.879 49.7874V49.8143ZM165.001 49.7334C165.001 49.7334 165.001 49.7964 164.956 49.7964C164.912 49.7964 165.001 49.8862 164.956 49.9671C164.912 50.048 165.028 49.9042 165.09 49.8952C165.152 49.8862 165.081 49.6975 165.019 49.7065L165.001 49.7334ZM162.763 49.2571L162.647 49.383C162.683 49.3754 162.715 49.3564 162.739 49.3289C162.763 49.3014 162.778 49.2667 162.781 49.2302L162.763 49.2571ZM161.978 52.1779C161.982 52.1987 161.982 52.22 161.978 52.2408V52.1779Z" fill="white"/>
</g>
<defs>
<clipPath id="clip0">
<rect width="183" height="55" fill="white" transform="translate(0.5)"/>
</clipPath>
</defs>
</svg>
