<svg width="398" height="283" viewBox="0 0 398 283" fill="none" xmlns="http://www.w3.org/2000/svg">
<path d="M375.261 282.98H323.259C317.497 283.219 311.871 281.219 307.611 277.418C303.351 273.616 300.802 268.321 300.52 262.689V20.3983C300.814 14.7701 303.367 9.48263 307.624 5.68363C311.882 1.88463 317.5 -0.119289 323.259 0.107142H375.261C381.021 -0.119289 386.639 1.88463 390.896 5.68363C395.153 9.48263 397.706 14.7701 398 20.3983V262.689C397.706 268.317 395.153 273.605 390.896 277.404C386.639 281.203 381.021 283.207 375.261 282.98" fill="white"/>
<path d="M218.93 280.397C216.244 281.783 213.289 282.598 210.258 282.789C207.228 282.98 204.19 282.543 201.344 281.506C191.133 276.376 191.558 259.967 189.903 227.844C188.485 200.943 187.776 187.493 185.649 172.748C182.103 148.575 178.652 126.851 163.808 104.896C155.093 92.062 143.842 81.0615 130.715 72.541C97.1031 50.8634 48.0793 44.8083 43.6355 44.1612C30.9186 42.6359 16.9725 42.0351 11.6304 32.7446C10.0604 29.6351 9.33162 26.184 9.5137 22.7208C9.69577 19.2576 10.7826 15.8978 12.6705 12.962C18.4853 3.99514 30.8241 2.56238 54.8869 1.36063C86.4664 -0.257106 100.696 0.297553 128.683 0.0664472C157.898 0.0664472 169.812 -0.996666 186.783 5.38184C195.645 8.41181 203.806 13.1242 210.799 19.2482C225.454 32.5598 229.709 49.8465 232.214 61.5404C241.102 104.341 238.974 142.196 236.942 200.897C235.287 247.488 234.862 272.124 218.883 280.259" fill="white"/>
<path d="M86.041 282.477L35.1734 282.708C29.4718 282.948 23.9032 280.982 19.6737 277.236C15.4441 273.49 12.8941 268.265 12.5761 262.694L12.0562 159.298C12.3021 153.715 14.7958 148.453 18.9936 144.661C23.1913 140.868 28.7525 138.853 34.4643 139.053L85.3319 138.822C91.0368 138.57 96.6123 140.532 100.845 144.28C105.077 148.029 107.623 153.26 107.929 158.836L108.402 262.232C108.156 267.807 105.669 273.061 101.481 276.852C97.2939 280.643 91.7448 282.665 86.041 282.477" fill="white"/>
<path d="M258.552 159.198C219.881 204.633 167.028 246.417 103.16 254.598C72.8571 258.481 37.9212 253.905 15.6075 232.828C-3.77513 214.339 -6.32808 184.943 14.8983 166.963C-15.3103 225.386 66.2386 245.539 112.757 238.19C169.723 228.945 217.612 195.204 258.552 159.198Z" fill="#F4807F"/>
<path d="M383.924 148.846L368.087 103.596L367.851 102.81L356.694 71.0101C376.124 49.8871 375.367 44.849 371.585 41.7522C367.803 38.6554 362.13 38.4705 341.85 58.8078L255.337 42.6304C254.128 42.5124 252.908 42.6403 251.753 43.0062C250.597 43.3721 249.532 43.9681 248.624 44.7566C246.591 46.8365 243.329 50.3032 243.329 50.3032L322.514 79.2837C309.514 93.6585 296.182 109.651 287.578 121.391L262.806 119.681C261.915 119.713 261.069 120.076 260.443 120.698L258.41 122.824L280.96 131.236C279.57 133.143 278.662 135.345 278.312 137.661C276.629 139.323 275.168 141.187 273.963 143.208C275.921 141.857 277.728 140.308 279.352 138.585C281.774 138.041 284.037 136.966 285.971 135.442L297.553 155.225L299.586 153.099C299.872 152.795 300.091 152.438 300.229 152.048C300.367 151.659 300.422 151.245 300.39 150.834L295.662 128.232C307.292 118.988 322.892 104.844 336.838 91.255L376.927 160.864L382.27 155.317C383.038 154.437 383.587 153.395 383.874 152.272C384.161 151.149 384.178 149.977 383.924 148.846V148.846Z" fill="#F4807F"/>
</svg>
